<svg width="66" height="66" viewBox="0 0 66 66" fill="none" xmlns="http://www.w3.org/2000/svg">
<path d="M50.3611 41.0187C50.3597 41.0242 50.3586 41.0314 50.356 41.0523L50.3611 41.0187ZM50.3611 41.0187L50.1671 40.9702M50.3611 41.0187L50.1671 40.9702M50.1671 40.9702L49.973 40.9217M50.1671 40.9702L49.973 40.9217M49.973 40.9217C49.9653 40.9528 49.9616 40.9823 49.9594 41L49.973 40.9217ZM50.342 41.1333C50.3497 41.1023 50.3534 41.0727 50.3556 41.055L49.959 41.0027C49.9564 41.0236 49.9553 41.0308 49.9539 41.0363L50.1479 41.0848L50.342 41.1333Z" fill="black" stroke="black" stroke-width="0.4"/>
<path d="M50.0549 40.3521L50.4514 40.4052C50.5577 39.642 50.6157 38.8592 50.6157 38.0568C50.6157 35.2645 49.9489 32.6267 48.78 30.2887L48.419 30.4609C50.3581 34.7269 50.3188 38.2979 50.0549 40.3521Z" fill="black" stroke="black" stroke-width="0.4"/>
<path d="M50.0546 40.3508L50.0547 40.3502C50.1585 39.6047 50.2152 38.84 50.2247 38.0654C50.2245 35.3379 49.5733 32.7615 48.4312 30.4774L48.7839 30.2889L48.6101 30.3879C48.7839 30.2889 48.7839 30.289 48.784 30.2891L48.7841 30.2894L48.7846 30.2903L48.7864 30.2934L48.7928 30.3048C48.7983 30.3148 48.8062 30.3292 48.8165 30.3482C48.8369 30.3861 48.8663 30.4419 48.9032 30.5147C48.9768 30.6603 49.0801 30.8741 49.1998 31.1491C49.4393 31.6992 49.7451 32.4952 50.0125 33.4826C50.547 35.4567 50.9293 38.2013 50.3152 41.2765C50.3152 41.2765 50.3152 41.2766 50.3152 41.2766L49.923 41.1982C49.9331 41.1472 49.943 41.0963 49.9527 41.0455C49.9533 41.0424 49.9538 41.0393 49.9544 41.0362C49.9605 41.0039 49.9665 40.9715 49.9724 40.9392L49.9693 40.9388C49.9697 40.9363 49.9701 40.9338 49.9705 40.9313M50.0546 40.3508L50.2305 38.0666C50.2305 38.7967 50.1817 39.5613 50.0681 40.3521C50.0681 40.3523 50.0681 40.3524 50.068 40.3526C50.041 40.541 50.0102 40.7309 49.9755 40.9221L49.9728 40.9214C49.972 40.9248 49.9712 40.9281 49.9705 40.9313M50.0546 40.3508C50.0265 40.5574 49.9984 40.7538 49.9705 40.9313M50.0546 40.3508L50.1191 41.2374L49.923 41.1981C49.9273 41.1763 49.9318 41.1518 49.9366 41.1252L49.9368 41.1242C49.9415 41.0986 49.9465 41.0709 49.9516 41.0453L49.9535 41.036L49.9537 41.036C49.9551 41.0305 49.9562 41.0234 49.9588 41.0024L49.9592 40.9998C49.9611 40.984 49.9643 40.9587 49.9705 40.9313M50.3431 41.1276C50.35 41.0986 50.3533 41.0714 50.3554 41.0547L50.3557 41.0521C50.3584 41.0311 50.3595 41.0239 50.3609 41.0184L50.363 41.0099L50.3644 41.0011C50.3933 40.8178 50.4222 40.6158 50.4509 40.4051L50.3431 41.1276Z" fill="black" stroke="black" stroke-width="0.4"/>
<path d="M50.8463 42.3967L51.0426 42.444L51.088 42.2472C51.117 42.1215 51.1459 41.9865 51.1744 41.8535L51.1746 41.8526L51.1748 41.8526L51.1764 41.8436C51.1948 41.7328 51.2227 41.5931 51.2516 41.4488L51.291 41.2515L51.0935 41.2132L49.2216 40.8503L49.0306 40.8132L48.9883 41.0032L48.9501 41.1752L48.9485 41.1827L48.9474 41.1903C48.944 41.214 48.9388 41.237 48.9314 41.2691C48.9312 41.2699 48.931 41.2707 48.9308 41.2716C48.9244 41.2995 48.9162 41.3349 48.9103 41.3739C48.8991 41.4258 48.8868 41.4796 48.8749 41.5315C48.8596 41.5986 48.845 41.6623 48.8346 41.7141L48.7969 41.9027L48.9839 41.9478L50.8463 42.3967Z" fill="black" stroke="black" stroke-width="0.4"/>
<path d="M50.1612 42.0179L49.7712 41.9289C49.8352 41.6457 49.8904 41.3621 49.9459 41.0753C49.9478 41.0652 49.9497 41.0552 49.9517 41.0455L50.3441 41.1227L50.3439 41.1239L50.3438 41.1243C50.3421 41.133 50.3404 41.1418 50.3388 41.1505C50.336 41.1651 50.3332 41.1806 50.3302 41.1969L50.33 41.1978C50.3254 41.2232 50.3205 41.2506 50.3154 41.276M50.1612 42.0179L49.9663 41.9729L50.1614 42.017C50.2173 41.7693 50.2666 41.5219 50.3143 41.2766L50.3152 41.2767C50.3153 41.2765 50.3153 41.2763 50.3154 41.276M50.1612 42.0179C50.2193 41.7662 50.2675 41.5249 50.3154 41.276M50.1612 42.0179L50.3146 41.2751L50.3155 41.2753C50.3155 41.2755 50.3154 41.2758 50.3154 41.276" fill="black" stroke="black" stroke-width="0.4"/>
<path d="M49.9697 40.9386L50.3634 41.009C50.3907 40.8721 50.4095 40.7256 50.4273 40.5861C50.4318 40.5509 50.4362 40.516 50.4408 40.482C50.4443 40.4563 50.4478 40.4306 50.4514 40.4047L50.0552 40.3494C50.0508 40.3801 50.0467 40.4102 50.0428 40.4397C50.0183 40.6165 49.994 40.7848 49.9697 40.9386Z" fill="black" stroke="black" stroke-width="0.4"/>
<path d="M24.2924 54.3027L23.8943 53.9921L21.9842 52.5023L21.9837 52.5019C17.5045 48.988 14.9257 43.7348 14.9257 38.0665C14.9257 34.0886 16.1812 30.3029 18.5564 27.1166L18.5567 27.1163L20.4668 24.5663L20.8665 24.0327L20.8265 24.6982L20.6355 27.8783L24.2924 54.3027ZM24.2924 54.3027L24.2149 53.8037M24.2924 54.3027L24.2149 53.8037M24.2149 53.8037L23.8424 51.4066L23.8424 51.4059C23.191 47.2986 23.8568 43.8259 25.7794 41.0361M24.2149 53.8037L25.7794 41.0361M25.7794 41.0361C25.8976 41.5347 26.0997 42.0544 26.4155 42.5732C26.4155 42.5732 26.4155 42.5732 26.4155 42.5733L25.7794 41.0361ZM24.0999 34.0687C23.4242 34.5225 22.5851 34.5819 21.5785 34.3155L21.5777 34.3153C20.9825 34.1552 20.3525 33.8536 19.8051 33.3075C19.3476 32.851 18.9545 32.2305 18.6856 31.3945C17.7317 33.4715 17.2358 35.7279 17.2358 38.0665C17.2358 42.0486 18.6877 45.7965 21.2937 48.7076C21.2512 43.8393 23.07 39.7183 26.6577 36.6818C26.6577 36.6818 26.6577 36.6818 26.6577 36.6818L31.2038 32.833L31.5035 33.0902L28.39 38.1616L28.3861 38.168L28.3859 38.1679C28.3861 38.1677 28.3859 38.1679 28.3854 38.1687C28.3826 38.1734 28.3693 38.1956 28.348 38.2361C28.3242 38.2813 28.2922 38.346 28.2568 38.4273C28.1858 38.5903 28.1017 38.8188 28.0411 39.0923C27.9328 39.5812 27.9011 40.2065 28.1471 40.8594C28.4099 40.6268 28.7661 40.2375 29.1747 39.6825C29.6933 38.9782 30.2887 38.0172 30.8758 36.7956C31.5575 35.3754 32.1619 33.6903 32.4553 32.0584C32.7496 30.4216 32.7261 28.8652 32.1827 27.6826L32.1826 27.6824L30.5591 24.1392L30.8636 23.8979L33.9483 26.295L24.0999 34.0687ZM24.0999 34.0687C24.6969 33.6706 25.0369 33.0729 25.2605 32.3344C25.4825 31.601 25.5964 30.7037 25.7247 29.687L25.7274 29.6665C25.9752 27.7602 26.2802 25.414 27.363 22.8246L27.3632 22.8243C28.6732 19.6783 30.8231 16.9418 33.9196 14.4916C34.5547 16.2899 35.8595 19.3518 38.1899 22.5963C39.2007 24.0189 40.6594 24.8498 42.1573 25.7031L42.1691 25.7098C42.1691 25.7098 42.1691 25.7098 42.1692 25.7098C44.2229 26.8848 46.2987 28.0803 47.5683 30.8718C49.3443 34.7828 49.3915 38.1231 49.1189 40.2906C49.1042 40.3741 49.0921 40.4592 49.0804 40.542L49.0781 40.5584C49.0671 40.6371 49.0562 40.714 49.0435 40.7906L49.0253 40.8816C49.0253 40.8818 49.0252 40.882 49.0252 40.8822C49.0064 40.9733 48.9889 41.0621 48.9718 41.1495C48.9352 41.3364 48.8999 41.5163 48.8552 41.6949C48.3836 43.5727 47.5306 45.3724 46.3083 47.0866C45.4511 40.9681 42.5415 35.9136 39.7644 32.3236C36.9125 28.637 34.1917 26.4838 33.9484 26.2951L24.0999 34.0687ZM34.9542 30.3702C38.3248 33.8202 43.9798 40.9318 44.2269 50.0292L44.2269 50.0296L44.2937 52.3408L44.3077 52.8236L44.6392 52.4722L46.2245 50.7914C48.6801 48.1914 50.3227 45.3155 51.0866 42.2405C51.1646 41.9287 51.2228 41.6083 51.2797 41.2955L51.2803 41.2922L51.2804 41.2922L51.2812 41.2868L51.2995 41.1679C51.326 41.0408 51.3444 40.905 51.3647 40.7551C51.3743 40.6839 51.3844 40.6094 51.396 40.5312L51.396 40.5312L51.3966 40.5265C51.6963 38.1101 51.6468 34.3184 49.6517 29.9138C48.0823 26.4456 45.5324 24.9839 43.3221 23.7168L43.2947 23.7011L43.2943 23.7009L43.2545 23.678C41.8856 22.889 40.751 22.2351 40.0434 21.2462L40.0432 21.246C38.3923 18.9451 37.2914 16.7172 36.6021 15.06C36.2576 14.2316 36.0162 13.5464 35.8605 13.0666C35.7827 12.8268 35.7263 12.6384 35.6892 12.5092C35.6707 12.4446 35.6569 12.3948 35.6478 12.3608L35.6374 12.3218L35.6347 12.3115C35.6342 12.3096 35.6339 12.3085 35.6338 12.3081C35.6338 12.3081 35.6338 12.308 35.6338 12.308L35.6338 12.3079L35.2997 10.9524L35.2298 10.6691L34.9908 10.8364L33.8447 11.6386L33.8436 11.6394C29.7023 14.5797 26.8772 17.9503 25.2082 21.925L25.208 21.9256C24.0116 24.7968 23.6711 27.4296 23.4233 29.3459L23.4178 29.388L23.4176 29.3895C23.341 30.0166 23.2583 30.6747 23.1504 31.2051C23.0963 31.4707 23.0374 31.6968 22.9725 31.8677C22.9057 32.0439 22.8463 32.1228 22.8125 32.1476C22.8106 32.1485 22.8072 32.15 22.8018 32.1518C22.7929 32.1547 22.7803 32.1579 22.7633 32.1606C22.7289 32.1661 22.6823 32.1688 22.6232 32.1662C22.5049 32.1611 22.3507 32.1358 22.1698 32.086L22.169 32.0858C21.6085 31.9341 21.1925 31.5335 20.9295 30.8431C20.6635 30.1447 20.5598 29.1601 20.6355 27.8785L34.9542 30.3702ZM30.8951 55.0181L30.9131 55.2174L31.1124 55.1993C31.2779 55.1842 33.2225 54.9954 35.1915 54.0734C37.1624 53.1505 39.1932 51.4735 39.4402 48.4744L39.4567 48.2747L39.2569 48.2586L37.3564 48.1058L37.1574 48.0898L37.141 48.2888C36.9782 50.269 35.475 51.4198 33.9443 52.084C32.5069 52.7078 31.1026 52.8766 30.9109 52.8996C30.899 52.901 30.8918 52.9019 30.8895 52.9023L30.7065 52.9328L30.7232 53.1176L30.8951 55.0181Z" fill="black" stroke="black" stroke-width="0.4"/>
</svg>
