<svg width="66" height="66" viewBox="0 0 66 66" fill="none" xmlns="http://www.w3.org/2000/svg">
<path d="M44.2496 55.3608L44.2498 55.3629C44.2862 55.7179 44.5152 56.0238 44.8581 56.1447C44.9597 56.1815 45.0691 56.1997 45.1709 56.1997C45.4087 56.1997 45.6483 56.1085 45.8251 55.9317L45.8252 55.9316L55.1704 46.5792L55.1704 46.5792L55.1729 46.5767C55.4192 46.3212 55.5032 45.9461 55.3837 45.6132C55.263 45.2698 54.9569 45.0404 54.6015 45.0039L54.5993 45.0037L48.0559 44.4082L39.796 23.5429L39.796 23.5429L39.7945 23.5392C39.6761 23.2568 39.429 23.0449 39.1243 22.9803C38.8199 22.9157 38.5055 23.0083 38.2842 23.2295L22.4754 39.0384C22.2541 39.2597 22.1616 39.5741 22.2262 39.8785C22.29 40.1792 22.4997 40.438 22.7894 40.5504C22.7897 40.5505 22.7899 40.5506 22.7902 40.5507L43.647 48.8173L44.2496 55.3608ZM45.916 53.2385L45.4423 48.0878L45.4421 48.0852C45.4055 47.7382 45.1853 47.4429 44.8625 47.3138L44.8619 47.3135L24.7717 39.3515L38.5974 25.5259L46.5594 45.616L46.5596 45.6166C46.6871 45.9354 46.9808 46.1681 47.335 46.1966C47.3354 46.1966 47.3358 46.1967 47.3362 46.1967L52.4844 46.6702L45.916 53.2385Z" fill="black" stroke="black" stroke-width="0.4"/>
<path d="M11.0168 26.6697L11.0168 26.6697L11.0147 26.669C10.7322 26.5779 10.4275 26.6227 10.1868 26.798C9.93838 26.9734 9.8 27.2512 9.8 27.5455V33.4963C9.8 33.9574 10.1487 34.3539 10.6036 34.4098C10.6037 34.4098 10.6039 34.4098 10.604 34.4098L22.2892 35.8894C22.3414 35.8991 22.3839 35.8991 22.4119 35.899H22.4145C22.6909 35.899 22.967 35.7709 23.1435 35.5394L25.3159 32.7536C25.5026 32.5194 25.5556 32.2062 25.4737 31.924C25.3905 31.6373 25.1691 31.4062 24.882 31.3131C24.8816 31.313 24.8812 31.3129 24.8808 31.3127L11.0168 26.6697ZM23.0577 32.6571L22.0092 33.9986L11.6444 32.6846V28.8274L23.0577 32.6571Z" fill="black" stroke="black" stroke-width="0.4"/>
<path d="M25.6696 12.0165L25.6697 12.0168L30.3127 25.8808C30.3129 25.8812 30.313 25.8816 30.3131 25.8819C30.406 26.1688 30.6368 26.39 30.9231 26.4735C31.0173 26.5016 31.102 26.5105 31.1892 26.5105C31.3873 26.5105 31.5934 26.448 31.7571 26.3059L34.539 24.1366C34.8006 23.9395 34.9269 23.6159 34.8905 23.2979L34.8902 23.2955L33.4098 11.604C33.4098 11.6039 33.4098 11.6037 33.4098 11.6036C33.3539 11.1487 32.9574 10.8 32.4963 10.8H26.5455C26.2512 10.8 25.9734 10.9384 25.798 11.1868C25.6229 11.4273 25.5774 11.7398 25.6696 12.0165ZM31.65 24.0576L27.8272 12.6444H31.6845L32.9915 23.0091L31.65 24.0576Z" fill="black" stroke="black" stroke-width="0.4"/>
<path d="M22.7601 24.2117L22.76 24.2119L22.7689 24.2153C22.8801 24.2581 22.9986 24.2864 23.1296 24.2864C23.3888 24.2864 23.6375 24.1755 23.8124 23.9823L23.8124 23.9823L23.8143 23.9801C24.0816 23.6759 24.1166 23.2518 23.9258 22.9064L23.9258 22.9064L23.9241 22.9035L17.7646 12.1875C17.6146 11.9171 17.3286 11.7435 17.0247 11.725L17.0247 11.7249L17.0183 11.7248C16.7066 11.7159 16.4183 11.842 16.2314 12.0937L11.6965 18.1017L11.6965 18.1017L11.6962 18.1022C11.5228 18.3334 11.4921 18.6363 11.5534 18.8902C11.6188 19.1609 11.813 19.3918 12.0725 19.5034C12.0728 19.5035 12.0732 19.5036 12.0735 19.5038L22.7601 24.2117ZM16.8671 14.3159L20.9269 21.3832L13.8726 18.2783L16.8671 14.3159Z" fill="black" stroke="black" stroke-width="0.4"/>
</svg>
