<svg id="圖層_1" data-name="圖層 1" xmlns="http://www.w3.org/2000/svg" viewBox="0 0 178 37"><defs><style>.cls-1{fill:#f2f2f2;}</style></defs><g id="圖層_2" data-name="圖層 2"><path class="cls-1" d="M51.4,30.2h-.3a1.45,1.45,0,0,1-1-.7c-2.4-3.3-4.7-6.4-6.8-9.1a1.38,1.38,0,0,1-.3-1.2,1.45,1.45,0,0,1,.7-1,1.69,1.69,0,0,1,1-.3H45a2.38,2.38,0,0,1,1.1.6l2.4,3.1h.2a23.08,23.08,0,0,0,5.8-4,14.6,14.6,0,0,0,3.5-5H40.4a1.16,1.16,0,0,1-1-.4,1.28,1.28,0,0,1-.4-1,1.78,1.78,0,0,1,.4-1,1.43,1.43,0,0,1,1-.4H59.9a1.78,1.78,0,0,1,1,.4,1.28,1.28,0,0,1,.4,1,5.69,5.69,0,0,1-.4,2.6,17.73,17.73,0,0,1-4,5.8,25.24,25.24,0,0,1-6.6,4.6v.1q1.8,2.55,2.4,3.3a1.72,1.72,0,0,1,.2,1.2,1.59,1.59,0,0,1-.8,1A.67.67,0,0,1,51.4,30.2Z"/><path class="cls-1" d="M59.9,10.1a1.28,1.28,0,0,1,1,.4,1.09,1.09,0,0,1,.4.9,7.27,7.27,0,0,1-.4,2.5,17.73,17.73,0,0,1-4,5.8,24.73,24.73,0,0,1-6.5,4.6c-.1,0-.1.1-.1.2a.1.1,0,0,0,.1.1q1.8,2.55,2.4,3.3A1.39,1.39,0,0,1,53,29a1.27,1.27,0,0,1-.7.9,2.77,2.77,0,0,1-.9.1h-.3a1.7,1.7,0,0,1-1-.6c-2.4-3.3-4.6-6.4-6.8-9.2a1.16,1.16,0,0,1-.2-1,1.46,1.46,0,0,1,.6-.9,1.61,1.61,0,0,1,.9-.3h.3a1.7,1.7,0,0,1,1,.6l2.4,3.1c0,.1.1.1.2.1h.2a23.08,23.08,0,0,0,5.8-4,14.87,14.87,0,0,0,3.6-5c0-.1,0-.2-.1-.2H40.4a1.28,1.28,0,0,1-1-.4,1.09,1.09,0,0,1-.4-.9,1.49,1.49,0,0,1,.4-.9,1.28,1.28,0,0,1,1-.4H59.9m0-.1H40.4a2.1,2.1,0,0,0-1.1.4,1.55,1.55,0,0,0-.1,2.1l.1.1a1.61,1.61,0,0,0,1.1.5H57.7a13.11,13.11,0,0,1-3.5,4.6,23.08,23.08,0,0,1-5.8,4h0L46,18.5a1.85,1.85,0,0,0-1.2-.7h-.3a1.69,1.69,0,0,0-1,.3,1.45,1.45,0,0,0-.7,1,1.31,1.31,0,0,0,.3,1.2c2.1,2.7,4.4,5.8,6.8,9.1a1.45,1.45,0,0,0,1,.7h.4a1.69,1.69,0,0,0,1-.3,1.55,1.55,0,0,0,.8-1.1,1.52,1.52,0,0,0-.3-1.3q-.6-.9-2.4-3.3a24.73,24.73,0,0,0,6.5-4.6,18.14,18.14,0,0,0,4-5.9,5.69,5.69,0,0,0,.4-2.6,1.61,1.61,0,0,0-.5-1.1,1.19,1.19,0,0,0-1.1-.4Z"/><path class="cls-1" d="M87.6,29.5a2.92,2.92,0,0,1-.9-.2,1.59,1.59,0,0,1-.8-1,118.37,118.37,0,0,0-5.4-16.2,1.38,1.38,0,0,1,.1-1.1,1.79,1.79,0,0,1,1.5-.8,1.85,1.85,0,0,1,.7.2,2,2,0,0,1,.9.9,117.38,117.38,0,0,1,5.6,16.4,1.32,1.32,0,0,1-.2,1.2,1.44,1.44,0,0,1-1.1.7C87.9,29.5,87.8,29.5,87.6,29.5Zm-20.3-.3a2.35,2.35,0,0,1-.8-.2,1.54,1.54,0,0,1-.8-2v-.1a46.82,46.82,0,0,0,5.1-15.3,2.38,2.38,0,0,1,.6-1.1,2.1,2.1,0,0,1,1.1-.4h.2a1.61,1.61,0,0,1,1.1.5,1.5,1.5,0,0,1,.4,1.1,45.64,45.64,0,0,1-5.3,16.5,1.59,1.59,0,0,1-1,.8A1.42,1.42,0,0,1,67.3,29.2Z"/><path class="cls-1" d="M82.1,10.2a1.7,1.7,0,0,1,.7.1,1.56,1.56,0,0,1,.8.8,117.38,117.38,0,0,1,5.6,16.4,1.39,1.39,0,0,1-.2,1.1,1.83,1.83,0,0,1-1,.7h-.4a1.88,1.88,0,0,1-.8-.2,1.27,1.27,0,0,1-.7-.9A118.37,118.37,0,0,0,80.7,12a1.18,1.18,0,0,1,.1-1,1.78,1.78,0,0,1,.8-.7,1.09,1.09,0,0,1,.5-.1m-9.5,0h.2a1.39,1.39,0,0,1,1,.5,1,1,0,0,1,.3,1,44.54,44.54,0,0,1-5.3,16.4,1.76,1.76,0,0,1-.9.8.9.9,0,0,1-.5.1,1.85,1.85,0,0,1-.7-.2,2,2,0,0,1-.8-.8,1.38,1.38,0,0,1,.1-1.1,43.22,43.22,0,0,0,5.1-15.3,1.33,1.33,0,0,1,.6-1,1.27,1.27,0,0,1,.9-.4m9.5-.3a1.27,1.27,0,0,0-.6.1,1.59,1.59,0,0,0-1,.8,1.67,1.67,0,0,0-.1,1.2,133.78,133.78,0,0,1,5.4,16.2,1.55,1.55,0,0,0,.8,1.1,1.69,1.69,0,0,0,1,.3H88a2,2,0,0,0,1.2-.8,1.53,1.53,0,0,0,.2-1.3,132,132,0,0,0-5.6-16.4,1.59,1.59,0,0,0-.9-.9,4.12,4.12,0,0,0-.8-.3Zm-9.5,0h0a1.5,1.5,0,0,0-1.1.4,1.9,1.9,0,0,0-.7,1.1,43.06,43.06,0,0,1-5,15.3,1.5,1.5,0,0,0-.1,1.3,1.76,1.76,0,0,0,.9,1,2.35,2.35,0,0,0,.8.2,1.27,1.27,0,0,0,.6-.1,1.59,1.59,0,0,0,1-.8,45.8,45.8,0,0,0,5.4-16.5,1.37,1.37,0,0,0-.4-1.2,2.28,2.28,0,0,0-1.2-.6Z"/><path class="cls-1" d="M99.2,30.3a1.69,1.69,0,0,1-1-.3,1.8,1.8,0,0,1-.6-.9,1,1,0,0,1,.3-1,1.23,1.23,0,0,1,1-.5c7.8-.7,12.3-3.5,13.2-8.4H95a1.37,1.37,0,0,1-1.4-1.4,1.78,1.78,0,0,1,.4-1,1.28,1.28,0,0,1,1-.4h18.8a1.71,1.71,0,0,1,1.7,1.7c-.4,7.2-5.8,11.4-16.1,12.3ZM97,12.3a1.37,1.37,0,0,1-1.4-1.4A1.37,1.37,0,0,1,97,9.5h15.2a1.37,1.37,0,0,1,1.4,1.4,1.78,1.78,0,0,1-.4,1,1.28,1.28,0,0,1-1,.4Z"/><path class="cls-1" d="M112.2,9.7a1,1,0,0,1,.9.4,1.27,1.27,0,0,1,.4.9,1.09,1.09,0,0,1-.4.9,1.8,1.8,0,0,1-.9.4H97a1.28,1.28,0,0,1-1-.4,1.09,1.09,0,0,1-.4-.9,1.22,1.22,0,0,1,.4-.9,1.28,1.28,0,0,1,1-.4h15.2m1.5,6.7a1.61,1.61,0,0,1,1.1.5,1.19,1.19,0,0,1,.4,1.1c-.4,7.2-5.8,11.3-16,12.2h-.1a1.4,1.4,0,0,1-.9-.3,1.46,1.46,0,0,1-.6-.9,1,1,0,0,1,.2-.9,1,1,0,0,1,.9-.4c7.9-.7,12.4-3.5,13.3-8.5a.1.1,0,0,0-.1-.1.14.14,0,0,0-.2,0h-17a1.4,1.4,0,0,1-.9-.3,1.24,1.24,0,0,1-.1-1.7l.1-.1a1.49,1.49,0,0,1,.9-.4l19-.2m-1.5-6.9H97a2.1,2.1,0,0,0-1.1.4,1.42,1.42,0,0,0-.1,2l.1.1a1.5,1.5,0,0,0,1.1.4h15.2a2.1,2.1,0,0,0,1.1-.4,1.42,1.42,0,0,0,.1-2l-.1-.1a1.5,1.5,0,0,0-1.1-.4Zm1.6,6.8H94.9a1.5,1.5,0,0,0-1.1.4,1.46,1.46,0,0,0,0,2.2,1.5,1.5,0,0,0,1.1.4h17c-1,4.8-5.3,7.5-13,8.1a1.23,1.23,0,0,0-1,.5,1.13,1.13,0,0,0-.3,1.1,1.74,1.74,0,0,0,1.8,1.3h.1c10.3-.9,15.8-5.1,16.2-12.4a1.54,1.54,0,0,0-.5-1.3,2.23,2.23,0,0,0-1.4-.3Z"/><path class="cls-1" d="M123.8,30.2a1.69,1.69,0,0,1-1-.3,1.33,1.33,0,0,1-.6-1,1.13,1.13,0,0,1,.3-1.1,1.23,1.23,0,0,1,1-.5c5.1-.6,9-1.9,11.5-3.8s4.3-5.1,5.3-9.4a1.69,1.69,0,0,1,.7-1,1.22,1.22,0,0,1,.9-.3,1.61,1.61,0,0,1,1.3.6,1.39,1.39,0,0,1,.2,1.1c-1.1,4.9-3.2,8.6-6.2,11.1s-7.4,4-13.1,4.6Zm5.3-10.4h-.3l-6.4-1.2a1.7,1.7,0,0,1-1-.6,1.39,1.39,0,0,1-.2-1.1,1.27,1.27,0,0,1,.7-.9,1.14,1.14,0,0,1,.8-.3h.3c2.7.5,4.8.8,6.4,1.2a1.46,1.46,0,0,1,.9.6,1.39,1.39,0,0,1,.2,1.1,1.46,1.46,0,0,1-.6.9A1.6,1.6,0,0,1,129.1,19.8Zm1.5-6.4h-.3c-2.4-.4-4.7-.8-6.7-1.2a1.7,1.7,0,0,1-1-.6,1.39,1.39,0,0,1-.2-1.1,1.46,1.46,0,0,1,.6-.9,1.14,1.14,0,0,1,.8-.3h.3c1.4.2,3.6.6,6.7,1.2a1.7,1.7,0,0,1,1,.6,1.39,1.39,0,0,1,.2,1.1,1.27,1.27,0,0,1-.7.9A.78.78,0,0,1,130.6,13.4Zm9-1.5a.9.9,0,0,1-.5-.1,1.56,1.56,0,0,1-.8-.6l-1.1-1.9a1,1,0,0,1-.1-.9,1.06,1.06,0,0,1,.6-.7,1.27,1.27,0,0,1,.6-.1,1.15,1.15,0,0,1,1.1.6l1.1,2a1.18,1.18,0,0,1,.1,1,1,1,0,0,1-.7.7Zm4-.3c-.2,0-.3,0-.4-.1a1.56,1.56,0,0,1-.8-.6c-.2-.4-.6-1.1-1.1-2a.8.8,0,0,1-.2-.9,1.06,1.06,0,0,1,.6-.7,1.27,1.27,0,0,1,.6-.1h.4a1.56,1.56,0,0,1,.8.6l1.2,2a1.18,1.18,0,0,1,.1,1,1.21,1.21,0,0,1-.7.7.75.75,0,0,1-.5.1Z"/><path class="cls-1" d="M142.4,7.3a.76.76,0,0,1,.4.1,1.06,1.06,0,0,1,.7.6l1.2,2a1,1,0,0,1,.1.9,1.18,1.18,0,0,1-1.1.7.6.6,0,0,1-.4-.1,1.06,1.06,0,0,1-.7-.6c-.2-.4-.6-1.1-1.1-2a1.18,1.18,0,0,1-.1-.8.9.9,0,0,1,.6-.6c0-.2.2-.3.4-.2m-4,.3a.76.76,0,0,1,.4.1,1.79,1.79,0,0,1,.7.5l1.1,1.9a1.41,1.41,0,0,1,.1.9,1.18,1.18,0,0,1-1.1.7.6.6,0,0,1-.4-.1,1.79,1.79,0,0,1-.7-.5c-.6-1.1-1-1.7-1.1-1.9a1.06,1.06,0,0,1-.1-.8.9.9,0,0,1,.6-.6c0-.1.2-.2.5-.2M123.8,9.4h.3c1.4.2,3.6.6,6.8,1.2a1.93,1.93,0,0,1,.9.5,1.23,1.23,0,0,1,.2,1,1,1,0,0,1-.6.8,1.88,1.88,0,0,1-.8.2h-.3c-2.4-.4-4.6-.8-6.7-1.2a1.93,1.93,0,0,1-.9-.5,1.23,1.23,0,0,1-.2-1,1.46,1.46,0,0,1,.6-.9c.2,0,.5-.1.7-.1m18,3.5h.3a1.46,1.46,0,0,1,.9.6,1.16,1.16,0,0,1,.2,1c-1.1,4.9-3.2,8.6-6.2,11s-7.3,3.9-13,4.5h-.2a1.61,1.61,0,0,1-.9-.3,1.46,1.46,0,0,1-.6-.9,1,1,0,0,1,.3-1,1.05,1.05,0,0,1,.9-.5c5.1-.6,9-1.9,11.5-3.9s4.3-5.2,5.3-9.5a1.46,1.46,0,0,1,.6-.9,3.08,3.08,0,0,1,.9-.1m-19.1,3h.3c2.6.5,4.8.8,6.4,1.2a1.93,1.93,0,0,1,.9.5,1.3,1.3,0,0,1-.4,1.8h0a1.88,1.88,0,0,1-.8.2h-.3c-1.6-.3-3.8-.7-6.4-1.2a1.93,1.93,0,0,1-.9-.5,1.16,1.16,0,0,1-.2-1c.1-.3.3-.7.6-.8a.78.78,0,0,1,.8-.2m19.7-9h0a1.85,1.85,0,0,0-.7.2,1.14,1.14,0,0,0-.7.8,1.18,1.18,0,0,0,.1,1c.5.9.9,1.6,1.1,2a1.6,1.6,0,0,0,.9.7c.2,0,.3.1.5.1a1.27,1.27,0,0,0,.6-.1,1.39,1.39,0,0,0,.7-.8,1.18,1.18,0,0,0-.1-1l-1.2-2a1.6,1.6,0,0,0-.9-.7c0-.1-.2-.1-.3-.2Zm-4,.4c-.2,0-.5.1-.7.1a1.39,1.39,0,0,0-.7.8,1.18,1.18,0,0,0,.1,1c.1.2.5.8,1.1,1.9a1.78,1.78,0,0,0,.8.7.9.9,0,0,0,.5.1,1.27,1.27,0,0,0,.6-.1,1,1,0,0,0,.7-.8,1.45,1.45,0,0,0-.1-1.1c-.1-.2-.5-.9-1.1-2a1.56,1.56,0,0,0-.8-.6ZM123.9,9.1h0a1.61,1.61,0,0,0-.9.3,1.45,1.45,0,0,0-.7,1,1.38,1.38,0,0,0,.3,1.2,1.33,1.33,0,0,0,1,.6c2.1.3,4.3.7,6.7,1.2h.3a1.61,1.61,0,0,0,.9-.3,1.45,1.45,0,0,0,.7-1,1.38,1.38,0,0,0-.3-1.2,1.52,1.52,0,0,0-1.1-.6c-3.2-.6-5.4-1-6.8-1.2Zm17.9,3.5a1.61,1.61,0,0,0-.9.3,1.45,1.45,0,0,0-.7,1c-1,4.2-2.7,7.4-5.2,9.4s-6.4,3.3-11.4,3.8a1.74,1.74,0,0,0-1.1.6,1.25,1.25,0,0,0-.3,1.2,1.9,1.9,0,0,0,.7,1.1,1.43,1.43,0,0,0,1.1.3h.2c5.7-.6,10.1-2.2,13.2-4.6s5.1-6.2,6.2-11.1a1.31,1.31,0,0,0-.3-1.2,2.1,2.1,0,0,0-1.1-.7.76.76,0,0,0-.4-.1Zm-19.1,3h0a1.61,1.61,0,0,0-.9.3,1.45,1.45,0,0,0-.7,1,1.38,1.38,0,0,0,.3,1.2,1.33,1.33,0,0,0,1,.6c2.6.5,4.8.9,6.4,1.2h.3a1.61,1.61,0,0,0,.9-.3,1.45,1.45,0,0,0,.7-1,1.72,1.72,0,0,0-.2-1.2,1.33,1.33,0,0,0-1-.6c-1.6-.3-3.8-.7-6.4-1.2Z"/><path class="cls-1" d="M157.9,30.4a1.61,1.61,0,0,1-.9-.3,1.45,1.45,0,0,1-.7-1l-1.7-9c0-.1,0-.1-.1-.1l-3.6.7h-.3a1.88,1.88,0,0,1-.8-.2,1.15,1.15,0,0,1-.6-.9,1.39,1.39,0,0,1,.2-1.1,1.8,1.8,0,0,1,.9-.6l3.6-.7h.1l-.5-2.8a1.13,1.13,0,0,1,.3-1.1,1.7,1.7,0,0,1,1-.6h.3a1.61,1.61,0,0,1,.9.3,1.33,1.33,0,0,1,.6,1l.5,2.6a.1.1,0,0,0,.1.1l9.6-1.8h.3a1.88,1.88,0,0,1,.8.2,1.46,1.46,0,0,1,.6.9,4.27,4.27,0,0,1-.1,2.5,13.65,13.65,0,0,1-3.5,5.6,1.61,1.61,0,0,1-1.1.5,1.5,1.5,0,0,1-1.1-.4,1.23,1.23,0,0,1-.5-1,1.28,1.28,0,0,1,.4-1,12.31,12.31,0,0,0,2.8-4.3l-7.6,1.5h-.1l1.7,9.1a1.39,1.39,0,0,1-.2,1.1,1.7,1.7,0,0,1-1,.6Z"/><path class="cls-1" d="M155.2,12.9a1.88,1.88,0,0,1,.8.2,1.46,1.46,0,0,1,.6.9l.5,2.6a.22.22,0,0,0,.2.2h.1l9.5-1.8h.3a1.45,1.45,0,0,1,.7.2,1.56,1.56,0,0,1,.6.8,4.27,4.27,0,0,1-.1,2.5,15.34,15.34,0,0,1-3.4,5.6,1.28,1.28,0,0,1-1,.4,1.5,1.5,0,0,1-1.1-.4,1,1,0,0,1-.4-.9,1.09,1.09,0,0,1,.4-.9,14.64,14.64,0,0,0,2.9-4.4v-.1s0-.1-.1,0h0l-7.6,1.5c-.2,0-.2.1-.2.3l1.7,9a1.23,1.23,0,0,1-.2,1,1.7,1.7,0,0,1-1,.6H158a1.88,1.88,0,0,1-.8-.2,1.46,1.46,0,0,1-.6-.9l-1.7-9a.22.22,0,0,0-.2-.2h-.1l-3.6.8h-.3a1.45,1.45,0,0,1-.7-.2,1.56,1.56,0,0,1-.6-.8,1.23,1.23,0,0,1,.2-1,1.05,1.05,0,0,1,.9-.5l3.6-.7c.2,0,.2-.1.2-.3l-.5-2.7a1.16,1.16,0,0,1,.2-1,1.7,1.7,0,0,1,1-.6h.2m.1-.3H155a1.64,1.64,0,0,0-1.1.7,1.38,1.38,0,0,0-.3,1.2l.5,2.7-3.6.7a1.7,1.7,0,0,0-1,.6,1.28,1.28,0,0,0-.2,1.2,1.69,1.69,0,0,0,.7,1,1,1,0,0,0,.9.2h.3l3.6-.7,1.7,8.9a1.9,1.9,0,0,0,.7,1.1,1.69,1.69,0,0,0,1,.3h.3a1.9,1.9,0,0,0,1.1-.7,1.38,1.38,0,0,0,.3-1.2l-1.7-9,7.4-1.4a13.9,13.9,0,0,1-2.7,4.1,1.19,1.19,0,0,0-.4,1.1,1.23,1.23,0,0,0,.5,1,1.75,1.75,0,0,0,1.2.4,1.85,1.85,0,0,0,1.2-.5,14.36,14.36,0,0,0,3.5-5.8,4.57,4.57,0,0,0,.1-2.6,1.59,1.59,0,0,0-1.5-1.2h-.3l-9.5,1.9-.5-2.6a1.9,1.9,0,0,0-.7-1.1,1.69,1.69,0,0,0-1-.3Z"/></g><g id="圖層_4" data-name="圖層 4"><path class="cls-1" d="M31.3,19.2l-6.7-5.8a5.87,5.87,0,0,1-1.2-1.2.61.61,0,0,1,0-.8,1.66,1.66,0,0,1,2.1-.3c.4.3.5.5.5.6a.78.78,0,0,1-.3.6l-.4.4.4.4,1.7,1.6.3.3.3-.3a3.75,3.75,0,0,0,1.4-3,4.28,4.28,0,0,0-1.9-3,5.21,5.21,0,0,0-2.9-.9,5,5,0,0,0-3.9,1.8,3.65,3.65,0,0,0,.1,4.8c.2.2.6.6,1.2,1.1H12.5L13,15h0l.3-.3,1.3-1.2c1.1-1,2-1.8,2.8-2.6l.1-.1.2-.1h0a6,6,0,0,0,2-3.2,6.39,6.39,0,0,0-2.4-6.3A7.1,7.1,0,0,0,12.9-.3,7.49,7.49,0,0,0,7.6,1.9,5.25,5.25,0,0,0,6.2,5.8,5.67,5.67,0,0,0,8.3,9.9a5.48,5.48,0,0,0,1.5.8,5.66,5.66,0,0,0,1.8.3,1.7,1.7,0,0,0,.7-.1h.3L3,19.3A8.1,8.1,0,0,0,1.8,30.7,13.58,13.58,0,0,0,3,31.9a7.87,7.87,0,0,0,5.5,1.9c2.5,0,5.4-1.4,8.7-4.3,3.4,2.8,6.2,4.2,8.7,4.2a8.46,8.46,0,0,0,5.5-2,8.09,8.09,0,0,0,1.1-11.4,12,12,0,0,0-1.2-1.1ZM14.9,27.1c-2.7,2.4-4.8,3.5-6.4,3.5a4.89,4.89,0,0,1-3.9-8,6,6,0,0,1,.8-.8l3.7-3.2,6.1,8.3C15.1,26.9,15,27,14.9,27.1ZM29,29.4a5.1,5.1,0,0,1-3.1,1.1c-2.1,0-4.7-2-6.4-3.5l-.1-.1,6.1-8.3.5.5.3.3h0l2.6,2.3a5,5,0,0,1,.9,7c-.3.3-.6.5-.8.7ZM21.2,18.7,17.3,24l-3.9-5.3ZM12.5,8.1l-.1-.5-.5.1h-.2a1.27,1.27,0,0,1-.6-.1,2.19,2.19,0,0,1-.5-.3,1.51,1.51,0,0,1-.9-1.4,1.66,1.66,0,0,1,.6-1.6A3.86,3.86,0,0,1,13,3.2a4,4,0,0,1,2.3.8,3.24,3.24,0,0,1,1.2,3.2,3.75,3.75,0,0,1-.7,1.2L13,10.9l-.1-.4Z"/><path class="cls-1" d="M18.4,32.9l-1.3-1.5-1.3,1.5-1.4,1.7-2,2.3h9.3l-1.9-2.3Zm-2.7,2.6,1.4-1.7,1.4,1.7Z"/></g></svg>