<?xml version="1.0" encoding="utf-8"?>
<!-- Generator: Adobe Illustrator 26.5.0, SVG Export Plug-In . SVG Version: 6.00 Build 0)  -->
<svg version="1.1" id="圖層_1" xmlns="http://www.w3.org/2000/svg" xmlns:xlink="http://www.w3.org/1999/xlink" x="0px" y="0px"
	 viewBox="0 0 26 26" style="enable-background:new 0 0 26 26;" xml:space="preserve">
<style type="text/css">
	.st0{fill-rule:evenodd;clip-rule:evenodd;fill:#444444;}
</style>
<g>
	<path class="st0" d="M12.1,18.7c0.5,0,0.9-0.4,0.9-0.9v-0.7c0.6,0,1.2-0.3,1.7-0.7c0.5-0.5,0.7-1.1,0.7-1.8c0-0.7-0.3-1.3-0.7-1.8
		c-0.5-0.5-1.1-0.7-1.8-0.7h-1.6c-0.2,0-0.4-0.1-0.5-0.2c-0.1-0.1-0.2-0.3-0.2-0.5c0-0.2,0.1-0.4,0.2-0.5c0.1-0.1,0.3-0.2,0.5-0.2
		h0.8c0,0,0,0,0,0s0,0,0,0h0.8c0,0,0,0,0,0c0.1,0,0.3,0,0.4,0.1c0.1,0.1,0.2,0.2,0.3,0.3c0.2,0.4,0.8,0.6,1.2,0.3
		c0.4-0.2,0.6-0.8,0.3-1.2c-0.2-0.4-0.6-0.7-1-0.9C13.9,9,13.5,8.9,13,8.9V8.2c0-0.5-0.4-0.9-0.9-0.9c-0.5,0-0.9,0.4-0.9,0.9v0.7
		c-0.6,0-1.2,0.3-1.7,0.7c-0.5,0.5-0.7,1.1-0.7,1.8c0,0.7,0.3,1.3,0.7,1.8s1.1,0.7,1.8,0.7h1.6c0.2,0,0.4,0.1,0.5,0.2
		c0.1,0.1,0.2,0.3,0.2,0.5c0,0.2-0.1,0.4-0.2,0.5c-0.1,0.1-0.3,0.2-0.5,0.2h-1.6c0,0,0,0,0,0c-0.1,0-0.3,0-0.4-0.1
		c-0.1-0.1-0.2-0.2-0.3-0.3c-0.2-0.4-0.8-0.6-1.2-0.3c-0.4,0.2-0.6,0.8-0.3,1.2c0.2,0.4,0.6,0.7,1,0.9c0.4,0.2,0.8,0.3,1.2,0.3v0.7
		C11.2,18.3,11.6,18.7,12.1,18.7z"/>
	<path class="st0" d="M15.2,18.6c-0.9,0.5-1.9,0.8-3,0.8c-3.5,0-6.3-2.8-6.3-6.3c0-3.5,2.8-6.3,6.3-6.3s6.3,2.8,6.3,6.3
		c0,0.1,0,0.2,0,0.2c0.3-0.2,0.6-0.2,0.9-0.2c0.3,0,0.6,0.1,0.9,0.2c0-0.1,0-0.2,0-0.2c0-4.5-3.6-8.1-8.1-8.1C7.6,4.9,4,8.5,4,13
		c0,4.5,3.6,8.1,8.1,8.1c1.9,0,3.7-0.7,5.1-1.8h-0.6C16.1,19.3,15.5,19,15.2,18.6z"/>
	<path class="st0" d="M22.1,16.6h-1.8v-1.8c0-0.5-0.4-0.9-0.9-0.9s-0.9,0.4-0.9,0.9v1.8h-1.8c-0.5,0-0.9,0.4-0.9,0.9
		s0.4,0.9,0.9,0.9h1.8v1.8c0,0.5,0.4,0.9,0.9,0.9s0.9-0.4,0.9-0.9v-1.8h1.8c0.5,0,0.9-0.4,0.9-0.9S22.6,16.6,22.1,16.6z"/>
</g>
</svg>
