<?xml version="1.0" encoding="utf-8"?>
<!-- Generator: Adobe Illustrator 26.5.0, SVG Export Plug-In . SVG Version: 6.00 Build 0)  -->
<svg version="1.1" id="圖層_1" xmlns="http://www.w3.org/2000/svg" xmlns:xlink="http://www.w3.org/1999/xlink" x="0px" y="0px"
	 viewBox="0 0 45 45" style="enable-background:new 0 0 45 45;" xml:space="preserve">
<style type="text/css">
	.st0{fill:#454545;}
</style>
<g>
	<path class="st0" d="M34.5,10.9c-0.5-0.5-1.2-0.5-1.6,0L11.3,32.4c-0.5,0.5-0.5,1.2,0,1.6c0.2,0.2,0.5,0.3,0.8,0.3s0.6-0.1,0.8-0.3
		l21.5-21.5C34.9,12.1,34.9,11.4,34.5,10.9z"/>
	<path class="st0" d="M12.5,24c0,0.6,0.5,1.2,1.2,1.2c0.6,0,1.2-0.5,1.2-1.2v-3.5H19c0.6,0,1.2-0.5,1.2-1.2s-0.5-1.2-1.2-1.2h-4.2
		V16H19c0.6,0,1.2-0.5,1.2-1.2c0-0.6-0.5-1.2-1.2-1.2H16l3.2-4.3c0.4-0.5,0.3-1.2-0.2-1.6c-0.5-0.4-1.2-0.3-1.6,0.2l-3.7,4.9L10,8
		C9.6,7.5,8.9,7.3,8.3,7.7C7.8,8.1,7.7,8.8,8.1,9.4l3.2,4.3H8.3c-0.6,0-1.2,0.5-1.2,1.2c0,0.6,0.5,1.2,1.2,1.2h4.2v2.3H8.3
		c-0.6,0-1.2,0.5-1.2,1.2s0.5,1.2,1.2,1.2h4.2V24z"/>
	<path class="st0" d="M36.7,22.9h-7c-0.6,0-1.2,0.5-1.2,1.2c0,0.6,0.5,1.2,1.2,1.2h5.9v10H22.5v-3.3c0-0.6-0.5-1.2-1.2-1.2
		c-0.6,0-1.2,0.5-1.2,1.2v4.5c0,0.6,0.5,1.2,1.2,1.2h15.4c0.6,0,1.2-0.5,1.2-1.2V24C37.9,23.4,37.4,22.9,36.7,22.9z"/>
</g>
</svg>
