<svg width="66" height="66" viewBox="0 0 66 66" fill="none" xmlns="http://www.w3.org/2000/svg">
<path d="M46.7442 36.4371L46.509 36.0725L43.8861 31.8969L42.7922 30.1679L33.5119 15.4536L33.5002 15.4771L33.4884 15.4536L24.2082 30.1679L23.1143 31.8969L20.4914 36.0725L20.2561 36.4371L16.7981 41.93L19.5151 50.4574L25.8666 39.2129L25.9842 38.9895L28.3837 34.7434L28.8542 33.92L33.4884 25.7101L33.5002 25.7454L33.5119 25.7101L38.1462 33.92L38.6167 34.7434L41.0161 38.9895L41.1337 39.2129L47.4852 50.4574L50.2023 41.93L46.7442 36.4371Z" fill="black"/>
<path d="M23.3257 29.4622L6.00024 15.4536L9.37595 31.0618L13.575 50.4574H19.5148L14.4689 34.661L18.915 36.6018L23.3257 29.4622Z" fill="black"/>
<path d="M43.6746 29.4622L48.0853 36.6018L52.5314 34.661L47.4855 50.4574H53.4253L57.6243 31.0618L61 15.4536L43.6746 29.4622Z" fill="black"/>
<path d="M37.2525 34.6492L33.5004 37.5309L29.7483 34.6492L26.6902 40.0009L33.4886 42.9767L33.5004 42.9649L33.5122 42.9767L40.3106 40.0009L37.2525 34.6492Z" fill="black"/>
</svg>
