<svg width="48" height="49" viewBox="0 0 48 49" fill="none" xmlns="http://www.w3.org/2000/svg">
<path d="M31.3123 19.6235C30.703 19.6235 30.2111 20.1163 30.2111 20.7268V26.2579C30.2111 26.8684 30.703 27.3612 31.3123 27.3612C31.9217 27.3612 32.4136 26.8684 32.4136 26.2579V20.7268C32.4136 20.1163 31.9217 19.6235 31.3123 19.6235Z" fill="#454545"/>
<path d="M26.298 26.5227C25.7841 26.5227 25.3583 26.8757 25.2335 27.3464C25.0793 27.4273 24.7489 27.5377 24.279 27.5377C23.8092 27.5377 23.4788 27.4273 23.3246 27.3464C23.1998 26.8757 22.774 26.5227 22.2601 26.5227C21.6507 26.5227 21.1588 27.0155 21.1588 27.6259C21.1588 28.8542 22.473 29.7442 24.279 29.7442C26.0851 29.7442 27.3993 28.8542 27.3993 27.6259C27.3993 27.0155 26.9 26.5227 26.298 26.5227Z" fill="#454545"/>
<path d="M48 21.5065C48 18.9248 46.3261 16.733 44.0061 15.9607C44.1897 13.9821 43.8079 8.81147 36.3854 3.71435C36.3781 3.71435 36.3781 3.707 36.3708 3.707C36.3634 3.707 36.3634 3.69964 36.3561 3.69229C35.9009 3.39808 25.1894 -3.36866 15.8287 2.19183C15.1679 2.40513 12.591 3.33188 9.97736 5.78115C7.92903 7.70084 5.565 10.8856 4.43438 15.8356C1.88682 16.4682 0 18.763 0 21.5065C0 23.9631 1.51973 26.0666 3.67085 26.9346C3.65616 35.6872 4.63995 40.7843 9.91129 43.3071V47.301V49H11.6072H16.7391H16.8125H18.435H18.5084H19.9768H21.6727V48.9044V47.2936V45.0135V43.6013V43.4395L21.7314 43.6013L22.8327 46.6905L23.2511 47.8599L23.6182 48.897L23.6549 48.9926H24.8516H26.4228H27.6195L27.6562 48.897L28.0232 47.8599L29.7045 43.1674V44.7929V46.6905V47.2862V48.897V48.9926H31.4004H36.9434H38.6393V47.2936V46.0653V44.3663H38.2282V44.0794V42.932H38.4998V42.6672C39.212 42.2995 39.8727 41.8949 40.4674 41.4536C42.5451 39.887 43.7418 37.9084 44.0281 35.5695C44.1309 34.7163 44.2264 33.9734 44.3145 33.3041C44.7183 30.1561 44.8945 28.6998 44.8431 26.6992C46.7152 25.721 48 23.7645 48 21.5065ZM41.833 15.5341C32.5017 16.9389 28.8382 13.2025 27.7663 11.702C30.6442 8.48784 34.2857 6.53873 35.6439 5.88412C41.4659 10.0766 41.9137 14.0116 41.833 15.5341ZM3.69287 24.4338C2.79719 23.7718 2.20251 22.7053 2.20251 21.5065C2.20251 20.1825 2.92199 19.0278 3.9792 18.3879C4.52248 18.0569 5.15387 17.8583 5.83665 17.8583C6.0569 17.8583 6.18905 17.8804 6.26981 17.8951C6.27715 17.8951 6.29183 17.8951 6.29183 17.9024C6.31386 18.1599 6.21107 18.7262 6.13766 19.1602C6.11563 19.2778 6.09361 19.4102 6.07158 19.5426C5.97614 20.1237 5.87336 20.8004 5.87336 21.5138C5.87336 21.8521 5.89538 22.1758 5.93209 22.492C5.98348 22.9922 6.06424 23.4629 6.13766 23.8675C6.21107 24.2941 6.31386 24.8678 6.29183 25.1252C6.21842 25.1399 6.08627 25.162 5.8807 25.162C5.86601 25.162 5.85867 25.162 5.83665 25.162C5.0364 25.1473 4.30223 24.8751 3.69287 24.4338ZM16.7391 46.6978V47.2936H14.2576H11.6146V43.9691V41.6301V40.0561H13.0829V42.1082V44.3883V46.0653H14.3236H16.5408H16.7464V46.6978H16.7391ZM16.8125 38.2983V39.7472V39.9973V44.3663H16.7391H14.7788V42.4907V40.0561V38.3571H13.0829H11.6146H9.91129V40.0561V40.7622C6.60753 38.6145 5.86601 34.6501 5.86601 27.3538C6.85714 27.3464 7.5546 27.089 8.00979 26.5447C8.71459 25.7062 8.51637 24.6177 8.31814 23.4629C8.20801 22.8304 8.09055 22.1758 8.09055 21.4991C8.09055 20.8224 8.20801 20.1678 8.31814 19.5353C8.52371 18.3805 8.71459 17.292 8.00979 16.4535C7.70144 16.0857 7.26828 15.8577 6.71031 15.74C9.05965 6.4946 16.2105 4.3616 16.5629 4.26599C16.6583 4.23657 16.7537 4.19979 16.8418 4.1483C22.9648 0.441309 30.0936 3.00826 33.3607 4.5749C30.6442 6.068 25.8281 9.27484 23.2879 14.3352C22.2527 16.402 19.9474 17.645 17.5099 18.9616C13.8024 20.9622 9.39737 23.3452 8.93484 29.4721C8.9275 29.5677 8.92016 29.6707 8.92016 29.7736C8.83206 31.458 9.02294 33.4071 9.61028 35.7092C9.73509 36.2094 10.1829 36.5404 10.6748 36.5404C10.7629 36.5404 10.8584 36.533 10.9465 36.5036C11.5338 36.3565 11.8935 35.7534 11.7394 35.165C11.5705 34.4956 11.4457 33.8778 11.3429 33.2747C13.4059 35.4886 16.0049 37.1361 18.8682 38.0629C18.7433 38.1364 18.6332 38.2247 18.5158 38.2983H18.5011H16.8125V38.2983ZM19.9768 47.301H18.5084V46.7052V41.1521V39.9973H19.9768V47.301ZM27.5974 44.0206L26.643 46.6978L26.4301 47.2936H24.859L24.6461 46.6978L23.5668 43.6675L22.7593 41.4389L22.2453 39.9899H23.8385L24.3377 41.4536L25.0866 43.6381L25.6812 45.3886L26.2759 43.5866L27.0248 41.3139L27.4653 39.9826H28.104H29.0291L27.5974 44.0206ZM25.2921 38.9896C25.3215 38.9896 25.3582 38.997 25.3876 38.997C25.6005 38.997 25.8061 39.0117 26.0043 39.0191L25.8575 39.453L25.6592 40.0561L25.4463 39.431L25.2921 38.9896ZM24.2716 36.7169C18.9563 36.7169 13.9639 33.9219 11.1447 29.4132C11.4677 26.0814 13.2371 24.1911 15.4836 22.6906V26.2579C15.4836 26.8684 15.9755 27.3612 16.5849 27.3612C17.1942 27.3612 17.6861 26.8684 17.6861 26.2579V21.3814C17.9725 21.227 18.2661 21.0651 18.5525 20.9107C21.1808 19.4911 23.8972 18.0275 25.2481 15.3355C25.5711 14.6882 25.9455 14.0704 26.3493 13.482C27.9278 15.3943 31.7161 18.4761 39.491 18.0054C39.491 18.4908 39.5791 19.0131 39.6745 19.5426C39.6965 19.653 39.7112 19.7633 39.7333 19.8736V21.2196C39.7406 29.7663 32.8027 36.7169 24.2716 36.7169ZM36.9361 47.301H34.271H31.3931V46.7052V43.2262V40.0047H32.1786H36.7966V41.0491V41.2403H36.3487H32.9495H32.8614V42.8585H36.5176V43.5425V44.0868H34.8584H32.8541V46.0726H34.2123H36.9214V47.301H36.9361ZM42.1266 33.0246C42.0385 33.6939 41.9431 34.4442 41.8403 35.2974C41.6274 37.0405 40.7391 38.4821 39.1386 39.6884C38.933 39.8428 38.7201 39.9899 38.4925 40.1297V39.9899V38.2909H36.7966H31.4371H31.3931H30.446C30.2918 38.1806 30.145 38.0629 29.9835 37.9673C35.0639 36.2241 39.1092 32.2229 40.9153 27.1699C41.2677 27.295 41.6715 27.3612 42.156 27.3612C42.3175 27.3612 42.479 27.3464 42.6406 27.3391C42.6479 28.9425 42.4717 30.3253 42.1266 33.0246ZM44.6742 24.1249C44.1089 24.6692 43.3674 25.0222 42.5451 25.1105C42.413 25.1252 42.2882 25.1473 42.1487 25.1473C41.9137 25.1473 41.7669 25.1252 41.6935 25.1031C41.6715 24.8457 41.7742 24.2793 41.8477 23.8454C41.9651 23.1908 42.112 22.367 42.112 21.4917C42.112 20.8371 42.0312 20.2193 41.9431 19.6677V18.8807V17.8509C42.0018 17.8436 42.0679 17.8436 42.1487 17.8436C42.8682 17.8436 43.5436 18.0642 44.1089 18.4246C45.1147 19.0719 45.7901 20.2046 45.7901 21.4917C45.7975 22.5362 45.3643 23.4629 44.6742 24.1249Z" fill="#454545"/>
</svg>
