<svg width="35" height="31" viewBox="0 0 35 31" fill="none" xmlns="http://www.w3.org/2000/svg">
<path d="M5.6543 22.7632C5.6543 23.1401 5.93793 23.4227 6.3161 23.4227H17.2454H19.5523C19.9304 23.4227 20.233 23.1401 20.233 22.7632C20.233 22.4994 20.0628 22.2544 19.8359 22.1602C19.7981 22.1414 19.7792 22.1414 19.7413 22.1225C19.6657 22.1037 19.609 22.0848 19.5333 22.0848H15.241H6.33501C5.95684 22.0848 5.6543 22.3863 5.6543 22.7632Z" fill="white"/>
<path d="M23.6171 25.2318V27.3234C23.6171 27.5307 23.5414 27.7192 23.3902 27.8699C23.2389 28.0018 23.0498 28.0772 22.8418 28.0772H3.04431C2.83632 28.0772 2.62832 28.0018 2.49596 27.8511C2.3636 27.7192 2.26905 27.5119 2.26905 27.3046V3.91951C2.26905 3.69338 2.3636 3.52379 2.49596 3.37304C2.62832 3.24113 2.83632 3.14691 3.04431 3.14691H11.6289H14.3329C14.711 2.63813 15.1081 2.1482 15.5619 1.69595H15.5808C15.8834 1.39445 16.1859 1.13063 16.5074 0.866821H13.274H3.04431C2.21233 0.866821 1.43707 1.20601 0.888713 1.77132C0.340358 2.31779 0 3.07154 0 3.91951V27.3234C0 28.1526 0.340358 28.9252 0.888713 29.4716C1.45598 30.0181 2.21233 30.3573 3.04431 30.3573H22.8418C23.6738 30.3573 24.4301 30.0181 24.9596 29.4905L24.9974 29.4528C25.5458 28.9063 25.905 28.1526 25.905 27.3046V25.1753C25.4134 25.2318 24.9218 25.2506 24.4301 25.2506C24.1465 25.2883 23.8818 25.2506 23.6171 25.2318Z" fill="white"/>
<path d="M9.77606 12.4934H6.33466C5.95648 12.4934 5.67285 12.7949 5.67285 13.1718C5.67285 13.5487 5.95648 13.8502 6.33466 13.8502H10.0219H12.3666C12.2531 13.4168 12.1586 12.9645 12.0829 12.4934H9.77606Z" fill="white"/>
<path d="M11.2888 17.2986H6.33466C5.95648 17.2986 5.67285 17.6001 5.67285 17.977C5.67285 18.3538 5.95648 18.6553 6.33466 18.6553H12.0829H14.9192C14.56 18.2219 14.2196 17.7697 13.9171 17.2986H11.2888Z" fill="white"/>
<path d="M31.9554 3.12806L31.9176 3.07153C29.9889 1.16831 27.3417 0 24.4297 0C21.5178 0 18.8706 1.16831 16.9608 3.07153C15.0321 4.99359 13.8408 7.63172 13.8408 10.5337C13.8408 13.4356 15.0321 16.0737 16.9419 17.9769C18.8516 19.899 21.4989 21.0673 24.4108 21.0673C27.3039 21.0673 29.9322 19.899 31.842 18.0146L31.8987 17.9769C33.8085 16.0737 34.9997 13.4356 34.9997 10.5337C34.9997 7.65056 33.8274 5.03128 31.9554 3.12806ZM30.7642 16.8463L30.7264 16.884C29.1002 18.4669 26.8879 19.4656 24.4297 19.4656C21.9716 19.4656 19.7214 18.448 18.1142 16.8463C16.488 15.2257 15.4859 13.0022 15.4859 10.5337C15.4859 8.06512 16.488 5.84156 18.0953 4.221H18.1142C19.7214 2.61928 21.9716 1.60172 24.4297 1.60172C26.9068 1.60172 29.138 2.60044 30.7642 4.221L30.802 4.25869C32.3903 5.86041 33.3925 8.08397 33.3925 10.5337C33.3736 13.0022 32.3714 15.2257 30.7642 16.8463Z" fill="white"/>
<path d="M29.044 9.72333H25.2433V3.25993C25.2433 2.80768 24.8841 2.44965 24.4303 2.44965C23.9765 2.44965 23.6172 2.80768 23.6172 3.25993V10.5148V10.5336C23.6172 10.9859 23.9954 11.3439 24.4303 11.3439H29.0629C29.5167 11.3439 29.876 10.967 29.876 10.5336C29.8571 10.1002 29.4978 9.72333 29.044 9.72333Z" fill="white"/>
<path d="M6.05138 7.89551C5.82448 7.89551 5.6543 8.17816 5.6543 8.55504C5.6543 8.93191 5.82448 9.23341 6.05138 9.23341H11.4971C11.4215 8.72463 11.4215 8.25354 11.4404 7.89551H6.05138Z" fill="white"/>
</svg>
