<svg width="47" height="53" viewBox="0 0 47 53" fill="none" xmlns="http://www.w3.org/2000/svg">
<path d="M31.3982 16.8904L15.0377 16.3408L12.865 7.77937C11.9679 7.25563 11.3871 6.27556 11.4182 5.16066C11.5012 3.50127 12.8287 2.25674 14.4414 2.31896C14.9807 2.33452 15.4837 2.49527 15.9089 2.76492C16.4534 1.99746 17.3609 1.48409 18.3617 1.52557H18.4239C19.3936 1.57224 20.2285 2.07524 20.7263 2.81678C20.8196 1.19888 22.1783 -0.040473 23.7495 0.00101159C24.5273 0.0217539 25.2792 0.369187 25.8133 0.9396C26.3371 1.51001 26.6223 2.27229 26.586 3.04494V3.05013C27.146 2.44342 27.955 2.08043 28.8313 2.10117C29.8529 2.15302 30.7085 2.67677 31.2063 3.44423C31.673 3.15903 32.2383 3.00346 32.8242 3.0242C33.6176 3.05013 34.3747 3.39756 34.9037 3.97835C35.4378 4.5695 35.7074 5.33178 35.6556 6.13036C35.6037 7.17785 34.9711 8.09051 34.0791 8.56239L31.3982 16.8904ZM18.315 12.2753L28.4009 12.6123L29.5781 8.97724L27.6335 9.51135L27.3949 8.51054L26.5238 9.12762L23.5628 5.90738L20.3581 8.97724L19.4558 8.24607L19.1654 9.18466L17.3764 8.56758L18.315 12.2753Z" fill="#040000"/>
<path d="M29.4849 8.23555L28.9041 5.845C29.2879 5.7724 29.5835 5.45608 29.599 5.05679C29.6146 4.5849 29.2464 4.20117 28.7797 4.18043C28.3078 4.16487 27.9241 4.53305 27.9033 4.99457C27.8981 5.17606 27.9604 5.33681 28.0537 5.48201L26.0106 6.9236L23.4126 8.58817L20.9391 6.76285L18.8597 5.08272C19.0308 4.93752 19.1449 4.71454 19.1501 4.48119C19.1656 4.00931 18.7975 3.62557 18.3308 3.60483C17.8692 3.59446 17.4751 3.95745 17.4648 4.42415C17.4544 4.85974 17.7759 5.21754 18.1959 5.27459L17.3974 7.82589L16.1321 11.3054L17.7189 12.6277L20.5294 11.7773L23.34 10.9269L23.3504 10.9061V10.9269L26.1039 11.9536L28.8575 12.9803L30.522 11.7566L29.4849 8.23555Z" fill="#B06F20"/>
<path d="M23.6716 2.93604L23.2982 14.5258L16.6866 14.3028L14.4102 5.34733L19.3676 7.05857L23.6716 2.93604Z" fill="#EEDE80"/>
<path d="M23.6722 2.93604L23.2988 14.5258L29.9052 14.7332L32.7521 5.95922L27.7014 7.3334L23.6722 2.93604Z" fill="#E2CA55"/>
<path d="M14.0115 6.01611C14.4367 6.21316 14.9345 6.02648 15.1316 5.60645C15.3286 5.18642 15.142 4.68342 14.7219 4.48637C14.2967 4.28931 13.7989 4.47599 13.6018 4.89603C13.4048 5.31606 13.5915 5.81906 14.0115 6.01611Z" fill="#E2CA55"/>
<path d="M23.3192 3.70337C23.7444 3.90042 24.2423 3.71374 24.4393 3.29371C24.6364 2.87367 24.4497 2.37067 24.0297 2.17362C23.6044 1.97657 23.1066 2.16325 22.9096 2.58328C22.7125 3.00331 22.894 3.50631 23.3192 3.70337Z" fill="#E2CA55"/>
<path d="M32.3988 6.72131C32.824 6.91836 33.3219 6.73168 33.5189 6.31165C33.716 5.89162 33.5293 5.38862 33.1092 5.19157C32.684 4.99451 32.1862 5.18119 31.9892 5.60123C31.7921 6.02644 31.9736 6.52426 32.3988 6.72131Z" fill="#E2CA55"/>
<path d="M42.6923 42.3464C38.6735 51.0063 26.5081 53.4435 15.5925 49.6166C1.8559 44.7992 -0.156104 33.785 3.86272 25.1199C7.88154 16.4548 19.632 13.3902 30.138 18.2594C40.644 23.1287 46.7059 33.6813 42.6923 42.3464Z" fill="white"/>
<path d="M8.4525 46.3082C8.4525 46.3082 0.912678 39.9455 7.42057 33.2457C7.42057 33.2457 9.43258 31.7211 12.6632 32.5819C15.8938 33.4428 18.8444 30.7463 18.8444 30.7463C18.8444 30.7463 20.4727 28.6772 22.5313 29.8595C24.5848 31.0366 25.0308 29.7714 25.0308 29.7714C25.0308 29.7714 26.182 28.4387 27.691 29.8388C29.1948 31.2389 32.6691 33.1212 35.9049 32.333C39.1407 31.5448 41.6713 34.6925 41.6713 34.6925C41.6713 34.6925 46.1983 43.3939 35.5886 49.4558C35.5886 49.4558 41.4068 47.646 43.87 42.8286C46.3331 38.0112 47.3028 31.6848 40.8312 20.8574L38.7051 18.1712L36.5168 11.4715L33.5092 9.54244L30.0815 13.3694L27.188 16.5015C27.188 16.5015 24.7093 14.6813 21.7431 15.7651C18.777 16.8489 18.8029 16.014 18.8029 16.014C18.8029 16.014 16.1323 11.6011 15.0745 11.0463C14.0166 10.4862 12.295 9.45947 12.295 9.45947L7.4828 19.2032C7.4828 19.2032 1.30678 28.2675 1.21344 32.722C1.1201 37.1712 1.93424 42.8753 8.4525 46.3082Z" fill="#D3830F"/>
<path d="M11.3665 46.6971C11.4132 46.7178 11.4339 46.7282 11.4599 46.8112C11.6051 47.0601 11.7451 47.4438 11.6725 47.8172C11.6206 48.2009 11.325 48.5846 10.5368 48.7506C10.5109 48.761 10.3813 48.7713 10.3242 48.7454C9.12118 48.1387 7.99591 47.4283 6.91731 46.6245C5.24755 45.3644 3.71263 43.871 2.50439 42.1079C1.30652 40.3396 0.435342 38.2809 0.139765 36.1289C0.0827233 35.8644 0.0723531 35.5896 0.0516108 35.3148C0.0308685 35.0451 -0.000245881 34.7703 0.0101253 34.5006C0.0101253 34.231 -0.000244141 33.9613 -0.000244141 33.6917L0.0464241 32.8879C0.0567953 32.6234 0.0982789 32.359 0.134578 32.0893C0.176063 31.8249 0.201992 31.5552 0.253848 31.2959L0.430159 30.5285L0.461272 30.3625L0.450898 30.3833V30.404C0.445713 30.4144 0.450899 30.404 0.456085 30.3936L0.466458 30.2744C0.482015 30.1914 0.497569 30.0825 0.50794 30.0099L0.570168 29.7766C0.725735 29.201 0.90723 28.7083 1.10428 28.2105L1.24948 27.8475L1.41542 27.4949C1.51394 27.2564 1.62284 27.023 1.74211 26.7949C2.18288 25.8666 2.67032 24.9695 3.15777 24.088L3.21481 23.9895L3.27185 23.8909C4.21044 22.2316 5.20088 20.6137 6.23281 19.0217L6.42468 18.7261L6.45061 18.695L6.45579 18.6691C6.46098 18.6587 6.45579 18.6691 6.45579 18.6691C6.45061 18.6794 6.45579 18.6691 6.45579 18.6691L6.48172 18.612L6.75656 17.9483C6.93805 17.5127 7.12992 17.0667 7.32178 16.6363C7.71589 15.7651 8.12555 14.9043 8.56114 14.0383C8.99672 13.1724 9.47898 12.3323 9.98717 11.5026C10.1168 11.29 10.2464 11.0878 10.3865 10.8855L10.8065 10.2736C10.9465 10.0662 11.1073 9.86915 11.268 9.6721C11.3199 9.60468 11.4858 9.37652 11.6517 9.23651L12.1236 8.77499L12.3673 8.54683L12.4866 8.43274L12.5488 8.37052C12.5644 8.36533 12.5696 8.34459 12.5851 8.3394L12.6266 8.34977C12.8341 8.412 13.0415 8.45349 13.2489 8.52608C13.4615 8.57794 13.6637 8.68165 13.8763 8.78536C13.9801 8.83203 14.0838 8.8787 14.1875 8.9513L14.4364 9.10168C14.9031 9.39726 15.3179 9.72395 15.6965 10.0714C16.4743 10.7611 17.1329 11.5182 17.7344 12.3064L17.9574 12.6019L18.17 12.9027C18.3152 13.1049 18.4604 13.3072 18.5952 13.5042L18.9893 14.1161L19.1864 14.4221L19.3731 14.7332L19.4042 14.7695L19.9487 14.6917C20.1976 14.671 20.4413 14.6347 20.685 14.6139C22.6452 14.448 24.6572 14.4843 26.6536 14.9458L27.3225 15.1221L27.5455 14.7591C28.0693 13.9502 28.6189 13.1516 29.2205 12.3738C29.8168 11.5959 30.465 10.844 31.2014 10.1336C31.5799 9.77581 31.9792 9.43874 32.4511 9.12761C32.5755 9.04983 32.6896 8.97723 32.8244 8.90463L32.9178 8.84759C32.9644 8.82166 33.0059 8.80092 33.0526 8.77499C33.1563 8.72314 33.26 8.69202 33.3741 8.64017C33.483 8.59868 33.5867 8.54683 33.7008 8.5209L34.0275 8.4483C34.2453 8.39126 34.4734 8.34977 34.6861 8.29792L34.7379 8.28755C34.7535 8.28236 34.7638 8.30829 34.769 8.31348L34.8416 8.38089L34.9713 8.5209L35.2357 8.80092C35.412 8.98241 35.578 9.18465 35.7595 9.3817C35.9306 9.5995 36.1173 9.80692 36.278 10.0299C36.6203 10.4603 36.9366 10.9114 37.2425 11.373C37.8544 12.2804 38.4093 13.2398 38.876 14.2354C39.3583 15.231 39.7627 16.2681 40.0687 17.3364L40.2606 18.0727C40.2554 18.0572 40.2606 18.0727 40.2606 18.0727L40.4991 18.389C40.831 18.8246 41.1317 19.2706 41.4377 19.7166C42.7237 21.6404 43.849 23.668 44.7513 25.8044C45.6587 27.9357 46.3588 30.1862 46.701 32.5301C46.8773 33.7695 46.9448 35.0347 46.8825 36.2948C46.8514 36.9275 46.784 37.5601 46.6803 38.1979C46.6181 38.5091 46.5714 38.8254 46.4936 39.1417L46.3692 39.6032C46.3329 39.7536 46.2914 39.9195 46.2291 40.0699C45.8454 41.3093 45.2957 42.4812 44.5905 43.5598C44.2483 44.1043 43.8542 44.6125 43.4549 45.1051C43.2526 45.3488 43.0296 45.577 42.817 45.8207L42.6874 45.9556C42.1948 46.4741 41.6607 46.9408 41.1214 47.4023C41.1214 47.4023 40.9295 47.5268 40.608 47.7549C40.2813 47.9676 39.8198 48.2528 39.2753 48.5535C38.7308 48.8439 38.1033 49.1551 37.4552 49.4195C36.8121 49.684 36.138 49.907 35.5261 50.0781C34.4994 50.384 33.8097 50.4826 33.4 50.4826C32.9904 50.4877 32.8659 50.3944 32.9385 50.2544C33.0837 49.9951 34.0171 49.4973 35.0957 48.875C34.9661 48.9061 36.304 48.2217 37.5433 47.3608C38.1604 46.9356 38.7567 46.4586 39.1871 46.0956C39.3997 45.9089 39.5709 45.7533 39.6953 45.6392C39.8198 45.5252 39.882 45.4526 39.882 45.4526L40.1828 45.1933L40.4783 44.9236C40.6754 44.7421 40.8517 44.5555 41.0436 44.3688L41.1525 44.2495C41.3391 44.0421 41.5206 43.845 41.7021 43.6324C42.0444 43.2124 42.3815 42.782 42.677 42.3153C43.2734 41.4026 43.7349 40.4277 44.0564 39.3854C44.1031 39.261 44.1342 39.1262 44.1705 38.9965L44.2742 38.6024C44.3416 38.3379 44.3727 38.0683 44.4297 37.8038C44.5179 37.2697 44.5698 36.7149 44.6009 36.16C44.6579 35.0555 44.6009 33.9406 44.4297 32.8309C44.1342 30.7307 43.4912 28.6669 42.6459 26.6756C41.8007 24.6843 40.7376 22.7657 39.5346 20.9611C39.2546 20.5359 38.959 20.1262 38.6634 19.7321L38.4456 19.4417L38.2019 19.1358C38.1759 19.115 38.1708 19.0787 38.1604 19.0476L38.1345 18.9543L38.0774 18.7572L37.8752 17.9742C37.5952 17.0408 37.2374 16.1178 36.8121 15.2258C36.3869 14.3391 35.8891 13.4731 35.3291 12.6486C35.0542 12.239 34.7638 11.8345 34.4579 11.4404C34.3075 11.2485 34.1519 11.0515 33.9964 10.8648C33.9964 10.8648 33.9912 10.8751 33.9808 10.87L33.9445 10.9011C33.8719 10.9374 33.789 10.9892 33.7112 11.0411C33.4 11.2485 33.0837 11.5078 32.7726 11.793C32.1607 12.379 31.5747 13.0531 31.0302 13.7635C30.4857 14.4739 29.9672 15.2207 29.4746 15.9881L29.2931 16.2785L29.1271 16.543L28.9456 16.8334C28.816 17.0356 28.7071 17.243 28.5826 17.4453L28.4011 17.7564L28.3648 17.829L28.3493 17.8653C28.3441 17.8757 28.3441 17.8757 28.3337 17.8705L28.313 17.8601L28.147 17.8031L26.8092 17.3416L26.7729 17.326L26.7521 17.3156C26.7521 17.3156 26.7262 17.3001 26.7003 17.3053L26.6588 17.2949L26.581 17.269L26.4254 17.2327L26.1247 17.1497C24.4653 16.766 22.6659 16.7141 20.8872 16.8749C20.6643 16.8956 20.4465 16.9215 20.2235 16.9423L19.8968 16.9838L19.6997 17.0149L19.3575 17.0719C19.1242 17.1134 18.8856 17.1601 18.6574 17.2119L18.3048 17.2845C18.2789 17.2949 18.2426 17.3001 18.2167 17.3001L18.1752 17.2223L18.087 17.0667L17.3922 15.8948L17.221 15.5992L17.0396 15.3088L16.6766 14.7436C16.5469 14.5569 16.4173 14.3754 16.298 14.1939L16.1061 13.9243L15.8987 13.6598C15.3646 12.9597 14.7838 12.296 14.146 11.736C13.8349 11.4559 13.5082 11.2018 13.1763 10.9892L13.1244 10.9529L13.0467 11.0411C12.917 11.2174 12.777 11.3781 12.6577 11.5648L12.2844 12.1041C12.1651 12.2856 12.0407 12.4775 11.9214 12.6694C11.4495 13.4368 11.0087 14.225 10.5835 15.0392C10.1687 15.8585 9.77456 16.683 9.39601 17.5231C9.20933 17.9483 9.02784 18.3631 8.85153 18.7883L8.59225 19.4158C8.57669 19.4417 8.52484 19.5869 8.47817 19.6803L8.31742 19.924L8.12555 20.2196C7.11955 21.7804 6.15503 23.3724 5.23718 24.9747L5.18533 25.0629L5.13347 25.151C4.6564 26.0067 4.19489 26.8571 3.78004 27.7283C3.67114 27.9409 3.56743 28.1639 3.47928 28.3816L3.32889 28.7083L3.18888 29.0298C3.01257 29.4602 2.85701 29.8958 2.75848 30.2796L2.73255 30.4144C2.72218 30.4662 2.72737 30.4766 2.717 30.5181C2.717 30.5388 2.71181 30.4351 2.72218 30.4611L2.717 30.4922C2.71181 30.5025 2.72218 30.5077 2.70663 30.5337C2.69625 30.5544 2.69625 30.5855 2.69107 30.5959L2.6807 30.6944L2.67033 30.7359V30.7566L2.65995 30.7981L2.61329 30.9952L2.46809 31.6745C2.42142 31.9027 2.40586 32.1308 2.36956 32.3538C2.34364 32.582 2.29696 32.8049 2.29178 33.0331L2.25029 33.7176V34.3969C2.25029 34.6199 2.26585 34.8481 2.28659 35.071C2.30733 35.294 2.31252 35.5274 2.36438 35.74C2.61328 37.529 3.32889 39.2351 4.36082 40.7544C5.39275 42.2738 6.75137 43.5961 8.25519 44.7369C9.27675 45.5096 10.3035 46.1578 11.3665 46.6971Z" fill="#221714"/>
<path d="M12.3051 13.6392C12.3051 13.6392 10.4383 17.0772 10.345 18.6432C10.345 18.6432 11.6569 17.5543 13.5963 17.8187L12.3051 13.6392Z" fill="#FFCB6E"/>
<path d="M33.2183 18.2283C33.2183 18.2283 35.7333 18.4098 36.7289 18.778C36.7289 18.778 35.5103 14.6347 34.5147 14.2614L33.2183 18.2283Z" fill="#FFCB6E"/>
<path d="M16.4017 26.1568C16.998 26.4317 17.7085 26.1724 17.9885 25.5761C18.2633 24.9797 18.004 24.2693 17.4077 23.9945C16.8114 23.7196 16.1009 23.9789 15.8209 24.5752C15.5409 25.1664 15.8054 25.8768 16.4017 26.1568Z" fill="white"/>
<path d="M29.3499 26.1103C29.9462 26.3852 30.6567 26.1259 30.9367 25.5295C31.2115 24.9332 30.9522 24.2228 30.3559 23.9479C29.7596 23.6731 29.0491 23.9324 28.7691 24.5287C28.4943 25.1251 28.7536 25.8303 29.3499 26.1103Z" fill="white"/>
<path d="M9.80607 34.9103C11.5847 34.9207 13.0315 34.065 13.0367 32.9968C13.0419 31.9286 11.6055 31.0574 9.82682 31.0418C8.04816 31.0315 6.60139 31.8871 6.59621 32.9553C6.59102 34.0235 8.02742 34.8947 9.80607 34.9103Z" fill="#FF9671"/>
<path d="M37.1547 35.0867C38.9334 35.097 40.3801 34.2414 40.3853 33.1732C40.3905 32.105 38.9541 31.2338 37.1755 31.2182C35.3968 31.2027 33.95 32.0635 33.9448 33.1317C33.9397 34.1999 35.3761 35.0711 37.1547 35.0867Z" fill="#FF9671"/>
<path d="M9.49933 48.2785C9.44229 48.2525 9.42674 48.2422 9.38525 48.1592C9.2245 47.8947 9.08967 47.4799 9.19338 47.1065C9.30747 46.7383 9.63934 46.4168 10.3809 46.2509C10.4068 46.2405 10.5209 46.2354 10.5727 46.2509C11.6462 46.8161 12.7766 47.3399 13.9226 47.8066C17.5785 49.2845 21.4676 50.249 25.3672 50.3734L26.3836 50.3786L27.3948 50.3475C27.3948 50.3475 27.4518 50.3527 27.5399 50.3475C27.6333 50.3423 27.7785 50.3475 27.9496 50.3423C28.1207 50.3423 28.3385 50.3423 28.5771 50.3371C28.8208 50.3268 29.0749 50.3164 29.3653 50.306C29.6505 50.3008 29.9512 50.2697 30.2572 50.2438C30.4128 50.2231 30.5735 50.2231 30.7291 50.2023C30.8846 50.1816 31.0454 50.1556 31.2113 50.1401L31.6936 50.0779L31.9373 50.0416C32.0099 50.0312 32.0981 50.0156 32.1707 50.0001C32.4922 49.943 32.7981 49.8964 33.0989 49.8549C33.5967 49.7356 34.0064 49.6526 34.3486 49.5852C34.6805 49.5023 34.9501 49.4556 35.1472 49.4348C35.5517 49.3934 35.6969 49.4504 35.6398 49.5956C35.5828 49.7408 35.3339 49.9638 34.9449 50.2386C34.8464 50.306 34.7427 50.3838 34.6286 50.4564C34.5145 50.529 34.3849 50.5912 34.2604 50.6586C34.0012 50.7987 33.716 50.949 33.4152 51.0942C33.4878 51.0839 33.1507 51.2239 32.6011 51.4313C32.3314 51.5454 31.9944 51.6387 31.6365 51.7528C31.4551 51.8047 31.2632 51.8721 31.0713 51.9187C30.8795 51.9654 30.672 52.0173 30.4802 52.0639C30.2779 52.1054 30.0809 52.1625 29.8838 52.2039C29.6816 52.2454 29.4845 52.2817 29.2979 52.318C29.1112 52.3543 28.9245 52.3958 28.7482 52.4269C28.5667 52.4477 28.4111 52.4736 28.2504 52.4995C27.9392 52.5358 27.68 52.5877 27.4985 52.6032C27.317 52.624 27.2133 52.6292 27.2133 52.6292C26.8917 52.6395 26.5806 52.6499 26.2591 52.6499L25.3101 52.6395C24.2523 52.6032 23.1944 52.5306 22.1521 52.3751L21.7528 52.3284L21.3639 52.261C21.0995 52.2195 20.8454 52.178 20.5861 52.1262C20.0675 52.0224 19.5542 51.9291 19.046 51.8098C16.9925 51.3431 15.0064 50.6949 13.067 49.9067C11.8536 49.4348 10.6661 48.8955 9.49933 48.2785Z" fill="#AE1E25"/>
<path d="M17.0236 29.1648C17.2362 30.6323 16.0747 30.9901 14.6019 31.2027C13.1292 31.4153 11.9106 31.405 11.698 29.9375C11.4854 28.4648 12.5018 27.1061 13.9745 26.8883C15.4472 26.6757 16.811 27.6921 17.0236 29.1648Z" fill="#221714"/>
<path d="M17.0033 28.4282C17.1019 28.589 16.9722 28.8587 16.7078 29.0142C16.4485 29.1853 16.0388 29.035 16.0388 29.035C16.0388 29.035 16.0699 28.6046 16.3344 28.449C16.6092 28.2779 16.9048 28.2727 17.0033 28.4282Z" fill="#F6F6F6"/>
<path d="M34.8313 29.6262C34.6342 31.0989 33.4104 31.1197 31.9429 30.9174C30.4702 30.7204 29.3035 30.3729 29.5005 28.9002C29.6976 27.4275 31.0562 26.406 32.5185 26.5979C33.9964 26.8053 35.0284 28.1535 34.8313 29.6262Z" fill="#221714"/>
<path d="M35.013 28.9158C35.0648 29.0973 34.8626 29.3099 34.567 29.4136C34.2663 29.5017 33.9292 29.2528 33.9292 29.2528C33.9292 29.2528 34.0796 28.8587 34.3752 28.755C34.6656 28.6669 34.9611 28.7343 35.013 28.9158Z" fill="#F6F6F6"/>
<path d="M23.4642 33.173C24.9836 33.2663 26.2748 32.4418 26.3422 31.3269C26.4097 30.212 25.2377 29.2268 23.7183 29.1334C22.199 29.0349 20.9078 29.8646 20.8403 30.9795C20.7677 32.0944 21.9449 33.0745 23.4642 33.173Z" fill="#221714"/>
<path d="M23.9222 34.4902L23.9055 34.4958C23.9167 34.5014 23.9334 34.5069 23.9445 34.5125L23.9222 34.4902Z" fill="#C3351E"/>
<path d="M25.7724 36.129L25.3316 35.7349C23.4752 36.1186 21.7951 39.567 21.2869 40.713C21.681 41.382 22.3499 41.8642 23.4804 41.8331C27.0117 41.7449 25.7724 36.129 25.7724 36.129Z" fill="#C3351E"/>
<path d="M25.3259 35.7451L23.9517 34.5317C23.9413 34.5265 23.9258 34.5161 23.9154 34.5161L20.8715 37C20.8715 37 20.4411 39.3024 21.2811 40.7388C21.7945 39.5669 23.4591 36.1236 25.3259 35.7451Z" fill="#A62124"/>
<path d="M22.5986 32.4833C22.5986 32.4626 22.5986 32.4626 22.6401 32.4211C22.8786 32.224 23.4905 31.9337 24.2476 32.3278C24.2684 32.3381 24.3099 32.3692 24.3254 32.3848C24.3254 32.4055 24.3513 32.9189 24.3876 33.6708C24.3928 33.8523 24.4032 34.0546 24.4136 34.2723C24.4188 34.3864 24.4291 34.5057 24.4343 34.6198C24.4395 34.7339 24.4447 34.8428 24.4499 34.9568C24.4551 35.0709 24.4499 35.1798 24.4499 35.2991L24.4551 35.3821C24.4395 35.408 24.4136 35.4184 24.3928 35.4443L24.2684 35.5687C24.1854 35.6465 24.1024 35.7295 24.0091 35.8125L23.8743 35.9317L23.7654 36.0199L23.6098 36.1392C23.3972 36.2999 23.1794 36.4607 22.9461 36.6162C22.4794 36.9118 21.9712 37.1711 21.4267 37.3267C20.877 37.4822 20.2755 37.5289 19.7569 37.4044C19.6325 37.3785 19.508 37.3318 19.3888 37.2904C19.3317 37.2644 19.285 37.2437 19.2332 37.2281C19.2124 37.2178 19.1865 37.2074 19.1658 37.197C19.1398 37.1866 19.1191 37.1763 19.0932 37.1607C18.922 37.0674 18.7872 36.9844 18.6783 36.9118C18.4553 36.7614 18.3361 36.6525 18.3361 36.6525C18.3361 36.6525 18.2635 36.5851 18.1494 36.4399C18.0353 36.2947 17.8797 36.0873 17.7657 35.7969C17.636 35.5117 17.5686 35.128 17.6257 34.7546C17.6775 34.3968 17.8538 34.0909 18.0301 33.8782C18.1805 33.6967 18.3153 33.5827 18.4398 33.5049C18.5642 33.4271 18.668 33.3856 18.7457 33.3649C18.9169 33.3182 18.9998 33.3597 19.0258 33.4478C19.0932 33.6138 18.922 33.9871 18.8598 34.3449C18.8754 34.3294 18.8546 34.4331 18.8391 34.5627C18.8339 34.6976 18.865 34.822 18.948 34.9413C19.0206 35.0554 19.1502 35.1695 19.2799 35.2524C19.4043 35.3302 19.5028 35.3872 19.5028 35.3872C19.5028 35.3872 19.5702 35.4391 19.6999 35.5221C19.8399 35.6102 20.0058 35.6984 20.2029 35.7347C20.3999 35.771 20.68 35.7554 21.0118 35.6569C21.3437 35.5532 21.7119 35.3717 22.0697 35.1383C22.2512 35.0191 22.4223 34.8946 22.5934 34.7702C22.6349 34.7339 22.6816 34.6976 22.7179 34.6716C22.7023 34.3346 22.692 34.0234 22.6764 33.759C22.6194 33.0174 22.6038 32.5196 22.5986 32.4833Z" fill="#221714"/>
<path d="M23.2313 35.8592C23.2106 35.8488 23.2157 35.8436 23.2261 35.7969C23.2365 35.6517 23.3091 35.4288 23.4595 35.1902C23.6202 34.9621 23.8795 34.7287 24.2373 34.542C24.2529 34.5368 24.3047 34.5161 24.3151 34.5213C24.3255 34.5265 24.3981 34.5835 24.5329 34.6872C24.6677 34.7857 24.8544 34.9258 25.0774 35.0761C25.5285 35.3769 26.1715 35.7295 26.7886 35.8903C27.0894 35.9732 27.3746 35.994 27.5976 35.9577C27.8154 35.9214 27.9761 35.8488 28.1057 35.7399C28.2509 35.6258 28.3132 35.5428 28.3443 35.4754C28.3754 35.408 28.3858 35.3821 28.3858 35.3821C28.3858 35.3821 28.4013 35.3665 28.4324 35.325C28.4635 35.2836 28.4947 35.2161 28.5206 35.1072C28.5828 34.8998 28.5621 34.5265 28.5154 34.1894C28.3858 33.6345 28.365 33.3856 28.5413 33.3079C28.7125 33.2508 29.0495 33.4064 29.3555 33.7279C29.3399 33.6864 29.7029 34.0598 29.9155 34.6457C30.0192 34.9309 30.0711 35.2836 30.0555 35.5636C30.0503 35.6984 30.0296 35.8125 30.014 35.8955C29.9985 35.9784 29.9881 36.0199 29.9881 36.0199C29.9881 36.0199 29.9725 36.0562 29.9414 36.1236C29.9103 36.191 29.8637 36.2896 29.7962 36.4088C29.6562 36.637 29.4229 36.9274 29.0962 37.1607C28.7643 37.4148 28.2717 37.6171 27.7687 37.6793C27.2657 37.7415 26.7627 37.6741 26.3115 37.5445C25.4041 37.2956 24.6729 36.8496 24.1284 36.5074C23.5787 36.1547 23.2469 35.8747 23.2313 35.8592Z" fill="#221714"/>
</svg>
