<?xml version="1.0" encoding="utf-8"?>
<!-- Generator: Adobe Illustrator 26.0.2, SVG Export Plug-In . SVG Version: 6.00 Build 0)  -->
<svg version="1.1" id="圖層_1" xmlns="http://www.w3.org/2000/svg" xmlns:xlink="http://www.w3.org/1999/xlink" x="0px" y="0px"
	 viewBox="0 0 452.71 98.51" style="enable-background:new 0 0 452.71 98.51;" xml:space="preserve">
<style type="text/css">
	.st0{fill:#FFFFFF;}
</style>
<g>
	<path class="st0" d="M64.97,5.13c-0.73,4.61-0.84,7.76-0.84,16.87v43.7c0,8.59-2.31,15.2-7.23,20.12
		c-5.34,5.45-13.83,8.49-24.1,8.49c-11.42,0-20.02-3.25-25.88-9.75C3.88,81.22,2.41,78.6,0,72.31l20.44-7.02
		c2.2,8.17,5.34,11.11,12.05,11.11c7.02,0,10.27-3.46,10.27-10.69v-43.6c0-8.91-0.21-12.16-0.84-16.98H64.97z"/>
	<path class="st0" d="M149.54,76.82c6.18,9.22,7.54,11.11,11.11,15.51H133.4c-1.47-3.35-4.51-8.91-7.23-13.31l-16.24-25.99
		L99.35,63.61v13.2c0,6.5,0.21,9.96,0.84,15.51H77.97c0.63-5.34,0.84-9.22,0.84-15.51V20.65c0-6.39-0.21-10.48-0.84-15.51h22.22
		c-0.63,5.45-0.84,8.91-0.84,15.51v18.55l20.85-22.32c4.09-4.3,6.81-7.86,9.12-11.74h28.3c-1.89,1.89-2.62,2.73-4.09,4.19
		c-5.45,5.45-5.45,5.45-7.33,7.34l-21.9,22.95L149.54,76.82z"/>
	<path class="st0" d="M224.05,35.53c-1.99-9.54-7.54-14.25-16.56-14.25c-12.79,0-20.23,10.06-20.23,27.35
		c0,17.08,7.75,27.46,20.75,27.46c5.76,0,10.69-2.41,13.73-6.6c1.78-2.52,2.52-4.61,3.14-9.01l21.8,3.25
		c-1.99,8.91-4.3,14.04-8.7,19.18c-6.5,7.44-16.66,11.42-29.34,11.42c-12.79,0-23.58-3.98-31.02-11.53
		c-7.76-7.86-12.16-20.12-12.16-34.16c0-14.25,4.4-26.3,12.68-34.48c7.23-7.02,17.82-10.9,30.08-10.9c13.52,0,24.1,4.61,30.92,13.73
		c3.35,4.3,5.14,8.17,6.5,14.36L224.05,35.53z"/>
	<path class="st0" d="M266.28,19.6c-5.03,0-7.75,0.1-11.53,0.52V5.66c3.46,0.52,6.18,0.63,11.95,0.63h27.25
		c-0.11-2.52-0.21-3.88-0.63-6.29h16.87c-0.42,2.31-0.52,3.67-0.63,6.29h28.4c5.87,0,8.49-0.1,12.05-0.63v14.46
		c-3.35-0.42-6.6-0.52-11.63-0.52h-28.82v3.14h21.48c6.08,0,8.17-0.1,11.11-0.31c-0.31,3.46-0.42,5.24-0.42,9.33v19.18
		c0,4.19,0.1,5.97,0.42,9.33c-2.72-0.21-3.98-0.31-9.12-0.31v3.46h5.03c5.87,0,8.49-0.1,12.05-0.63v14.57
		c-3.77-0.31-7.65-0.52-11.63-0.52h-5.45v10.38c0,8.8-4.4,11.42-18.97,11.42c-1.78,0-4.51-0.1-8.07-0.21
		c-1.05-6.29-2.2-9.85-4.4-14.46c4.61,0.52,8.28,0.73,11.84,0.73c3.46,0,4.09-0.31,4.09-2.2v-5.66h-30.71
		c5.03,3.88,8.7,7.34,12.79,11.84l-13,9.85c-5.76-6.81-9.43-10.38-15.51-15.2l9.33-6.5h-14.15c-3.88,0-7.54,0.21-11.53,0.52V62.77
		c3.46,0.52,6.18,0.63,11.95,0.63h50.83v-3.46h-43.91c-5.76,0-8.07,0.1-11,0.31c0.31-3.46,0.42-5.45,0.42-9.33V31.75
		c0-3.88-0.1-5.76-0.42-9.33c2.93,0.21,4.93,0.31,11,0.31h20.33V19.6H266.28z M278.43,33.01v3.67h15.51v-3.67H278.43z M278.43,45.9
		v3.88h15.51V45.9H278.43z M309.56,36.68h16.66v-3.67h-16.66V36.68z M309.56,49.78h16.66V45.9h-16.66V49.78z"/>
	<path class="st0" d="M416.66,82.16c0,6.92,0.1,9.85,0.52,13.41h-16.77c0.42-3.35,0.63-6.5,0.63-13.31V67.49h-20.02
		c-1.47,13.2-4.19,22.11-9.85,31.75c-5.87-6.29-8.49-8.49-14.25-11.95c7.96-13.31,9.64-25.26,9.64-70c0-6.18-0.21-10.38-0.52-14.36
		c3.88,0.31,6.5,0.42,12.47,0.42h61.1c6.5,0,9.64-0.1,13.1-0.42c-0.42,3.67-0.52,6.6-0.52,13.41v68.33
		c0,9.75-3.98,12.79-16.66,12.79c-3.56,0-7.34-0.11-11.42-0.31c-0.73-5.56-1.68-9.01-4.19-15.09c4.61,0.42,8.7,0.63,11.63,0.63
		c3.77,0,4.61-0.42,4.61-2.31V67.49h-19.49V82.16z M382.39,42.76c-0.1,4.3-0.1,5.45-0.31,10.06h18.97V42.76H382.39z M401.04,18.34
		H382.6v9.85h18.44V18.34z M436.15,28.19v-9.85h-19.49v9.85H436.15z M416.66,52.82h19.49V42.76h-19.49V52.82z"/>
</g>
</svg>
