<svg width="77" height="22" viewBox="0 0 77 22" fill="none" xmlns="http://www.w3.org/2000/svg">
<path fill-rule="evenodd" clip-rule="evenodd" d="M38.7145 0.147716L41.1183 5.29288L46.7001 5.93804C46.8291 5.93804 46.9259 6.06707 46.9098 6.1961C46.9098 6.26062 46.8775 6.30901 46.8291 6.34126L42.6831 10.2122L43.7962 15.7122C43.8285 15.8413 43.7317 15.9542 43.6188 15.9864C43.5543 15.9864 43.5059 15.9864 43.4575 15.9542L38.4887 13.1961L33.6006 15.9542C33.4876 16.0187 33.3424 15.9703 33.2779 15.8574C33.2456 15.809 33.2456 15.7606 33.2456 15.6961L34.3265 10.1155L30.1966 6.32514C30.0998 6.24449 30.0998 6.09933 30.1966 6.00255C30.2289 5.95417 30.2934 5.93804 30.3418 5.92191L35.9882 5.22836L38.2951 0.131587C38.3435 0.0186836 38.4887 -0.0297035 38.6016 0.0186836C38.65 0.0509417 38.6984 0.0831997 38.7145 0.131587V0.147716Z" fill="#FFDA2E"/>
<path fill-rule="evenodd" clip-rule="evenodd" d="M6.77225 4.26067L10.4343 8.61551L15.9839 7.79293C16.1129 7.7768 16.2258 7.85744 16.242 7.98647C16.242 8.05099 16.242 8.11551 16.2097 8.14777L13.2091 12.9703L15.7096 18.0026C15.7741 18.1155 15.7096 18.2607 15.5967 18.3091C15.5483 18.3413 15.4838 18.3413 15.4354 18.3091L9.91807 16.9381L5.9011 20.8574C5.80431 20.9542 5.65911 20.9381 5.57845 20.8574C5.54619 20.8091 5.51392 20.7607 5.51392 20.7123L5.11061 15.0349L0.125697 12.4542C0.0127705 12.3897 -0.0356268 12.2607 0.0289029 12.1478C0.0611677 12.0994 0.0934325 12.0671 0.14183 12.0349L5.41713 9.90583L6.35281 4.37357C6.36894 4.24454 6.498 4.16389 6.62706 4.18002C6.69159 4.18002 6.73999 4.22841 6.77225 4.26067Z" fill="#FFDA2E"/>
<path fill-rule="evenodd" clip-rule="evenodd" d="M70.6405 4.42188L71.6246 10.0187L76.8515 12.0832C76.9644 12.1316 77.0289 12.2606 76.9805 12.3896C76.9644 12.4541 76.916 12.4864 76.8676 12.5187L71.8504 15.1961L71.4955 20.7928C71.4955 20.9219 71.3826 21.0187 71.2535 21.0025C71.189 21.0025 71.1406 20.9703 71.1083 20.938L67.0107 16.9864L61.5741 18.3896C61.445 18.4219 61.3159 18.3412 61.2998 18.2283C61.2998 18.1799 61.2998 18.1154 61.2998 18.067L63.7842 12.9541L60.7836 8.2122C60.719 8.0993 60.7513 7.95414 60.8481 7.88962C60.8965 7.85736 60.9449 7.84123 61.0094 7.85736L66.6558 8.64768L70.2372 4.3251C70.3178 4.22833 70.463 4.2122 70.5598 4.29285C70.6082 4.3251 70.6243 4.38962 70.6405 4.43801V4.42188Z" fill="#FFDA2E"/>
</svg>
