<svg width="129" height="170" viewBox="0 0 129 170" fill="none" xmlns="http://www.w3.org/2000/svg">
<path fill-rule="evenodd" clip-rule="evenodd" d="M62.2775 56.0448C56.2382 54.8336 52.9528 52.6533 47.8798 50.5215C43.5315 48.6804 39.3281 49.068 39.3281 54.7367V62.2949L37.5888 72.8571L0.0966291 62.2949L0 53.3316C0 25.1819 17.6348 -2.14406 48.5079 0.18156C55.7067 0.714514 61.891 2.94323 68.3652 5.94715C72.327 7.78827 76.9168 10.3077 81.1685 11.1798C87.6427 12.488 91.1697 8.70882 92.5225 2.50718L124.893 2.50718L129 9.04798C125.473 29.0095 107.5 52.0719 102.089 61.4228C93.1989 76.7816 86.4831 93.4 84.2124 111.133C82.4247 125.038 83.4393 140.203 84.7921 153.285H24.6404C23.8191 131.434 28.264 115.154 39.2798 93.0609C44.0146 83.5162 49.6674 74.456 55.6584 65.638C57.9292 62.2465 59.9101 59.4848 62.2775 56.1417V56.0448Z" fill="url(#paint0_linear_251_39314)"/>
<path fill-rule="evenodd" clip-rule="evenodd" d="M62.5188 65.5895C61.7941 65.3957 61.021 65.2019 60.248 64.9597C55.2233 63.3124 51.4064 60.696 46.7199 58.7096C42.0817 56.7716 37.5884 57.1592 37.5884 63.2155V72.9055H0.192928L0.0962988 63.3124C-0.048645 49.504 0.482816 36.7616 7.82664 24.6005C15.8952 11.2767 32.4188 5.46264 47.3963 6.57699C55.0783 7.1584 61.6974 9.53247 68.6064 12.7302C72.8098 14.6682 77.7379 17.3814 82.2794 18.302C89.1884 19.6586 92.957 15.6372 94.4064 9.04796L128.951 9.04796L128.661 19.0287C128.275 32.5464 111.751 59.5817 104.601 71.9365C95.0828 88.3612 87.9323 106.094 85.5165 124.99C83.5839 139.815 85.3716 156.046 86.7727 170H25.9929C22.3693 144.612 25.7997 129.253 37.5401 105.706C42.6132 95.5318 48.6525 85.8418 54.9817 76.394C57.4457 72.7602 59.9581 69.2233 62.4705 65.638L62.5188 65.5895Z" fill="url(#paint1_linear_251_39314)"/>
<path d="M80.6849 54.882C80.6849 54.882 81.313 55.1727 81.313 55.318C81.313 55.4634 80.395 56.8684 78.559 59.5816C63.4849 81.4327 30.0995 122.955 34.5444 160.261H75.9501C74.6939 142.383 70.3456 111.763 96.2422 67.043C101.847 57.4014 118.708 29.3486 118.998 18.738H101.412C99.7208 23.8737 95.6624 26.6839 90.5894 27.7982C74.9838 31.2382 64.4512 17.5752 46.6714 16.2186C32.8051 15.1527 21.1613 21.2574 16.0883 29.6393C9.9523 39.7654 9.6141 50.7637 9.75904 63.2154H27.9253C27.9253 54.9789 32.9984 48.002 41.8399 47.9051C55.3197 47.7598 61.4557 62.0526 80.7332 54.9304L80.6849 54.882Z" fill="url(#paint2_linear_251_39314)"/>
<path fill-rule="evenodd" clip-rule="evenodd" d="M94.455 8.99948L92.5708 2.45868C91.218 8.61187 87.691 12.391 81.2169 11.1313C76.9652 10.2592 72.3753 7.73977 68.4135 5.89865C61.9393 2.94318 55.7067 0.666014 48.5562 0.13306C17.6348 -2.14411 0 25.1819 0 53.3315L0.0966291 62.2949C-8.9993e-08 48.8257 0.628089 36.4224 7.82697 24.552C15.8955 11.2282 32.4191 5.41415 47.3966 6.52851C55.0787 7.10991 61.6978 9.48398 68.6067 12.6817C72.8101 14.6197 77.7382 17.3329 82.2798 18.2535C89.1888 19.6101 92.9573 15.5887 94.4067 8.99948H94.455Z" fill="url(#paint3_linear_251_39314)"/>
<path fill-rule="evenodd" clip-rule="evenodd" d="M92.5229 2.50708L94.4072 9.04788L128.952 9.04788L124.845 2.50708L92.4746 2.50708H92.5229Z" fill="url(#paint4_linear_251_39314)"/>
<path fill-rule="evenodd" clip-rule="evenodd" d="M77.98 10.2592C80.7339 11.9066 81.7968 16.2671 80.1541 17.7206C80.8789 17.9629 81.6036 18.1082 82.28 18.2536C89.189 19.6102 92.9575 15.5888 94.407 8.99954L92.5227 2.45874C91.1699 8.61193 87.6429 12.3911 81.1687 11.1314C80.1058 10.9376 79.0429 10.5984 77.98 10.2108V10.2592Z" fill="url(#paint5_linear_251_39314)"/>
<path fill-rule="evenodd" clip-rule="evenodd" d="M75.7093 156.385H34.2554C34.3037 157.694 34.4486 158.953 34.5936 160.213H75.9992C75.9026 159.002 75.8059 157.694 75.7093 156.385Z" fill="url(#paint6_linear_251_39314)"/>
<path fill-rule="evenodd" clip-rule="evenodd" d="M9.75928 63.167H27.9256C27.9256 61.8588 28.0705 60.5507 28.3121 59.3394H9.75928C9.75928 58.9034 9.75928 58.5158 9.75928 58.0797C9.75928 59.7755 9.75928 61.4712 9.75928 63.167Z" fill="url(#paint7_linear_251_39314)"/>
<path fill-rule="evenodd" clip-rule="evenodd" d="M28.4092 58.9519C29.8586 52.7018 34.5934 48.0021 41.8406 47.9052C55.3204 47.7599 61.4564 62.0527 80.7339 54.9305C80.9272 54.8821 81.362 55.1728 81.362 55.3181V51.4905C81.362 51.4905 80.9272 51.006 80.7339 51.0545C61.4564 58.1767 55.3204 43.8838 41.8406 44.0292C33.1923 44.1261 28.6024 50.9091 28.4092 58.9519Z" fill="url(#paint8_linear_251_39314)"/>
<path style="mix-blend-mode:screen" fill-rule="evenodd" clip-rule="evenodd" d="M31.3081 52.7986C37.6856 45.4341 45.5609 46.3547 53.5811 50.473C63.5823 55.6087 67.0126 57.6921 78.125 55.754C67.4474 59.0487 62.1811 56.2386 52.953 51.6842C45.7059 48.0989 38.9901 45.7248 31.3564 52.7986H31.3081Z" fill="url(#paint9_radial_251_39314)"/>
<path style="mix-blend-mode:screen" fill-rule="evenodd" clip-rule="evenodd" d="M82.5217 51.4904V57.9828C82.5217 58.3704 82.5217 58.5642 82.3767 58.9518C82.1835 59.3394 81.8453 59.8724 81.652 60.1631C72.7138 72.2272 61.1183 86.3747 54.1127 98.1966C53.6779 98.9718 53.6295 99.8439 54.1127 100.619C54.5475 101.394 55.3206 101.83 56.1902 101.83H76.8206C78.4149 101.83 79.7678 100.861 80.2509 99.3594C84.0194 88.1674 89.3824 76.4908 95.2284 66.4132C97.1127 63.167 98.997 59.9693 100.833 56.7231C103.297 52.411 105.713 48.0989 108.032 43.6899C110.641 38.6511 115.231 28.6703 115.955 22.9047C111.559 23.7768 106.921 23.7768 102.282 22.9047C92.861 41.7519 74.5015 30.899 64.0655 25.5695C58.5093 22.7109 52.7599 19.8039 46.479 19.3194C22.0318 17.4783 11.1127 35.2111 10.9194 58.0797C15.0262 56.8684 22.9981 56.82 27.2015 58.0797C27.1048 49.2617 32.806 42.1395 41.7925 42.0426C50.4408 41.9457 55.9487 48.6319 63.6307 51.1513C69.2835 52.9924 74.5015 52.3141 80.0576 49.94C80.3475 49.8431 80.4925 49.7462 80.8307 49.7947C81.652 49.8431 82.5217 50.5699 82.5217 51.442V51.4904Z" fill="url(#paint10_linear_251_39314)"/>
<path style="mix-blend-mode:screen" opacity="0.5" fill-rule="evenodd" clip-rule="evenodd" d="M31.1146 8.03043C29.8584 6.52847 32.0809 1.87723 35.5112 1.00513C12.7551 6.09241 0 29.397 0 53.3315L0.0966291 62.2948C-8.9993e-08 48.8256 0.628089 36.4223 7.82697 24.552C12.9966 16.0247 21.6449 10.5498 31.1146 8.03043Z" fill="url(#paint11_linear_251_39314)"/>
<path style="mix-blend-mode:screen" fill-rule="evenodd" clip-rule="evenodd" d="M30.7275 8.12746C49.4253 3.28242 55.368 6.14099 75.2253 14.9105C82.5208 18.1567 89.3332 20.1431 93.1017 11.3736C93.923 9.48407 93.8747 8.80576 93.5365 6.86775C93.295 5.60804 93.0051 4.34833 92.7635 3.08862C93.2466 4.29988 93.7298 5.55959 94.2129 6.77085C94.841 8.36971 94.7927 8.51506 96.7736 8.56351C106.485 8.75731 116.196 8.80576 125.907 8.95111C116.051 9.24182 106.195 9.24182 96.3388 9.87167C95.1309 9.96857 95.0343 10.2108 94.2129 12.0035C89.9612 21.4998 83.2455 20.1916 74.8388 16.364C56.2376 7.93366 51.986 4.34833 30.7759 8.07901L30.7275 8.12746Z" fill="url(#paint12_radial_251_39314)"/>
<path style="mix-blend-mode:multiply" opacity="0.5" fill-rule="evenodd" clip-rule="evenodd" d="M34.8828 167.917C28.0705 167.238 25.6547 160.164 24.9783 153.236C24.7851 151.492 24.7368 149.748 24.7368 148.149C24.6401 149.796 24.6401 151.492 24.6401 153.236C24.6401 158.42 25.1233 163.895 25.9929 169.951H86.821C85.6132 157.936 84.1154 144.224 84.9368 131.191C84.212 137.587 84.2604 142.189 84.3087 148.343C84.3087 149.845 84.3087 151.492 84.3087 153.236C84.3087 153.527 84.3087 153.866 84.3087 154.157C84.3087 160.358 84.8401 167.19 76.8682 167.82C64.548 168.789 47.2031 169.176 34.8828 167.917Z" fill="url(#paint13_linear_251_39314)"/>
<path style="mix-blend-mode:multiply" opacity="0.65" fill-rule="evenodd" clip-rule="evenodd" d="M55.6586 65.5411C53.6777 68.4481 51.7451 71.4035 49.8608 74.4075C51.7934 74.1168 53.8226 76.6362 52.953 79.4948C53.6294 78.4288 54.3541 77.4114 55.0788 76.3455C57.5429 72.7117 60.0552 69.1748 62.5676 65.5895C61.8429 65.3957 61.0698 65.2019 60.2968 64.9597C59.1372 64.572 58.026 64.136 56.9631 63.6515C56.5283 64.2813 56.0934 64.9112 55.6586 65.5411Z" fill="url(#paint14_linear_251_39314)"/>
<path style="mix-blend-mode:screen" fill-rule="evenodd" clip-rule="evenodd" d="M59.8133 69.4171C51.2133 83.5646 41.7436 97.9059 34.3998 114.185C31.5009 120.581 29.0369 127.073 26.7178 133.614C28.0706 126.734 30.2931 120.096 32.9504 113.701C38.6515 99.9408 50.7784 82.0142 59.8133 69.3687V69.4171Z" fill="url(#paint15_radial_251_39314)"/>
<path fill-rule="evenodd" clip-rule="evenodd" d="M37.5889 72.8571L39.2799 62.2949V58.5642C38.217 59.4363 37.5889 60.8898 37.5889 63.2154V72.9055V72.8571Z" fill="#88681E"/>
<path style="mix-blend-mode:screen" opacity="0.5" fill-rule="evenodd" clip-rule="evenodd" d="M50.3919 99.6016C54.0155 93.2546 57.929 87.1014 62.0357 81.0936C64.7897 77.0238 67.5919 73.0508 70.4425 69.0295C72.8582 65.6379 75.2739 62.2949 77.593 58.9033C78.0762 58.1766 78.5593 57.4983 79.0425 56.7715C73.6796 58.4188 68.4616 58.7095 62.9054 56.8684C60.5863 56.0932 58.3638 55.0273 56.1897 53.913C54.1605 52.847 52.1312 51.7811 50.0537 50.8606C47.3964 49.7462 44.7874 49.0679 41.8885 49.0679C33.8683 49.1648 29.1818 55.5118 29.1818 63.167V64.3782H8.55147V63.167C8.40653 51.1513 8.6481 39.5232 15.0739 28.961C17.9728 24.1644 22.5627 20.5791 27.5874 18.2535C33.5784 15.4918 40.2459 14.4744 46.7683 14.9589C53.3874 15.4434 59.1369 17.6236 65.0796 20.3853C70.0077 22.6625 75.1773 25.3757 80.4919 26.5385C83.7773 27.2653 87.0144 27.3137 90.2998 26.5385C94.9863 25.5211 98.7065 23.0016 100.253 18.3019L100.542 17.4783H120.255V18.738C120.158 20.4822 119.772 22.2749 119.289 23.9706C118.66 26.1025 117.887 28.2343 117.066 30.3176C115.037 35.2596 112.621 40.1046 110.157 44.8527C107.838 49.2617 105.422 53.6223 102.91 57.9828C101.074 61.229 99.1414 64.4267 97.3054 67.6729C91.556 77.5567 86.6762 87.9251 83.0526 98.6811C81.6998 102.654 89.1886 103.09 90.3481 99.6985C93.7785 89.8631 98.32 80.3668 103.586 71.3066C105.664 67.7213 107.79 64.136 109.867 60.5022C112.428 56.0448 114.892 51.5873 117.259 47.033C119.868 42.0426 122.332 36.8584 124.362 31.5773C125.811 27.7982 127.357 23.0501 127.502 18.9803L127.744 10.2592L95.3728 10.2592C94.5515 13.3116 93.102 16.3639 90.3964 18.1566C87.8841 19.8524 84.9369 20.0462 82.038 19.4648C77.2065 18.4957 72.52 15.831 68.0751 13.7961C61.311 10.6952 54.7402 8.32118 47.2515 7.73977C32.7571 6.62541 16.62 12.2457 8.79304 25.1819C1.54585 37.1007 1.11102 49.6978 1.20765 63.2639L1.30428 71.6458H36.2841V63.167C36.2841 60.8898 36.9121 58.5157 38.9414 57.2076C41.3571 55.7056 44.6425 56.4808 47.1065 57.4983C51.6964 59.4363 55.8032 62.1495 60.538 63.6999C61.2627 63.9422 61.9874 64.136 62.7121 64.3298L64.4032 64.7658L63.3885 66.2193C60.8762 69.7562 58.3638 73.3415 55.8998 76.9269C51.2616 83.8068 46.8166 90.7837 42.7582 98.0512C40.5357 102.024 48.0245 103.429 50.247 99.5532L50.3919 99.6016Z" fill="url(#paint16_linear_251_39314)"/>
<g style="mix-blend-mode:screen">
<path d="M41.9853 8.07899C41.9853 8.36969 41.7438 8.56349 41.5022 8.56349C41.2606 8.56349 41.019 8.32124 41.019 8.07899C41.019 7.83673 41.2606 7.59448 41.5022 7.59448C41.7438 7.59448 41.9853 7.83673 41.9853 8.07899Z" fill="#FCEA10"/>
</g>
<g opacity="0.5">
<g style="mix-blend-mode:screen">
<path d="M41.8405 99.0691C41.8405 99.0691 41.6955 99.4087 41.5023 99.4087C41.309 99.4087 41.1641 99.2632 41.1641 99.0691C41.1641 98.875 41.309 98.7295 41.5023 98.7295C41.6955 98.7295 41.8405 98.875 41.8405 99.0691Z" fill="#FCEA10"/>
</g>
</g>
<g style="mix-blend-mode:screen">
<path d="M94.7448 8.99984C94.7448 8.99984 94.5999 9.29094 94.4549 9.29094C94.31 9.29094 94.165 9.14539 94.165 8.99984C94.165 8.85429 94.31 8.70874 94.4549 8.70874C94.5999 8.70874 94.7448 8.85429 94.7448 8.99984Z" fill="#FCEA10"/>
</g>
<g style="mix-blend-mode:screen">
<path d="M42.0334 47.8571C42.0334 47.8571 41.9368 48.0997 41.7919 48.0997C41.6469 48.0997 41.5503 48.0026 41.5503 47.8571C41.5503 47.7115 41.6469 47.6145 41.7919 47.6145C41.9368 47.6145 42.0334 47.7115 42.0334 47.8571Z" fill="#FCEA10"/>
</g>
<defs>
<linearGradient id="paint0_linear_251_39314" x1="64.5" y1="153.236" x2="64.5" y2="61.9558" gradientUnits="userSpaceOnUse">
<stop stop-color="#EF9B00"/>
<stop offset="1" stop-color="#915406"/>
</linearGradient>
<linearGradient id="paint1_linear_251_39314" x1="64.548" y1="169.952" x2="64.548" y2="6.38319" gradientUnits="userSpaceOnUse">
<stop stop-color="#F0A830"/>
<stop offset="0.4" stop-color="#935607"/>
<stop offset="0.41" stop-color="#CC911F"/>
<stop offset="0.42" stop-color="#EEB52E"/>
<stop offset="0.43" stop-color="#F6BE31"/>
<stop offset="0.44" stop-color="#F9C133"/>
<stop offset="0.47" stop-color="#F9C133"/>
<stop offset="0.64" stop-color="#F9C133"/>
<stop offset="1" stop-color="#FFED44"/>
</linearGradient>
<linearGradient id="paint2_linear_251_39314" x1="64.4029" y1="160.261" x2="64.4029" y2="16.0732" gradientUnits="userSpaceOnUse">
<stop stop-color="#00258A"/>
<stop offset="1" stop-color="#004DC9"/>
</linearGradient>
<linearGradient id="paint3_linear_251_39314" x1="0" y1="31.1897" x2="94.455" y2="31.1897" gradientUnits="userSpaceOnUse">
<stop stop-color="#FFD836"/>
<stop offset="0.81" stop-color="#915406"/>
</linearGradient>
<linearGradient id="paint4_linear_251_39314" x1="92.5229" y1="5.75325" x2="129" y2="5.75325" gradientUnits="userSpaceOnUse">
<stop stop-color="#EF9B00"/>
<stop offset="1" stop-color="#BD771E"/>
</linearGradient>
<linearGradient id="paint5_linear_251_39314" x1="77.98" y1="10.5015" x2="94.4553" y2="10.5015" gradientUnits="userSpaceOnUse">
<stop offset="0.26" stop-color="#915406"/>
<stop offset="1" stop-color="#FFB338"/>
</linearGradient>
<linearGradient id="paint6_linear_251_39314" x1="55.1273" y1="160.262" x2="55.1273" y2="156.385" gradientUnits="userSpaceOnUse">
<stop stop-color="#EF9B00"/>
<stop offset="1" stop-color="#915406"/>
</linearGradient>
<linearGradient id="paint7_linear_251_39314" x1="19.0357" y1="63.167" x2="19.0357" y2="58.0797" gradientUnits="userSpaceOnUse">
<stop stop-color="#EF9B00"/>
<stop offset="1" stop-color="#915406"/>
</linearGradient>
<linearGradient id="paint8_linear_251_39314" x1="28.4092" y1="51.4905" x2="81.3137" y2="51.4905" gradientUnits="userSpaceOnUse">
<stop stop-color="#915406"/>
<stop offset="0.23" stop-color="#FFD836"/>
<stop offset="0.36" stop-color="#D9AA25"/>
<stop offset="0.48" stop-color="#B98517"/>
<stop offset="0.59" stop-color="#A36A0E"/>
<stop offset="0.69" stop-color="#955908"/>
<stop offset="0.77" stop-color="#915406"/>
<stop offset="0.89" stop-color="#B68116"/>
<stop offset="1" stop-color="#D2A222"/>
</linearGradient>
<radialGradient id="paint9_radial_251_39314" cx="0" cy="0" r="1" gradientUnits="userSpaceOnUse" gradientTransform="translate(47.3002 44.0291) scale(36.9124 37.0161)">
<stop stop-color="#FFF584"/>
<stop offset="0.04" stop-color="#F0E77C"/>
<stop offset="0.25" stop-color="#A8A257"/>
<stop offset="0.45" stop-color="#6C6838"/>
<stop offset="0.63" stop-color="#3D3B1F"/>
<stop offset="0.78" stop-color="#1C1A0E"/>
<stop offset="0.91" stop-color="#070703"/>
<stop offset="1"/>
</radialGradient>
<linearGradient id="paint10_linear_251_39314" x1="63.4857" y1="101.83" x2="63.4857" y2="19.1741" gradientUnits="userSpaceOnUse">
<stop stop-color="#000E1F"/>
<stop offset="0.71" stop-color="#0050AC"/>
<stop offset="1" stop-color="#0084F7"/>
</linearGradient>
<linearGradient id="paint11_linear_251_39314" x1="0" y1="31.6742" x2="35.5112" y2="31.6742" gradientUnits="userSpaceOnUse">
<stop stop-color="#FFCB5C"/>
<stop offset="1" stop-color="#4F3200"/>
</linearGradient>
<radialGradient id="paint12_radial_251_39314" cx="0" cy="0" r="1" gradientUnits="userSpaceOnUse" gradientTransform="translate(82.6657 1.34441) scale(70.636 70.8344)">
<stop stop-color="#FFF584"/>
<stop offset="0.04" stop-color="#F0E77C"/>
<stop offset="0.25" stop-color="#A8A257"/>
<stop offset="0.45" stop-color="#6C6838"/>
<stop offset="0.63" stop-color="#3D3B1F"/>
<stop offset="0.78" stop-color="#1C1A0E"/>
<stop offset="0.91" stop-color="#070703"/>
<stop offset="1"/>
</radialGradient>
<linearGradient id="paint13_linear_251_39314" x1="55.7547" y1="169.951" x2="55.7547" y2="131.191" gradientUnits="userSpaceOnUse">
<stop stop-color="#4F3200"/>
<stop offset="1" stop-color="#FFCB5C"/>
</linearGradient>
<linearGradient id="paint14_linear_251_39314" x1="60.8283" y1="62.8763" x2="49.9634" y2="79.3214" gradientUnits="userSpaceOnUse">
<stop stop-color="#4F3200"/>
<stop offset="1" stop-color="#FFF1D4"/>
</linearGradient>
<radialGradient id="paint15_radial_251_39314" cx="0" cy="0" r="1" gradientUnits="userSpaceOnUse" gradientTransform="translate(24.3987 109.776) scale(74.7427 74.9527)">
<stop stop-color="#FFF584"/>
<stop offset="0.04" stop-color="#F0E77C"/>
<stop offset="0.25" stop-color="#A8A257"/>
<stop offset="0.45" stop-color="#6C6838"/>
<stop offset="0.63" stop-color="#3D3B1F"/>
<stop offset="0.78" stop-color="#1C1A0E"/>
<stop offset="0.91" stop-color="#070703"/>
<stop offset="1"/>
</radialGradient>
<linearGradient id="paint16_linear_251_39314" x1="64.4998" y1="101.927" x2="64.4998" y2="7.59442" gradientUnits="userSpaceOnUse">
<stop stop-color="#996100"/>
<stop offset="1" stop-color="#FFCB5C"/>
</linearGradient>
</defs>
</svg>
