<svg width="188" height="168" viewBox="0 0 188 168" fill="none" xmlns="http://www.w3.org/2000/svg">
<path d="M183.201 91.9738L68.334 2.63409C64.8753 -0.0485983 60.2794 -0.812852 58.0048 0.949611L1.88773 44.5121C-1.13468 46.8672 -0.464763 51.4372 3.44567 54.7125L135.232 164.968C139.781 168.773 145.281 169.023 147.462 165.561L187.439 102.065C189.028 99.5228 187.127 95.0152 183.201 91.9582V91.9738Z" fill="url(#paint0_linear_251_39340)"/>
<path d="M84.2404 53.683C81.2491 56.6308 82.0437 60.1402 83.1654 62.4797C80.439 61.7311 76.4039 61.4035 73.2725 64.4762C69.4711 68.2194 69.362 75.6748 78.3981 83.0522C81.9814 85.9844 85.2998 87.8093 89.4906 89.135C93.5569 90.4296 99.4615 90.9911 106.955 90.8039C109.853 90.7259 112.377 90.5544 113.966 90.4296C117.019 90.18 117.097 90.1176 117.253 89.9305C117.253 89.9305 117.269 89.9149 117.284 89.8993C117.44 89.7121 117.456 89.5094 117.129 86.6863C116.957 85.1578 116.646 82.7871 116.163 80.1044C114.963 73.3665 113.374 68.313 111.411 64.9753C109.448 61.6219 107.158 59.0484 103.777 56.3813C95.2706 49.6434 87.7302 50.2361 84.2248 53.683H84.2404Z" fill="#E52A59"/>
<path d="M25.0234 58.3313C24.1043 59.1267 24.2133 60.0469 24.4626 60.6708C23.7303 60.4681 22.6242 60.3901 21.6894 61.1855C20.5677 62.1525 20.3652 64.0398 22.6086 65.8958C23.4967 66.6289 24.3379 67.0968 25.4285 67.4399C26.4879 67.7831 28.077 67.939 30.1335 67.939C30.9436 67.939 31.6447 67.9078 32.0965 67.8766C32.9534 67.8299 32.9845 67.8143 33.0313 67.7675C33.078 67.7207 33.0936 67.6739 33.1247 66.9564C33.1247 66.5665 33.1403 65.9738 33.1247 65.2875C33.0624 63.5407 32.8132 62.2149 32.3769 61.3415C31.9407 60.4525 31.3798 59.7506 30.5074 59.0331C28.2951 57.2083 26.114 57.3799 25.0234 58.3313Z" fill="#E52A59"/>
<path d="M15.3486 58.7523C15.3486 58.7523 15.2551 58.8303 15.2084 58.8771C15.1616 58.9239 15.1305 58.9551 15.1149 58.9707C15.037 59.033 14.9591 59.0486 14.8812 59.033C14.8033 59.0174 14.6943 58.9551 14.5385 58.8303L13.7595 58.1752C13.6193 58.066 13.557 57.988 13.557 57.9413C13.557 57.8945 13.6193 57.8165 13.7439 57.7229L14.0711 57.4577C14.1646 57.3798 14.2425 57.3018 14.2892 57.2394C14.3359 57.177 14.3827 57.1302 14.3983 57.0834C14.4294 57.0366 14.4294 56.9898 14.3983 56.9119C14.3827 56.8339 14.3515 56.7871 14.3359 56.7559C14.3204 56.7247 14.2736 56.6623 14.2113 56.5531C14.149 56.4439 14.0867 56.366 14.0555 56.3192L8.80525 47.85C8.69619 47.6628 8.64945 47.538 8.66503 47.4757C8.68061 47.3977 8.78967 47.2885 8.9922 47.1325L9.77117 46.5086C9.84907 46.4463 9.92696 46.3995 9.98928 46.3683C10.0672 46.3371 10.1139 46.3059 10.1607 46.2903C10.2074 46.2903 10.2697 46.2903 10.3476 46.2903C10.4255 46.3059 10.4722 46.3215 10.5034 46.3371C10.5346 46.3527 10.6125 46.3839 10.7059 46.4307C10.815 46.4774 10.8929 46.5242 10.9552 46.5398L20.7702 50.9538C20.7702 50.9538 20.8637 51.0006 20.926 51.0318C21.0039 51.063 21.0507 51.0786 21.0663 51.0942C21.0818 51.0942 21.1286 51.1098 21.1753 51.141C21.222 51.1566 21.2688 51.1722 21.2844 51.1722C21.2999 51.1722 21.3311 51.1722 21.3778 51.1722C21.4246 51.1722 21.4557 51.1722 21.4713 51.1722C21.4869 51.1722 21.5181 51.1566 21.5648 51.141C21.6115 51.141 21.6427 51.1098 21.6738 51.0786C21.705 51.0474 21.7362 51.0318 21.7829 51.0006C21.8296 50.9694 21.8764 50.9382 21.9231 50.8914L22.5619 50.3611C22.6554 50.2831 22.7177 50.2519 22.78 50.2675C22.8423 50.2831 22.9358 50.3455 23.0916 50.4859L23.855 51.1254C23.9796 51.2345 24.0575 51.3125 24.0575 51.3593C24.0575 51.4061 23.9952 51.4841 23.855 51.6089L20.038 54.7907C19.9134 54.8998 19.8043 54.9622 19.742 54.9466C19.6797 54.9466 19.5706 54.8842 19.446 54.7907L18.5891 54.0888C18.4801 53.9952 18.4177 53.9328 18.4177 53.886C18.4177 53.8392 18.4177 53.808 18.4801 53.7613L18.9942 53.3401C19.2123 53.153 19.2746 53.0438 19.1967 52.9658C19.1811 52.9658 19.0253 52.8722 18.7293 52.7319L18.3866 52.5759C18.1529 52.4667 17.9971 52.4043 17.9192 52.4199C17.8413 52.4199 17.7011 52.5135 17.5141 52.6695L15.3953 54.4163C15.224 54.5567 15.1149 54.6815 15.0838 54.7907C15.0526 54.8998 15.037 54.9778 15.0838 55.0246C15.1149 55.087 15.1928 55.2274 15.333 55.4457C15.5044 55.7109 15.5979 55.8513 15.6446 55.8825C15.7381 55.9604 15.925 55.8824 16.2366 55.6173C16.2678 55.5861 16.3145 55.5549 16.3457 55.5081C16.3768 55.4613 16.4236 55.4301 16.4392 55.4145C16.5171 55.3521 16.595 55.3366 16.6729 55.3522C16.7507 55.3677 16.8598 55.4457 17.0156 55.5705L17.7011 56.132C17.8725 56.2724 17.9504 56.366 17.9659 56.4283C17.9659 56.4907 17.888 56.5843 17.7323 56.7091L15.3019 58.7367L15.3486 58.7523ZM12.3262 50.5795L13.6816 52.7163C13.8218 52.9346 13.9153 53.075 13.962 53.1218C14.0244 53.1686 14.0867 53.1842 14.149 53.153C14.2113 53.1218 14.3359 53.0282 14.5073 52.8878L15.7848 51.8428C16.0341 51.6401 16.112 51.4841 15.9874 51.3905C15.9562 51.3593 15.9095 51.3281 15.8471 51.2969C15.7848 51.2657 15.7069 51.2345 15.5979 51.1877C15.4888 51.141 15.3953 51.0942 15.333 51.063L12.8092 49.8464C12.6222 49.7684 12.2795 49.5813 11.7653 49.3005C11.594 49.1913 11.4849 49.1601 11.4382 49.1913C11.407 49.2225 11.4537 49.3161 11.594 49.4877C11.703 49.628 11.9523 49.9868 12.3262 50.5951V50.5795Z" fill="#E52A59"/>
<path d="M165.363 89.0572C165.923 88.2618 165.612 87.3727 165.269 86.78C165.908 86.9516 166.811 87.014 167.357 86.2341C168.011 85.2983 167.731 83.5203 165.549 81.8202C164.693 81.1495 163.929 80.7284 162.994 80.4321C162.091 80.1357 160.798 79.9953 159.146 80.0109C158.508 80.0109 157.947 80.0577 157.588 80.0889C156.903 80.1357 156.887 80.1513 156.856 80.1981C156.825 80.2449 156.825 80.2917 156.95 80.9468C157.012 81.3055 157.137 81.867 157.292 82.5221C157.697 84.1753 158.18 85.4543 158.71 86.2965C159.255 87.1544 159.863 87.825 160.735 88.5113C162.948 90.2582 164.693 90.0242 165.378 89.0728L165.363 89.0572Z" fill="#E52A59"/>
<path d="M172.965 88.4022C172.965 88.4022 173.012 88.3242 173.043 88.2774C173.074 88.2306 173.09 88.1994 173.09 88.1838C173.137 88.1214 173.183 88.1058 173.246 88.1058C173.308 88.1058 173.417 88.1838 173.557 88.293L174.336 88.9013C174.476 89.0105 174.539 89.0728 174.554 89.1196C174.554 89.1664 174.539 89.2288 174.476 89.338L174.29 89.6031C174.29 89.6031 174.196 89.7435 174.18 89.8215C174.165 89.8839 174.149 89.9307 174.134 89.9775C174.134 90.0243 174.134 90.0711 174.18 90.149C174.212 90.2114 174.243 90.2738 174.258 90.305C174.274 90.3362 174.336 90.3986 174.414 90.5078C174.492 90.617 174.554 90.6793 174.586 90.7261L181.02 98.977C181.16 99.1641 181.238 99.2889 181.238 99.3669C181.238 99.4449 181.191 99.5696 181.082 99.7412L180.646 100.427C180.646 100.427 180.552 100.552 180.506 100.583C180.459 100.615 180.428 100.646 180.381 100.677C180.35 100.693 180.303 100.693 180.241 100.677C180.179 100.661 180.132 100.646 180.101 100.63C180.07 100.615 180.007 100.583 179.898 100.537C179.805 100.49 179.727 100.459 179.664 100.427L170.566 96.3099C170.566 96.3099 170.488 96.2787 170.41 96.2319C170.332 96.1851 170.301 96.1851 170.286 96.1851C170.27 96.1851 170.239 96.1695 170.192 96.1539C170.145 96.1383 170.114 96.1227 170.099 96.1227C170.083 96.1227 170.052 96.1227 170.021 96.1227C169.99 96.1227 169.958 96.1227 169.943 96.1227C169.943 96.1227 169.912 96.1383 169.881 96.1539C169.849 96.1539 169.834 96.1851 169.803 96.2163C169.787 96.2475 169.756 96.2787 169.74 96.2943C169.709 96.3255 169.678 96.3567 169.647 96.4034L169.257 96.9805C169.195 97.0585 169.148 97.1053 169.102 97.0897C169.055 97.0897 168.961 97.0117 168.79 96.887L167.995 96.2631C167.855 96.1539 167.793 96.0759 167.777 96.0291C167.777 95.9823 167.793 95.8887 167.886 95.764L170.192 92.4262C170.27 92.317 170.332 92.2546 170.395 92.2546C170.457 92.2546 170.535 92.3014 170.66 92.395L171.516 93.0657C171.625 93.1437 171.688 93.2061 171.703 93.2528C171.719 93.2996 171.703 93.3308 171.688 93.3776L171.392 93.8143C171.267 94.0015 171.236 94.1263 171.314 94.1887C171.329 94.1887 171.47 94.2667 171.75 94.3914L172.062 94.5474C172.28 94.6566 172.42 94.7034 172.482 94.6878C172.545 94.6722 172.623 94.5786 172.732 94.4226L173.962 92.6134C174.056 92.473 174.118 92.3482 174.118 92.239C174.118 92.1299 174.103 92.0519 174.056 92.0051C174.009 91.9583 173.916 91.8179 173.744 91.5996C173.542 91.35 173.433 91.2096 173.386 91.1784C173.292 91.1161 173.168 91.194 172.996 91.4592C172.981 91.4904 172.95 91.5216 172.934 91.5684C172.919 91.6152 172.887 91.6464 172.887 91.662C172.841 91.7243 172.794 91.7555 172.716 91.7399C172.654 91.7399 172.545 91.6619 172.389 91.5372L171.703 91.0069C171.532 90.8665 171.439 90.7729 171.423 90.7261C171.407 90.6637 171.439 90.5702 171.532 90.4454L172.934 88.4178L172.965 88.4022ZM177.499 96.3255L175.847 94.2355C175.676 94.0171 175.567 93.8923 175.52 93.8455C175.458 93.7987 175.411 93.7831 175.365 93.8299C175.318 93.8611 175.255 93.9547 175.146 94.1107L174.414 95.2025C174.274 95.4208 174.258 95.5768 174.367 95.6704C174.399 95.7016 174.445 95.7328 174.508 95.7484C174.57 95.7796 174.648 95.8108 174.741 95.8575C174.835 95.9043 174.928 95.9355 174.991 95.9823L177.328 97.1053C177.499 97.1833 177.826 97.3549 178.309 97.62C178.48 97.7136 178.574 97.7448 178.589 97.7136C178.605 97.6824 178.543 97.5888 178.387 97.4328C178.262 97.2925 177.966 96.9337 177.499 96.3411V96.3255Z" fill="#E52A59"/>
<defs>
<linearGradient id="paint0_linear_251_39340" x1="57.0931" y1="48.8424" x2="181.983" y2="146.005" gradientUnits="userSpaceOnUse">
<stop offset="0.13" stop-color="white"/>
<stop offset="1" stop-color="#EBEBEB"/>
</linearGradient>
</defs>
</svg>
