<svg width="80" height="80" viewBox="0 0 80 80" fill="none" xmlns="http://www.w3.org/2000/svg">
<path d="M31.4086 22.2848L39.326 30.2333C38.8376 30.6602 38.3345 31.1018 37.8461 31.5434C37.6685 31.7053 37.4909 31.8672 37.3133 32.0291C37.2837 32.0585 37.2541 32.088 37.2246 32.1027C37.2098 32.1174 37.1802 32.1321 37.1654 32.1616C35.9962 33.2361 34.8715 34.3253 33.7912 35.444C33.7468 35.4882 33.7024 35.5323 33.6728 35.5765L25.7554 27.628C25.7554 27.628 25.8442 27.5397 25.8886 27.4955C26.9689 26.3768 28.0936 25.2876 29.2627 24.213C29.2775 24.1983 29.3071 24.1836 29.3219 24.1542C29.3515 24.1247 29.3811 24.0953 29.4107 24.0806C29.5883 23.9187 29.7659 23.7567 29.9435 23.5948C30.4318 23.1532 30.935 22.7117 31.4234 22.2848H31.4086Z" fill="#858585"/>
<path d="M31.4086 22.2848L39.326 30.2333C38.8376 30.6602 38.3345 31.1018 37.8461 31.5434C37.6685 31.7053 37.4909 31.8672 37.3133 32.0291C37.2837 32.0585 37.2541 32.088 37.2246 32.1027C37.2098 32.1174 37.1802 32.1321 37.1654 32.1616C35.9962 33.2361 34.8715 34.3253 33.7912 35.444C33.7468 35.4882 33.7024 35.5323 33.6728 35.5765L25.7554 27.628C25.7554 27.628 25.8442 27.5397 25.8886 27.4955C26.9689 26.3768 28.0936 25.2876 29.2627 24.213C29.2775 24.1983 29.3071 24.1836 29.3219 24.1542C29.3515 24.1247 29.3811 24.0953 29.4107 24.0806C29.5883 23.9187 29.7659 23.7567 29.9435 23.5948C30.4318 23.1532 30.935 22.7117 31.4234 22.2848H31.4086Z" fill="#858585"/>
<path d="M25.755 27.6133L33.6724 35.5618C33.6724 35.5618 33.628 35.606 33.6132 35.6207C31.9409 37.3576 30.3722 39.1239 28.9367 40.905C28.8628 40.9933 28.7888 41.0964 28.7 41.1847C28.5668 41.3613 28.4188 41.5232 28.2856 41.6999L20.3682 33.7513C20.5014 33.5747 20.6345 33.4128 20.7825 33.2361C20.8565 33.1478 20.9305 33.0448 21.0193 32.9565C22.4696 31.1754 24.0383 29.4091 25.6958 27.6722C25.7106 27.6574 25.7402 27.628 25.755 27.6133Z" fill="#858585"/>
<path d="M20.368 33.7512L28.2854 41.6997L21.9663 40.8166L14.0488 32.868L20.368 33.7512Z" fill="#868686"/>
<path d="M25.755 27.6133L33.6724 35.5618C33.6724 35.5618 33.628 35.606 33.6132 35.6207C31.9409 37.3576 30.3722 39.1239 28.9367 40.905C28.8628 40.9933 28.7888 41.0964 28.7 41.1847C28.5668 41.3613 28.4188 41.5232 28.2856 41.6999L20.3682 33.7513C20.5014 33.5747 20.6345 33.4128 20.7825 33.2361C20.8565 33.1478 20.9305 33.0448 21.0193 32.9565C22.4696 31.1754 24.0383 29.4091 25.6958 27.6722C25.7106 27.6574 25.7402 27.628 25.755 27.6133Z" fill="#858585"/>
<path d="M21.4925 24.4044C26.0062 19.7383 30.7122 15.6021 35.3443 12.1283L35.5071 18.9876C33.6572 20.3712 31.7778 21.9021 29.9131 23.5948C29.7355 23.7567 29.5579 23.9186 29.3803 24.0805C29.3507 24.11 29.3212 24.1394 29.2916 24.1541C29.2768 24.1689 29.2472 24.1836 29.2324 24.213C28.0632 25.2875 26.9385 26.3768 25.8582 27.4955C25.8138 27.5396 25.7694 27.5838 25.725 27.6279C25.7102 27.6427 25.6806 27.6721 25.6658 27.6868C23.9935 29.4237 22.4248 31.1901 20.9893 32.9711C20.9154 33.0594 20.8414 33.1625 20.7526 33.2508C20.6194 33.4274 20.4862 33.5893 20.3382 33.766L14.019 32.8681C16.2685 30.0419 18.7547 27.2011 21.4629 24.4044H21.4925Z" fill="#F0F0F0"/>
<path d="M35.5226 18.9877L43.4401 26.9362C42.0786 27.9519 40.7023 29.0558 39.3408 30.2334L31.4233 22.2848C32.7996 21.1073 34.1611 20.0033 35.5226 18.9877Z" fill="#8A8A8A"/>
<path d="M31.4086 22.2849L39.326 30.2334C38.8376 30.6603 38.3345 31.1019 37.8461 31.5435C37.6685 31.7054 37.4909 31.8673 37.3133 32.0292C37.2837 32.0587 37.2541 32.0881 37.2246 32.1028C37.2098 32.1175 37.1802 32.1323 37.1654 32.1617C35.9962 33.2362 34.8715 34.3255 33.7912 35.4442C33.7468 35.4883 33.7024 35.5325 33.6728 35.5766L25.7554 27.6281C25.7554 27.6281 25.8442 27.5398 25.8886 27.4956C26.9689 26.3769 28.0936 25.2877 29.2627 24.2132C29.2775 24.1984 29.3071 24.1837 29.3219 24.1543C29.3515 24.1249 29.3811 24.0954 29.4107 24.0807C29.5883 23.9188 29.7659 23.7569 29.9435 23.5949C30.4318 23.1534 30.935 22.7118 31.4234 22.2849H31.4086Z" fill="#858585"/>
<path d="M1.38071 54.8149L9.29815 62.7635L9.12056 62.8518L1.20312 54.9033L1.38071 54.8149Z" fill="#830F14"/>
<path d="M56.9805 0.603027L64.898 8.55156L64.7944 8.7282L56.877 0.779661L56.9805 0.603027Z" fill="#7C0F13"/>
<path d="M11.3997 49.3392L19.3172 57.2878L9.29829 62.7634L1.38086 54.8149L11.3997 49.3392Z" fill="#830F14"/>
<path d="M20.3681 33.7513L28.2855 41.6999C23.9938 47.1314 20.8416 52.607 19.3173 57.2878L11.3999 49.3393C12.9242 44.6585 16.0764 39.1828 20.3681 33.7513Z" fill="#B68C09"/>
<path d="M13.945 32.8533H14.0486L20.3678 33.7659C16.0613 39.1974 12.9239 44.673 11.3996 49.3538L1.38071 54.8148L1.20312 54.9031C3.31937 48.3382 7.83305 40.5074 13.9302 32.8533H13.945Z" fill="#FFC20E"/>
<path d="M50.8236 10.9656L58.741 18.9142C54.3309 20.0476 48.9589 22.8149 43.4389 26.9216L35.5215 18.9731C41.0415 14.8516 46.3987 12.0843 50.8236 10.9509V10.9656Z" fill="#B68C09"/>
<path d="M35.3447 12.0106C43.0254 6.25532 50.7208 2.20745 56.9808 0.603027L56.8772 0.779661L50.8096 10.9656C46.3847 12.099 41.0275 14.8662 35.5075 18.9877L35.3447 12.1284V12.0106Z" fill="#FFC20E"/>
<path d="M56.8775 0.779663L64.7949 8.7282L58.7273 18.9141L50.8247 10.9656L56.8775 0.779663Z" fill="#7C0F13"/>
<path d="M59.3922 11.6867L67.3096 19.6352C65.4597 18.2222 62.6035 18.0014 59.1406 18.8257L51.2231 10.8771C54.6861 10.0528 57.5423 10.2736 59.3922 11.6867Z" fill="#858585"/>
<path d="M51.2238 10.877L59.1412 18.8255C59.008 18.8549 58.8748 18.8844 58.7417 18.9285L50.8242 10.98C50.9574 10.9506 51.0906 10.9064 51.2238 10.877Z" fill="#8A8A8A"/>
<path d="M56.8775 0.779607C61.9535 -0.51571 66.1564 -0.23604 68.8498 1.91301L59.3933 11.6868C57.4842 10.2148 54.4652 10.0382 50.8247 10.9655L56.8775 0.779607Z" fill="#F5F5F5"/>
<path d="M68.8501 1.91309L76.7527 9.86162L67.311 19.6354L59.3936 11.6868L68.8501 1.91309Z" fill="#8A8A8A"/>
<path d="M1.38089 54.8149L11.3998 49.354C10.5858 51.8416 10.2307 54.1084 10.4082 56.0219C10.5562 57.6117 11.1038 58.8481 11.9769 59.746L2.34282 69.3284C-0.498576 66.3845 -0.676163 61.2032 1.38089 54.8297V54.8149Z" fill="#F7F7F7"/>
<path d="M11.4 49.3392L19.3175 57.2878C18.5035 59.7754 18.1484 62.0422 18.3259 63.9557C18.4739 65.5601 19.0215 66.7819 19.8946 67.6797L11.9772 59.7312C11.1041 58.8333 10.5417 57.6116 10.4085 56.0072C10.2309 54.0936 10.5861 51.8268 11.4 49.3392Z" fill="#858585"/>
<path d="M11.9769 59.7312L19.8943 67.6797L10.2602 77.2621L2.34277 69.3136L11.9769 59.7312Z" fill="#8B8B8B"/>
<path d="M59.7635 12.0253L67.681 19.9739C67.5626 19.8561 67.4442 19.7383 67.311 19.6353L59.3936 11.6868C59.5267 11.7898 59.6451 11.9076 59.7635 12.0253Z" fill="#B68C09"/>
<path d="M56.1067 15.6757L64.0241 23.6242C63.9205 23.5212 63.8169 23.4329 63.7133 23.3446C62.1446 22.1523 59.7176 21.9609 56.8022 22.6675L48.8848 14.7189C51.815 14.0271 54.242 14.2037 55.8107 15.396C55.9143 15.4843 56.0179 15.5727 56.1214 15.6757H56.1067Z" fill="#B68C09"/>
<path d="M48.8853 14.719L56.8028 22.6675C52.0375 23.8009 45.9403 27.2306 39.9912 32.3382L32.0737 24.3897C38.0081 19.2968 44.1201 15.8524 48.8705 14.719H48.8853Z" fill="#B68C09"/>
<path d="M32.0736 24.375L39.991 32.3235C38.4519 33.6483 36.9128 35.0908 35.4181 36.6363C35.3738 36.6805 35.3294 36.7247 35.2998 36.7688L27.3823 28.8203C27.3823 28.8203 27.4711 28.732 27.5155 28.6878C29.0102 27.1423 30.5493 25.7145 32.0884 24.375H32.0736Z" fill="#B68C09"/>
<path d="M11.9771 59.7312L19.8945 67.6797C19.8945 67.6797 19.8945 67.6797 19.9093 67.6945L11.9919 59.7459C11.9919 59.7459 11.9918 59.7459 11.9771 59.7312Z" fill="#B68C09"/>
<path d="M27.3682 28.8202L35.2856 36.7687C35.2856 36.7687 35.182 36.8718 35.1376 36.9306C24.7339 47.7495 19.4655 59.9078 23.5796 64.044L15.6622 56.0954C11.5481 51.9593 16.8165 39.8009 27.2202 28.9821C27.2646 28.9379 27.3238 28.8791 27.3682 28.8349V28.8202Z" fill="#B68C09"/>
<path d="M16.0908 56.4634L24.0082 64.412C24.0082 64.412 23.9638 64.3825 23.949 64.3678C23.8158 64.2648 23.6974 64.1617 23.5791 64.044L15.6616 56.0955C15.78 56.2132 15.8984 56.3163 16.0316 56.4193C16.0464 56.434 16.0612 56.4487 16.0908 56.4634Z" fill="#858585"/>
<path d="M56.1076 15.6758L64.025 23.6243C68.1835 27.8047 63.1814 39.8011 52.5854 50.826L44.668 42.8774C55.264 31.8525 60.2661 19.8561 56.1076 15.6758Z" fill="#858585"/>
<path d="M44.6677 42.8921L52.5851 50.8406C52.5851 50.8406 52.4816 50.9437 52.4372 50.9878C50.8981 52.5775 49.3294 54.0495 47.7607 55.4037L39.8433 47.4551C41.4267 46.1009 42.9954 44.629 44.5197 43.0393C44.5641 42.9804 44.6085 42.9362 44.6677 42.8921Z" fill="#858585"/>
<path d="M39.8431 47.4404L47.7606 55.389C41.7966 60.5114 35.6846 63.9557 30.9194 65.0891L23.002 57.1406C27.7672 56.0072 33.8644 52.5628 39.8431 47.4404Z" fill="#8A8A8A"/>
<path d="M23.0019 57.1405L30.9194 65.089C27.9892 65.7808 25.5769 65.6042 24.0083 64.4119L16.0908 56.4634C17.6595 57.6557 20.0717 57.847 23.0019 57.1405Z" fill="#858585"/>
<path d="M59.7627 12.0254L67.6801 19.9739C69.5448 21.8433 69.9592 25.0816 68.8197 29.3208C68.7457 29.6005 68.6717 29.8802 68.5681 30.1745C67.2066 34.5904 64.2912 39.6981 60.4583 44.7321C60.3843 44.8205 60.3103 44.9235 60.2511 45.0118C60.1475 45.159 60.0439 45.2915 59.9255 45.4387C58.1348 47.7349 56.1518 50.0312 54.0355 52.2096C52.1116 54.1968 50.1878 56.0073 48.2343 57.6853L40.3169 49.7368C42.2704 48.0587 44.1942 46.2482 46.1181 44.2611C48.2343 42.0679 50.2174 39.7864 52.0081 37.4901C52.1117 37.3577 52.23 37.2105 52.3336 37.078C52.4076 36.9897 52.4816 36.8866 52.5408 36.7983C56.3885 31.7495 59.2891 26.6419 60.6506 22.226C60.7394 21.9316 60.8134 21.6519 60.9022 21.3723C62.0417 17.1331 61.6274 13.8948 59.7627 12.0254Z" fill="#B68C09"/>
<path d="M40.3017 49.7368L48.2191 57.6853C47.5235 58.2888 46.8132 58.8776 46.1028 59.4369C45.9401 59.5694 45.7773 59.6872 45.6293 59.8196C44.2382 60.9089 42.8175 61.954 41.3968 62.896C37.3123 65.6191 33.4645 67.5032 30.1052 68.5189C29.602 68.6661 29.1137 68.7985 28.6401 68.9163L20.7227 60.9677C21.1962 60.85 21.6846 60.7322 22.1878 60.5703C25.5471 59.5547 29.4096 57.6559 33.4793 54.9328C34.9 53.976 36.3207 52.9456 37.7118 51.8564C37.8746 51.7386 38.0226 51.6061 38.1854 51.4737C38.8958 50.8996 39.6061 50.3255 40.3017 49.722V49.7368Z" fill="#B68C09"/>
<path d="M20.7083 60.9825L28.6257 68.9311C25.0444 69.7848 22.1438 69.5198 20.3383 68.0773C20.1903 67.9596 20.0423 67.8271 19.9091 67.6946L11.9917 59.7461C12.1249 59.8786 12.2729 60.011 12.4209 60.1288C14.2263 61.5713 17.1269 61.8215 20.7083 60.9825Z" fill="#B68C09"/>
<path d="M70.9804 15.4844L78.8831 23.4329L68.805 29.3207L60.9023 21.3722L70.9804 15.4844Z" fill="#830F14"/>
<path d="M71.1423 15.396L79.0597 23.3445L78.8821 23.4328L70.9795 15.4843L71.1423 15.396Z" fill="#830F14"/>
<path d="M69.6338 2.31055L77.5512 10.2591C80.1558 12.8792 80.6886 17.3833 79.0607 23.3447L71.1433 15.3962C72.7712 9.43479 72.2384 4.93062 69.6338 2.31055Z" fill="#B68C09"/>
<path d="M69.0129 1.73645C72.165 4.23877 72.905 8.96373 71.1587 15.3814L70.9811 15.4845L60.903 21.3576C62.1166 16.8534 61.569 13.4826 59.3936 11.6721L68.8501 1.89836L69.0129 1.73645Z" fill="#FFC20E"/>
<path d="M22.1734 60.585L30.076 68.5335L24.4672 78.5869L16.5498 70.6384L22.1734 60.585Z" fill="#7C0F13"/>
<path d="M16.5497 70.6384L24.4672 78.587L24.3636 78.7636L16.4609 70.8151L16.5497 70.6384Z" fill="#B68C09"/>
<path d="M2.18018 69.4755L2.34296 69.3136L11.9771 59.7312C12.1103 59.8784 12.2583 59.9961 12.421 60.1286C14.4633 61.7625 17.9114 61.8802 22.1735 60.5849L16.5647 70.6384L16.4612 70.815C10.4528 72.6549 5.76152 72.4194 2.89052 70.1232C2.63894 69.9171 2.40216 69.711 2.18018 69.4755Z" fill="#FFC20E"/>
<path d="M16.4612 70.8149L24.3786 78.7635C23.6682 78.9843 22.9727 79.1756 22.2919 79.3375L14.3745 71.389C15.0553 71.2271 15.7508 71.0357 16.4612 70.8149Z" fill="#B68C09"/>
<path d="M14.3596 71.389L22.277 79.3375C17.275 80.5151 13.3237 80.0882 10.793 78.0717C10.5711 77.895 10.3491 77.7037 10.1567 77.4976L2.23926 69.5491C2.44644 69.7551 2.65363 69.9465 2.87561 70.1231C5.40623 72.1397 9.35755 72.5666 14.3596 71.389Z" fill="#B68C09"/>
<path d="M27.368 28.8202C27.368 28.8202 27.4568 28.7319 27.5012 28.6878C38.2896 17.5745 51.0315 11.7456 55.7967 15.3961C60.5028 19.2967 55.5156 31.6022 44.6679 42.8774C44.6235 42.9215 44.5791 42.9804 44.5199 43.0246C33.6427 54.2408 20.8712 60.1139 16.0912 56.4488C16.0764 56.434 16.0468 56.4193 16.032 56.4046C11.2667 52.6217 16.5351 40.0807 27.22 28.9674C27.2644 28.9086 27.3236 28.8644 27.368 28.8202Z" fill="#FDFDFD"/>
<path d="M22.1734 60.5849C25.5328 59.5693 29.3953 57.6705 33.465 54.9473C34.8857 53.9906 36.3064 52.9602 37.6975 51.871L38.4078 58.3034C30.6532 64.3826 22.9873 68.6806 16.5498 70.6531L22.1586 60.5996L22.1734 60.5849Z" fill="#FDFDFD"/>
<path d="M59.2888 37.1367L67.2063 45.0852L60.4432 44.732L52.5405 36.7834L59.2888 37.1367Z" fill="#878787"/>
<path d="M37.6973 51.871L45.6147 59.8195L46.3103 66.2519L38.4076 58.3034L37.6973 51.871Z" fill="#808080"/>
<path d="M37.6973 51.8709C37.8601 51.7532 38.008 51.6207 38.1708 51.4882C40.8642 49.3392 43.4689 46.9546 45.9255 44.4376C45.9699 44.3934 46.0143 44.3493 46.0439 44.3051C46.0587 44.2904 46.0883 44.261 46.1031 44.2462C48.2193 42.053 50.2024 39.7715 51.993 37.4753C52.0966 37.3428 52.215 37.1956 52.3186 37.0631C52.3926 36.9748 52.4666 36.8718 52.5258 36.7834L59.2889 37.1367H59.4073C56.7287 40.6694 53.7245 44.1579 50.4688 47.514C46.621 51.4882 42.5661 55.1534 38.4224 58.4064V58.3034L37.6973 51.8709Z" fill="#FFC20E"/>
<path d="M50.8238 10.9655C54.4791 10.0382 57.4833 10.2148 59.3924 11.6868C61.5678 13.4973 62.1154 16.8533 60.9019 21.3722C60.8279 21.6519 60.7539 21.9316 60.6503 22.226C59.2888 26.6271 56.3734 31.7495 52.5405 36.7983C52.4665 36.8866 52.3925 36.9896 52.3333 37.0779C52.2297 37.2104 52.1113 37.3576 52.0077 37.4901C50.217 39.8011 48.2192 42.0826 46.1177 44.2611C43.4983 46.9547 40.8789 49.354 38.1855 51.5031C38.0227 51.6355 37.8599 51.7533 37.7119 51.8858C36.3208 52.9897 34.9001 54.0201 33.4794 54.9621C29.3949 57.6853 25.5472 59.5693 22.1878 60.5997C17.9257 61.895 14.4776 61.7626 12.4353 60.1434C12.2873 60.0257 12.1394 59.8932 11.9914 59.746C11.1182 58.8481 10.5559 57.6264 10.4227 56.0219C10.2451 54.1084 10.6003 51.8416 11.4142 49.354C12.9385 44.6732 16.0907 39.1976 20.3824 33.7661C20.5156 33.5894 20.6487 33.4275 20.7967 33.2509C20.8707 33.1626 20.9447 33.0595 21.0335 32.9712C22.4838 31.1901 24.0525 29.4238 25.71 27.6869C26.9679 26.3769 28.1074 25.2876 29.2617 24.2131C29.5873 23.9187 29.7649 23.7568 29.9425 23.5949C31.8071 21.9169 33.6718 20.386 35.5365 18.9877C41.0565 14.8662 46.4137 12.0989 50.8386 10.9655H50.8238ZM44.6674 42.8774C55.5151 31.5876 60.5023 19.2968 55.7962 15.3961C51.031 11.7457 38.2891 17.5746 27.5007 28.6878C27.4563 28.732 27.4119 28.7761 27.3675 28.8203C27.3231 28.8645 27.2639 28.9233 27.2195 28.9675C16.5346 40.0807 11.2662 52.6217 16.0315 56.4047C16.0463 56.4194 16.0611 56.4341 16.0907 56.4488C20.8707 60.114 33.6422 54.2409 44.4602 43.0835C44.5638 42.9657 44.623 42.9216 44.6674 42.8627V42.8774Z" fill="#FFC20E"/>
<path d="M70.9802 15.4844L78.8977 23.4329C77.1958 29.7034 73.1409 37.284 67.2065 45.0706L59.2891 37.122C65.2234 29.3354 69.2635 21.7402 70.9802 15.4844Z" fill="#858585"/>
<path d="M60.9021 21.3722L70.9802 15.4991C69.2783 21.7697 65.2234 29.3502 59.289 37.1368L52.5259 36.7836C56.3736 31.7348 59.2742 26.6271 60.6357 22.2112C60.7245 21.9169 60.7985 21.6372 60.8873 21.3575L60.9021 21.3722Z" fill="#FDFDFD"/>
<path d="M38.4078 58.3035L46.3253 66.252C38.5706 72.3312 30.9048 76.6293 24.4672 78.6017L16.5498 70.6531C22.9873 68.6807 30.6532 64.3826 38.4078 58.3035Z" fill="#8A8A8A"/>
<path d="M59.4077 37.1367L67.3252 45.0853C64.6465 48.6032 61.6424 52.0917 58.3866 55.4625C55.7524 58.1856 53.0294 60.7615 50.2324 63.1608L42.3149 55.2123C45.1119 52.813 47.8349 50.2371 50.4692 47.514C53.7249 44.1579 56.7291 40.6694 59.4077 37.1367Z" fill="#B68C09"/>
<path d="M42.3145 55.2124L50.2319 63.1609C48.9444 64.2649 47.6421 65.3394 46.3398 66.3551L38.4224 58.4065C39.7247 57.3762 41.027 56.3164 42.3145 55.2124Z" fill="#B68C09"/>
<path style="mix-blend-mode:overlay" d="M77.551 10.2588L69.6335 2.31022C69.7223 2.39854 69.7815 2.50157 69.8555 2.58989C69.5891 2.2955 69.3228 2.00111 68.9972 1.75088L68.8344 1.91279C66.1854 -0.206817 62.0713 -0.486488 57.0988 0.735232L56.9804 0.617476C50.7205 2.2219 43.025 6.26977 35.3444 12.0251V12.1429C30.7123 15.6167 26.0063 19.7528 21.4926 24.4189C18.7844 27.2156 16.2982 30.0565 14.0487 32.8826H13.9451C7.84797 40.5221 3.31949 48.3528 1.21804 54.9177L1.33643 55.0355C-0.646624 61.306 -0.454238 66.4137 2.35756 69.3281L2.19477 69.4901C2.41676 69.7108 2.65354 69.9316 2.90512 70.1377C2.68314 69.9611 2.47595 69.7697 2.26877 69.5637C4.90298 72.2132 7.53719 74.8627 10.1862 77.5122C10.3934 77.7183 10.6006 77.9096 10.8226 78.0863C11.1629 78.3512 11.5329 78.6014 11.9177 78.8075C12.0509 78.8811 12.1841 78.9253 12.3172 78.9989C12.5984 79.1313 12.8648 79.2638 13.1608 79.3668C13.3236 79.4257 13.516 79.4699 13.6935 79.5288C13.9747 79.6171 14.2559 79.6907 14.5519 79.7496C14.7591 79.7937 14.9515 79.8232 15.1586 79.8526C15.4546 79.8968 15.7654 79.9262 16.0762 79.9556C16.2982 79.9703 16.5201 79.9851 16.7421 79.9998C17.0677 79.9998 17.4081 79.9998 17.7485 79.9998C17.9852 79.9998 18.222 79.9998 18.4588 79.9704C18.8288 79.9409 19.2136 79.8968 19.5983 79.8526C19.8351 79.8232 20.0571 79.8084 20.2791 79.7643C20.7674 79.6907 21.2854 79.5876 21.8034 79.4699C21.9514 79.4404 22.0845 79.411 22.2325 79.3816C22.2473 79.3816 22.2621 79.3816 22.2917 79.3816C22.9725 79.2197 23.668 79.0283 24.3784 78.8075L24.4672 78.6309C30.8899 76.6585 38.541 72.3751 46.266 66.3254L46.34 66.399C47.5535 65.4569 48.7374 64.456 49.9214 63.4551C50.0249 63.3667 50.1285 63.2931 50.2321 63.2048C50.4245 63.0282 50.6169 62.8516 50.8241 62.6749C51.8156 61.8212 52.7924 60.938 53.7691 60.0254C54.1095 59.7016 54.4498 59.3925 54.7902 59.0686C56.0037 57.9058 57.2172 56.7282 58.4011 55.5065C61.6569 52.1358 64.6611 48.6472 67.3397 45.1293L67.2657 45.0557C73.1705 37.2838 77.1958 29.7327 78.8977 23.4769L79.0753 23.3738C80.7031 17.4124 80.1704 12.9083 77.5658 10.2882L77.551 10.2588ZM37.9194 49.0299C37.5938 49.2802 37.2831 49.5304 36.9575 49.7659C37.2831 49.5157 37.6086 49.2655 37.9342 49.0152L37.9194 49.0299ZM42.3147 45.2176C42.0927 45.4384 41.8559 45.6297 41.6339 45.8505C41.6339 45.8505 41.6044 45.88 41.5896 45.88C41.8411 45.6592 42.0779 45.4384 42.3295 45.2029L42.3147 45.2176ZM40.0801 47.2342C39.7693 47.4991 39.4585 47.7641 39.1477 48.0143C39.1477 48.0143 39.1477 48.0143 39.1329 48.029C39.4585 47.7641 39.7693 47.4991 40.0949 47.2194L40.0801 47.2342ZM35.744 50.6785C35.4184 50.914 35.0928 51.1348 34.782 51.3556C35.1076 51.1348 35.4332 50.8993 35.7588 50.6638L35.744 50.6785ZM33.5833 52.1652C33.2577 52.3713 32.9322 52.5773 32.6214 52.7834C32.947 52.5773 33.2725 52.3713 33.5981 52.1505L33.5833 52.1652ZM31.4671 53.49C31.1415 53.6813 30.8307 53.8579 30.5199 54.0346C30.8455 53.8579 31.1563 53.6666 31.4819 53.4752L31.4671 53.49ZM29.3952 54.6381C29.0844 54.8 28.7737 54.9619 28.4629 55.1091C28.7737 54.9619 29.0844 54.8 29.41 54.6381H29.3952ZM27.3826 55.6096C27.0866 55.742 26.7906 55.8745 26.4946 55.9923C26.7906 55.8745 27.1014 55.742 27.3974 55.6096H27.3826ZM25.4439 56.3897C25.1627 56.4927 24.8815 56.5958 24.6004 56.6841C24.8815 56.5958 25.1627 56.4927 25.4587 56.3897H25.4439ZM23.594 56.9785C23.3129 57.0521 23.0169 57.1404 22.7505 57.1993C23.0317 57.1404 23.3277 57.0521 23.6088 56.9785H23.594ZM70.7287 3.73801C70.5807 3.5025 70.4327 3.26699 70.2699 3.06091C70.4327 3.28171 70.5807 3.5025 70.7287 3.73801Z" fill="url(#paint0_radial_251_39351)"/>
<defs>
<radialGradient id="paint0_radial_251_39351" cx="0" cy="0" r="1" gradientUnits="userSpaceOnUse" gradientTransform="translate(20.1304 33.2985) rotate(-7.84818) scale(56.0231 55.7337)">
<stop stop-color="#FFCCB0"/>
<stop offset="0.24" stop-color="#D9A58A"/>
<stop offset="0.77" stop-color="#79462A"/>
<stop offset="1" stop-color="#4F1B00"/>
</radialGradient>
</defs>
</svg>
