<svg width="102" height="89" viewBox="0 0 102 89" fill="none" xmlns="http://www.w3.org/2000/svg">
<path d="M68.5175 5.15955L65.5236 12.9539L65.4487 13.1288L68.4427 5.33442L68.5175 5.15955Z" fill="#770E12"/>
<path d="M37.4804 0.537991L34.4865 8.33239L34.4116 8.13253L37.4056 0.338135L37.4804 0.537991Z" fill="#7B0E13"/>
<path d="M68.4426 5.33459L65.4487 13.129L60.8579 23.3966L63.8519 15.6022L68.4426 5.33459Z" fill="#770E12"/>
<path d="M68.4424 5.33455C76.551 8.75709 84.0609 13.8035 90.0239 20.3238L79.2456 26.1696C75.0291 21.6228 69.6649 18.0254 63.8267 15.5772L68.4174 5.30957L68.4424 5.33455Z" fill="#F5F5F5"/>
<path d="M90.0246 20.3239L87.0556 28.1182L76.2773 33.964L79.2464 26.1697L90.0246 20.3239Z" fill="#888888"/>
<path d="M79.2459 26.1695L76.2519 33.9639C72.0354 29.4172 66.6712 25.8198 60.833 23.3715L63.827 15.5771C69.6652 18.0254 75.0294 21.6228 79.2459 26.1695Z" fill="#858585"/>
<path d="M37.4053 0.33817C47.46 -0.786022 58.5127 0.912757 68.5176 5.13472L68.4427 5.3096L63.852 15.5772C56.7912 12.6044 49.0568 11.3053 41.8214 12.1047L37.4801 0.538027L37.4053 0.33817Z" fill="#0099E0"/>
<path d="M41.8215 12.1045L38.8276 19.8989L34.4863 8.33224L37.4803 0.537842L41.8215 12.1045Z" fill="#7B0E13"/>
<path d="M63.8512 15.6021L60.8572 23.3965C53.7965 20.4236 46.0621 19.1245 38.8267 19.899L41.8206 12.1046C49.056 11.3301 56.7904 12.6042 63.8512 15.5771V15.6021Z" fill="#1F3365"/>
<path d="M41.8218 12.1046L38.8279 19.899C36.4077 20.1738 34.0375 20.6485 31.7671 21.3979L34.7611 13.6035C37.0315 12.8541 39.4017 12.3794 41.8218 12.1046Z" fill="#858585"/>
<path d="M34.7606 13.6035L31.7667 21.3979C31.5421 21.4729 31.2926 21.5478 31.0681 21.6477C30.8186 21.7477 30.5691 21.8226 30.3196 21.9225C29.1469 22.3722 28.0491 22.8719 27.0013 23.4464C26.9514 23.4714 26.9015 23.4964 26.8516 23.5214L29.8455 15.727C29.8455 15.727 29.9453 15.677 29.9952 15.652C31.0431 15.1024 32.1409 14.5778 33.3135 14.1531C33.563 14.0532 33.8125 13.9533 34.062 13.8783C34.2866 13.8034 34.5361 13.7034 34.7606 13.6285V13.6035Z" fill="#858585"/>
<path d="M34.7606 13.6035L31.7667 21.3979C31.5421 21.4729 31.2926 21.5478 31.0681 21.6477C30.8186 21.7477 30.5691 21.8226 30.3196 21.9225C29.1469 22.3722 28.0491 22.8719 27.0013 23.4464C26.9514 23.4714 26.9015 23.4964 26.8516 23.5214L29.8455 15.727C29.8455 15.727 29.9453 15.677 29.9952 15.652C31.0431 15.1024 32.1409 14.5778 33.3135 14.1531C33.563 14.0532 33.8125 13.9533 34.062 13.8783C34.2866 13.8034 34.5361 13.7034 34.7606 13.6285V13.6035Z" fill="#858585"/>
<path d="M29.8458 15.7273L26.8518 23.5217C26.8518 23.5217 26.777 23.5717 26.752 23.5717C24.9307 24.5709 23.284 25.7451 21.8619 27.0442C21.8619 27.0442 21.812 27.0941 21.787 27.1191C21.6124 27.269 21.4627 27.4189 21.288 27.5938C21.2132 27.6687 21.1383 27.7437 21.0635 27.8186L24.0574 20.0242C24.0574 20.0242 24.2071 19.8743 24.282 19.7994C24.4566 19.6495 24.6063 19.4746 24.781 19.3247C24.8059 19.3247 24.8309 19.2747 24.8558 19.2498C26.3029 17.9507 27.9246 16.7765 29.746 15.7773C29.7709 15.7773 29.8208 15.7273 29.8458 15.7273Z" fill="#858585"/>
<path d="M102 45.2308L99.0307 53.0252L98.7812 53.0002L101.775 45.2058L102 45.2308Z" fill="#851014"/>
<path d="M29.8458 15.7273L26.8518 23.5217C26.8518 23.5217 26.777 23.5717 26.752 23.5717C24.9307 24.5709 23.284 25.7451 21.8619 27.0442C21.8619 27.0442 21.812 27.0941 21.787 27.1191C21.6124 27.269 21.4627 27.4189 21.288 27.5938C21.2132 27.6687 21.1383 27.7437 21.0635 27.8186L24.0574 20.0242C24.0574 20.0242 24.2071 19.8743 24.282 19.7994C24.4566 19.6495 24.6063 19.4746 24.781 19.3247C24.8059 19.3247 24.8309 19.2747 24.8558 19.2498C26.3029 17.9507 27.9246 16.7765 29.746 15.7773C29.7709 15.7773 29.8208 15.7273 29.8458 15.7273Z" fill="#858585"/>
<path d="M29.8458 15.7273L26.8518 23.5217C26.8518 23.5217 26.777 23.5717 26.752 23.5717C24.9307 24.5709 23.284 25.7451 21.8619 27.0442C21.8619 27.0442 21.812 27.0941 21.787 27.1191C21.6124 27.269 21.4627 27.4189 21.288 27.5938C21.2132 27.6687 21.1383 27.7437 21.0635 27.8186L24.0574 20.0242C24.0574 20.0242 24.2071 19.8743 24.282 19.7994C24.4566 19.6495 24.6063 19.4746 24.781 19.3247C24.8059 19.3247 24.8309 19.2747 24.8558 19.2498C26.3029 17.9507 27.9246 16.7765 29.746 15.7773C29.7709 15.7773 29.8208 15.7273 29.8458 15.7273Z" fill="#858585"/>
<path d="M87.6035 43.9068L84.6345 51.7012C84.1105 45.5557 81.1665 39.3601 76.3013 33.989L79.2952 26.1946C84.1604 31.5907 87.1045 37.7613 87.6284 43.9068H87.6035Z" fill="#1F3365"/>
<path d="M90.1985 20.2239C97.1844 27.8434 101.251 36.4872 102 45.2309H101.75L87.5788 43.9069C87.0549 37.7613 84.1108 31.5657 79.2456 26.1946L90.0239 20.3488L90.1985 20.2489V20.2239Z" fill="#0099E0"/>
<path d="M101.775 45.2058L98.7808 53.0002L84.6094 51.7011L87.6033 43.9067L101.775 45.2058Z" fill="#851014"/>
<path d="M29.8458 15.7273L26.8518 23.5217C26.8518 23.5217 26.777 23.5717 26.752 23.5717C24.9307 24.5709 23.284 25.7451 21.8619 27.0442C21.8619 27.0442 21.812 27.0941 21.787 27.1191C21.6124 27.269 21.4627 27.4189 21.288 27.5938C21.2132 27.6687 21.1383 27.7437 21.0635 27.8186L24.0574 20.0242C24.0574 20.0242 24.2071 19.8743 24.282 19.7994C24.4566 19.6495 24.6063 19.4746 24.781 19.3247C24.8059 19.3247 24.8309 19.2747 24.8558 19.2498C26.3029 17.9507 27.9246 16.7765 29.746 15.7773C29.7709 15.7773 29.8208 15.7273 29.8458 15.7273Z" fill="#858585"/>
<path d="M20.4903 5.70913C25.6299 2.91114 31.4183 1.21236 37.481 0.537842L41.8223 12.1045C39.4022 12.3793 37.032 12.854 34.7615 13.6035C34.537 13.6784 34.2875 13.7533 34.0629 13.8533C33.8134 13.9532 33.5639 14.0281 33.3144 14.1281C32.1418 14.5778 31.044 15.0774 29.9961 15.627C29.9462 15.652 29.8963 15.677 29.8464 15.7019C29.8215 15.7019 29.7716 15.7269 29.7466 15.7519C27.9253 16.7512 26.2786 17.9253 24.8565 19.2244C24.8565 19.2244 24.8066 19.2744 24.7816 19.2994C24.607 19.4492 24.4573 19.6241 24.2827 19.774C24.2078 19.849 24.133 19.9239 24.0581 19.9989L12.4814 11.5799C14.7519 9.3565 17.4215 7.38292 20.5152 5.70913H20.4903Z" fill="#F5F5F5"/>
<path d="M24.0325 19.999L21.0635 27.7934L9.46191 19.3745L12.4559 11.5801L24.0325 19.999Z" fill="#8D8D8D"/>
<path d="M86.306 53.4499L83.312 61.2443C84.31 58.6462 84.809 55.7982 84.6842 52.8504C84.6842 52.4756 84.6343 52.1009 84.6094 51.7262L87.5784 43.9318C87.6034 44.3065 87.6283 44.6812 87.6533 45.056C87.778 48.0288 87.279 50.8518 86.281 53.4499H86.306Z" fill="#858585"/>
<path d="M24.0324 19.999L21.0384 27.7934C18.768 30.0418 17.0714 32.6649 15.9736 35.5379L18.9676 27.7435C20.0654 24.8955 21.762 22.2724 24.0324 19.999Z" fill="#1F3365"/>
<path d="M80.9676 51.7262L77.9737 59.5206C80.7181 52.3757 78.8718 43.607 72.1604 36.2123C61.6565 24.9205 42.8445 20.6235 30.5193 27.2188C30.4694 27.2188 30.4195 27.2688 30.3696 27.2937C30.3197 27.3187 30.2449 27.3437 30.195 27.3937C25.7539 29.8669 22.6851 33.4393 21.1133 37.5614L24.1072 29.767C25.6791 25.6449 28.7479 22.0725 33.1889 19.5993C33.2388 19.5743 33.2887 19.5493 33.3636 19.4994C33.4135 19.4744 33.4634 19.4494 33.5133 19.4244C45.8384 12.8291 64.6755 17.1011 75.1543 28.4179C81.8658 35.8376 83.6871 44.5813 80.9676 51.7262Z" fill="#1F3365"/>
<path d="M80.9667 51.7261L77.9728 59.5205C76.4259 63.5925 73.382 67.14 68.916 69.6132L71.91 61.8188C76.376 59.3456 79.4198 55.7981 80.9667 51.7261Z" fill="#858585"/>
<path d="M99.879 58.896L96.885 66.6904C95.5876 70.088 93.6415 73.2607 91.0967 76.1086L94.0906 68.3142C96.6355 65.4663 98.5816 62.2936 99.879 58.896Z" fill="#858585"/>
<path d="M80.9667 51.7261L77.9728 59.5205C76.4259 63.5925 73.382 67.14 68.916 69.6132L71.91 61.8188C76.376 59.3456 79.4198 55.7981 80.9667 51.7261Z" fill="#858585"/>
<path d="M71.9111 61.8189L68.9171 69.6133C68.9171 69.6133 68.8173 69.6633 68.7425 69.7132C56.3425 76.4084 37.4555 72.1365 26.9268 60.7946L29.9207 53.0002C40.4495 64.3171 59.3115 68.589 71.7115 61.9188C71.7614 61.8939 71.8362 61.8689 71.8861 61.8439L71.9111 61.8189Z" fill="#858585"/>
<path d="M29.9452 53.0005L26.9512 60.7949C26.9512 60.7949 26.8764 60.6949 26.8265 60.645C20.1399 53.3502 18.3935 44.6565 21.1379 37.5366L24.1319 29.7422C21.4124 36.8621 23.1339 45.5558 29.8204 52.8506C29.8703 52.9005 29.8953 52.9505 29.9452 52.9755V53.0005Z" fill="#858585"/>
<path d="M71.9111 61.8189L68.9171 69.6133C68.9171 69.6133 68.8173 69.6633 68.7425 69.7132C56.3425 76.4084 37.4555 72.1365 26.9268 60.7946L29.9207 53.0002C40.4495 64.3171 59.3115 68.589 71.7115 61.9188C71.7614 61.8939 71.8362 61.8689 71.8861 61.8439L71.9111 61.8189Z" fill="#858585"/>
<path d="M86.3065 53.4501L83.3126 61.2445C82.3645 63.7676 80.9174 66.066 79.0711 68.1145C77.1999 70.213 74.8796 72.0117 72.2599 73.4607C69.4156 74.9846 66.3967 76.0838 63.1283 76.7083C62.779 76.7833 62.4047 76.8332 62.0554 76.9082C60.2591 77.208 58.3878 77.3579 56.4667 77.3829C50.9279 77.4328 45.2892 76.3336 40.0249 74.335C33.3383 71.8119 27.2506 67.8147 22.7098 62.8683C22.3605 62.4936 22.0361 62.1188 21.7118 61.7191C19.6409 59.2709 17.9693 56.6228 16.7717 53.8248C15.3247 50.4522 14.6261 47.0796 14.5762 43.832C14.5263 40.9341 15.0253 38.1361 16.0232 35.5379L19.0172 27.7435C18.0192 30.3417 17.5202 33.1397 17.5701 36.0376C17.62 39.2852 18.3436 42.6578 19.7657 46.0304C20.9633 48.8284 22.6599 51.4765 24.7057 53.9247C25.0301 54.2994 25.3544 54.6742 25.7037 55.0489C30.2446 59.9953 36.3323 63.9675 43.0188 66.5157C48.2832 68.5142 53.9218 69.6134 59.4607 69.5635C61.3818 69.5635 63.253 69.3886 65.0494 69.0888C65.4236 69.0388 65.7729 68.9639 66.1222 68.889C69.4156 68.2644 72.4345 67.1652 75.2538 65.6413C77.8985 64.1923 80.1939 62.3936 82.0651 60.2951C83.8864 58.2466 85.3335 55.9483 86.3065 53.4251V53.4501Z" fill="#1F3365"/>
<path d="M94.091 68.3143L91.122 76.1087L79.0713 68.0895L82.0653 60.3201L94.091 68.3143Z" fill="#8D8D8D"/>
<path d="M87.6042 43.9067L101.776 45.2058C102.499 53.7247 99.8795 61.8938 94.1161 68.3142L82.0903 60.3199C85.8328 56.1729 87.9036 50.8767 87.704 45.0559C87.704 44.6812 87.6541 44.3065 87.6292 43.9317L87.6042 43.9067Z" fill="#F5F5F5"/>
<path d="M17.545 36.0376L14.5511 43.807L0.254883 41.9084L3.24885 34.114L17.545 36.0376Z" fill="#851014"/>
<path d="M2.99958 34.0889L0.0056168 41.8833C-0.0692323 37.8362 0.60441 33.889 2.00159 30.2417L4.97061 22.4473C3.57342 26.0946 2.87483 30.0418 2.97463 34.0889H2.99958Z" fill="#1F3365"/>
<path d="M12.2557 11.4301L12.4553 11.5799L24.0319 19.9989C19.7156 24.2958 17.4452 29.9168 17.5201 36.0124L3.22388 34.0888H2.97438C2.79973 25.47 6.09309 17.4257 12.2307 11.4301H12.2557Z" fill="#0099E0"/>
<path d="M3.24981 34.1138L0.255845 41.9082L0.00634766 41.8833L3.00031 34.0889L3.24981 34.1138Z" fill="#851014"/>
<path d="M33.3634 19.4992C33.3634 19.4992 33.4632 19.4493 33.5131 19.4243C45.8382 12.829 64.6752 17.1259 75.1541 28.4178C85.6829 40.0594 84.2109 54.9987 71.8857 61.8188C71.8358 61.8438 71.7859 61.8688 71.7111 61.8938C59.3111 68.5889 40.4241 64.317 29.9203 52.9752C29.8704 52.9252 29.8455 52.8752 29.7956 52.8503C19.2169 41.3335 21.0382 26.2943 33.1887 19.5742C33.2386 19.5492 33.2885 19.5242 33.3634 19.4742V19.4992Z" fill="#F5F5F5"/>
<path d="M65.0245 69.0887C65.3987 69.0387 65.748 68.9638 66.0973 68.8888C69.3907 68.2643 72.4096 67.1651 75.0792 65.7161C75.1041 65.7161 75.1291 65.7161 75.154 65.6661C75.179 65.6661 75.2039 65.6412 75.2289 65.6162C77.8736 64.1672 80.1689 62.3685 82.0402 60.27L94.0659 68.2643L94.2655 68.3892C91.6458 71.2871 88.4522 73.7853 84.7347 75.8088C80.3685 78.1821 75.4285 79.831 70.0893 80.6803L70.0144 80.4805L64.9995 69.0387L65.0245 69.0887Z" fill="#0099E0"/>
<path d="M24.6808 53.8995L21.6868 61.6939L10.4844 67.0151L13.4783 59.2207L24.6808 53.8995Z" fill="#888888"/>
<path d="M3.24902 34.114L17.5452 36.0376C17.5951 39.2853 18.3186 42.6579 19.7408 46.0304C20.9384 48.8284 22.6349 51.4765 24.6808 53.9248L13.4784 59.2459C6.79188 51.2517 3.42367 42.458 3.24902 34.114Z" fill="#F5F5F5"/>
<path d="M13.4782 59.221L10.5092 67.0154C3.79774 59.0211 0.429531 50.2274 0.254883 41.9084L3.24885 34.114C3.42349 42.433 6.7917 51.2517 13.4782 59.2459V59.221Z" fill="#858585"/>
<path d="M39.1023 77.0331L36.1333 84.8275L40.0255 74.31L42.9945 66.5156L39.1023 77.0331Z" fill="#808080"/>
<path d="M13.2784 59.3206L13.478 59.2207L24.6804 53.8995C25.0047 54.2743 25.3291 54.649 25.6784 55.0237C30.2192 59.9702 36.3069 63.9423 42.9935 66.4905L39.1013 77.0329L39.0265 77.2078C29.6204 73.6603 21.2623 68.1143 14.8751 61.1443C14.3263 60.5448 13.7774 59.9202 13.2534 59.2957L13.2784 59.3206Z" fill="#0099E0"/>
<path d="M63.8518 15.6021C69.6901 18.0503 75.0543 21.6477 79.2708 26.1944C84.136 31.5906 87.08 37.7611 87.604 43.9067C87.6289 44.2814 87.6539 44.6562 87.6788 45.0309C87.9034 50.8517 85.8076 56.1479 82.0651 60.2949C80.1939 62.3934 77.8736 64.1921 75.2539 65.6411C72.4345 67.165 69.3907 68.2392 66.1223 68.8888C65.773 68.9637 65.3987 69.0137 65.0494 69.0886C63.2531 69.3634 61.3818 69.5383 59.4607 69.5633C53.9219 69.6132 48.2832 68.514 43.0188 66.5155C36.3323 63.9923 30.2446 59.9952 25.7038 55.0487C25.3545 54.674 25.0301 54.2992 24.7058 53.9245C22.6349 51.4763 20.9633 48.8282 19.7657 46.0302C18.3436 42.6576 17.6201 39.285 17.5702 36.0374C17.4953 29.9418 19.7657 24.3208 24.082 20.0239C24.1569 19.9489 24.2317 19.874 24.3066 19.799C24.4812 19.6491 24.6309 19.4743 24.8056 19.3244C26.3275 17.9504 27.9492 16.7762 29.7706 15.7769C31.0679 15.0774 32.1657 14.5778 33.3384 14.1281C33.5879 14.0282 33.8374 13.9283 34.0869 13.8533C34.3114 13.7784 34.5609 13.6784 34.7854 13.6035C37.0559 12.854 39.4261 12.3794 41.8462 12.1046C49.0816 11.3301 56.816 12.6042 63.8768 15.5771L63.8518 15.6021ZM71.9106 61.8188C84.2357 54.9738 85.6828 40.0345 75.179 28.4178C64.6752 17.126 45.8631 12.8291 33.538 19.4243C33.4881 19.4243 33.4382 19.4743 33.3883 19.4993C33.3384 19.5242 33.2635 19.5492 33.2136 19.5992C21.0881 26.3194 19.2667 41.3585 29.8205 52.8753C29.8704 52.9252 29.8953 52.9752 29.9452 53.0002C40.474 64.317 59.3609 68.589 71.6861 61.9438C71.8108 61.8688 71.8607 61.8438 71.9106 61.8188Z" fill="#0099E0"/>
<path d="M70.0391 80.5306L67.0701 88.325L62.0552 76.8833L65.0242 69.0889L70.0391 80.5306Z" fill="#1F3365"/>
<path d="M70.1396 80.7304L67.1457 88.5248L67.0708 88.3249L70.0398 80.5305L70.1396 80.7304Z" fill="#1F3365"/>
<path d="M94.3162 68.4392L91.3222 76.2336C88.7025 79.1315 85.5089 81.6297 81.8164 83.6533C77.4502 86.0266 72.5101 87.6754 67.1709 88.5248L70.1649 80.7304C75.5041 79.881 80.4441 78.2322 84.8103 75.8589C88.5029 73.8353 91.7214 71.3621 94.3411 68.4392H94.3162Z" fill="#1F3365"/>
<path d="M70.0395 80.5304L67.0455 88.3248C57.0906 89.8987 46.2125 88.6246 36.1079 84.8274L39.1019 77.033C49.1816 80.8302 60.0596 82.1043 70.0395 80.5304Z" fill="#858585"/>
<path d="M42.9942 66.5156C48.2586 68.5141 53.8972 69.6134 59.4361 69.5634C61.3572 69.5634 63.2284 69.3885 65.0248 69.0887L70.0397 80.5305C60.0847 82.1044 49.2067 80.8303 39.1021 77.033L42.9942 66.4906V66.5156Z" fill="#F5F5F5"/>
<path d="M39.0517 77.2329L36.0577 85.0273C26.6517 81.4799 18.2935 75.9339 11.9064 68.9639C11.3575 68.3643 10.8086 67.7398 10.2847 67.1152L13.2786 59.3208C13.8026 59.9454 14.3515 60.5699 14.9004 61.1695C21.2875 68.1395 29.6207 73.6855 39.0517 77.2329Z" fill="#1F3365"/>
<path style="mix-blend-mode:overlay" d="M102 45.2312C101.276 36.4875 97.1845 27.8437 90.1986 20.2241L90.024 20.3241C84.061 13.8038 76.5511 8.75739 68.4425 5.33485L68.5173 5.15997C58.5125 0.938007 47.4598 -0.760771 37.405 0.338439L37.3302 0.563277C31.3173 1.23779 25.6038 2.93657 20.4891 5.70958C17.3954 7.38337 14.7258 9.35696 12.4553 11.5804L12.2557 11.4305C8.66299 14.9529 6.06822 19.1749 4.54629 23.7716C4.69599 23.3219 4.82073 22.8473 4.99538 22.4226L2.02637 30.217C0.629184 33.8893 -0.069408 37.8115 0.00544111 41.8836H0.254938C0.429586 50.2026 3.77285 58.9463 10.3845 66.8906L10.2847 67.1154C10.8087 67.74 11.3576 68.3645 11.9065 68.9641C18.2936 75.9341 26.6517 81.4801 36.0578 85.0276L36.1326 84.8527C46.2372 88.65 57.0904 89.924 67.0702 88.3252L67.1451 88.525C72.4843 87.6757 77.4244 86.0268 81.7906 83.6535C85.4831 81.63 88.7016 79.1568 91.2964 76.2339L91.5709 75.5094C92.02 74.9848 92.469 74.4602 92.8932 73.8856C94.5648 71.6372 95.9121 69.2139 96.8851 66.6658C97.4839 65.1169 98.0827 63.543 98.6815 61.9941C99.0807 60.9449 99.4799 59.9206 99.8791 58.8714C99.7793 59.1711 99.6296 59.4459 99.5049 59.7208C101.326 55.3739 102.1 50.6523 101.775 45.7808L102 45.2062V45.2312ZM4.17204 24.9707C3.99739 25.5703 3.87265 26.1699 3.7479 26.7944C3.87265 26.1949 4.02234 25.5703 4.17204 24.9707ZM3.0992 30.9664C3.02436 31.9907 2.97446 33.0399 2.99941 34.0892C2.99941 33.0399 2.99941 32.0157 3.0992 30.9664ZM3.4984 27.9186C3.37365 28.6181 3.2988 29.3176 3.22395 30.0171C3.2988 29.3176 3.37365 28.6181 3.4984 27.9186ZM94.0908 68.3146C94.7644 67.5651 95.4131 66.7657 96.0119 65.9663C95.4131 66.7657 94.7894 67.5651 94.0908 68.3146ZM96.5358 65.1668C96.9101 64.6172 97.2843 64.0676 97.6336 63.493C97.2843 64.0676 96.9101 64.6172 96.5358 65.1668ZM98.1825 62.4688C98.457 61.9442 98.7564 61.4195 99.0059 60.8699C98.7564 61.4195 98.4819 61.9442 98.1825 62.4688Z" fill="url(#paint0_radial_251_39015)"/>
<defs>
<radialGradient id="paint0_radial_251_39015" cx="0" cy="0" r="1" gradientUnits="userSpaceOnUse" gradientTransform="translate(29.789 23.5679) rotate(-7.9001) scale(82.2362 82.3388)">
<stop stop-color="#89C9F5"/>
<stop offset="0.14" stop-color="#85C3EE"/>
<stop offset="0.33" stop-color="#7BB2DC"/>
<stop offset="0.55" stop-color="#6A96BE"/>
<stop offset="0.8" stop-color="#537095"/>
<stop offset="1" stop-color="#3E4C6E"/>
</radialGradient>
</defs>
</svg>
