<svg width="108" height="88" viewBox="0 0 108 88" fill="none" xmlns="http://www.w3.org/2000/svg">
<path d="M58.4502 0.194735L61.1465 9.31481L61.1792 9.12007L58.4665 0L58.4502 0.194735Z" fill="#770E12"/>
<path d="M26.0781 9.55823L28.7744 18.6783L28.9215 18.8244L26.2089 9.70428L26.0781 9.55823Z" fill="#8C1115"/>
<path d="M56.8003 11.5543L59.4966 20.6744L61.1471 9.31489L58.4508 0.194824L56.8003 11.5543Z" fill="#770E12"/>
<path d="M49.6421 12.4954L52.3384 21.6155C54.7079 21.1449 57.11 20.8203 59.4959 20.6743L56.7996 11.5542C54.3974 11.7003 52.0116 12.0248 49.6421 12.4954Z" fill="#8E1116"/>
<path d="M26.209 9.70422L28.9216 18.8243L36.5857 27.3926L33.8894 18.2725L26.209 9.70422Z" fill="#8C1115"/>
<path d="M33.8896 18.2728L36.586 27.3929C36.586 27.3929 36.7003 27.328 36.7494 27.3117L34.0367 18.1917C34.0367 18.1917 33.9387 18.2566 33.8896 18.2728Z" fill="#800F13"/>
<path d="M34.0361 18.1916L36.7488 27.3117C38.9875 26.0621 41.357 24.9749 43.8082 24.0499L41.0956 14.9298C38.6607 15.8548 36.2912 16.9421 34.0361 18.1916Z" fill="#851014"/>
<path d="M41.0962 14.9298L43.8088 24.0499C46.5705 23.0113 49.4302 22.1999 52.339 21.6157L49.6427 12.4956C46.7339 13.0798 43.8742 13.8912 41.1125 14.9298H41.0962Z" fill="#891015"/>
<path d="M49.6426 12.4955L52.3389 21.6156C54.7084 21.145 57.1105 20.8204 59.4964 20.6744L56.8 11.5543C54.3979 11.7004 52.0121 12.0249 49.6426 12.4955Z" fill="#8E1116"/>
<path d="M27.353 22.7028L30.0493 31.8229C31.7652 30.4273 33.6281 29.1453 35.5727 27.9931C35.6871 27.9282 35.8015 27.847 35.9322 27.7821C36.1446 27.6685 36.3734 27.5387 36.5858 27.4089L33.8895 18.2888C33.6771 18.4186 33.4483 18.5322 33.2359 18.6621C33.1215 18.727 32.9908 18.7919 32.8764 18.873C30.9154 20.0252 29.0689 21.3234 27.353 22.719V22.7028Z" fill="#8A8A8A"/>
<path d="M26.5693 23.352L29.282 32.4721C29.282 32.4721 29.331 32.4234 29.3473 32.4071C29.5925 32.2124 29.8212 32.0177 30.0664 31.8067L27.3701 22.6866C27.1249 22.8814 26.8962 23.0761 26.651 23.2709C26.6184 23.2871 26.602 23.3033 26.5693 23.3195V23.352Z" fill="#858585"/>
<path d="M27.3535 22.7028L30.0498 31.8229C31.7657 30.4273 33.6286 29.1453 35.5732 27.9931C35.6876 27.9282 35.8019 27.847 35.9327 27.7821C36.1451 27.6685 36.3739 27.5387 36.5863 27.4089L33.89 18.2888C33.6776 18.4186 33.4488 18.5322 33.2364 18.6621C33.122 18.727 32.9912 18.7919 32.8769 18.873C30.9159 20.0252 29.0693 21.3234 27.3535 22.719V22.7028Z" fill="#8A8A8A"/>
<path d="M18.3481 33.3483L21.0445 42.4684C22.0903 40.4886 23.4303 38.525 25.0644 36.6263C25.2278 36.4478 25.3912 36.2693 25.5383 36.0908C25.571 36.0584 25.5873 36.0259 25.62 36.0097C25.62 35.9772 25.6527 35.961 25.669 35.9448C26.7312 34.7601 27.8914 33.6404 29.117 32.5856C29.1661 32.5369 29.2151 32.5045 29.2641 32.472L26.5515 23.3519C26.5515 23.3519 26.4534 23.4331 26.4207 23.4818C25.1951 24.5366 24.0349 25.6563 22.9727 26.8247C22.9564 26.8409 22.94 26.8572 22.9237 26.8734C22.891 26.9058 22.8747 26.9383 22.842 26.9707C22.6786 27.1493 22.5152 27.3278 22.3681 27.5063C20.734 29.4049 19.394 31.3685 18.3481 33.3483Z" fill="#858585"/>
<path d="M18.3481 33.3483L21.0445 42.4684C22.0903 40.4886 23.4303 38.525 25.0644 36.6263C25.2278 36.4478 25.3912 36.2693 25.5383 36.0908C25.571 36.0584 25.5873 36.0259 25.62 36.0097C25.62 35.9772 25.6527 35.961 25.669 35.9448C26.7312 34.7601 27.8914 33.6404 29.117 32.5856C29.1661 32.5369 29.2151 32.5045 29.2641 32.472L26.5515 23.3519C26.5515 23.3519 26.4534 23.4331 26.4207 23.4818C25.1951 24.5366 24.0349 25.6563 22.9727 26.8247C22.9564 26.8409 22.94 26.8572 22.9237 26.8734C22.891 26.9058 22.8747 26.9383 22.842 26.9707C22.6786 27.1493 22.5152 27.3278 22.3681 27.5063C20.734 29.4049 19.394 31.3685 18.3481 33.3483Z" fill="#858585"/>
<path d="M18.3481 33.3483L21.0445 42.4684C22.0903 40.4886 23.4303 38.525 25.0644 36.6263C25.2278 36.4478 25.3912 36.2693 25.5383 36.0908C25.571 36.0584 25.5873 36.0259 25.62 36.0097C25.62 35.9772 25.6527 35.961 25.669 35.9448C26.7312 34.7601 27.8914 33.6404 29.117 32.5856C29.1661 32.5369 29.2151 32.5045 29.2641 32.472L26.5515 23.3519C26.5515 23.3519 26.4534 23.4331 26.4207 23.4818C25.1951 24.5366 24.0349 25.6563 22.9727 26.8247C22.9564 26.8409 22.94 26.8572 22.9237 26.8734C22.891 26.9058 22.8747 26.9383 22.842 26.9707C22.6786 27.1493 22.5152 27.3278 22.3681 27.5063C20.734 29.4049 19.394 31.3685 18.3481 33.3483Z" fill="#858585"/>
<path d="M56.7995 11.5542L59.4959 20.6742C63.7446 20.4146 67.9606 20.6742 71.9642 21.5343C75.3142 22.2483 78.2883 23.3518 80.8866 24.7961L78.1739 15.676C75.5756 14.2318 72.5852 13.112 69.2516 12.4142C65.248 11.5704 61.0319 11.2945 56.7832 11.5542H56.7995Z" fill="#999999"/>
<path d="M78.1909 15.6763L80.8872 24.7963L91.1332 15.2543L88.4369 6.13428L78.1909 15.6763Z" fill="#8F8F8F"/>
<path d="M18.3481 33.3483L21.0445 42.4684C22.0903 40.4886 23.4303 38.525 25.0644 36.6263C25.2278 36.4478 25.3912 36.2693 25.5383 36.0908C25.571 36.0584 25.5873 36.0259 25.62 36.0097C25.62 35.9772 25.6527 35.961 25.669 35.9448C26.7312 34.7601 27.8914 33.6404 29.117 32.5856C29.1661 32.5369 29.2151 32.5045 29.2641 32.472L26.5515 23.3519C26.5515 23.3519 26.4534 23.4331 26.4207 23.4818C25.1951 24.5366 24.0349 25.6563 22.9727 26.8247C22.9564 26.8409 22.94 26.8572 22.9237 26.8734C22.891 26.9058 22.8747 26.9383 22.842 26.9707C22.6786 27.1493 22.5152 27.3278 22.3681 27.5063C20.734 29.4049 19.394 31.3685 18.3481 33.3483Z" fill="#858585"/>
<path d="M4.42578 30.9141L7.13843 40.0341L21.0448 42.4683L18.3485 33.3482L4.42578 30.9141Z" fill="#ABABAB"/>
<path d="M16.2571 50.0793L18.9534 59.1994C17.401 53.9578 18.0546 48.1158 21.0451 42.4685L18.3488 33.3484C15.3583 38.9795 14.7047 44.8215 16.2571 50.0631V50.0793Z" fill="#7B0F13"/>
<path d="M78.1909 15.676L80.9036 24.7961C81.3121 25.0233 81.7043 25.2505 82.1128 25.4939C82.1618 25.5264 82.2109 25.5426 82.2436 25.575L79.5472 16.455C79.5472 16.455 79.4655 16.4063 79.4165 16.3738C79.0243 16.1304 78.6321 15.9032 78.2073 15.676H78.1909Z" fill="#8E1116"/>
<path d="M79.5134 16.4548L82.2097 25.5749C84.1707 26.8082 85.8865 28.2363 87.3245 29.8104L84.6119 20.6903C83.1738 19.1 81.458 17.6882 79.4971 16.4548H79.5134Z" fill="#891015"/>
<path d="M84.6289 20.6905L87.3416 29.8106C88.6815 31.2874 89.7927 32.8939 90.6425 34.5978L87.9462 25.4778C87.0964 23.7576 85.9852 22.1511 84.6452 20.6743L84.6289 20.6905Z" fill="#851014"/>
<path d="M87.9302 25.4939L90.6265 34.614C91.1494 35.6688 91.5743 36.756 91.9174 37.8758L89.2211 28.7557C88.878 27.636 88.4531 26.5487 87.9302 25.4939Z" fill="#800F13"/>
<path d="M21.8628 48.4565L24.5755 57.5766C22.4348 50.3552 25.2291 41.8031 33.1219 35.0198C33.2363 34.9062 33.3017 34.8575 33.3507 34.8088C33.5305 34.6628 33.6939 34.5167 33.8736 34.3869L31.161 25.2668C30.9976 25.4129 30.8178 25.5589 30.6381 25.705C30.5891 25.7537 30.5237 25.8024 30.393 25.916C22.4838 32.6992 19.7058 41.2351 21.8465 48.4565H21.8628Z" fill="#7B0F13"/>
<path d="M31.1768 25.2669L33.8894 34.387C35.6379 32.9589 37.5498 31.6932 39.5598 30.5734L36.8635 21.4534C34.8535 22.5731 32.958 23.8389 31.1931 25.2669H31.1768Z" fill="#800F13"/>
<path d="M36.8479 21.4695L39.5442 30.5896C41.4725 29.5186 43.4824 28.5936 45.5578 27.8146L42.8615 18.6946C40.7698 19.4735 38.7598 20.3985 36.8315 21.4695H36.8479Z" fill="#851014"/>
<path d="M42.8779 18.6784L45.5742 27.7984C47.9601 26.9059 50.4112 26.2081 52.8788 25.705L50.1825 16.585C47.7149 17.088 45.2474 17.7858 42.8779 18.6784Z" fill="#891015"/>
<path d="M50.1816 16.6011L52.8779 25.7212C61.9473 23.9037 71.2782 24.8611 78.0108 29.0317C78.0271 29.0479 78.0598 29.0641 78.0925 29.0804L75.3799 19.9603C75.3799 19.9603 75.3308 19.9441 75.3145 19.9116C68.5656 15.7248 59.251 14.7836 50.1816 16.6011Z" fill="#8E1116"/>
<path d="M75.3799 19.9604L78.0925 29.0805C78.0925 29.0805 78.1252 29.113 78.1579 29.1292L75.4616 20.0091C75.4616 20.0091 75.4126 19.9767 75.3962 19.9604H75.3799Z" fill="#891015"/>
<path d="M75.4453 19.9928L78.158 29.1129L75.4617 20.009L75.4453 19.9928Z" fill="#8E1116"/>
<path d="M75.4624 20.009L78.1751 29.1291C78.1751 29.1291 78.2568 29.194 78.3058 29.2265C79.9072 30.2651 81.2962 31.4172 82.4728 32.6992L79.7765 23.5792C78.6163 22.2972 77.2273 21.1288 75.6095 20.0902C75.5605 20.0739 75.5278 20.0415 75.4787 20.009H75.4624Z" fill="#891015"/>
<path d="M79.7605 23.5792L82.4568 32.6993C83.5843 33.9326 84.5158 35.2795 85.2185 36.7076L82.5058 27.5875C81.8031 26.1595 80.8717 24.8288 79.7441 23.5792H79.7605Z" fill="#851014"/>
<path d="M82.5215 27.5874L85.2341 36.7075C85.6753 37.5838 86.0349 38.4925 86.3127 39.4338L83.6 30.3137C83.3222 29.3887 82.9627 28.4637 82.5378 27.5874H82.5215Z" fill="#800F13"/>
<path d="M88.6166 5.9718L88.4369 6.13408L78.1909 15.6761C78.5994 15.9033 79.008 16.1305 79.4002 16.3739C84.564 19.5708 88.012 24.1308 89.3847 29.2913L104.353 25.1856L104.598 25.1207C102.703 17.8506 97.8494 11.6191 90.5776 7.12398C89.9403 6.73451 89.2866 6.34504 88.6166 5.98803V5.9718Z" fill="#D13800"/>
<path d="M4.18105 30.8816C-0.198408 39.0929 -1.17888 47.8397 1.43572 55.548L1.69718 55.4668L16.5024 50.8094C14.6558 45.3893 15.2277 39.2552 18.3489 33.3482L4.42617 30.914L4.18105 30.8816Z" fill="#D13800"/>
<path d="M74.7917 53.0488L77.5044 62.1689C77.5044 62.1689 77.6188 62.0716 77.6678 62.0229C77.7168 61.9742 77.7658 61.9417 77.8149 61.893C85.6587 55.126 88.4203 46.6064 86.296 39.4012L83.5833 30.2811C85.724 37.4701 82.9624 45.9897 75.1022 52.7567C75.0532 52.8054 75.0042 52.8379 74.9551 52.8866C74.8898 52.9353 74.8408 52.9839 74.7754 53.0326L74.7917 53.0488Z" fill="#858585"/>
<path d="M74.7917 53.0488L77.5044 62.1689C77.5044 62.1689 77.6188 62.0716 77.6678 62.0229C77.7168 61.9742 77.7658 61.9417 77.8149 61.893C85.6587 55.126 88.4203 46.6064 86.296 39.4012L83.5833 30.2811C85.724 37.4701 82.9624 45.9897 75.1022 52.7567C75.0532 52.8054 75.0042 52.8379 74.9551 52.8866C74.8898 52.9353 74.8408 52.9839 74.7754 53.0326L74.7917 53.0488Z" fill="#858585"/>
<path d="M30.4901 25.851C18.1034 36.4803 18.2178 51.3126 29.9998 58.7612C42.1904 66.1773 62.2411 63.6296 74.7912 53.049C74.8566 53.0003 74.9056 52.9516 74.971 52.9029C75.02 52.8542 75.069 52.8218 75.118 52.7731C87.3086 42.2574 87.2269 27.5387 75.5919 20.0739C75.5429 20.0577 75.5102 20.0252 75.4612 19.9928C75.4122 19.9603 75.3632 19.9279 75.3141 19.9116C63.287 12.4468 43.0238 15.3029 30.6535 25.705C30.6045 25.7537 30.5391 25.8024 30.4901 25.851Z" fill="#F3F3F3"/>
<path d="M21.8789 48.4726L24.5916 57.5927C24.8694 58.5177 25.2125 59.4265 25.6701 60.3028L22.9574 51.1827C22.5162 50.3064 22.1567 49.3976 21.8789 48.4564V48.4726Z" fill="#8A8A8A"/>
<path d="M22.9575 51.1989L25.6702 60.3189C26.3728 61.7307 27.288 63.0777 28.4318 64.3272L25.7355 55.2071C24.608 53.9738 23.6765 52.6107 22.9739 51.1989H22.9575Z" fill="#8F8F8F"/>
<path d="M25.7021 55.191L28.3985 64.3111C29.5423 65.5607 30.8987 66.7291 32.4674 67.7352L29.7711 58.6151C28.2024 57.5928 26.846 56.4406 25.7021 55.191Z" fill="#949494"/>
<path d="M29.7881 58.615L32.4844 67.7351C32.4844 67.7351 32.6315 67.8324 32.7132 67.8811C39.6092 72.0679 48.9891 73.074 58.1238 71.2565L55.4275 62.1364C46.2927 63.954 36.9129 62.9478 30.0169 58.761C29.9352 58.7124 29.8698 58.6637 29.7881 58.615Z" fill="#999999"/>
<path d="M55.4104 62.1365L58.1067 71.2566C60.5415 70.7697 62.96 70.0882 65.2968 69.2119L62.5842 60.0918C60.2474 60.9681 57.8125 61.6659 55.394 62.1527L55.4104 62.1365Z" fill="#949494"/>
<path d="M62.6182 60.0918L65.3308 69.2118C67.3898 68.4491 69.3834 67.5241 71.279 66.4693L68.5827 57.3492C66.6708 58.4041 64.6772 59.329 62.6345 60.0918H62.6182Z" fill="#8F8F8F"/>
<path d="M68.5654 57.3331L71.2617 66.4531C73.2881 65.3172 75.2163 64.0189 77.0139 62.5747L74.3176 53.4546C72.5364 54.8989 70.5917 56.1971 68.5654 57.3331Z" fill="#8A8A8A"/>
<path d="M74.3186 53.4545L77.0149 62.5746C77.1783 62.4448 77.3417 62.315 77.5051 62.1689L74.7925 53.0488C74.6291 53.1787 74.4657 53.3085 74.3022 53.4545H74.3186Z" fill="#858585"/>
<path d="M58.4508 0.194689L56.8003 11.5542C61.049 11.2946 65.2651 11.5542 69.2687 12.4143C72.6023 13.1283 75.5927 14.248 78.191 15.6761L88.437 6.13409C79.8905 1.47669 69.3177 -0.438199 58.4508 0.194689Z" fill="#F3F3F3"/>
<path d="M16.4854 50.8094L19.1817 59.9133C19.4758 60.7571 19.819 61.5848 20.2112 62.3962L17.5149 53.2761C17.1063 52.4647 16.7632 51.6371 16.4854 50.7932V50.8094Z" fill="#800F13"/>
<path d="M17.5317 53.2924L20.228 62.4124C21.0778 64.1001 22.1563 65.6905 23.4963 67.151L20.8 58.0309C19.46 56.5542 18.3815 54.9638 17.5317 53.2924Z" fill="#851014"/>
<path d="M20.7998 58.0309L23.4961 67.151C24.8688 68.6602 26.5029 70.0395 28.3821 71.2566L25.6858 62.1365C23.8066 60.9195 22.1725 59.5401 20.7998 58.0309Z" fill="#891015"/>
<path d="M25.6863 62.1366L28.3826 71.2567C28.3826 71.2567 28.5296 71.354 28.595 71.3865C34.2491 74.8268 41.5046 76.6281 49.4138 76.482C49.904 76.482 50.3942 76.4658 50.8845 76.4334C53.3683 76.3198 55.8686 75.9952 58.3197 75.5084L55.6234 66.3883C53.1723 66.8751 50.672 67.1997 48.1718 67.3133C47.6816 67.3295 47.1914 67.3457 46.7011 67.362C38.7919 67.4918 31.5364 65.6905 25.8824 62.2664C25.817 62.2177 25.7353 62.1853 25.6699 62.1366H25.6863Z" fill="#8E1116"/>
<path d="M55.6392 66.3883L58.3355 75.5084C61.1952 74.9404 63.9895 74.129 66.6859 73.1229L63.9895 64.0028C61.2932 65.0089 58.4825 65.8203 55.6392 66.3883Z" fill="#891015"/>
<path d="M63.99 64.0029L66.6863 73.1229C68.7126 72.3602 70.6735 71.4839 72.5528 70.5102C72.7652 70.3967 72.9777 70.2831 73.1901 70.1695C73.4189 70.0559 73.6477 69.926 73.8764 69.7962L71.1638 60.6761C70.935 60.806 70.7062 60.9196 70.4775 61.0494C70.265 61.163 70.0526 61.2766 69.8401 61.3902C67.9446 62.3639 65.9836 63.2402 63.9736 64.0029H63.99Z" fill="#851014"/>
<path d="M71.1958 60.6761L73.9084 69.7961C76.4087 68.4005 78.7291 66.8427 80.8535 65.1225L78.1408 56.0024C76.0328 57.7226 73.696 59.2805 71.1958 60.6761Z" fill="#800F13"/>
<path d="M78.1413 56.0025L80.854 65.1226C81.0991 64.9116 81.3606 64.7006 81.6057 64.5059C84.5961 61.9419 86.9493 59.2967 88.7468 56.4569C88.7958 56.3757 88.8449 56.3108 88.8939 56.2297C88.9593 56.1485 89.0083 56.0512 89.0573 55.9538C89.9561 54.4771 90.7078 52.9516 91.296 51.3938C92.9629 46.9311 93.1589 42.4847 92.0804 38.4115C92.0314 38.2329 91.9824 38.0382 91.9334 37.8759L89.2207 28.7559C89.2697 28.9344 89.3188 29.1129 89.3678 29.3076C90.4463 33.3808 90.2502 37.8272 88.5834 42.2899C88.0115 43.8478 87.2434 45.3732 86.3446 46.85C86.2956 46.9473 86.2303 47.0285 86.1812 47.1258C86.1322 47.207 86.0832 47.2881 86.0342 47.353C84.2203 50.1929 81.8508 52.838 78.8767 55.402C78.6316 55.613 78.3865 55.824 78.125 56.0187L78.1413 56.0025Z" fill="#7B0F13"/>
<path d="M86.3447 46.8336L89.0574 55.9537L102.604 58.9559L99.8916 49.8358L86.3447 46.8336Z" fill="#ABABAB"/>
<path d="M89.3682 29.2914L92.0808 38.4115L107.033 34.3059L104.337 25.1858L89.3682 29.2914Z" fill="#991217"/>
<path d="M99.8918 49.8359L102.588 58.956C107.572 50.7609 109.043 42.1115 107.017 34.3059L104.32 25.1858C106.347 32.9752 104.86 41.6409 99.8755 49.8359H99.8918Z" fill="#858585"/>
<path d="M86.345 46.8336C86.296 46.931 86.2306 47.0121 86.1816 47.1095C86.1326 47.1906 86.0836 47.2718 86.0346 47.3367C84.2207 50.1766 81.8675 52.8217 79.0895 55.2072C79.0405 55.2397 78.9915 55.2883 78.9424 55.3208C78.9261 55.337 78.9098 55.3533 78.8771 55.3695C76.3769 57.4953 73.5662 59.394 70.5104 61.0492C70.2979 61.1628 70.0855 61.2764 69.873 61.39L76.8671 70.364L76.9815 70.5263C81.557 68.1571 85.7567 65.3334 89.4826 62.169C93.8783 58.4041 97.4571 54.2822 100.137 49.9007L99.9083 49.852L86.345 46.8498V46.8336Z" fill="#D13800"/>
<path d="M18.3487 33.3483C19.3945 31.3685 20.7345 29.4049 22.3686 27.5063C22.5321 27.3278 22.6791 27.1493 22.9733 26.8085C24.0354 25.6401 25.1957 24.5041 26.6337 23.2708C28.5456 21.648 30.6537 20.1713 32.8597 18.8406C32.9741 18.7757 33.0885 18.7108 33.2192 18.6296C33.4317 18.4998 33.6441 18.3862 33.8729 18.2564C40.7689 14.3779 48.8251 12.0249 56.7833 11.538C61.032 11.2784 65.2481 11.538 69.2517 12.3981C72.5853 13.1121 75.5758 14.2319 78.174 15.6599C78.5825 15.8871 78.9911 16.1305 79.3669 16.3577C84.5308 19.5546 87.9788 24.1146 89.3514 29.2751C90.43 33.3483 90.2339 37.7947 88.5671 42.2574C87.9951 43.8153 87.2271 45.3407 86.3283 46.8174C86.2793 46.9148 86.2139 46.996 86.1649 47.0933C86.1159 47.1745 86.0668 47.2556 86.0178 47.3205C84.2039 50.1604 81.8344 52.8055 78.8603 55.3695C76.3601 57.4954 73.5494 59.3941 70.4936 61.0493C70.2812 61.1629 70.0688 61.2765 69.8563 61.3901C63.3035 64.7979 55.7702 66.9563 48.1878 67.3133C47.6976 67.3295 47.2073 67.3457 46.7171 67.3619C38.8079 67.4918 31.5524 65.6905 25.8984 62.2664C21.1757 59.2805 18.0055 55.2884 16.4858 50.8095C14.6392 45.3894 15.2112 39.2553 18.3324 33.3483H18.3487ZM74.8077 53.049C74.8077 53.049 74.9221 52.9516 74.9875 52.9029C75.0365 52.8542 75.0855 52.8218 75.1345 52.7731C87.3251 42.2574 87.2434 27.5387 75.6084 20.0739C75.5594 20.0577 75.5267 20.0252 75.4777 19.9928C75.4287 19.9603 75.3797 19.9278 75.3306 19.9116C63.3035 12.4468 43.0403 15.3029 30.67 25.705C30.621 25.7537 30.5556 25.8023 30.4249 25.9159C18.1036 36.4803 18.218 51.3288 30.0163 58.7774C42.2069 66.1935 62.2576 63.6458 74.8077 53.0652V53.049Z" fill="#D13800"/>
<path d="M33.8892 18.2726L26.2089 9.70428L26.0781 9.55822C35.7521 4.04074 47.2564 0.649115 58.4828 0L58.4501 0.194735L56.7997 11.5543C48.8415 12.0411 40.7853 14.3941 33.8892 18.2726Z" fill="#D13800"/>
<path d="M16.1588 16.7309C10.995 21.1449 7.07306 25.9646 4.42578 30.9141L18.3485 33.3483C19.3944 31.3685 20.7344 29.4049 22.3685 27.5062C22.5319 27.3277 22.679 27.1492 22.8424 26.9707C22.8751 26.9382 22.8914 26.9058 22.9241 26.8733C22.9404 26.8733 22.9568 26.8409 22.9731 26.8247C24.0353 25.64 25.1955 24.5203 26.4211 23.4817C26.4701 23.433 26.5028 23.4006 26.5518 23.3519C26.5845 23.3357 26.6009 23.3194 26.6335 23.3032C28.5455 21.6804 30.6535 20.2037 32.8596 18.873C32.974 18.8081 33.0883 18.7432 33.2191 18.662C33.4315 18.5322 33.6439 18.4186 33.8727 18.2888L26.1923 9.72046C22.6299 11.7489 19.2473 14.102 16.1425 16.7471L16.1588 16.7309Z" fill="#F3F3F3"/>
<path d="M16.2578 50.0792L18.9541 59.1993C19.0358 59.4427 19.1012 59.6861 19.1829 59.9295L16.4866 50.8257C16.4049 50.5823 16.3232 50.3389 16.2578 50.0955V50.0792Z" fill="#800F13"/>
<path d="M104.337 25.1858L107.033 34.3058L107.295 34.2409L104.598 25.1208L104.337 25.1858Z" fill="#991217"/>
<path d="M104.598 25.1208L107.31 34.2409C107.229 33.9488 107.147 33.6567 107.065 33.3808L104.353 24.2607C104.434 24.5528 104.516 24.8287 104.598 25.1208Z" fill="#7B0F13"/>
<path d="M1.69727 55.467L4.39357 64.5708L19.1987 59.9134L16.4861 50.8096L1.69727 55.467Z" fill="#981217"/>
<path d="M1.10938 54.5256L3.80568 63.6457C3.90373 63.9865 4.01812 64.3273 4.13251 64.6681L1.4362 55.548C1.32181 55.2072 1.20742 54.8664 1.10938 54.5256Z" fill="#800F13"/>
<path d="M1.43555 55.5481L4.14819 64.6519L4.39331 64.5708L1.69701 55.4669L1.43555 55.5481Z" fill="#981217"/>
<path d="M1.69727 55.4669L4.40991 64.587C4.8021 65.7392 5.276 66.8589 5.81526 67.9624L3.11895 58.8423C2.56335 57.7388 2.1058 56.6191 1.71361 55.4669H1.69727Z" fill="#8A8A8A"/>
<path d="M3.10277 58.8423L5.79907 67.9624C6.9593 70.2667 8.44636 72.4413 10.2929 74.4697L7.58027 65.3497C5.73371 63.3212 4.23031 61.1304 3.08643 58.8423H3.10277Z" fill="#8F8F8F"/>
<path d="M7.59619 65.3497L10.3088 74.4698C12.3188 76.6768 14.7537 78.7053 17.5807 80.4903L14.8844 71.3703C12.041 69.5852 9.62251 67.5567 7.61253 65.3497H7.59619Z" fill="#949494"/>
<path d="M14.8682 71.3702L17.5645 80.4903C17.5645 80.4903 17.6952 80.5715 17.7769 80.6201L15.0806 71.5001C15.0806 71.5001 14.9499 71.4027 14.8682 71.3702Z" fill="#999999"/>
<path d="M15.0806 71.5L17.7932 80.6201L28.6111 71.3864L25.8985 62.2664L15.0806 71.5Z" fill="#919191"/>
<path d="M1.69749 55.467C3.82186 61.6985 8.26668 67.2809 15.081 71.5001L25.8989 62.2665C21.1763 59.2805 18.0061 55.2885 16.4863 50.8096L1.68115 55.467H1.69749Z" fill="#F3F3F3"/>
<path d="M89.3679 29.2914C90.4464 33.3646 90.2503 37.8111 88.5835 42.2738C88.0115 43.8316 87.2435 45.3571 86.3447 46.8338L99.908 49.8359C104.892 41.6409 106.363 32.9914 104.353 25.1858L89.3842 29.2914H89.3679Z" fill="#F3F3F3"/>
<path d="M44.3149 78.6728L47.0112 87.7928L49.4298 76.482L46.7171 67.3619L44.3149 78.6728Z" fill="#770E12"/>
<path d="M44.2661 78.8676L46.9788 87.9877L47.0114 87.7929L44.3151 78.6729L44.2661 78.8676Z" fill="#770E12"/>
<path d="M14.9014 71.6623L17.5977 80.7824C25.5559 85.7157 35.7201 88.1986 46.9792 87.9876L44.2666 78.8675C33.0075 79.0785 22.8596 76.5956 14.9014 71.6461V71.6623Z" fill="#8E1116"/>
<path d="M14.9009 71.6624C22.8591 76.5957 33.0233 79.0948 44.2661 78.8838L44.3151 78.6891L46.7173 67.3783C38.8081 67.5081 31.5526 65.7068 25.8985 62.2827L15.0806 71.5164L14.9009 71.6624Z" fill="#D13800"/>
<path d="M69.873 61.3901L72.5694 70.5102L79.5634 79.4842L76.8671 70.3642L69.873 61.3901Z" fill="#8A1015"/>
<path d="M76.981 70.51L79.6773 79.6301C80.2982 79.3056 80.9029 78.981 81.5075 78.6402L78.8112 69.5201C78.2065 69.8609 77.6019 70.1855 76.981 70.51Z" fill="#851014"/>
<path d="M78.8115 69.5363L81.5078 78.6564C84.9232 76.7578 88.126 74.5994 91.0511 72.2302L88.3385 63.1101C85.4297 65.4794 82.2268 67.6377 78.8115 69.5526V69.5363Z" fill="#800F13"/>
<path d="M88.3376 63.0939L91.0503 72.214C91.4261 71.9056 91.8183 71.5811 92.1778 71.2727C96.5736 67.5241 100.169 63.4022 102.832 59.0045L100.12 49.8844C97.4561 54.2822 93.8773 58.404 89.4652 62.1527C89.0893 62.4772 88.7135 62.7856 88.3213 63.0939H88.3376Z" fill="#7B0F13"/>
<path d="M76.8672 70.364L79.5635 79.4841L79.6779 79.6301L76.9816 70.5101L76.8672 70.364Z" fill="#891015"/>
<path d="M46.7171 67.362L44.3149 78.6728C55.2963 78.4619 66.7515 75.622 76.8667 70.3642L69.8727 61.3901C63.3198 64.798 55.7865 66.9563 48.2042 67.3133C47.7139 67.3295 47.2237 67.3458 46.7334 67.362H46.7171Z" fill="#F3F3F3"/>
<path d="M44.3149 78.6728L47.0112 87.7929C51.26 87.7117 55.5741 87.2411 59.8391 86.3811L57.1428 77.261C52.8614 78.1211 48.5473 78.5917 44.3149 78.6728Z" fill="#999999"/>
<path d="M57.1431 77.261L59.8394 86.3811C63.8103 85.5859 67.7649 84.4662 71.5887 83.0219L68.8924 73.9019C65.0522 75.3299 61.114 76.4659 57.1431 77.261Z" fill="#949494"/>
<path d="M68.8926 73.9018L71.5889 83.0219C74.3015 81.9995 76.9815 80.8149 79.5634 79.468L76.8508 70.3479C74.2688 71.6948 71.6052 72.8632 68.8926 73.9018Z" fill="#8F8F8F"/>
<path style="mix-blend-mode:overlay" d="M107.033 34.3057L107.294 34.2408C107.213 33.9487 107.131 33.6566 107.049 33.3808C106.15 30.3299 105.252 27.2953 104.337 24.2607C104.418 24.5528 104.5 24.8287 104.582 25.1208C102.686 17.8507 97.8328 11.6192 90.5609 7.12404C89.9236 6.73457 89.27 6.3451 88.6 5.98809L88.4202 6.15037C79.9064 1.47674 69.3827 -0.421925 58.5321 0.194735L58.483 0C47.2729 0.632887 35.7687 4.04074 26.0783 9.55822L26.1437 9.75296C22.5976 11.7814 19.2477 14.102 16.1592 16.731C10.9954 21.1449 7.07345 25.9646 4.42617 30.9141L4.18105 30.8817C-0.198408 39.093 -1.17888 47.8398 1.43572 55.548C1.32133 55.2073 1.20694 54.8665 1.10889 54.5257C2.00766 57.5603 2.90643 60.6112 3.8052 63.6458C3.90325 63.9866 4.01764 64.3273 4.13202 64.6681L4.39349 64.587C4.6386 65.2848 4.91641 65.9826 5.21055 66.6642C5.29225 66.8427 5.37396 67.0374 5.47201 67.2159C5.5864 67.4593 5.68444 67.719 5.81517 67.9624C5.9459 68.2383 6.10932 68.4979 6.25639 68.7738C6.35443 68.9685 6.45248 69.147 6.56687 69.3418C6.92638 69.9746 7.30223 70.5913 7.7271 71.1917C7.75978 71.2242 7.77612 71.2729 7.80881 71.3053C8.25002 71.9382 8.72392 72.5711 9.2305 73.1878C9.37757 73.3663 9.54098 73.5448 9.68805 73.7233C9.90049 73.9829 10.1129 74.2426 10.3417 74.486C10.4888 74.6483 10.6685 74.8105 10.8319 74.9891C11.0444 75.2162 11.2732 75.4434 11.4856 75.6706C11.8778 76.0601 12.2863 76.4333 12.7112 76.8066C12.94 77.0175 13.1524 77.2123 13.3975 77.407C13.8878 77.8289 14.4107 78.2346 14.9499 78.6403C15.1297 78.7702 15.2931 78.9162 15.4892 79.046C16.1592 79.5329 16.8455 79.9872 17.5482 80.4416L17.6462 80.7824C25.6044 85.7157 35.7687 88.1986 47.0278 87.9876L47.0605 87.7929C48.3024 87.7766 49.5444 87.6955 50.7863 87.6144C51.1948 87.5819 51.6034 87.5494 52.0282 87.5008C52.8943 87.4196 53.7604 87.3385 54.6102 87.2249C55.0514 87.1762 55.4926 87.1113 55.9338 87.0464C56.947 86.9003 57.9601 86.7381 58.9896 86.5433C59.2184 86.4946 59.4308 86.4622 59.6596 86.4297C59.7413 86.4297 59.823 86.3973 59.9047 86.381C61.065 86.1538 62.2252 85.878 63.3854 85.5859C63.6796 85.5047 63.9737 85.4236 64.2678 85.3587C65.2483 85.099 66.2124 84.8232 67.1766 84.5311C67.5034 84.4337 67.8302 84.3363 68.1571 84.239C69.3336 83.8657 70.5102 83.46 71.6704 83.0219C71.6868 83.0219 71.7195 83.0056 71.7358 82.9894C74.4321 81.967 77.0794 80.7986 79.645 79.468L79.7593 79.614C80.3803 79.2895 80.9849 78.9649 81.5896 78.6241C81.9164 78.4456 82.2269 78.2509 82.5537 78.0561C82.8642 77.8776 83.191 77.6991 83.5015 77.5044C84.3676 76.9851 85.201 76.4658 86.0344 75.914C86.1488 75.8329 86.2795 75.7518 86.4102 75.6706C87.3744 75.0215 88.3058 74.3562 89.2209 73.6746C89.4334 73.5123 89.6295 73.35 89.8419 73.1878C90.2831 72.847 90.7243 72.5224 91.1492 72.1816C91.525 71.8733 91.9172 71.5488 92.2767 71.2404C96.6725 67.4918 100.268 63.3699 102.931 58.9721L102.833 58.6638C107.687 50.5499 109.125 41.9978 107.131 34.2733L107.033 34.3057ZM24.3788 53.5196C24.1991 53.2761 24.052 53.0327 23.8886 52.7731C24.052 53.0327 24.2154 53.2924 24.3952 53.552C24.3952 53.552 24.3952 53.5358 24.3788 53.5196ZM25.9149 55.3858C25.6861 55.1424 25.4737 54.8827 25.2613 54.6231C25.2613 54.6231 25.2286 54.5906 25.2286 54.5744C25.4574 54.8503 25.6861 55.1261 25.9313 55.402L25.9149 55.3858ZM27.6307 57.0086C27.4347 56.8301 27.2386 56.6515 27.0425 56.473C27.0425 56.473 27.0261 56.4568 27.0098 56.4406C27.2222 56.6353 27.4183 56.8301 27.6471 57.0086C27.6471 57.0086 27.6471 57.0086 27.6307 57.0086ZM29.1668 58.1607C29.461 58.3555 29.7224 58.5827 30.0166 58.7612C29.7224 58.5664 29.461 58.3555 29.1832 58.1607H29.1668ZM36.9616 16.6823C36.7328 16.7959 36.4877 16.9095 36.2589 17.0231C36.504 16.9095 36.7328 16.7959 36.9779 16.6823H36.9616ZM39.5272 15.5463C39.2821 15.6437 39.0533 15.7573 38.8082 15.8546C39.0533 15.741 39.2984 15.6437 39.5435 15.5463C39.5435 15.5463 39.5435 15.5463 39.5272 15.5463ZM45.1486 13.5827C44.9525 13.6314 44.7727 13.6963 44.5766 13.7612C44.5603 13.7612 44.5439 13.7612 44.5276 13.7612C44.74 13.6963 44.9688 13.6314 45.1813 13.5665C45.1813 13.5665 45.1649 13.5665 45.1486 13.5665V13.5827ZM48.2044 12.8038C48.0083 12.8525 47.7959 12.9012 47.5998 12.9499C47.8285 12.9012 48.041 12.8363 48.2698 12.7876C48.2534 12.7876 48.2371 12.7876 48.2044 12.7876V12.8038ZM52.4368 12.0249H52.4041C52.4368 12.0249 52.4531 12.0249 52.4858 12.0249H52.4531H52.4368ZM53.4336 11.8788C54.5448 11.7328 55.6723 11.6192 56.7835 11.5543C55.6723 11.6192 54.5611 11.7328 53.4499 11.8788H53.4336ZM79.024 48.7323C78.5174 49.349 77.9781 49.9494 77.4062 50.5499C77.9781 49.9494 78.5338 49.3328 79.024 48.7161V48.7323ZM80.4457 46.785C80.0698 47.353 79.6613 47.9209 79.2201 48.4727C79.2201 48.4727 79.2201 48.4727 79.2201 48.4889C79.6613 47.9209 80.0862 47.3367 80.4784 46.7525C80.4784 46.7525 80.4784 46.7525 80.4784 46.7688L80.4457 46.785ZM81.851 44.4319C81.5242 45.0648 81.1647 45.6815 80.7562 46.2982C80.7562 46.2982 80.7562 46.2982 80.7562 46.3144C81.1647 45.6815 81.5405 45.0486 81.8674 44.3995C81.8674 44.3995 81.8674 44.3995 81.8674 44.4157L81.851 44.4319ZM81.0667 25.283C80.9686 25.1532 80.8869 25.0234 80.7888 24.8936C80.8869 25.0234 80.9849 25.1695 81.083 25.2993L81.0667 25.283ZM82.7988 42.371C82.57 42.9228 82.3413 43.4745 82.0635 44.0263C82.0635 44.0263 82.0635 44.0587 82.0471 44.0749C82.3413 43.4907 82.5864 42.9228 82.8315 42.3386C82.8315 42.3548 82.8315 42.371 82.8152 42.3872L82.7988 42.371ZM83.5995 40.0017C83.4361 40.6346 83.2237 41.2675 82.9949 41.9004C82.9949 41.9004 82.9949 41.9166 82.9949 41.9329C83.24 41.2837 83.4525 40.6346 83.6159 39.9693C83.6159 39.9693 83.6159 39.9855 83.6159 40.0017H83.5995ZM84.0408 37.8434C83.959 38.3952 83.861 38.9307 83.7139 39.4824C83.7139 39.4987 83.7139 39.5149 83.7139 39.5311C83.861 38.9307 83.9754 38.3465 84.0571 37.7461C84.0571 37.7785 84.0571 37.7947 84.0571 37.8272L84.0408 37.8434ZM84.2368 35.5553C84.2368 36.172 84.1878 36.8048 84.1061 37.4377C84.1061 37.4377 84.1061 37.454 84.1061 37.4702C84.1878 36.8211 84.2368 36.172 84.2368 35.5228C84.2368 35.5228 84.2368 35.5553 84.2368 35.5715V35.5553Z" fill="url(#paint0_radial_251_39147)"/>
<defs>
<radialGradient id="paint0_radial_251_39147" cx="0" cy="0" r="1" gradientUnits="userSpaceOnUse" gradientTransform="translate(48.4055 30.1657) rotate(-7.83595) scale(78.8363 78.3097)">
<stop stop-color="#FCC9AD"/>
<stop offset="0.2" stop-color="#C89479"/>
<stop offset="0.38" stop-color="#9C694D"/>
<stop offset="0.55" stop-color="#7A472B"/>
<stop offset="0.72" stop-color="#622E13"/>
<stop offset="0.87" stop-color="#542005"/>
<stop offset="1" stop-color="#4F1B00"/>
</radialGradient>
</defs>
</svg>
