<svg width="115" height="90" viewBox="0 0 115 90" fill="none" xmlns="http://www.w3.org/2000/svg">
<mask id="path-1-inside-1_251_39624" fill="white">
<path fill-rule="evenodd" clip-rule="evenodd" d="M44.6291 0C52.7073 0 60.0031 2.65041 65.2335 6.92322C67.8014 6.2801 70.49 5.93848 73.259 5.93848C91.3245 5.93848 105.97 20.4802 105.97 38.4183C105.97 45.6052 103.619 52.247 99.6389 57.6268C112.864 63.9564 114.918 83.7991 114.995 84.7475C115.038 85.1762 114.822 85.5836 114.433 85.798C114.045 86.0124 113.591 85.9695 113.246 85.6908C101.483 76.4446 89.8531 74.6327 85.2821 74.2921C80.6217 83.6021 70.9456 90 59.7646 90C53.103 90 46.9756 87.7289 42.125 83.924C39.4269 84.6154 36.5978 84.9833 33.6822 84.9833C15.08 84.9833 0 70.0097 0 51.5388C0 39.589 6.31169 29.103 15.8054 23.1883C15.8051 23.1411 15.8049 23.0939 15.8049 23.0467C15.8049 10.3121 28.6948 0 44.6291 0Z"/>
</mask>
<path fill-rule="evenodd" clip-rule="evenodd" d="M44.6291 0C52.7073 0 60.0031 2.65041 65.2335 6.92322C67.8014 6.2801 70.49 5.93848 73.259 5.93848C91.3245 5.93848 105.97 20.4802 105.97 38.4183C105.97 45.6052 103.619 52.247 99.6389 57.6268C112.864 63.9564 114.918 83.7991 114.995 84.7475C115.038 85.1762 114.822 85.5836 114.433 85.798C114.045 86.0124 113.591 85.9695 113.246 85.6908C101.483 76.4446 89.8531 74.6327 85.2821 74.2921C80.6217 83.6021 70.9456 90 59.7646 90C53.103 90 46.9756 87.7289 42.125 83.924C39.4269 84.6154 36.5978 84.9833 33.6822 84.9833C15.08 84.9833 0 70.0097 0 51.5388C0 39.589 6.31169 29.103 15.8054 23.1883C15.8051 23.1411 15.8049 23.0939 15.8049 23.0467C15.8049 10.3121 28.6948 0 44.6291 0Z" fill="white"/>
<path d="M65.2335 6.92322L62.7029 10.021L64.2578 11.2911L66.2053 10.8034L65.2335 6.92322ZM99.6389 57.6268L96.4232 55.2478L93.5415 59.1431L97.9121 61.2348L99.6389 57.6268ZM114.995 84.7475L111.007 85.0687L111.011 85.1085L111.015 85.1483L114.995 84.7475ZM114.433 85.798L116.365 89.3004L116.365 89.3004L114.433 85.798ZM113.246 85.6908L115.757 82.5776L115.738 82.5617L115.718 82.5461L113.246 85.6908ZM85.2821 74.2921L85.5793 70.3031L82.9055 70.1039L81.7052 72.5015L85.2821 74.2921ZM42.125 83.924L44.5937 80.7767L43.0421 79.5596L41.1319 80.0492L42.125 83.924ZM15.8054 23.1883L17.9206 26.5833L19.8221 25.3987L19.8053 23.1583L15.8054 23.1883ZM67.7641 3.82547C61.768 -1.07289 53.561 -4 44.6291 -4V4C51.8537 4 58.2383 6.37371 62.7029 10.021L67.7641 3.82547ZM73.259 1.93848C70.1599 1.93848 67.1449 2.32096 64.2617 3.04306L66.2053 10.8034C68.4578 10.2392 70.8201 9.93848 73.259 9.93848V1.93848ZM109.97 38.4183C109.97 18.2444 93.5069 1.93848 73.259 1.93848V9.93848C89.1422 9.93848 101.97 22.716 101.97 38.4183H109.97ZM102.855 60.0057C107.325 53.9626 109.97 46.4926 109.97 38.4183H101.97C101.97 44.7179 99.9123 50.5314 96.4232 55.2478L102.855 60.0057ZM97.9121 61.2348C103.13 63.7322 106.455 69.0876 108.497 74.5955C109.492 77.2795 110.117 79.8294 110.497 81.7689C110.687 82.7346 110.813 83.5381 110.893 84.1174C110.933 84.4069 110.961 84.6387 110.98 84.805C110.989 84.8881 110.996 84.9537 111.001 85.0007C111.006 85.0506 111.008 85.0721 111.007 85.0687L118.982 84.4262C118.925 83.7281 118.343 78.1407 115.998 71.8148C113.688 65.5817 109.373 57.851 101.366 54.0187L97.9121 61.2348ZM111.015 85.1483C110.893 83.9412 111.525 82.8342 112.501 82.2956L116.365 89.3004C118.119 88.333 119.182 86.4113 118.974 84.3467L111.015 85.1483ZM112.501 82.2955C113.557 81.7132 114.857 81.8515 115.757 82.5776L110.734 88.804C112.325 90.0875 114.532 90.3115 116.365 89.3004L112.501 82.2955ZM115.718 82.5461C103.136 72.6556 90.6537 70.6812 85.5793 70.3031L84.9849 78.281C89.0526 78.5841 99.8309 80.2336 110.774 88.8355L115.718 82.5461ZM59.7646 94C72.5067 94 83.5418 86.7045 88.859 76.0826L81.7052 72.5015C77.7015 80.4996 69.3844 86 59.7646 86V94ZM39.6562 87.0712C45.1881 91.4105 52.1789 94 59.7646 94V86C54.0271 86 48.7632 84.0473 44.5937 80.7767L39.6562 87.0712ZM33.6822 88.9833C36.9355 88.9833 40.0981 88.5727 43.118 87.7987L41.1319 80.0492C38.7557 80.6582 36.2602 80.9833 33.6822 80.9833V88.9833ZM-4 51.5388C-4 72.2455 12.8977 88.9833 33.6822 88.9833V80.9833C17.2624 80.9833 4 67.7739 4 51.5388H-4ZM13.6903 19.7933C3.08109 26.4029 -4 38.1421 -4 51.5388H4C4 41.0359 9.54229 31.8031 17.9206 26.5833L13.6903 19.7933ZM11.8049 23.0467C11.8049 23.104 11.8051 23.1612 11.8055 23.2183L19.8053 23.1583C19.805 23.1211 19.8049 23.0839 19.8049 23.0467H11.8049ZM44.6291 -4C27.3663 -4 11.8049 7.31491 11.8049 23.0467H19.8049C19.8049 13.3092 30.0234 4 44.6291 4V-4Z" fill="url(#paint0_linear_251_39624)" mask="url(#path-1-inside-1_251_39624)"/>
<defs>
<linearGradient id="paint0_linear_251_39624" x1="0" y1="0" x2="114.973" y2="0" gradientUnits="userSpaceOnUse">
<stop stop-color="#F83676"/>
<stop offset="1" stop-color="#FF9B9B"/>
</linearGradient>
</defs>
</svg>
