<svg width="90" height="83" viewBox="0 0 90 83" fill="none" xmlns="http://www.w3.org/2000/svg">
<path fill-rule="evenodd" clip-rule="evenodd" d="M62.1594 12.076L82.8966 28.7488L86.3571 40.4093L70.5115 40.2534L44.6225 28.3332L23.8593 11.6605L20.4248 0L36.2704 0.15582L62.1594 12.076Z" fill="url(#paint0_radial_251_39478)"/>
<path fill-rule="evenodd" clip-rule="evenodd" d="M20.425 0L0 7.14174L4.70945 23.0613L23.8595 11.6605L20.425 0Z" fill="url(#paint1_radial_251_39478)"/>
<path fill-rule="evenodd" clip-rule="evenodd" d="M23.8595 11.6605L4.70947 23.0613L33.0182 45.811L44.6227 28.3332L23.8595 11.6605Z" fill="url(#paint2_radial_251_39478)"/>
<path fill-rule="evenodd" clip-rule="evenodd" d="M44.6231 28.3333L70.5121 40.2535L68.3525 62.0423L33.0186 45.811L44.6231 28.3333Z" fill="url(#paint3_radial_251_39478)"/>
<path fill-rule="evenodd" clip-rule="evenodd" d="M86.3577 40.4092L90.0004 62.2759L68.3525 62.0422L70.5121 40.2534L86.3577 40.4092Z" fill="url(#paint4_radial_251_39478)"/>
<path fill-rule="evenodd" clip-rule="evenodd" d="M4.70947 23.0613L17.0685 82.974L33.0182 45.811L4.70947 23.0613Z" fill="url(#paint5_radial_251_39478)"/>
<path fill-rule="evenodd" clip-rule="evenodd" d="M33.0185 45.811L68.3525 62.0423L17.0688 82.9741L33.0185 45.811Z" fill="url(#paint6_radial_251_39478)"/>
<path fill-rule="evenodd" clip-rule="evenodd" d="M90.0003 62.276L17.0688 82.974L68.3525 62.0422L90.0003 62.276Z" fill="url(#paint7_radial_251_39478)"/>
<path fill-rule="evenodd" clip-rule="evenodd" d="M0 7.14172L17.0685 82.974L4.70945 23.0613L0 7.14172Z" fill="#85F2FF"/>
<path style="mix-blend-mode:screen" opacity="0.5" fill-rule="evenodd" clip-rule="evenodd" d="M42.2812 2.93457C49.4105 9.84258 63.4608 31.3457 67.2075 38.7472L70.512 40.2534L77.7973 40.3313H79.0462C74.8832 36.6696 59.7401 14.7509 58.0488 10.1802L42.3073 2.93457H42.2812Z" fill="url(#paint8_radial_251_39478)"/>
<g style="mix-blend-mode:screen" opacity="0.75">
<path fill-rule="evenodd" clip-rule="evenodd" d="M7.77958 37.8901C7.51939 27.1645 11.9687 30.3848 16.6521 35.1893C31.3269 50.2518 26.4613 58.9777 20.0866 76.014C24.4058 65.9377 28.7249 55.8873 33.0441 45.811C23.5992 38.2277 14.1803 30.6445 4.73535 23.0613C5.7501 27.9956 6.76484 32.9299 7.8056 37.8901H7.77958Z" fill="#9FDFFF"/>
</g>
<path style="mix-blend-mode:screen" opacity="0.5" fill-rule="evenodd" clip-rule="evenodd" d="M43.9985 50.8491C58.4911 57.5494 52.4286 65.3144 40.1997 71.4433L17.0947 82.9999L68.3783 62.0681L44.0245 50.8751L43.9985 50.8491Z" fill="url(#paint9_radial_251_39478)"/>
<g style="mix-blend-mode:screen">
<path fill-rule="evenodd" clip-rule="evenodd" d="M23.8594 11.6604L20.7111 1.0127C21.8299 6.44042 22.5324 8.38817 20.9453 10.7255C19.3321 13.0887 15.3251 16.5947 12.2549 18.5684L23.8594 11.6864V11.6604Z" fill="#8FFCFF"/>
</g>
<path fill-rule="evenodd" clip-rule="evenodd" d="M44.623 28.3332L23.8858 11.6605L12.2812 18.5426C18.0835 15.4262 21.5701 14.2835 23.7817 15.1145C26.0193 15.9456 28.7773 17.8673 33.3047 21.2434C38.0922 24.8273 40.1997 28.4891 40.2518 30.4628C40.3038 32.878 37.9881 37.6305 34.8918 43.0063L44.623 28.3332Z" fill="white"/>
<g style="mix-blend-mode:screen" opacity="0.5">
<path fill-rule="evenodd" clip-rule="evenodd" d="M44.6227 28.3333L34.8916 43.0063C39.3669 36.6177 42.8795 33.6571 45.3513 33.0858C48.6557 32.3067 53.4952 33.3714 62.9142 36.7475L44.6488 28.3333H44.6227Z" fill="#8FFCFF"/>
</g>
<path style="mix-blend-mode:screen" fill-rule="evenodd" clip-rule="evenodd" d="M31.7951 0.12985L20.4248 0L22.7405 7.8689L23.8593 11.6865L44.5965 28.3592L54.6399 32.9819C48.3953 27.3983 32.4196 4.98623 31.7951 0.12985Z" fill="url(#paint10_radial_251_39478)"/>
<defs>
<radialGradient id="paint0_radial_251_39478" cx="0" cy="0" r="1" gradientUnits="userSpaceOnUse" gradientTransform="translate(25.4205 12.5175) scale(82.8187 82.6624)">
<stop stop-color="#C4EEFF"/>
<stop offset="0.33" stop-color="#4CCAFF"/>
<stop offset="1" stop-color="#003EB0"/>
</radialGradient>
<radialGradient id="paint1_radial_251_39478" cx="0" cy="0" r="1" gradientUnits="userSpaceOnUse" gradientTransform="translate(-2.26366 -3.76564) scale(31.4831 31.4237)">
<stop stop-color="#A5E2FF"/>
<stop offset="1" stop-color="#218CF3"/>
</radialGradient>
<radialGradient id="paint2_radial_251_39478" cx="0" cy="0" r="1" gradientUnits="userSpaceOnUse" gradientTransform="translate(24.2498 14.5172) scale(91.0668 90.8949)">
<stop stop-color="#A5E2FF"/>
<stop offset="1" stop-color="#0088FF"/>
</radialGradient>
<radialGradient id="paint3_radial_251_39478" cx="0" cy="0" r="1" gradientUnits="userSpaceOnUse" gradientTransform="translate(38.9769 87.0254) scale(63.2784 63.159)">
<stop stop-color="#A5E2FF"/>
<stop offset="1" stop-color="#0069C2"/>
</radialGradient>
<radialGradient id="paint4_radial_251_39478" cx="0" cy="0" r="1" gradientUnits="userSpaceOnUse" gradientTransform="translate(94.0594 27.0607) scale(45.9757 45.8889)">
<stop stop-color="#4CCAFF"/>
<stop offset="1" stop-color="#003EB0"/>
</radialGradient>
<radialGradient id="paint5_radial_251_39478" cx="0" cy="0" r="1" gradientUnits="userSpaceOnUse" gradientTransform="translate(-2.23762 58.7959) scale(40.1735 40.0976)">
<stop stop-color="#A5E2FF"/>
<stop offset="1" stop-color="#218CF3"/>
</radialGradient>
<radialGradient id="paint6_radial_251_39478" cx="0" cy="0" r="1" gradientUnits="userSpaceOnUse" gradientTransform="translate(28.179 96.3226) scale(73.8161 73.6768)">
<stop stop-color="#77D6FF"/>
<stop offset="1" stop-color="#001FB0"/>
</radialGradient>
<radialGradient id="paint7_radial_251_39478" cx="0" cy="0" r="1" gradientUnits="userSpaceOnUse" gradientTransform="translate(18.3178 85.7268) scale(66.9731 66.8467)">
<stop stop-color="#A5E2FF"/>
<stop offset="1" stop-color="#0081FF"/>
</radialGradient>
<radialGradient id="paint8_radial_251_39478" cx="0" cy="0" r="1" gradientUnits="userSpaceOnUse" gradientTransform="translate(72.0471 42.1752) scale(39.0807 39.0069)">
<stop stop-color="#00000D"/>
<stop offset="1" stop-color="white"/>
</radialGradient>
<radialGradient id="paint9_radial_251_39478" cx="0" cy="0" r="1" gradientUnits="userSpaceOnUse" gradientTransform="translate(32.524 47.3172) scale(42.0208 41.9415)">
<stop offset="0.31" stop-color="#00000D"/>
<stop offset="1" stop-color="#1CB4FF"/>
</radialGradient>
<radialGradient id="paint10_radial_251_39478" cx="0" cy="0" r="1" gradientUnits="userSpaceOnUse" gradientTransform="translate(70.4855 -16.413) scale(68.222 68.0932)">
<stop offset="0.57" stop-color="#00000D"/>
<stop offset="0.6" stop-color="#030512"/>
<stop offset="0.63" stop-color="#0C1523"/>
<stop offset="0.68" stop-color="#1B2F3F"/>
<stop offset="0.72" stop-color="#305366"/>
<stop offset="0.77" stop-color="#4C8297"/>
<stop offset="0.82" stop-color="#6DBAD3"/>
<stop offset="0.86" stop-color="#85E3FF"/>
</radialGradient>
</defs>
</svg>
