<svg width="84" height="80" viewBox="0 0 84 80" fill="none" xmlns="http://www.w3.org/2000/svg">
<path d="M49.6257 73.6418C49.6257 77.6688 52.1924 79.3415 55.5065 77.6316C51.1333 80.3328 48.006 80.8284 42.4741 78.5733C46.4237 80.1221 49.6257 77.9166 49.6382 73.6418H49.6257Z" fill="#A61C1D"/>
<path d="M78.4936 6.237C83.9632 8.2195 83.9632 11.7013 83.9632 14.7246C83.9632 10.4374 80.6989 8.05842 76.687 9.38421C79.8641 8.31862 80.4622 7.06717 78.5061 6.22461L78.4936 6.237Z" fill="#BA1C1D"/>
<path d="M7.53808 8.62848C3.65079 7.76114 0.436294 10.0782 0.0749753 13.9069H0.0375975C-0.199129 7.8107 3.33931 5.58039 7.563 5.41931C3.41406 6.23709 3.38914 7.68679 7.52562 8.62848H7.53808Z" fill="#FF9191"/>
<path d="M56.951 15.9142C52.9391 17.2524 49.6623 21.7997 49.6623 26.0869C49.6623 21.7997 46.3233 17.5621 42.1743 16.6081C46.3233 17.5621 52.9391 17.2524 56.951 15.9142Z" fill="#FF9696"/>
<path d="M55.4936 77.6442C52.1919 79.3541 49.6128 77.669 49.6128 73.6544L49.6502 26.0992C49.6502 21.8121 52.927 17.2647 56.9388 15.9266L76.6619 9.4091C80.6738 8.0833 83.9506 10.4623 83.9381 14.7495L83.9007 51.9708C83.9007 56.258 80.9728 61.5612 77.3845 63.841L56.1041 77.2972C55.8923 77.4212 55.6805 77.5574 55.4687 77.6442H55.4936Z" fill="#8A0310"/>
<path style="mix-blend-mode:screen" d="M55.4936 77.6442C52.1919 79.3541 49.6128 77.669 49.6128 73.6544L49.6502 26.0992C49.6502 21.8121 52.927 17.2647 56.9388 15.9266L76.6619 9.4091C80.6738 8.0833 83.9506 10.4623 83.9381 14.7495L83.9007 51.9708C83.9007 56.258 80.9728 61.5612 77.3845 63.841L56.1041 77.2972C55.8923 77.4212 55.6805 77.5574 55.4687 77.6442H55.4936Z" fill="url(#paint0_linear_251_39498)"/>
<path style="mix-blend-mode:screen" d="M56.9268 15.9265C52.9274 17.2771 49.6631 21.8121 49.6631 26.0868V30.4607C61.786 36.1728 73.1364 43.3965 83.9261 51.5743V31.7617C75.1423 26.1488 66.0595 20.9943 56.9268 15.9389V15.9265Z" fill="url(#paint1_linear_251_39498)"/>
<path style="mix-blend-mode:screen" d="M49.6255 63.9154C54.1482 66.7653 58.5837 69.8257 62.7949 73.0597L75.1795 65.2288C66.8317 59.5044 58.3096 54.0401 49.6379 49.0095V63.9154H49.6255Z" fill="url(#paint2_linear_251_39498)"/>
<path d="M78.494 6.237C80.4501 7.07957 79.852 8.33102 76.6749 9.39661L56.9519 15.9141C52.94 17.2523 46.3117 17.562 42.1752 16.6079L7.53839 8.62839C3.38945 7.68671 3.42683 6.237 7.57577 5.41922L31.4104 0.673621C35.5718 -0.14416 42.3247 -0.230894 46.4985 0.487761L76.4133 5.66704C76.7497 5.72899 77.0611 5.80333 77.3353 5.86529C77.5471 5.92724 77.7339 5.9768 77.9333 6.03875C78.1326 6.10071 78.3195 6.17505 78.5064 6.237H78.494Z" fill="#FF5050"/>
<path style="mix-blend-mode:screen" d="M78.494 6.237C80.4501 7.07957 79.852 8.33102 76.6749 9.39661L56.9519 15.9141C52.94 17.2523 46.3117 17.562 42.1752 16.6079L7.53839 8.62839C3.38945 7.68671 3.42683 6.237 7.57577 5.41922L31.4104 0.673621C35.5718 -0.14416 42.3247 -0.230894 46.4985 0.487761L76.4133 5.66704C76.7497 5.72899 77.0611 5.80333 77.3353 5.86529C77.5471 5.92724 77.7339 5.9768 77.9333 6.03875C78.1326 6.10071 78.3195 6.17505 78.5064 6.237H78.494Z" fill="url(#paint3_linear_251_39498)"/>
<g style="mix-blend-mode:screen">
<path d="M78.4934 6.23696C78.3065 6.17501 78.1197 6.11305 77.9203 6.03871C77.7334 5.97676 77.5341 5.9272 77.3223 5.86524C77.0482 5.80329 76.7367 5.74134 76.4003 5.66699L46.498 0.50011C42.3242 -0.230936 35.5712 -0.131811 31.4098 0.685969L7.56278 5.41918C3.41384 6.23696 3.38892 7.68666 7.5254 8.62835L10.1792 9.23549C29.2918 4.26685 51.544 4.36598 68.1522 12.2092L76.6744 9.39657C79.8515 8.33097 80.4495 7.07952 78.4934 6.23696Z" fill="#302E2E"/>
</g>
<path style="mix-blend-mode:screen" d="M78.4935 6.23708C78.3066 6.17513 78.1197 6.11318 77.9203 6.03883C77.7334 5.97688 77.5341 5.92732 77.3223 5.86537C77.0482 5.80341 76.7367 5.74146 76.4003 5.66712L57.4497 2.396C39.8199 2.84206 22.3146 4.44045 5.23291 7.87264C5.74374 8.14524 6.50376 8.40544 7.52542 8.62847L26.3015 12.9528C43.0842 10.834 60.1534 9.19844 77.1354 9.21083C79.8764 8.1948 80.3499 7.03008 78.4935 6.23708Z" fill="url(#paint4_linear_251_39498)"/>
<path d="M49.6627 26.0868L49.6253 73.6419C49.6253 77.9291 46.4108 80.1222 42.4612 78.5734L7.15163 64.7331C3.20203 63.1843 0 58.4635 0 54.1887L0.0373778 14.6627C0.0373778 14.4025 0.0498371 14.1422 0.0872149 13.9068C0.448534 10.0781 3.65057 7.76109 7.53786 8.62843L42.1747 16.608C46.3236 17.5621 49.6627 21.7996 49.6627 26.0868Z" fill="#D80002"/>
<path style="mix-blend-mode:screen" d="M49.6627 26.0868L49.6253 73.6419C49.6253 77.9291 46.4108 80.1222 42.4612 78.5734L7.15163 64.7331C3.20203 63.1843 0 58.4635 0 54.1887L0.0373778 14.6627C0.0373778 14.4025 0.0498371 14.1422 0.0872149 13.9068C0.448534 10.0781 3.65057 7.76109 7.53786 8.62843L42.1747 16.608C46.3236 17.5621 49.6627 21.7996 49.6627 26.0868Z" fill="url(#paint5_linear_251_39498)"/>
<path style="mix-blend-mode:screen" d="M49.6254 64.2622V46.0109C41.639 54.5728 33.7897 63.2958 26.0898 72.1674L38.0632 76.8635C41.8757 72.6383 45.7257 68.4379 49.6254 64.2622Z" fill="url(#paint6_linear_251_39498)"/>
<path style="mix-blend-mode:screen" d="M7.15166 64.7332L13.2941 67.1493C24.2209 51.9337 36.4683 37.4243 49.2765 23.6459C48.3171 20.3005 45.5262 17.3763 42.1747 16.6081L25.3671 12.7422C16.6705 21.9856 8.2107 31.4892 3.62368e-05 41.2406L3.62368e-05 54.1888C-0.012423 58.4759 3.18961 63.1844 7.1392 64.7332H7.15166Z" fill="url(#paint7_linear_251_39498)"/>
<path d="M42.4991 26.7313C42.4991 29.3705 40.9417 31.514 39.0479 31.514C37.1416 31.514 35.5967 29.3705 35.5967 26.7313C35.5967 24.0921 37.1541 21.9485 39.0604 21.9485C40.9666 21.9485 42.5116 24.0921 42.5116 26.7313H42.4991Z" fill="#E8B3B3"/>
<path d="M39.0482 21.9359C37.1419 21.9359 35.5845 24.0795 35.5845 26.7187C35.5845 28.3666 36.1825 29.8287 37.1045 30.6837C36.793 27.3258 38.5124 24.0671 41.1164 22.9272C40.5433 22.32 39.8206 21.9359 39.0357 21.9359H39.0482Z" fill="#E8B3B3"/>
<path style="mix-blend-mode:screen" d="M37.1164 30.6838C37.6647 31.2042 38.325 31.5015 39.0476 31.5015C40.9539 31.5015 42.4988 29.3704 42.4988 26.7188C42.4988 25.1699 41.9631 23.7946 41.1283 22.9272C38.5243 24.0672 36.805 27.3259 37.1164 30.6838Z" fill="url(#paint8_linear_251_39498)"/>
<path d="M66.2089 9.53309C63.8043 9.53309 61.8481 8.76487 61.8481 7.82319C61.8481 6.8815 63.8043 6.11328 66.2214 6.11328C68.6385 6.11328 70.5821 6.8815 70.5946 7.82319C70.5946 8.76487 68.6385 9.53309 66.2214 9.53309H66.2089Z" fill="white"/>
<path d="M17.2314 8.59143C15.0012 8.59143 13.1821 7.88516 13.1821 7.00543C13.1821 6.1257 15.0012 5.41943 17.2314 5.41943C19.4741 5.41943 21.2807 6.13809 21.2807 7.00543C21.2807 7.88516 19.4616 8.59143 17.2314 8.57904V8.59143Z" fill="white"/>
<path d="M42.4865 47.2748C42.4865 49.914 40.9415 52.0576 39.0353 52.0576C37.1166 52.0576 35.5716 49.914 35.5841 47.2748C35.5841 44.6356 37.129 42.4921 39.0477 42.4921C40.954 42.4921 42.499 44.6356 42.499 47.2748H42.4865Z" fill="#E8B3B3"/>
<path style="mix-blend-mode:screen" d="M36.4683 50.4467C37.1037 51.4255 38.0008 52.0451 39.0349 52.0451C40.9411 52.0451 42.4861 49.9015 42.4861 47.2623C42.4861 45.7506 41.9628 44.4124 41.1779 43.5327C39.01 44.5487 36.9916 47.1632 36.4683 50.4467Z" fill="url(#paint9_linear_251_39498)"/>
<path d="M39.035 42.4919C37.1287 42.4919 35.5837 44.6355 35.5713 47.2747C35.5713 48.5014 35.9077 49.6042 36.4559 50.4591C36.9792 47.188 38.9976 44.5612 41.1655 43.5451C40.5799 42.9008 39.8448 42.4919 39.035 42.4919Z" fill="#E8B3B3"/>
<path d="M42.4732 66.79C42.4732 69.4292 40.9283 71.5727 39.022 71.5727C37.1158 71.5727 35.5708 69.4292 35.5708 66.79C35.5708 64.1508 37.1158 62.0072 39.0345 62.0072C40.9408 62.0072 42.4857 64.1508 42.4857 66.79H42.4732Z" fill="#E8B3B3"/>
<path style="mix-blend-mode:screen" d="M36.3186 69.7514C36.954 70.8542 37.9134 71.5605 39.0098 71.5605C40.9161 71.5605 42.461 69.4169 42.461 66.7777C42.461 65.6378 42.162 64.597 41.6761 63.7792C41.24 63.8907 40.7915 64.027 40.318 64.1881C39.1967 64.2376 36.6301 66.691 36.3062 69.7391L36.3186 69.7514Z" fill="url(#paint10_linear_251_39498)"/>
<path d="M39.0223 62.0071C37.116 62.0071 35.5586 64.1507 35.5586 66.7899C35.5586 67.9174 35.8452 68.9458 36.3186 69.7636C36.6301 66.7155 39.1967 64.2622 40.3305 64.2126C40.8039 64.0515 41.2525 63.9152 41.6886 63.8037C41.0531 62.7257 40.1062 62.0195 39.0223 62.0195V62.0071Z" fill="#E8B3B3"/>
<g style="mix-blend-mode:screen">
<path d="M60.0166 68.0044C59.1195 70.4825 56.9392 71.957 55.145 71.3003C53.3509 70.6312 52.6282 68.0911 53.5253 65.613C54.4224 63.1349 56.6028 61.6604 58.3969 62.3295C60.191 62.9986 60.9137 65.5386 60.0166 68.0168V68.0044Z" fill="#635E5E"/>
</g>
<path style="mix-blend-mode:screen" d="M56.6773 62.2922C55.3815 62.6763 54.148 63.8906 53.5375 65.6005C52.6405 68.0786 53.3631 70.6311 55.1572 71.2878C55.5933 71.4489 56.0543 71.4861 56.5153 71.3993C58.8078 70.0364 60.0163 63.9278 56.6897 62.2922H56.6773Z" fill="url(#paint11_linear_251_39498)"/>
<g style="mix-blend-mode:screen">
<path d="M80.2385 17.2028C79.5283 19.1729 77.7965 20.3376 76.3761 19.8048C74.9557 19.2844 74.3826 17.2523 75.0928 15.2946C75.803 13.3245 77.5348 12.1598 78.9552 12.6926C80.3755 13.213 80.9487 15.2327 80.2385 17.2028Z" fill="#635E5E"/>
</g>
<path style="mix-blend-mode:screen" d="M78.1324 12.5935C76.9238 12.6555 75.6779 13.7087 75.0923 15.307C74.3946 17.2524 74.9428 19.2349 76.3258 19.7924C77.796 19.396 80.5495 15.6788 78.1199 12.5935H78.1324Z" fill="url(#paint12_linear_251_39498)"/>
<g style="mix-blend-mode:screen">
<path d="M71.8279 40.8441C71.0928 42.8761 69.3111 44.078 67.8409 43.5452C66.3707 43 65.7727 40.906 66.5078 38.874C67.2429 36.8419 69.037 35.6276 70.5072 36.1728C71.9774 36.718 72.563 38.7996 71.8279 40.8441Z" fill="#635E5E"/>
</g>
<path style="mix-blend-mode:screen" d="M69.1619 36.1356C68.0779 36.4206 67.0189 37.4242 66.4956 38.8616C65.7605 40.8936 66.3585 42.9876 67.8287 43.5328C71.4295 41.6494 70.9809 36.433 69.1619 36.1356Z" fill="url(#paint13_linear_251_39498)"/>
<path d="M10.7278 18.2931C10.7278 20.7217 9.30739 22.6794 7.56309 22.6794C5.8188 22.6794 4.39844 20.7093 4.39844 18.2931C4.39844 15.877 5.8188 13.9069 7.56309 13.9069C9.31985 13.9069 10.7278 15.877 10.7278 18.2931Z" fill="#E8B3B3"/>
<path style="mix-blend-mode:screen" d="M6.54069 22.4069C6.86463 22.5555 7.20104 22.6671 7.56235 22.6671C9.30665 22.6671 10.727 20.7093 10.727 18.2808C10.727 16.6948 10.1165 15.307 9.19452 14.5388C6.4784 16.1 4.70918 19.4579 6.52823 22.4069H6.54069Z" fill="url(#paint14_linear_251_39498)"/>
<path d="M4.39844 18.2808C4.39844 20.2014 5.29551 21.8121 6.54143 22.4069C4.72238 19.4579 6.4916 16.1001 9.20772 14.5388C8.73427 14.1423 8.1736 13.8945 7.57555 13.8945C5.83125 13.8945 4.4109 15.8522 4.4109 18.2808H4.39844Z" fill="#E8B3B3"/>
<path d="M10.7148 37.1269C10.7148 39.543 9.29446 41.5131 7.5377 41.5131C5.7934 41.5131 4.37305 39.543 4.37305 37.1269C4.37305 34.7107 5.7934 32.7406 7.5377 32.753C9.282 32.753 10.7024 34.7231 10.7024 37.1393L10.7148 37.1269Z" fill="#E8B3B3"/>
<path style="mix-blend-mode:screen" d="M6.81526 41.3768C7.05199 41.4511 7.30117 41.5131 7.55036 41.5131C9.29466 41.5131 10.715 39.5553 10.7275 37.1268C10.7275 35.516 10.0921 34.1035 9.14515 33.3477C6.87756 34.8097 5.78114 38.0561 6.81526 41.3768Z" fill="url(#paint15_linear_251_39498)"/>
<path d="M4.38525 37.1145C4.38525 39.1838 5.41937 40.9061 6.81481 41.3645C5.76823 38.0562 6.86465 34.7975 9.1447 33.3354C8.6837 32.9637 8.14796 32.7283 7.56237 32.7283C5.81807 32.7283 4.39771 34.686 4.39771 37.1022L4.38525 37.1145Z" fill="#E8B3B3"/>
<path d="M10.7024 55.0188C10.7024 57.435 9.282 59.4051 7.5377 59.4051C5.78095 59.4051 4.37305 57.435 4.37305 55.0188C4.37305 52.6027 5.7934 50.6326 7.55016 50.6326C9.29446 50.6326 10.7148 52.5903 10.7148 55.0188H10.7024Z" fill="#E8B3B3"/>
<path style="mix-blend-mode:screen" d="M5.85582 58.7113C6.34173 59.1326 6.91486 59.3928 7.53782 59.3928C9.28212 59.3928 10.7025 57.4351 10.7025 55.0065C10.7025 53.6931 10.2789 52.5284 9.61852 51.723C6.47878 50.9796 5.23286 55.6509 5.85582 58.7113Z" fill="url(#paint16_linear_251_39498)"/>
<path d="M56.9513 15.9142C55.8798 16.6205 54.6463 17.0541 53.4128 17.3639C52.1794 17.686 50.9085 17.8471 49.6377 17.9215C48.3668 17.971 47.096 17.9215 45.8251 17.7232C44.5667 17.525 43.3084 17.2028 42.1621 16.5957C44.7163 16.4965 47.1084 16.4222 49.5505 16.2983L53.201 16.1124L56.9388 15.8894L56.9513 15.9142Z" fill="#FFA8A9"/>
<path d="M0.0751953 13.907C0.100114 12.6803 0.461433 11.4288 1.22145 10.4004C1.96901 9.37199 3.09034 8.59138 4.36119 8.23205C5.61957 7.87272 7.01501 7.98424 8.2111 8.26922L11.8243 8.98788C16.646 9.94196 21.4429 11.0323 26.2397 12.1227C31.024 13.2379 35.8209 14.3654 40.5803 15.6169C41.739 15.939 43.0223 16.1744 44.1935 16.8064C45.3398 17.4135 46.349 18.2313 47.1962 19.1854C48.8159 21.1307 49.8251 23.6212 49.6507 26.0869C49.4638 23.6336 48.3175 21.3661 46.6106 19.7181C45.7758 18.888 44.804 18.1817 43.745 17.7109C42.7108 17.2152 41.5272 17.0789 40.3062 16.8187C35.4845 15.8523 30.6876 14.7743 25.8908 13.6839C21.1065 12.5564 16.3096 11.4412 11.5502 10.1898L7.98684 9.26047C6.81566 8.90114 5.69433 8.77724 4.54808 9.00027C3.41428 9.19852 2.34278 9.78088 1.55785 10.673C0.772915 11.5527 0.274544 12.7051 0.0751953 13.9193V13.907Z" fill="#F53B3C"/>
<path d="M49.6626 26.0869C49.3885 22.3078 51.4941 18.4915 54.7584 16.2735C55.5558 15.716 56.5775 15.2823 57.4247 15.0097L60.0785 14.0804L65.3987 12.2714C68.962 11.119 72.5129 9.95433 76.1136 8.9259C77.9327 8.30637 80.275 8.2692 81.9197 9.53305C83.5643 10.7969 84.1623 12.8909 83.963 14.7247C83.801 12.8785 83.0036 11.0323 81.4711 10.1897C79.976 9.27284 78.132 9.40914 76.4999 10.103C72.9864 11.4164 69.4479 12.6183 65.897 13.8078L60.552 15.5301L57.8608 16.3603C56.9263 16.6329 56.1912 16.8807 55.3939 17.3267C53.8614 18.1941 52.5407 19.4827 51.5439 20.9944C50.5098 22.4812 49.837 24.2283 49.6501 26.0993L49.6626 26.0869Z" fill="#A81B1C"/>
<path d="M49.6627 26.0869C49.9866 30.0519 50.1486 34.0169 50.2732 37.9819C50.4227 41.9469 50.4351 45.9119 50.4476 49.8769C50.4227 53.8419 50.3978 57.8069 50.2482 61.7719L50.0115 67.7194C49.8745 69.7019 49.7997 71.6844 49.6128 73.6668C49.4259 71.6844 49.3512 69.7019 49.2141 67.7194L48.9899 61.7719C48.8403 57.8069 48.8279 53.8419 48.8154 49.8893C48.8403 45.9243 48.8653 41.9593 49.0148 37.9943C49.1518 34.0293 49.3138 30.0643 49.6502 26.0993L49.6627 26.0869Z" fill="#FF2628"/>
<defs>
<linearGradient id="paint0_linear_251_39498" x1="83.918" y1="81.5381" x2="61.1454" y2="31.3154" gradientUnits="userSpaceOnUse">
<stop stop-color="#9E8A62"/>
<stop offset="1"/>
</linearGradient>
<linearGradient id="paint1_linear_251_39498" x1="98.2456" y1="54.9971" x2="64.994" y2="29.4538" gradientUnits="userSpaceOnUse">
<stop stop-color="#1F1B13"/>
<stop offset="1"/>
</linearGradient>
<linearGradient id="paint2_linear_251_39498" x1="80.4789" y1="76.4733" x2="58.0033" y2="61.7861" gradientUnits="userSpaceOnUse">
<stop stop-color="#1F1B13"/>
<stop offset="1"/>
</linearGradient>
<linearGradient id="paint3_linear_251_39498" x1="46.0745" y1="26.123" x2="40.4465" y2="-0.632539" gradientUnits="userSpaceOnUse">
<stop stop-color="#AD9E80"/>
<stop offset="1"/>
</linearGradient>
<linearGradient id="paint4_linear_251_39498" x1="5.3362" y1="17.689" x2="50.829" y2="5.94992" gradientUnits="userSpaceOnUse">
<stop stop-color="#AD9E80"/>
<stop offset="1"/>
</linearGradient>
<linearGradient id="paint5_linear_251_39498" x1="17.4826" y1="74.898" x2="25.1277" y2="42.5866" gradientUnits="userSpaceOnUse">
<stop stop-color="#594418"/>
<stop offset="1"/>
</linearGradient>
<linearGradient id="paint6_linear_251_39498" x1="19.7546" y1="81.6906" x2="46.6804" y2="58.8127" gradientUnits="userSpaceOnUse">
<stop stop-color="#9E8A62"/>
<stop offset="1"/>
</linearGradient>
<linearGradient id="paint7_linear_251_39498" x1="-18.1097" y1="65.2615" x2="45.5751" y2="21.7276" gradientUnits="userSpaceOnUse">
<stop stop-color="#9E8A62"/>
<stop offset="1"/>
</linearGradient>
<linearGradient id="paint8_linear_251_39498" x1="39.7447" y1="31.9319" x2="39.8953" y2="20.3771" gradientUnits="userSpaceOnUse">
<stop stop-color="white"/>
<stop offset="1"/>
</linearGradient>
<linearGradient id="paint9_linear_251_39498" x1="40.2099" y1="55.2418" x2="38.6126" y2="40.8014" gradientUnits="userSpaceOnUse">
<stop stop-color="white"/>
<stop offset="1"/>
</linearGradient>
<linearGradient id="paint10_linear_251_39498" x1="38.7223" y1="73.8039" x2="41.2701" y2="53.4151" gradientUnits="userSpaceOnUse">
<stop stop-color="white"/>
<stop offset="1"/>
</linearGradient>
<linearGradient id="paint11_linear_251_39498" x1="52.3744" y1="78.2781" x2="57.0475" y2="63.5352" gradientUnits="userSpaceOnUse">
<stop stop-color="white"/>
<stop offset="1"/>
</linearGradient>
<linearGradient id="paint12_linear_251_39498" x1="72.2186" y1="28.6003" x2="78.8911" y2="10.8038" gradientUnits="userSpaceOnUse">
<stop stop-color="white"/>
<stop offset="1"/>
</linearGradient>
<linearGradient id="paint13_linear_251_39498" x1="63.9468" y1="50.4117" x2="70.4543" y2="34.6436" gradientUnits="userSpaceOnUse">
<stop stop-color="white"/>
<stop offset="1"/>
</linearGradient>
<linearGradient id="paint14_linear_251_39498" x1="8.47852" y1="23.6233" x2="7.91478" y2="11.2826" gradientUnits="userSpaceOnUse">
<stop stop-color="white"/>
<stop offset="1"/>
</linearGradient>
<linearGradient id="paint15_linear_251_39498" x1="8.78535" y1="41.8674" x2="8.11095" y2="29.8045" gradientUnits="userSpaceOnUse">
<stop stop-color="white"/>
<stop offset="1"/>
</linearGradient>
<linearGradient id="paint16_linear_251_39498" x1="7.33268" y1="61.1843" x2="9.1079" y2="50.3452" gradientUnits="userSpaceOnUse">
<stop stop-color="white"/>
<stop offset="1"/>
</linearGradient>
</defs>
</svg>
