<svg width="80" height="80" viewBox="0 0 80 80" fill="none" xmlns="http://www.w3.org/2000/svg">
<g opacity="0.2">
<path d="M39.551 18.8736C39.4053 18.3469 39.2266 17.8342 39.0244 17.3357C38.6154 16.3339 38.1029 15.3839 37.5105 14.4856C36.3914 12.7878 35.0138 11.2875 33.514 9.9565C32.0094 8.62551 30.3826 7.45444 28.6618 6.42446C28.2574 6.1846 27.8484 5.94944 27.4299 5.7284L27.1478 5.5826L26.7059 5.05585C26.057 4.34098 25.3565 3.68254 24.6089 3.08054C23.8613 2.47854 23.0761 1.93768 22.2533 1.44856C21.8396 1.204 21.4211 0.973545 20.9932 0.761905C20.8851 0.705467 20.777 0.658436 20.6688 0.601999L20.5043 0.522046L20.2551 0.409171C20.0435 0.315109 19.8366 0.235156 19.6297 0.1505L19.3194 0.0282187L19.2395 0C19.2395 0 19.1972 0.0329218 19.1737 0.0470312L19.042 0.145797C18.8822 0.258671 18.7317 0.380952 18.5813 0.49853L18.4684 0.587889L18.365 0.696061L18.1581 0.912404C18.1252 0.945326 18.0876 0.987654 18.0594 1.02058L17.9841 1.11934L17.8713 1.27454C17.8055 1.37801 17.7349 1.47678 17.6738 1.58025C17.4293 1.98942 17.2413 2.39859 17.0767 2.80776C16.757 3.6214 16.536 4.43504 16.3526 5.24868C16.1693 6.06232 16.0282 6.87596 15.9154 7.68959L15.9013 7.78836L15.5956 7.80717C15.4734 7.81658 15.3559 7.83539 15.2336 7.8495C14.2839 7.9953 13.4423 8.301 12.6477 8.65844C11.8531 9.01587 11.1055 9.43445 10.3908 9.89065C10.2122 10.0035 10.0335 10.1211 9.85953 10.2387L9.49749 10.4879C9.49749 10.4879 9.49749 10.4879 9.48809 10.4832L9.22479 10.3092L8.95679 10.1399L8.41609 9.806C8.23273 9.69783 8.04466 9.59436 7.86129 9.49089L7.58389 9.33569L7.29708 9.18989C6.5354 8.79953 5.7361 8.4468 4.87569 8.19283C4.44313 8.06584 3.99646 7.96238 3.52629 7.90124L3.2818 7.87302C3.17836 7.86361 3.07962 7.85891 2.98088 7.85891C2.78341 7.85891 2.58124 7.8495 2.39317 7.88242C2.2004 7.90123 2.02643 7.94356 1.83836 7.97178H1.80075C1.80075 7.97178 1.79134 8 1.78664 8.00941L1.76313 8.07525L1.71142 8.20694L1.60798 8.47031L1.4011 8.99706C1.32587 9.15697 1.27415 9.40153 1.26005 9.46737C1.21303 9.67901 1.15661 9.89065 1.119 10.0976L1.00615 10.7231C0.973242 10.93 0.949733 11.137 0.921523 11.3439C0.818085 12.1717 0.75226 12.9947 0.72405 13.8131C0.691138 14.6314 0.681734 15.4497 0.69584 16.2634C0.700541 16.6725 0.714646 17.077 0.728752 17.4862L0.756962 18.1023V18.154V18.1681V18.2058L0.709945 18.5068C0.47956 20.1011 0.29149 21.7096 0.15514 23.3275L0.145736 23.4215L0.136333 23.5156C0.0705083 24.3762 0.0187892 25.2369 0.00938568 26.1117C0.00468394 26.328 0.00468394 26.5491 0.00938568 26.7701V27.1041L0.0281926 27.4427C0.0469996 27.8942 0.0846135 28.341 0.173947 28.8442L0.216262 29.0417C0.230367 29.1076 0.253876 29.1875 0.277385 29.2628L0.305595 29.3427L0.333806 29.4697L0.488963 30.1329C0.540682 30.3539 0.620612 30.5703 0.681734 30.7866C0.75226 31.0029 0.813383 31.224 0.902716 31.4356L1.15661 32.0753C1.25535 32.2822 1.35878 32.4891 1.45752 32.7008C1.55156 32.9124 1.6738 33.1099 1.79134 33.3075C1.90889 33.505 2.01703 33.7119 2.15808 33.9001C3.18306 35.4568 4.61239 36.7313 6.20158 37.6673C7.80017 38.6032 9.54921 39.2052 11.3218 39.5767C12.4596 39.8072 13.6021 39.9577 14.7728 39.9953C14.8199 39.9906 14.9186 39.9342 14.9421 39.92C15.511 39.5109 15.5956 39.1064 15.4969 38.796C15.4123 38.4809 15.1584 38.2363 14.9609 38.0905C14.9045 38.0435 14.8857 38.0388 14.8434 38.0388C13.809 38.0059 12.7605 37.8695 11.7402 37.6626C10.1416 37.3286 8.59476 36.7878 7.22655 35.9835C5.86305 35.1793 4.67821 34.1164 3.8272 32.823C3.70965 32.6678 3.62032 32.4938 3.52158 32.3292C3.42285 32.1646 3.31941 32 3.24418 31.8213L2.99029 31.2992L2.77401 30.7584C2.69408 30.5797 2.64236 30.3915 2.58594 30.2034C2.52952 30.0153 2.45899 29.8319 2.41668 29.639L2.28503 29.0653L2.24741 28.8959L2.23801 28.863V28.8442L2.2192 28.8066L2.19569 28.7313C2.19569 28.7313 2.18629 28.6937 2.18159 28.6749C2.18159 28.6655 2.18159 28.6608 2.17689 28.6561C2.17689 28.6608 2.17689 28.6608 2.17689 28.6561C2.17219 28.6279 2.16278 28.6091 2.15338 28.5714L2.12987 28.4586C2.06875 28.1246 2.03113 27.7296 2.01703 27.3345L2.00292 27.0382V26.7372C1.99352 26.535 1.99352 26.3327 2.00292 26.1258C2.01233 25.3075 2.06405 24.4797 2.12517 23.652L2.13457 23.5626L2.14398 23.4733C2.27562 21.9071 2.45899 20.3363 2.68468 18.7654L2.72699 18.4691L2.7599 18.2246C2.7599 18.1305 2.7458 18.0035 2.7458 17.9753L2.71759 17.3921C2.69878 17.0018 2.68938 16.6114 2.68468 16.221C2.67057 15.4403 2.68468 14.6549 2.71289 13.8789C2.7411 13.1029 2.80692 12.3316 2.89625 11.5697C2.92446 11.3815 2.94327 11.1934 2.97618 11.0053L3.07492 10.4503C3.10783 10.2669 3.15485 10.0882 3.19716 9.90946L3.22067 9.8154H3.27709C3.61092 9.86714 3.95885 9.94239 4.30677 10.0506C5.00733 10.2575 5.70319 10.5585 6.38494 10.9065L6.63884 11.0335L6.89273 11.1746C7.06199 11.2687 7.23126 11.3627 7.39582 11.4615L7.8895 11.7672L8.13869 11.9224L8.38318 12.087L9.38465 12.7643L9.5116 12.8489L9.57272 12.8912C9.57272 12.8912 9.61504 12.863 9.63384 12.8489L9.87833 12.6608C10.0429 12.5338 10.2028 12.4068 10.3673 12.2892C10.7576 12.0071 10.8234 11.9647 11.0021 11.8424C11.1619 11.7343 11.3218 11.6308 11.4863 11.5273C12.1399 11.1135 12.8122 10.7419 13.494 10.4315C14.1757 10.1258 14.881 9.87654 15.5439 9.77778C15.6239 9.76837 15.7085 9.75426 15.7884 9.74956L15.906 9.74015C15.953 9.74015 15.9624 9.73075 16.094 9.74015L16.4043 9.76367L16.5595 9.77307C16.6112 9.77778 16.6676 9.78718 16.7241 9.79659L17.3729 9.89536L17.6879 9.94239C17.7067 9.85773 17.7067 9.74486 17.7208 9.64609L17.7773 9.03939C17.7961 8.83715 17.8149 8.63492 17.8384 8.43739L17.876 8.14109L17.9042 7.93886C18.0076 7.17225 18.144 6.40564 18.3086 5.65785C18.4778 4.91005 18.68 4.17637 18.948 3.49912C19.0796 3.16049 19.2301 2.84068 19.3994 2.5632L19.5263 2.36567L19.5921 2.27631C19.5921 2.27631 19.6062 2.2575 19.6109 2.25279L19.6721 2.27631L19.8178 2.34685C19.9165 2.39389 20.0106 2.43621 20.1093 2.48795C20.4949 2.68078 20.8757 2.88771 21.2471 3.10876C21.99 3.55085 22.7047 4.03998 23.3723 4.57613C24.04 5.11229 24.6606 5.70018 25.2295 6.32569L25.6527 6.82892L25.8784 7.097C25.8925 7.12052 25.9207 7.13463 25.9442 7.14403L26.0194 7.18166L26.1746 7.25691L26.499 7.42622C26.8845 7.62845 27.2654 7.8495 27.6462 8.07525C29.2636 9.04409 30.8011 10.1493 32.1975 11.3862C33.5939 12.6232 34.854 14.0012 35.8601 15.525C36.3867 16.3245 36.8428 17.1664 37.1954 18.0412C37.3741 18.4785 37.5293 18.9253 37.6515 19.3721C37.7738 19.8189 37.8678 20.2704 37.9289 20.7266C38.0512 21.639 38.0418 22.5655 37.9054 23.478C37.8443 23.9342 37.7361 24.3904 37.6186 24.8419C37.5528 25.0676 37.4822 25.2887 37.407 25.5097L37.3694 25.6085C37.2942 25.8201 37.2189 26.0317 37.1296 26.234L36.998 26.5444L36.8522 26.8501C36.8522 26.8501 36.824 26.9253 36.7723 27.057C36.7159 27.184 36.6359 27.3721 36.5372 27.5932C36.3303 28.0306 36.0388 28.6091 35.705 29.164C35.0514 30.2787 34.2427 31.2851 34.3368 31.2146C33.7067 32.0894 33.1519 32.7995 33.1378 33.0582C33.1237 33.1899 33.2601 33.2181 33.5845 33.0676C33.9042 32.9171 34.4167 32.5926 35.1126 31.9859C35.531 31.6379 35.973 31.224 36.3867 30.7866C36.8005 30.3492 37.1813 29.8883 37.5058 29.4697C37.8255 29.0464 38.0841 28.6608 38.2627 28.3786C38.4367 28.0964 38.5401 27.9271 38.5401 27.9271C38.7987 27.3815 39.0479 26.8313 39.2454 26.2528L39.2877 26.1399C39.3723 25.8812 39.4523 25.6226 39.5322 25.3639C39.6733 24.8372 39.7955 24.3057 39.8707 23.7648C40.0306 22.6831 40.0447 21.5732 39.8989 20.4821C39.8284 19.9365 39.7156 19.3956 39.5698 18.8689L39.551 18.8736ZM0.310297 29.3568C0.310297 29.3568 0.310297 29.371 0.310297 29.3568V29.3568ZM0.75226 18.154C0.75226 18.154 0.75226 18.1493 0.75226 18.154V18.154Z" fill="white"/>
<path d="M3.79885 16.7428C3.79885 16.7428 4.43359 15.4259 6.05569 14.9415L3.51675 12.1714C3.51675 12.1714 3.30517 15.4918 3.79885 16.7381V16.7428Z" fill="white"/>
<path d="M21.2236 4.69859L21.6468 8.23063C21.6468 8.23063 23.692 7.46873 24.6089 7.39818C24.6089 7.39818 22.1405 4.62804 21.2236 4.69859V4.69859Z" fill="white"/>
<path d="M11.3688 19.217C11.6179 18.8596 11.6368 18.4457 11.4064 18.2905C11.1807 18.14 10.7951 18.3046 10.5459 18.6667C10.2968 19.0242 10.278 19.4381 10.5083 19.5933C10.734 19.7438 11.1196 19.5791 11.3688 19.217Z" fill="white"/>
<path d="M20.6782 14.3866C20.6782 14.6547 21.0356 14.8757 21.4775 14.8757C21.9195 14.8757 22.2768 14.6594 22.2768 14.3866C22.2768 14.1138 21.9195 13.8975 21.4775 13.8975C21.0356 13.8975 20.6782 14.1138 20.6782 14.3866Z" fill="white"/>
<path d="M12.5116 24.1364C13.4049 23.6284 13.8751 22.7866 13.5601 22.2504C13.2451 21.7143 12.2624 21.6908 11.3691 22.1987C10.4757 22.7066 10.0056 23.5485 10.3206 24.0846C10.6356 24.6208 11.6183 24.6443 12.5116 24.1364ZM10.8707 23.1628C10.7155 22.8995 10.9459 22.4762 11.3879 22.2269C11.8298 21.9776 12.3188 21.9871 12.474 22.2551C12.6291 22.5185 12.3988 22.9418 11.9568 23.1911C11.5148 23.4403 11.0259 23.4309 10.8707 23.1628Z" fill="white"/>
<path d="M18.8257 25.1618C18.6376 25.4534 18.4261 25.7121 18.2239 25.8908C18.0217 26.0695 17.843 26.1541 17.7161 26.1918C17.6032 26.22 17.4716 26.2153 17.34 26.2012C17.2177 26.1871 17.1566 26.1683 17.1566 26.1683C17.1566 26.1683 17.072 26.1683 16.9638 26.1683C16.8557 26.1636 16.7381 26.1447 16.6629 26.1212C16.583 26.1024 16.5124 26.0601 16.4654 25.9801C16.4184 25.9049 16.3949 25.8249 16.3808 25.839C16.268 25.5757 16.2256 25.2182 16.0611 25.0959C15.9811 25.0301 15.8777 25.0207 15.7367 25.1101C15.6661 25.1524 15.5909 25.2229 15.5063 25.3264C15.4263 25.4299 15.3417 25.5757 15.2806 25.7779C15.1913 26.0131 15.1536 26.3329 15.243 26.6715C15.3276 27.0101 15.5486 27.3205 15.7649 27.5181C15.9858 27.725 16.1974 27.8473 16.3479 27.9225C16.4983 27.9978 16.5877 28.0354 16.5877 28.0354C16.5877 28.0354 16.7334 28.0777 16.9779 28.1153C17.1049 28.1342 17.2459 28.153 17.4293 28.1577C17.4575 28.1577 17.481 28.1577 17.5092 28.1577C17.5327 28.1577 17.5562 28.1577 17.5797 28.1577C17.6315 28.1577 17.6832 28.1577 17.7396 28.153C17.8524 28.1436 17.9794 28.1295 18.1016 28.1012C18.6047 28.0025 19.1031 27.7297 19.498 27.3911C19.8977 27.0524 20.2174 26.6527 20.4854 26.2435C20.5841 26.093 20.6735 25.9425 20.7581 25.7873C20.8663 25.8061 20.9885 25.8296 21.1201 25.8484C21.6844 25.9284 22.446 26.0084 23.2924 25.8673C23.7108 25.8014 24.1622 25.6603 24.5712 25.4158C24.9803 25.1665 25.3235 24.7996 25.5116 24.4516C25.6949 24.1271 25.7937 23.7838 25.8172 23.5298C25.8313 23.4028 25.8313 23.2994 25.8313 23.2288C25.8313 23.1583 25.8313 23.1206 25.8313 23.1206C25.8313 23.1206 25.8219 23.0736 25.8031 22.9984C25.7843 22.9231 25.7514 22.8102 25.6996 22.6927C25.5962 22.4481 25.4034 22.1753 25.1919 21.9825C24.9803 21.785 24.7593 21.6486 24.5947 21.5686C24.4302 21.4887 24.3267 21.4557 24.3408 21.4745C23.9506 21.3523 23.6074 21.3852 23.4757 21.5357C23.3488 21.6956 23.4381 21.9355 23.7014 22.354C23.7672 22.4904 23.8331 22.6268 23.8754 22.7538C23.9177 22.8808 23.9365 22.9937 23.9318 23.0689C23.9177 23.2288 23.8566 23.257 23.8566 23.257C23.8566 23.257 23.8566 23.2711 23.8566 23.2994C23.8566 23.3276 23.8472 23.3793 23.7907 23.4922C23.739 23.5909 23.6779 23.6662 23.5556 23.7462C23.4334 23.8261 23.2312 23.9014 22.9867 23.9437C22.4978 24.033 21.8818 23.9907 21.4305 23.9202C21.2095 23.8872 21.0214 23.8496 20.8851 23.8214C20.8569 23.7697 20.8333 23.7226 20.8051 23.6709C20.7205 23.511 20.6406 23.3558 20.5653 23.2194C20.4713 23.0454 20.3867 22.8855 20.3162 22.7538C20.9697 22.2082 21.2753 21.4557 21.0214 20.8114C20.6688 19.9225 19.3852 19.5839 18.1534 20.0542C16.9215 20.5245 16.2115 21.625 16.5642 22.5139C16.8228 23.163 17.5844 23.5204 18.4543 23.4781C18.5436 23.6427 18.6564 23.859 18.7928 24.1177C18.8821 24.287 18.9903 24.4892 19.1031 24.7009V24.7103C19.0185 24.8655 18.9291 25.0207 18.8351 25.1665L18.8257 25.1618Z" fill="white"/>
<path d="M7.90792 26.5115C6.66666 27.0664 5.97081 28.1858 6.35635 29.0135C6.74189 29.8413 8.05838 30.0576 9.29964 29.5027C10.5409 28.9477 11.2368 27.8283 10.8512 27.0006C10.4657 26.1729 9.14918 25.9565 7.90792 26.5115Z" fill="white"/>
<path d="M30.1854 19.2732C31.4266 18.7182 32.1225 17.5989 31.737 16.7711C31.3514 15.9434 30.0349 15.727 28.7937 16.282C27.5524 16.837 26.8565 17.9563 27.2421 18.784C27.6276 19.6118 28.9441 19.8281 30.1854 19.2732Z" fill="white"/>
<path d="M23.321 16.7337C22.4182 16.9877 21.8117 17.6038 21.9386 18.1681C22.075 18.7748 23.0012 19.0899 24.0074 18.8736C25.0183 18.6573 25.7235 17.9941 25.5919 17.3874C25.465 16.823 24.6516 16.5126 23.7253 16.6443C24.1391 16.6114 24.487 16.7666 24.5434 17.0253C24.6092 17.3263 24.2566 17.6555 23.7582 17.759C23.2598 17.8671 22.7991 17.7072 22.7332 17.4109C22.6768 17.1523 22.9307 16.8748 23.321 16.7337Z" fill="white"/>
<path d="M79.551 58.8736C79.4053 58.3469 79.2266 57.8342 79.0244 57.3357C78.6154 56.3339 78.1029 55.3839 77.5105 54.4856C76.3914 52.7878 75.0138 51.2875 73.514 49.9565C72.0094 48.6255 70.3826 47.4544 68.6618 46.4245C68.2574 46.1846 67.8484 45.9494 67.4299 45.7284L67.1478 45.5826L66.7059 45.0558C66.057 44.341 65.3565 43.6825 64.6089 43.0805C63.8613 42.4785 63.0761 41.9377 62.2533 41.4486C61.8396 41.204 61.4211 40.9735 60.9932 40.7619C60.8851 40.7055 60.777 40.6584 60.6688 40.602L60.5043 40.522L60.2551 40.4092C60.0435 40.3151 59.8366 40.2352 59.6297 40.1505L59.3194 40.0282L59.2395 40C59.2395 40 59.1972 40.0329 59.1737 40.047L59.042 40.1458C58.8822 40.2587 58.7317 40.381 58.5813 40.4985L58.4684 40.5879L58.365 40.6961L58.1581 40.9124C58.1252 40.9453 58.0876 40.9877 58.0594 41.0206L57.9841 41.1193L57.8713 41.2745C57.8055 41.378 57.7349 41.4768 57.6738 41.5802C57.4293 41.9894 57.2413 42.3986 57.0767 42.8078C56.757 43.6214 56.536 44.435 56.3526 45.2487C56.1693 46.0623 56.0282 46.876 55.9154 47.6896L55.9013 47.7884L55.5956 47.8072C55.4734 47.8166 55.3559 47.8354 55.2336 47.8495C54.2839 47.9953 53.4423 48.301 52.6477 48.6584C51.8531 49.0159 51.1055 49.4345 50.3908 49.8907C50.2122 50.0035 50.0335 50.1211 49.8595 50.2387L49.4975 50.4879C49.4975 50.4879 49.4975 50.4879 49.4881 50.4832L49.2248 50.3092L48.9568 50.1399L48.4161 49.806C48.2327 49.6978 48.0447 49.5944 47.8613 49.4909L47.5839 49.3357L47.2971 49.1899C46.5354 48.7995 45.7361 48.4468 44.8757 48.1928C44.4431 48.0658 43.9965 47.9624 43.5263 47.9012L43.2818 47.873C43.1784 47.8636 43.0796 47.8589 42.9809 47.8589C42.7834 47.8589 42.5812 47.8495 42.3932 47.8824C42.2004 47.9012 42.0264 47.9436 41.8384 47.9718H41.8007C41.8007 47.9718 41.7913 48 41.7866 48.0094L41.7631 48.0752L41.7114 48.2069L41.608 48.4703L41.4011 48.9971C41.3259 49.157 41.2742 49.4015 41.26 49.4674C41.213 49.679 41.1566 49.8907 41.119 50.0976L41.0062 50.7231C40.9732 50.93 40.9497 51.137 40.9215 51.3439C40.8181 52.1717 40.7523 52.9947 40.724 53.8131C40.6911 54.6314 40.6817 55.4497 40.6958 56.2634C40.7005 56.6725 40.7146 57.077 40.7288 57.4862L40.757 58.1023V58.154V58.1681V58.2058L40.7099 58.5068C40.4796 60.1011 40.2915 61.7096 40.1551 63.3275L40.1457 63.4215L40.1363 63.5156C40.0705 64.3762 40.0188 65.2369 40.0094 66.1117C40.0047 66.328 40.0047 66.5491 40.0094 66.7701V67.1041L40.0282 67.4427C40.047 67.8942 40.0846 68.341 40.1739 68.8442L40.2163 69.0417C40.2304 69.1076 40.2539 69.1875 40.2774 69.2628L40.3056 69.3427L40.3338 69.4697L40.489 70.1329C40.5407 70.3539 40.6206 70.5703 40.6817 70.7866C40.7523 71.0029 40.8134 71.224 40.9027 71.4356L41.1566 72.0753C41.2553 72.2822 41.3588 72.4891 41.4575 72.7008C41.5516 72.9124 41.6738 73.1099 41.7913 73.3075C41.9089 73.505 42.017 73.7119 42.1581 73.9001C43.1831 75.4568 44.6124 76.7313 46.2016 77.6673C47.8002 78.6032 49.5492 79.2052 51.3218 79.5767C52.4596 79.8072 53.6021 79.9577 54.7728 79.9953C54.8199 79.9906 54.9186 79.9342 54.9421 79.92C55.511 79.5109 55.5956 79.1064 55.4969 78.796C55.4123 78.4809 55.1584 78.2363 54.9609 78.0905C54.9045 78.0435 54.8857 78.0388 54.8434 78.0388C53.809 78.0059 52.7605 77.8695 51.7402 77.6626C50.1416 77.3286 48.5948 76.7878 47.2266 75.9835C45.8631 75.1793 44.6782 74.1164 43.8272 72.823C43.7097 72.6678 43.6203 72.4938 43.5216 72.3292C43.4228 72.1646 43.3194 72 43.2442 71.8213L42.9903 71.2992L42.774 70.7584C42.6941 70.5797 42.6424 70.3915 42.5859 70.2034C42.5295 70.0153 42.459 69.8319 42.4167 69.639L42.285 69.0653L42.2474 68.8959L42.238 68.863V68.8442L42.2192 68.8066L42.1957 68.7313C42.1957 68.7313 42.1863 68.6937 42.1816 68.6749C42.1816 68.6655 42.1816 68.6608 42.1769 68.6561C42.1769 68.6608 42.1769 68.6608 42.1769 68.6561C42.1722 68.6279 42.1628 68.6091 42.1534 68.5714L42.1299 68.4586C42.0687 68.1246 42.0311 67.7296 42.017 67.3345L42.0029 67.0382V66.7372C41.9935 66.535 41.9935 66.3327 42.0029 66.1258C42.0123 65.3075 42.064 64.4797 42.1252 63.652L42.1346 63.5626L42.144 63.4733C42.2756 61.9071 42.459 60.3363 42.6847 58.7654L42.727 58.4691L42.7599 58.2246C42.7599 58.1305 42.7458 58.0035 42.7458 57.9753L42.7176 57.3921C42.6988 57.0018 42.6894 56.6114 42.6847 56.221C42.6706 55.4403 42.6847 54.6549 42.7129 53.8789C42.7411 53.1029 42.8069 52.3316 42.8963 51.5697C42.9245 51.3815 42.9433 51.1934 42.9762 51.0053L43.0749 50.4503C43.1078 50.2669 43.1548 50.0882 43.1972 49.9095L43.2207 49.8154H43.2771C43.6109 49.8671 43.9588 49.9424 44.3068 50.0506C45.0073 50.2575 45.7032 50.5585 46.3849 50.9065L46.6388 51.0335L46.8927 51.1746C47.062 51.2687 47.2313 51.3627 47.3958 51.4615L47.8895 51.7672L48.1387 51.9224L48.3832 52.087L49.3847 52.7643L49.5116 52.8489L49.5727 52.8912C49.5727 52.8912 49.615 52.863 49.6338 52.8489L49.8783 52.6608C50.0429 52.5338 50.2028 52.4068 50.3673 52.2892C50.7576 52.0071 50.8234 51.9647 51.0021 51.8424C51.1619 51.7343 51.3218 51.6308 51.4863 51.5273C52.1399 51.1135 52.8122 50.7419 53.494 50.4315C54.1757 50.1258 54.881 49.8765 55.5439 49.7778C55.6239 49.7684 55.7085 49.7543 55.7884 49.7496L55.906 49.7402C55.953 49.7402 55.9624 49.7307 56.094 49.7402L56.4043 49.7637L56.5595 49.7731C56.6112 49.7778 56.6676 49.7872 56.7241 49.7966L57.3729 49.8954L57.6879 49.9424C57.7067 49.8577 57.7067 49.7449 57.7208 49.6461L57.7773 49.0394C57.7961 48.8372 57.8149 48.6349 57.8384 48.4374L57.876 48.1411L57.9042 47.9389C58.0076 47.1723 58.144 46.4056 58.3086 45.6578C58.4778 44.9101 58.68 44.1764 58.948 43.4991C59.0796 43.1605 59.2301 42.8407 59.3994 42.5632L59.5263 42.3657L59.5921 42.2763C59.5921 42.2763 59.6062 42.2575 59.6109 42.2528L59.6721 42.2763L59.8178 42.3469C59.9165 42.3939 60.0106 42.4362 60.1093 42.4879C60.4949 42.6808 60.8757 42.8877 61.2471 43.1088C61.99 43.5509 62.7047 44.04 63.3723 44.5761C64.04 45.1123 64.6606 45.7002 65.2295 46.3257L65.6527 46.8289L65.8784 47.097C65.8925 47.1205 65.9207 47.1346 65.9442 47.144L66.0194 47.1817L66.1746 47.2569L66.499 47.4262C66.8845 47.6285 67.2654 47.8495 67.6462 48.0752C69.2636 49.0441 70.8011 50.1493 72.1975 51.3862C73.5939 52.6232 74.854 54.0012 75.8601 55.525C76.3867 56.3245 76.8428 57.1664 77.1954 58.0412C77.3741 58.4785 77.5293 58.9253 77.6515 59.3721C77.7738 59.8189 77.8678 60.2704 77.9289 60.7266C78.0512 61.639 78.0418 62.5655 77.9054 63.478C77.8443 63.9342 77.7361 64.3904 77.6186 64.8419C77.5528 65.0676 77.4822 65.2887 77.407 65.5097L77.3694 65.6085C77.2942 65.8201 77.2189 66.0317 77.1296 66.234L76.998 66.5444L76.8522 66.8501C76.8522 66.8501 76.824 66.9253 76.7723 67.057C76.7159 67.184 76.6359 67.3721 76.5372 67.5932C76.3303 68.0306 76.0388 68.6091 75.705 69.164C75.0514 70.2787 74.2427 71.2851 74.3368 71.2146C73.7067 72.0894 73.1519 72.7995 73.1378 73.0582C73.1237 73.1899 73.2601 73.2181 73.5845 73.0676C73.9042 72.9171 74.4167 72.5926 75.1126 71.9859C75.531 71.6379 75.973 71.224 76.3867 70.7866C76.8005 70.3492 77.1813 69.8883 77.5058 69.4697C77.8255 69.0464 78.0841 68.6608 78.2627 68.3786C78.4367 68.0964 78.5401 67.9271 78.5401 67.9271C78.7987 67.3815 79.0479 66.8313 79.2454 66.2528L79.2877 66.1399C79.3723 65.8812 79.4523 65.6226 79.5322 65.3639C79.6733 64.8372 79.7955 64.3057 79.8707 63.7648C80.0306 62.6831 80.0447 61.5732 79.8989 60.4821C79.8284 59.9365 79.7156 59.3956 79.5698 58.8689L79.551 58.8736ZM40.3103 69.3568C40.3103 69.3568 40.3103 69.371 40.3103 69.3568V69.3568ZM40.7523 58.154C40.7523 58.154 40.7523 58.1493 40.7523 58.154V58.154Z" fill="white"/>
<path d="M43.7989 56.7428C43.7989 56.7428 44.4336 55.4259 46.0557 54.9415L43.5167 52.1714C43.5167 52.1714 43.3052 55.4918 43.7989 56.7381V56.7428Z" fill="white"/>
<path d="M61.2236 44.6986L61.6468 48.2306C61.6468 48.2306 63.692 47.4687 64.6089 47.3982C64.6089 47.3982 62.1405 44.628 61.2236 44.6986V44.6986Z" fill="white"/>
<path d="M51.3688 59.217C51.6179 58.8596 51.6368 58.4457 51.4064 58.2905C51.1807 58.14 50.7951 58.3046 50.5459 58.6667C50.2968 59.0242 50.278 59.4381 50.5083 59.5933C50.734 59.7438 51.1196 59.5791 51.3688 59.217Z" fill="white"/>
<path d="M60.6782 54.3866C60.6782 54.6547 61.0356 54.8757 61.4775 54.8757C61.9195 54.8757 62.2768 54.6594 62.2768 54.3866C62.2768 54.1138 61.9195 53.8975 61.4775 53.8975C61.0356 53.8975 60.6782 54.1138 60.6782 54.3866Z" fill="white"/>
<path d="M52.5116 64.1364C53.4049 63.6284 53.8751 62.7866 53.5601 62.2504C53.2451 61.7143 52.2624 61.6908 51.3691 62.1987C50.4757 62.7066 50.0056 63.5485 50.3206 64.0846C50.6356 64.6208 51.6183 64.6443 52.5116 64.1364ZM50.8707 63.1628C50.7155 62.8995 50.9459 62.4762 51.3879 62.2269C51.8298 61.9776 52.3188 61.9871 52.474 62.2551C52.6291 62.5185 52.3988 62.9418 51.9568 63.1911C51.5148 63.4403 51.0259 63.4309 50.8707 63.1628Z" fill="white"/>
<path d="M58.8257 65.1618C58.6376 65.4534 58.4261 65.7121 58.2239 65.8908C58.0217 66.0695 57.843 66.1541 57.7161 66.1918C57.6032 66.22 57.4716 66.2153 57.34 66.2012C57.2177 66.1871 57.1566 66.1683 57.1566 66.1683C57.1566 66.1683 57.072 66.1683 56.9638 66.1683C56.8557 66.1636 56.7381 66.1447 56.6629 66.1212C56.583 66.1024 56.5124 66.0601 56.4654 65.9801C56.4184 65.9049 56.3949 65.8249 56.3808 65.839C56.268 65.5757 56.2256 65.2182 56.0611 65.0959C55.9811 65.0301 55.8777 65.0207 55.7367 65.1101C55.6661 65.1524 55.5909 65.2229 55.5063 65.3264C55.4263 65.4299 55.3417 65.5757 55.2806 65.7779C55.1913 66.0131 55.1536 66.3329 55.243 66.6715C55.3276 67.0101 55.5486 67.3205 55.7649 67.5181C55.9858 67.725 56.1974 67.8473 56.3479 67.9225C56.4983 67.9978 56.5877 68.0354 56.5877 68.0354C56.5877 68.0354 56.7334 68.0777 56.9779 68.1153C57.1049 68.1342 57.2459 68.153 57.4293 68.1577C57.4575 68.1577 57.481 68.1577 57.5092 68.1577C57.5327 68.1577 57.5562 68.1577 57.5797 68.1577C57.6315 68.1577 57.6832 68.1577 57.7396 68.153C57.8524 68.1436 57.9794 68.1295 58.1016 68.1012C58.6047 68.0025 59.1031 67.7297 59.498 67.3911C59.8977 67.0524 60.2174 66.6527 60.4854 66.2435C60.5841 66.093 60.6735 65.9425 60.7581 65.7873C60.8663 65.8061 60.9885 65.8296 61.1201 65.8484C61.6844 65.9284 62.446 66.0084 63.2924 65.8673C63.7108 65.8014 64.1622 65.6603 64.5712 65.4158C64.9803 65.1665 65.3235 64.7996 65.5116 64.4516C65.6949 64.1271 65.7937 63.7838 65.8172 63.5298C65.8313 63.4028 65.8313 63.2994 65.8313 63.2288C65.8313 63.1583 65.8313 63.1206 65.8313 63.1206C65.8313 63.1206 65.8219 63.0736 65.8031 62.9984C65.7843 62.9231 65.7514 62.8102 65.6996 62.6927C65.5962 62.4481 65.4034 62.1753 65.1919 61.9825C64.9803 61.785 64.7593 61.6486 64.5947 61.5686C64.4302 61.4887 64.3267 61.4557 64.3408 61.4745C63.9506 61.3523 63.6074 61.3852 63.4757 61.5357C63.3488 61.6956 63.4381 61.9355 63.7014 62.354C63.7672 62.4904 63.8331 62.6268 63.8754 62.7538C63.9177 62.8808 63.9365 62.9937 63.9318 63.0689C63.9177 63.2288 63.8566 63.257 63.8566 63.257C63.8566 63.257 63.8566 63.2711 63.8566 63.2994C63.8566 63.3276 63.8472 63.3793 63.7907 63.4922C63.739 63.5909 63.6779 63.6662 63.5556 63.7462C63.4334 63.8261 63.2312 63.9014 62.9867 63.9437C62.4978 64.033 61.8818 63.9907 61.4305 63.9202C61.2095 63.8872 61.0214 63.8496 60.8851 63.8214C60.8569 63.7697 60.8333 63.7226 60.8051 63.6709C60.7205 63.511 60.6406 63.3558 60.5653 63.2194C60.4713 63.0454 60.3867 62.8855 60.3162 62.7538C60.9697 62.2082 61.2753 61.4557 61.0214 60.8114C60.6688 59.9225 59.3852 59.5839 58.1534 60.0542C56.9215 60.5245 56.2115 61.625 56.5642 62.5139C56.8228 63.163 57.5844 63.5204 58.4543 63.4781C58.5436 63.6427 58.6564 63.859 58.7928 64.1177C58.8821 64.287 58.9903 64.4892 59.1031 64.7009V64.7103C59.0185 64.8655 58.9291 65.0207 58.8351 65.1665L58.8257 65.1618Z" fill="white"/>
<path d="M47.9079 66.5115C46.6667 67.0664 45.9708 68.1858 46.3563 69.0135C46.7419 69.8413 48.0584 70.0576 49.2996 69.5027C50.5409 68.9477 51.2368 67.8283 50.8512 67.0006C50.4657 66.1729 49.1492 65.9565 47.9079 66.5115Z" fill="white"/>
<path d="M70.1854 59.2732C71.4266 58.7182 72.1225 57.5989 71.737 56.7711C71.3514 55.9434 70.0349 55.727 68.7937 56.282C67.5524 56.837 66.8565 57.9563 67.2421 58.784C67.6276 59.6118 68.9441 59.8281 70.1854 59.2732Z" fill="white"/>
<path d="M63.321 56.7337C62.4182 56.9877 61.8117 57.6038 61.9386 58.1681C62.075 58.7748 63.0012 59.0899 64.0074 58.8736C65.0183 58.6573 65.7235 57.9941 65.5919 57.3874C65.465 56.823 64.6516 56.5126 63.7253 56.6443C64.1391 56.6114 64.487 56.7666 64.5434 57.0253C64.6092 57.3263 64.2566 57.6555 63.7582 57.759C63.2598 57.8671 62.7991 57.7072 62.7332 57.4109C62.6768 57.1523 62.9307 56.8748 63.321 56.7337Z" fill="white"/>
</g>
</svg>
