<svg width="47" height="110" viewBox="0 0 47 110" fill="none" xmlns="http://www.w3.org/2000/svg">
<path fill-rule="evenodd" clip-rule="evenodd" d="M19.215 11.5901C22.1343 7.75917 19.3853 0.998303 17.0256 0C16.3282 6.22519 13.8387 8.05135 19.215 11.5901Z" fill="#FFDA2E"/>
<path fill-rule="evenodd" clip-rule="evenodd" d="M24.4368 6.24951C22.3934 12.1663 19.5633 13.4 24.0314 18.0344C27.721 14.9339 26.5209 7.73479 24.4368 6.24951Z" fill="#FFDA2E"/>
<path fill-rule="evenodd" clip-rule="evenodd" d="M20.1475 18.5133C18.4448 12.4667 16.0123 14.2522 10.0366 13.0673C10.2718 15.5508 15.7366 20.096 20.1475 18.5133Z" fill="#FFDA2E"/>
<path fill-rule="evenodd" clip-rule="evenodd" d="M25.2147 26.4997C24.0958 20.3151 21.5093 21.8572 15.6714 20.1122C15.6714 22.612 20.666 27.6603 25.2147 26.4997Z" fill="#FFDA2E"/>
<path fill-rule="evenodd" clip-rule="evenodd" d="M29.6909 12.9292C27.5583 19.0976 24.6066 20.3799 29.2693 25.2173C33.1129 21.987 31.8642 14.4794 29.6909 12.9292Z" fill="#FFDA2E"/>
<path fill-rule="evenodd" clip-rule="evenodd" d="M32.5204 32.6274C37.2561 30.9636 38.732 23.5047 37.248 21.2809C33.08 26.2967 29.8607 26.4591 32.5204 32.6274Z" fill="#FFDA2E"/>
<path fill-rule="evenodd" clip-rule="evenodd" d="M21.7608 27.5953C21.1688 30.3062 25.418 36.9453 30.624 36.7586C30.851 29.7949 27.6885 30.8662 21.7608 27.5953Z" fill="#FFDA2E"/>
<path fill-rule="evenodd" clip-rule="evenodd" d="M35.796 41.4498C41.1723 39.5587 42.8428 31.1016 41.1642 28.5774C36.4366 34.2669 32.7876 34.4455 35.796 41.4498Z" fill="#FFDA2E"/>
<path fill-rule="evenodd" clip-rule="evenodd" d="M32.5936 46.1898C33.591 39.291 30.3231 40.0052 24.7927 36.1094C23.9088 38.7309 27.3957 45.8083 32.5936 46.1898Z" fill="#FFDA2E"/>
<path fill-rule="evenodd" clip-rule="evenodd" d="M37.0202 50.3453C42.883 49.4363 46.1996 41.0846 44.9589 38.1871C39.0312 43.1137 35.2686 42.6105 37.0202 50.3453Z" fill="#FFDA2E"/>
<path fill-rule="evenodd" clip-rule="evenodd" d="M36.6962 59.3625C42.899 59.395 47.7152 51.3274 46.9125 48.1215C39.9801 52.2283 36.1692 51.0758 36.6962 59.3625Z" fill="#FFDA2E"/>
<path fill-rule="evenodd" clip-rule="evenodd" d="M25.5226 44.5746C23.9251 47.6344 26.8605 57.0006 33.1694 58.4778C35.7237 50.1911 31.5719 50.4345 25.5226 44.5746Z" fill="#FFDA2E"/>
<path fill-rule="evenodd" clip-rule="evenodd" d="M34.1499 69.3862C40.6445 70.5224 47.131 62.9256 46.8554 59.4275C38.8526 62.4954 35.0661 60.6125 34.1499 69.3862Z" fill="#FFDA2E"/>
<path fill-rule="evenodd" clip-rule="evenodd" d="M30.4849 76.8125C35.9173 80.5622 44.9741 76.358 46.1822 73.0627C37.6281 72.519 34.9768 69.2237 30.4849 76.8125Z" fill="#FFDA2E"/>
<path fill-rule="evenodd" clip-rule="evenodd" d="M29.8453 69.9137C33.5755 62.0166 29.3993 61.6675 24.2014 54.9473C22.1742 57.7717 23.7554 67.5356 29.8453 69.9137Z" fill="#FFDA2E"/>
<path fill-rule="evenodd" clip-rule="evenodd" d="M25.1094 84.1659C29.6256 88.9707 39.3716 86.7712 41.2446 83.8088C32.9986 81.4713 31.1013 77.6891 25.1094 84.1659Z" fill="#FFDA2E"/>
<path fill-rule="evenodd" clip-rule="evenodd" d="M23.3579 81.2278C29.1883 75.2623 25.5312 73.6391 22.9282 65.9611C20.2197 67.8765 18.606 77.1859 23.3579 81.2278Z" fill="#FFDA2E"/>
<path fill-rule="evenodd" clip-rule="evenodd" d="M19.3042 92.0711C23.8204 96.8759 33.5664 94.6764 35.4394 91.7139C27.1934 89.3764 25.2961 85.5943 19.3042 92.0711Z" fill="#FFDA2E"/>
<path fill-rule="evenodd" clip-rule="evenodd" d="M13.474 91.8845C21.583 88.1429 18.5421 85.1236 18.8746 76.4392C15.4283 77.3158 10.2628 86.0164 13.474 91.8845Z" fill="#FFDA2E"/>
<path fill-rule="evenodd" clip-rule="evenodd" d="M11.439 98.1502C14.8525 104.327 25.5228 104.627 28.2472 102.046C20.3255 97.4441 19.3525 93.0207 11.439 98.1502Z" fill="#FFDA2E"/>
<path fill-rule="evenodd" clip-rule="evenodd" d="M2.44678 102.363C4.53868 108.945 14.7144 111.282 17.8279 109.335C11.1063 103.393 11.0252 98.97 2.44678 102.363Z" fill="#FFDA2E"/>
<path fill-rule="evenodd" clip-rule="evenodd" d="M10.8308 84.9694C6.93077 84.7827 -1.30711 92.2659 0.176682 99.465C9.91457 98.1421 7.68483 93.9866 10.8308 84.9694Z" fill="#FFDA2E"/>
</svg>
