<svg width="47" height="110" viewBox="0 0 47 110" fill="none" xmlns="http://www.w3.org/2000/svg">
<path fill-rule="evenodd" clip-rule="evenodd" d="M27.1971 11.5901C24.3399 7.75917 27.0304 0.998303 29.3399 0C30.0225 6.22519 32.459 8.05135 27.1971 11.5901Z" fill="#FFDA2E"/>
<path fill-rule="evenodd" clip-rule="evenodd" d="M22.0857 6.24951C24.0857 12.1663 26.8556 13.4 22.4826 18.0344C18.8714 14.9339 20.0461 7.73479 22.0857 6.24951V6.24951Z" fill="#FFDA2E"/>
<path fill-rule="evenodd" clip-rule="evenodd" d="M26.2843 18.5133C27.951 12.4667 30.3319 14.2522 36.1812 13.0673C35.951 15.5508 30.6018 20.096 26.2843 18.5133Z" fill="#FFDA2E"/>
<path fill-rule="evenodd" clip-rule="evenodd" d="M21.3238 26.4997C22.419 20.3151 24.9508 21.8572 30.665 20.1122C30.665 22.612 25.7761 27.6603 21.3238 26.4997Z" fill="#FFDA2E"/>
<path fill-rule="evenodd" clip-rule="evenodd" d="M16.9431 12.9292C19.0304 19.0976 21.9193 20.3799 17.3558 25.2173C13.5939 21.987 14.8161 14.4794 16.9431 12.9292Z" fill="#FFDA2E"/>
<path fill-rule="evenodd" clip-rule="evenodd" d="M14.173 32.6275C9.53811 30.9636 8.09367 23.5047 9.54605 21.2809C13.6254 26.2967 16.7762 26.4591 14.173 32.6275Z" fill="#FFDA2E"/>
<path fill-rule="evenodd" clip-rule="evenodd" d="M24.7048 27.5953C25.2841 30.3062 21.1254 36.9453 16.0301 36.7586C15.8079 29.7949 18.9032 30.8662 24.7048 27.5953V27.5953Z" fill="#FFDA2E"/>
<path fill-rule="evenodd" clip-rule="evenodd" d="M10.9665 41.4498C5.70463 39.5587 4.06971 31.1016 5.71257 28.5774C10.3396 34.2669 13.911 34.4455 10.9665 41.4498Z" fill="#FFDA2E"/>
<path fill-rule="evenodd" clip-rule="evenodd" d="M14.1017 46.1898C13.1255 39.291 16.3239 40.0052 21.7366 36.1094C22.6017 38.7309 19.189 45.8083 14.1017 46.1898Z" fill="#FFDA2E"/>
<path fill-rule="evenodd" clip-rule="evenodd" d="M9.76833 50.3453C4.03023 49.4363 0.784202 41.0846 1.99849 38.1871C7.80007 43.1137 11.4826 42.6105 9.76833 50.3453Z" fill="#FFDA2E"/>
<path fill-rule="evenodd" clip-rule="evenodd" d="M10.0855 59.3625C4.01411 59.395 -0.700181 51.3274 0.0855333 48.1215C6.87125 52.2283 10.6014 51.0758 10.0855 59.3625Z" fill="#FFDA2E"/>
<path fill-rule="evenodd" clip-rule="evenodd" d="M21.0222 44.5746C22.5857 47.6344 19.7127 57.0006 13.5381 58.4778C11.0381 50.1911 15.1016 50.4345 21.0222 44.5746V44.5746Z" fill="#FFDA2E"/>
<path fill-rule="evenodd" clip-rule="evenodd" d="M12.5776 69.3862C6.22049 70.5224 -0.128714 62.9256 0.141127 59.4275C7.97446 62.4954 11.6808 60.6125 12.5776 69.3862Z" fill="#FFDA2E"/>
<path fill-rule="evenodd" clip-rule="evenodd" d="M16.165 76.8125C10.8476 80.5622 1.9825 76.358 0.799959 73.0627C9.17298 72.519 11.7682 69.2237 16.165 76.8125Z" fill="#FFDA2E"/>
<path fill-rule="evenodd" clip-rule="evenodd" d="M16.792 69.9137C13.1413 62.0166 17.2286 61.6675 22.3159 54.9473C24.3 57.7717 22.7524 67.5356 16.792 69.9137Z" fill="#FFDA2E"/>
<path fill-rule="evenodd" clip-rule="evenodd" d="M21.4272 84.1659C17.0066 88.9707 7.46693 86.7712 5.63359 83.8088C13.705 81.4713 15.5622 77.6891 21.4272 84.1659Z" fill="#FFDA2E"/>
<path fill-rule="evenodd" clip-rule="evenodd" d="M23.1411 81.2278C17.4348 75.2623 21.0141 73.6391 23.5617 65.9611C26.2125 67.8765 27.7919 77.1859 23.1411 81.2278Z" fill="#FFDA2E"/>
<path fill-rule="evenodd" clip-rule="evenodd" d="M27.1094 92.0711C22.6887 96.8759 13.1491 94.6764 11.3157 91.7139C19.3872 89.3764 21.2443 85.5943 27.1094 92.0711V92.0711Z" fill="#FFDA2E"/>
<path fill-rule="evenodd" clip-rule="evenodd" d="M32.8161 91.8845C24.8796 88.1429 27.8557 85.1236 27.5303 76.4392C30.9034 77.3158 35.9589 86.0164 32.8161 91.8845Z" fill="#FFDA2E"/>
<path fill-rule="evenodd" clip-rule="evenodd" d="M34.8081 98.1502C31.4668 104.327 21.0224 104.627 18.3557 102.046C26.1097 97.4441 27.0621 93.0207 34.8081 98.1502V98.1502Z" fill="#FFDA2E"/>
<path fill-rule="evenodd" clip-rule="evenodd" d="M43.6094 102.363C41.5618 108.945 31.6014 111.282 28.5538 109.335C35.1332 103.393 35.2125 98.97 43.6094 102.363V102.363Z" fill="#FFDA2E"/>
<path fill-rule="evenodd" clip-rule="evenodd" d="M35.4034 84.9694C39.2208 84.7827 47.2843 92.2659 45.8319 99.465C36.3002 98.1421 38.4827 93.9866 35.4034 84.9694Z" fill="#FFDA2E"/>
</svg>
