<svg width="271" height="330" viewBox="0 0 271 330" fill="none" xmlns="http://www.w3.org/2000/svg">
<path d="M235.73 84.6997L235.458 84.6267L243.13 55.9944C245.673 46.5007 240.04 36.7427 230.546 34.1989L126.353 6.28041C116.859 3.73659 107.101 9.37039 104.557 18.8641L96.8852 47.4963L96.6126 47.4233C95.3736 47.0913 94.099 47.826 93.7666 49.0664L88.4595 68.873C88.1275 70.1121 88.8622 71.3866 90.1026 71.719L90.3752 71.7921L89.1094 76.516L88.8368 76.4429C87.5978 76.1109 86.3232 76.8456 85.9909 78.086L80.6837 97.8927C80.3517 99.1317 81.0864 100.406 82.3268 100.739L82.5994 100.812L36.1234 274.263C33.5796 283.756 39.2134 293.514 48.7071 296.058L152.9 323.977C162.394 326.52 172.152 320.887 174.696 311.393L225.693 121.068L225.966 121.141C227.205 121.473 228.479 120.739 228.812 119.498L237.374 87.5443C237.706 86.3053 236.971 85.0307 235.731 84.6984L235.73 84.6997Z" fill="#414141"/>
<path d="M227.633 37.9753L204.792 31.8551L203.088 38.2162C202.578 40.1179 200.605 41.2571 198.704 40.7476L150.655 27.8729C148.753 27.3633 147.614 25.3902 148.123 23.4885L149.828 17.1274L126.987 11.0072C119.276 8.94115 111.351 13.5168 109.285 21.2275L41.3994 274.58C39.3333 282.291 43.9089 290.216 51.6197 292.282L152.266 319.25C159.977 321.316 167.902 316.74 169.968 309.03L237.853 55.6773C239.92 47.9666 235.344 40.0414 227.633 37.9753V37.9753Z" fill="url(#paint0_linear_264_40076)"/>
<path d="M74.7827 103.428C75.7956 102.243 77.0657 100.329 78.201 98.0015C79.9941 94.3226 82.9161 85.9958 79.0578 82.8495C78.4625 83.9021 77.7832 84.8722 77.0347 85.7654L77.0151 85.778C74.8035 88.3901 70.8535 90.7113 67.7074 90.3564C64.5072 89.991 62.4764 87.2605 62.0483 84.1946C61.6506 81.3218 62.6637 78.1614 65.465 76.3993C68.433 74.5295 72.0397 74.4959 75.1454 75.6516L75.3081 75.7138L75.3374 75.6645C77.9682 70.1993 79.8108 59.485 73.6058 56.4403C73.2093 58.899 72.4579 61.2524 71.2326 63.2737L71.2228 63.28C69.3532 66.3855 66.3923 67.7037 63.6739 65.2346C62.5915 64.2469 61.6404 62.9465 60.8794 61.2652C59.7704 58.8362 59.9598 56.2985 61.2276 53.9004C62.003 52.443 63.0889 51.1042 64.2463 50.2965C65.7421 49.2553 67.5623 49.1442 69.1975 49.4562C69.6807 44.5717 68.5504 40.8044 65.8386 39.6983C63.7234 38.8301 60.6614 39.5756 56.6607 42.613C57.7459 46.2119 57.1738 53.0679 53.3253 53.9867C52.5782 54.165 51.7648 53.8544 50.9348 53.1747C49.5169 52.0084 48.5152 50.4065 47.9352 48.5021C47.5101 47.0901 47.4326 45.3171 47.8128 43.5374C48.1929 41.7578 49.3645 39.8168 50.5728 38.3534C36.1949 30.3134 30.6609 64.2981 35.6076 74.7328L32.0188 74.4205C18.6805 46.3099 39.2481 27.7506 48.1851 32.0098C49.9706 32.8629 51.6307 34.2527 53.0711 36.012C63.155 29.1401 73.3968 38.6643 73.883 51.6888C81.9236 57.8026 84.685 69.1765 80.5922 79.6262C86.6479 86.3828 86.7311 95.4441 82.6919 103.747C81.5177 106.161 80.1547 108.21 79.0439 109.489L74.7827 103.428Z" fill="#D6F7A6"/>
<g filter="url(#filter0_d_264_40076)">
<path d="M173.342 116.787L65.8379 135.743L81.0472 221.999L188.551 203.043L173.342 116.787Z" fill="#FDBD15"/>
<path d="M173.339 116.791L65.8345 135.747L66.0143 136.767L173.519 117.811L173.339 116.791Z" fill="#FDF470"/>
<path d="M138.974 122.848L100.199 129.685L115.409 215.941L154.183 209.104L138.974 122.848Z" fill="#D5F1FF"/>
<path d="M138.97 122.851L100.195 129.688L100.375 130.708L139.15 123.871L138.97 122.851Z" fill="#FAFFFF"/>
</g>
<g filter="url(#filter1_d_264_40076)">
<path d="M73.9751 117.52C73.9751 117.52 98.1862 75.5582 79.2377 50.9993L70.6753 54.7241C70.6753 54.7241 86.8418 79.9321 73.9751 117.528V117.52Z" fill="#A1D3FF"/>
<path d="M73.9754 117.52C73.9754 117.52 52.7317 85.5811 67.0513 51.6716L79.238 50.9993C79.238 50.9993 63.1796 74.2599 73.9754 117.52Z" fill="#D5F1FF"/>
<path d="M73.21 116.23C73.21 116.23 114.631 91.099 109.832 60.4506L100.535 59.5928C100.535 59.5928 102.583 89.4684 73.21 116.23V116.23Z" fill="#A1D3FF"/>
<path d="M73.21 116.23C73.21 116.23 69.9643 78.008 98.8276 55.1724L109.832 60.4427C109.832 60.4427 84.5621 73.1008 73.21 116.222V116.23Z" fill="#D5F1FF"/>
<path d="M71.2781 119.12C71.2781 119.12 22.8481 120.264 10.3677 91.8563L17.74 86.1223C17.74 86.1223 32.1137 112.389 71.2781 119.12Z" fill="#A1D3FF"/>
<path d="M71.2781 119.12C71.2781 119.12 53.4192 85.1716 16.7972 81.4932L10.3677 91.8639C10.3677 91.8639 38.4814 88.9118 71.2781 119.127V119.12Z" fill="#D5F1FF"/>
<path d="M70.5131 117.829C70.5131 117.829 28.6053 142.141 4 123.246L7.70161 114.676C7.70161 114.676 32.9406 130.789 70.5131 117.837V117.829Z" fill="#A1D3FF"/>
<path d="M70.5131 117.83C70.5131 117.83 38.52 96.6632 4.64141 111.06L4 123.247C4 123.247 27.222 107.134 70.5131 117.83V117.83Z" fill="#D5F1FF"/>
<path d="M89.8944 104.762C92.2977 108.811 90.9608 114.043 86.9114 116.446C82.8621 118.849 77.6304 117.513 75.227 113.463C72.8237 109.414 74.1606 104.182 78.2099 101.779C82.2593 99.3754 87.491 100.712 89.8944 104.762Z" fill="#B1D5FF"/>
<path d="M65.6214 120.781C68.0247 124.83 66.6878 130.062 62.6385 132.465C58.5891 134.869 53.3574 133.532 50.9541 129.482C48.5507 125.433 49.8876 120.201 53.937 117.798C57.9864 115.395 63.2181 116.732 65.6214 120.781V120.781Z" fill="#B1D5FF"/>
<path d="M80.3319 128.059C86.3601 122.861 87.0332 113.76 81.8353 107.732C76.6374 101.704 67.5369 101.031 61.5087 106.229C55.4806 111.426 54.8075 120.527 60.0053 126.555C65.2032 132.583 74.3037 133.256 80.3319 128.059Z" fill="#85BCFF"/>
<path d="M80.9841 111.168C84.2838 116.732 82.4523 123.911 76.8883 127.211C71.3243 130.51 64.1452 128.679 60.8454 123.115C57.5457 117.551 59.3772 110.372 64.9412 107.072C70.5052 103.772 77.6843 105.604 80.9841 111.168Z" fill="#A1D3FF"/>
<path d="M125.182 80.5719L16.9736 144.566L32.2524 170.401L140.461 106.407L125.182 80.5719Z" fill="#FD9906"/>
<path d="M125.186 80.5663L16.9771 144.561L17.5396 145.512L125.748 81.5175L125.186 80.5663Z" fill="#FDF470"/>
<path d="M92.7824 99.7332L49.3672 125.409L64.6459 151.244L108.061 125.568L92.7824 99.7332Z" fill="#D5F1FF"/>
</g>
<path d="M158.67 93.0649L159.746 95.0411L161.723 96.1241L159.746 97.2001L158.67 99.1832L157.587 97.2001L155.611 96.1241L157.587 95.0411L158.67 93.0649Z" fill="#FF8E97"/>
<path d="M168.587 106.504L168.98 107.222L169.691 107.609L168.98 108.002L168.587 108.713L168.2 108.002L167.482 107.609L168.2 107.222L168.587 106.504Z" fill="#A6FF4E"/>
<path d="M198.755 87.9595L199.142 88.6768L199.86 89.0636L199.142 89.4574L198.755 90.1677L198.362 89.4574L197.651 89.0636L198.362 88.6768L198.755 87.9595Z" fill="#FF8E97"/>
<path d="M216.105 74.928L216.499 75.6453L217.209 76.0321L216.499 76.4259L216.105 77.1432L215.718 76.4259L215.001 76.0321L215.718 75.6453L216.105 74.928Z" fill="#FF8E97"/>
<path d="M187.328 87.9595L187.722 88.6768L188.439 89.0636L187.722 89.4574L187.328 90.1677L186.941 89.4574L186.224 89.0636L186.941 88.6768L187.328 87.9595Z" fill="#FF8E97"/>
<path d="M179.262 103.157L180.837 106.033L183.713 107.608L180.837 109.184L179.262 112.067L177.687 109.184L174.803 107.608L177.687 106.033L179.262 103.157Z" fill="#FDDD15"/>
<path d="M223.574 126.948L225.149 129.824L228.032 131.399L225.149 132.975L223.574 135.858L221.998 132.975L219.122 131.399L221.998 129.824L223.574 126.948Z" fill="#FF8E97"/>
<path d="M238.504 44.9275L241.042 49.5619L245.677 52.1007L241.042 54.6324L238.504 59.2668L235.972 54.6324L231.337 52.1007L235.972 49.5619L238.504 44.9275Z" fill="#A6FF4E"/>
<path d="M242.772 62.9517L243.862 64.9489L245.867 66.046L243.862 67.1431L242.772 69.1403L241.675 67.1431L239.671 66.046L241.675 64.9489L242.772 62.9517Z" fill="#FDDD15"/>
<path d="M216.063 113.685L217.125 115.633L219.073 116.702L217.125 117.763L216.063 119.718L214.994 117.763L213.046 116.702L214.994 115.633L216.063 113.685Z" fill="#FDDD15"/>
<path d="M252.513 146.625L253.574 148.573L255.522 149.642L253.574 150.704L252.513 152.652L251.444 150.704L249.496 149.642L251.444 148.573L252.513 146.625Z" fill="#FDDD15"/>
<path d="M203.426 109.226L204.488 111.174L206.443 112.243L204.488 113.312L203.426 115.26L202.357 113.312L200.409 112.243L202.357 111.174L203.426 109.226Z" fill="#FDDD15"/>
<path d="M195.887 104.022L196.948 105.97L198.897 107.039L196.948 108.101L195.887 110.056L194.818 108.101L192.87 107.039L194.818 105.97L195.887 104.022Z" fill="#A6FF4E"/>
<path d="M181.322 89.0635L182.047 90.3997L183.376 91.124L182.047 91.8554L181.322 93.1845L180.591 91.8554L179.262 91.124L180.591 90.3997L181.322 89.0635Z" fill="#FDDD15"/>
<path d="M215.001 98.6067L215.732 99.9358L217.061 100.667L215.732 101.399L215.001 102.728L214.277 101.399L212.94 100.667L214.277 99.9358L215.001 98.6067Z" fill="#FF8E97"/>
<path d="M173.699 83.6626L174.43 84.9917L175.759 85.7231L174.43 86.4545L173.699 87.7837L172.974 86.4545L171.638 85.7231L172.974 84.9917L173.699 83.6626Z" fill="#A6FF4E"/>
<path d="M181.322 73.0222L182.384 74.9702L184.332 76.0321L182.384 77.1011L181.322 79.0491L180.253 77.1011L178.305 76.0321L180.253 74.9702L181.322 73.0222Z" fill="#FF8E97"/>
<path d="M182.961 111.596L185.465 116.181L190.05 118.692L185.465 121.202L182.961 125.788L180.45 121.202L175.865 118.692L180.45 116.181L182.961 111.596Z" fill="#FF8E97"/>
<path d="M144.786 100.355L144 101.14L144.786 101.926L145.571 101.14L144.786 100.355Z" fill="#A6FF4E"/>
<path d="M175.409 89.3702L174.628 90.1509L175.409 90.9316L176.19 90.1509L175.409 89.3702Z" fill="#FDDD15"/>
<path d="M194.94 121.74L194.154 122.526L194.94 123.311L195.725 122.526L194.94 121.74Z" fill="#FDDD15"/>
<path d="M236.76 82.6414L235.979 83.4221L236.76 84.2028L237.54 83.4221L236.76 82.6414Z" fill="#FDDD15"/>
<path d="M168.795 76.3547L168.009 77.1404L168.795 77.9261L169.581 77.1404L168.795 76.3547Z" fill="#FDDD15"/>
<path d="M187.411 48.3841L186.63 49.1648L187.411 49.9455L188.192 49.1648L187.411 48.3841Z" fill="#A6FF4E"/>
<path d="M206.447 33.9992L205.661 34.7849L206.447 35.5706L207.233 34.7849L206.447 33.9992Z" fill="#FDDD15"/>
<path d="M186.235 67.9414L185.449 68.7271L186.235 69.5127L187.021 68.7271L186.235 67.9414Z" fill="#A6FF4E"/>
<path d="M190.615 78.2708L189.834 79.0515L190.615 79.8322L191.396 79.0515L190.615 78.2708Z" fill="#FDDD15"/>
<path d="M151.267 97.9778L150.486 98.7585L151.267 99.5393L152.047 98.7585L151.267 97.9778Z" fill="#FDDD15"/>
<path d="M219.617 97.4327L218.836 98.2134L219.617 98.9941L220.398 98.2134L219.617 97.4327Z" fill="#FDDD15"/>
<path d="M241.222 106.003L240.441 106.784L241.222 107.565L242.003 106.784L241.222 106.003Z" fill="#FDDD15"/>
<path d="M190.577 108.715L189.796 109.495L190.577 110.276L191.357 109.495L190.577 108.715Z" fill="#FDDD15"/>
<path d="M204.364 94.3001L207.086 89.5609C208.057 91.1697 209.031 95.2493 208.302 96.9503C207.397 99.0545 205.577 101.115 203.685 101.775C199.191 103.343 196.32 97.3824 196.227 92.5105C196.095 85.8281 199.826 78.662 203.366 73.8475C200.508 71.0259 198.49 67.6976 198.497 64.3837C198.516 55.9389 202.471 50.3691 208.85 48.7026C206.065 28.4116 221.536 15.3438 236.632 17.2553C247.34 18.6194 255.426 26.5131 260.13 38.3279L257.764 42.9314C253.077 31.1668 245.034 23.3227 234.372 21.9668C228.761 21.2551 220.193 21.9782 215.54 26.7513C210.923 31.488 209.775 41.5927 212.203 48.1184C214.74 47.8567 217.43 47.7113 219.971 48.0883C222.1 48.4038 228.15 49.6878 226.828 53.8997C225.661 57.6359 223.974 59.3631 222.183 59.8059C220.032 60.3377 217.279 60.048 215.227 59.0508C212.845 57.8927 210.978 55.7054 209.888 52.8405C206.287 53.2282 200.912 54.1407 200.906 60.0059C200.902 63.5744 203.362 67.194 206.696 70.1356C210.088 67.0666 214.138 65.4002 218.54 65.8067C221.593 66.0912 225.436 67.3256 226.485 71.484C227.222 74.4114 225.441 77.5382 223.786 79.3827C222.028 81.342 219.106 81.4853 216.899 81.196L216.875 81.204C215.914 81.0636 214.853 80.7887 213.729 80.3991C210.456 79.2525 207.275 77.3395 204.501 74.9055C201.197 78.0567 198.526 82.7067 198.631 88.1103C198.724 92.8942 201.67 98.8139 206.079 97.0023C207.071 96.2767 205.492 94.0564 204.371 94.3056L204.364 94.3001ZM217.494 70.6697C214.38 70.1019 211.452 70.575 208.831 71.8408C211.079 73.476 213.499 74.8055 216.008 75.689C217.091 76.0683 218.145 76.3377 219.13 76.4702L219.154 76.4621C220.769 76.6866 222.527 76.623 224.081 75.9722C223.15 72.4461 220.146 71.1452 217.5 70.6676L217.494 70.6697ZM215.042 52.6263C215.757 53.3214 216.584 53.9071 217.517 54.361C219.368 55.2581 221.795 55.5291 223.759 55.2284C222.07 53.7169 219.727 53.0974 217.711 52.7999C216.822 52.6671 215.935 52.6298 215.042 52.6263Z" fill="#FFCFE4"/>
<path d="M212.716 255.023L210.256 250.906C210.662 249.102 211.209 245.926 209.924 243.868C208.146 241.031 203.231 238.317 200.537 238.556C200.943 239.389 201.3 240.229 201.601 241.069C202.321 243.073 202.794 246.072 201.447 247.29C200.857 247.822 199.959 247.822 198.802 246.99C195.173 244.376 193.777 237.669 196.268 235.202C193.432 233.9 190.492 233.53 187.884 234.031C188.708 237.97 188.603 242.141 187.668 245.756C186.426 250.559 183.516 255.1 178.761 255.724C177.174 255.932 175.926 255.292 175.003 254.09C172.875 251.315 171.97 248.508 172.173 246.018C172.819 238.178 178.817 231.201 185.374 229.86C185.103 228.681 184.734 227.37 184.156 226.244C182.649 223.323 179.69 221.187 177.088 220.185C176.516 219.962 175.938 219.792 175.366 219.661C175.526 220.671 175.63 221.681 175.63 222.652C175.643 227.439 173.084 231.186 169.282 232.335C168.04 232.712 166.797 232.743 165.745 232.435C162.602 231.51 160.252 225.936 160.535 223.037C160.806 220.239 162.485 218.25 164.447 217.001C166.803 215.498 169.725 214.773 172.85 215.413C172.506 213.478 171.915 211.535 170.888 209.708C167.861 210.734 164.152 210.394 161.07 207.064C159.951 205.854 158.21 203.194 158.05 201.606C157.952 200.581 158.616 200.118 159.397 199.964C160.037 199.841 160.831 199.879 161.618 200.018C164.491 200.527 167.006 202.57 169.165 205.252C172.235 203.927 173.545 201.329 172.352 196.973C170.808 191.33 165.948 187.822 161.36 185.671L161.292 185.64C158.93 184.569 156.875 185.533 156.488 188.007C156.543 188.038 156.598 188.061 156.654 188.092C157.435 188.423 158.284 188.393 158.911 188.077C159.791 187.637 159.766 186.982 159.674 185.957L162.141 189.927C162.239 191.021 162.202 191.823 161.316 192.27C160.671 192.594 159.803 192.633 159.004 192.317C159.004 192.317 158.985 192.309 158.942 192.286C158.216 191.954 157.146 190.667 156.211 189.194C155.196 187.599 153.677 185.278 154.089 183.544C154.63 181.254 156.666 180.391 159.004 181.447L159.071 181.478C165.475 184.484 170.519 190.436 173.477 197.112C175.876 202.516 176.239 207.218 171.829 209.323C172.967 211.451 173.84 213.702 174.474 215.868C179.887 217.795 184.218 224.07 186.53 229.675C190.313 229.274 194.576 230.523 197.849 234.393C201.835 233.684 207.26 238.417 209.739 242.38C212.359 246.566 213.651 250.875 212.716 255.03V255.023ZM199.608 238.772C198.052 239.412 197.375 241.339 197.504 243.343C198.125 243.559 198.642 243.451 199.024 243.104C199.983 242.241 199.965 240.298 199.608 238.772ZM185.971 234.555C181.197 236.289 173.564 243.79 174.935 251.145C175.717 251.43 177.199 251.43 178.503 250.937C181.862 249.665 184.095 245.957 185.208 241.632C185.786 239.396 186.051 236.976 185.971 234.555ZM173.139 219.383C170.808 219.337 168.667 220.023 166.846 221.187C164.638 222.59 163.248 224.826 162.904 227.917C164.232 228.719 165.708 228.488 166.89 228.133C170.402 227.069 172.905 223.724 173.139 219.391V219.383ZM167.554 205.769C166.576 205.021 165.592 204.543 164.521 204.297C163.537 204.065 162.534 204.011 161.772 204.165C161.396 204.235 161.083 204.374 160.855 204.582C163.242 206.108 165.29 206.286 167.554 205.777V205.769Z" fill="#A1DBF5"/>
<defs>
<filter id="filter0_d_264_40076" x="63.8345" y="114.787" width="134.717" height="117.212" filterUnits="userSpaceOnUse" color-interpolation-filters="sRGB">
<feFlood flood-opacity="0" result="BackgroundImageFix"/>
<feColorMatrix in="SourceAlpha" type="matrix" values="0 0 0 0 0 0 0 0 0 0 0 0 0 0 0 0 0 0 127 0" result="hardAlpha"/>
<feOffset dx="4" dy="4"/>
<feGaussianBlur stdDeviation="3"/>
<feComposite in2="hardAlpha" operator="out"/>
<feColorMatrix type="matrix" values="0 0 0 0 0 0 0 0 0 0 0 0 0 0 0 0 0 0 0.15 0"/>
<feBlend mode="normal" in2="BackgroundImageFix" result="effect1_dropShadow_264_40076"/>
<feBlend mode="normal" in="SourceGraphic" in2="effect1_dropShadow_264_40076" result="shape"/>
</filter>
<filter id="filter1_d_264_40076" x="0" y="46.9993" width="148.461" height="131.402" filterUnits="userSpaceOnUse" color-interpolation-filters="sRGB">
<feFlood flood-opacity="0" result="BackgroundImageFix"/>
<feColorMatrix in="SourceAlpha" type="matrix" values="0 0 0 0 0 0 0 0 0 0 0 0 0 0 0 0 0 0 127 0" result="hardAlpha"/>
<feOffset dx="2" dy="2"/>
<feGaussianBlur stdDeviation="3"/>
<feComposite in2="hardAlpha" operator="out"/>
<feColorMatrix type="matrix" values="0 0 0 0 0 0 0 0 0 0 0 0 0 0 0 0 0 0 0.15 0"/>
<feBlend mode="normal" in2="BackgroundImageFix" result="effect1_dropShadow_264_40076"/>
<feBlend mode="normal" in="SourceGraphic" in2="effect1_dropShadow_264_40076" result="shape"/>
</filter>
<linearGradient id="paint0_linear_264_40076" x1="177.31" y1="24.4913" x2="101.943" y2="305.766" gradientUnits="userSpaceOnUse">
<stop stop-color="white"/>
<stop offset="1" stop-color="#C7EEFF"/>
</linearGradient>
</defs>
</svg>
