<svg width="270" height="330" viewBox="0 0 270 330" fill="none" xmlns="http://www.w3.org/2000/svg">
<path d="M211.084 84.6997L210.812 84.6267L218.484 55.9944C221.027 46.5007 215.394 36.7427 205.9 34.1989L101.707 6.28041C92.2131 3.73659 82.4551 9.37039 79.9112 18.8641L72.2392 47.4963L71.9666 47.4233C70.7276 47.0913 69.453 47.826 69.1206 49.0664L63.8135 68.873C63.4815 70.1121 64.2162 71.3866 65.4566 71.719L65.7292 71.7921L64.4635 76.516L64.1908 76.4429C62.9518 76.1109 61.6772 76.8456 61.3449 78.086L56.0377 97.8927C55.7057 99.1317 56.4404 100.406 57.6808 100.739L57.9534 100.812L11.4774 274.263C8.93357 283.756 14.5674 293.514 24.0611 296.058L128.254 323.977C137.748 326.52 147.506 320.887 150.05 311.393L201.047 121.068L201.32 121.141C202.559 121.473 203.833 120.739 204.166 119.498L212.728 87.5443C213.06 86.3053 212.325 85.0307 211.085 84.6984L211.084 84.6997Z" fill="#414141"/>
<path d="M203.196 38.0312L180.355 31.911L178.65 38.2721C178.141 40.1738 176.168 41.313 174.266 40.8035L126.217 27.9288C124.315 27.4193 123.176 25.4461 123.686 23.5444L125.39 17.1833L102.55 11.0631C94.8388 8.99705 86.9136 13.5727 84.8475 21.2834L16.9619 274.636C14.8958 282.347 19.4714 290.272 27.1822 292.338L127.828 319.306C135.539 321.372 143.464 316.796 145.53 309.086L213.416 55.7332C215.482 48.0225 210.906 40.0973 203.196 38.0312V38.0312Z" fill="url(#paint0_linear_264_40074)"/>
<circle cx="132.442" cy="111.866" r="33" transform="rotate(15 132.442 111.866)" fill="#4CCF8F" stroke="#C7F9E1" stroke-width="4"/>
<rect x="119.453" y="106.906" width="17.1121" height="4.66692" rx="2.33346" transform="rotate(60 119.453 106.906)" fill="white"/>
<rect x="150.912" y="108.503" width="31.1128" height="4.66692" rx="2.33346" transform="rotate(150 150.912 108.503)" fill="white"/>
<path d="M105.554 152.36C104.923 154.336 104.601 155.105 104.353 155.271C104.209 155.377 104.076 155.385 103.904 155.325C103.769 155.288 103.539 155.227 103.259 155.137L104.187 154.27C103.92 153.966 103.549 153.621 103.137 153.264C103.413 152.83 103.652 152.373 103.863 151.907L105.554 152.36ZM99.7927 152.44C100.226 152.716 100.686 153.056 101.128 153.407C100.545 153.961 99.7768 154.393 98.7241 154.589C98.9798 154.933 99.2577 155.572 99.3258 155.967C100.59 155.683 101.524 155.121 102.242 154.386C102.473 154.608 102.677 154.822 102.867 155.032C102.968 155.465 102.957 156.1 102.868 156.54C103.446 156.709 104.004 156.844 104.343 156.877C104.736 156.924 105.026 156.872 105.374 156.602C105.855 156.267 106.327 155.046 107.281 152.026C107.345 151.84 107.454 151.435 107.454 151.435L100.747 149.637L100.388 150.976L102.416 151.52C102.286 151.789 102.142 152.055 101.985 152.317C101.596 152.039 101.207 151.761 100.834 151.531L99.7927 152.44ZM100.637 156.377C101.368 157.109 102.193 158.142 102.504 158.819L103.78 158.06C103.422 157.34 102.566 156.372 101.82 155.694L100.637 156.377ZM99.7748 149.261L95.9208 148.228L95.5947 149.446L99.4487 150.478L99.7748 149.261ZM99.695 151.182L94.7861 149.867L94.4455 151.138L99.3544 152.453L99.695 151.182ZM98.8262 152.964L94.891 151.909L94.5613 153.14L98.4964 154.194L98.8262 152.964ZM94.0721 154.966L98.0073 156.02L98.3298 154.816L94.3946 153.762L94.0721 154.966ZM95.7472 159.154L94.4219 158.799L94.8386 157.244L96.1639 157.599L95.7472 159.154ZM97.8432 156.686L93.854 155.617L92.6184 160.229L93.9436 160.584L94.0849 160.056L96.749 160.77L96.9265 160.108L97.8443 161.064C98.7207 160.443 99.3084 159.224 99.7661 158.057L98.5819 157.391C98.1812 158.4 97.6515 159.403 96.97 159.945L97.8432 156.686ZM100.945 161.068C100.701 161.003 100.685 160.955 100.787 160.577L101.577 157.629L100.089 157.23L99.2955 160.192C98.9368 161.53 99.0741 162.045 100.345 162.386L101.454 162.683C102.414 162.94 102.926 162.599 103.549 160.868C103.173 160.651 102.599 160.251 102.394 159.935C102.02 161.168 101.918 161.329 101.661 161.26L100.945 161.068ZM103.166 158.837C103.55 160.056 103.72 161.638 103.605 162.607L105.181 162.406C105.242 161.422 105.043 159.891 104.602 158.671L103.166 158.837ZM113.325 152.892L109.511 151.87L109.185 153.087L112.999 154.109L113.325 152.892ZM109.667 161.405L109.254 162.947L107.955 162.599L108.369 161.057L109.667 161.405ZM111.387 160.504L107.357 159.424L106.121 164.035L107.474 164.398L107.615 163.87L110.292 164.588L111.387 160.504ZM107.582 158.745L111.477 159.789L111.803 158.572L107.908 157.528L107.582 158.745ZM112.307 156.692L108.412 155.648L108.09 156.852L111.984 157.895L112.307 156.692ZM107.954 154.815L112.971 156.16L113.312 154.888L108.295 153.544L107.954 154.815ZM116.045 164.593L117.045 160.86L119.385 161.487L119.791 159.973L117.451 159.346L118.306 156.154L120.713 156.799L121.123 155.271L114.158 153.405L113.749 154.933L116.724 155.73L114.463 164.169L113.435 163.893L115.153 157.483L113.652 157.081L111.934 163.491L111.109 163.27L110.707 164.771L118.307 166.808L118.709 165.306L116.045 164.593ZM123.853 158.278L132.048 160.474L131.595 162.165L133.313 162.625L134.168 159.433L129.205 158.104L129.553 156.805L127.849 156.349L127.501 157.647L122.619 156.339L121.764 159.53L123.401 159.969L123.853 158.278ZM130.78 162.772L131.172 161.312L124.207 159.446L123.816 160.906L130.78 162.772ZM128.7 168.317C128.214 168.187 128.147 168.111 128.263 167.678L128.991 164.96L132.697 165.953L133.102 164.438L121.053 161.21L120.648 162.724L123.852 163.583C123.2 165.205 122.402 166.238 119.341 166.085C119.599 166.53 119.84 167.305 119.89 167.768C123.524 167.785 124.717 166.307 125.61 164.054L127.368 164.525L126.633 167.27C126.242 168.731 126.497 169.292 128.066 169.712L129.797 170.176C131.081 170.52 131.625 170.115 132.326 168.201C131.936 167.981 131.301 167.535 131.042 167.205C130.611 168.597 130.485 168.795 130.039 168.676L128.7 168.317ZM146.29 162.174L145.869 162.177L136.646 159.706L136.222 161.288L144.065 163.39C143.193 163.939 142.152 164.471 141.171 164.832L140.265 164.589L138.624 170.715C138.562 170.945 138.45 170.987 138.152 170.907C137.837 170.838 136.728 170.541 135.796 170.233C135.92 170.744 136.026 171.541 135.99 172.053C137.288 172.401 138.255 172.631 138.997 172.569C139.725 172.503 140.071 172.132 140.321 171.199L141.607 166.398C143.519 165.809 145.716 164.586 147.297 163.444L146.29 162.174Z" fill="#1ED077"/>
<path d="M79.1347 183.179L78.7441 182.751C78.5869 182.751 78.4401 182.711 78.3242 182.68L74.4451 181.641C74.19 181.572 73.8949 181.469 73.6847 181.387L73.5025 182.067C73.7055 182.114 73.9724 182.168 74.2815 182.251L78.2302 183.309C77.9232 184.022 77.28 185.001 76.5429 185.557C75.6722 186.21 74.6308 186.635 73.0302 186.612L73.4004 187.332C74.9423 187.265 76.0544 186.793 76.9999 186.077C77.8236 185.445 78.5356 184.302 78.9153 183.534C78.9855 183.396 79.0517 183.273 79.1347 183.179ZM82.9246 189.528L83.243 189.978C83.3095 189.946 83.4111 189.907 83.5534 189.871C84.5678 189.67 85.8551 189.162 86.762 188.436L86.5396 187.813C85.7106 188.527 84.5717 188.976 83.7738 189.11L84.9685 184.651C85.0472 184.357 85.1304 184.14 85.1527 184.088L84.4417 183.897C84.435 183.953 84.4136 184.188 84.3349 184.481L83.0946 189.11C83.0532 189.265 82.9886 189.413 82.9246 189.528ZM79.3958 188.541L79.8697 189.091C80.6638 188.724 81.3612 188.099 81.8146 187.334C82.2303 186.617 82.7043 184.972 82.9341 184.114C82.9963 183.882 83.0893 183.659 83.1219 183.568L82.4109 183.378C82.3984 183.548 82.376 183.724 82.3139 183.956C82.084 184.814 81.6622 186.357 81.2497 187.001C80.817 187.688 80.1691 188.252 79.3958 188.541ZM94.3259 186.728L93.6812 186.29C93.6048 186.452 93.469 186.68 93.3735 186.82C92.9656 187.415 92.4521 188.064 91.7573 188.648C91.2731 188.013 90.5465 187.14 89.9958 186.536L89.4636 186.916C90.0812 187.578 90.7769 188.444 91.2244 189.06C90.2089 189.79 89.0286 190.394 87.5065 190.665L87.9093 191.295C89.4423 190.952 90.6468 190.289 91.6072 189.61C92.1185 190.36 92.5588 191.066 92.9546 191.876L93.5843 191.473C93.1951 190.731 92.6921 189.951 92.1498 189.192C92.8684 188.582 93.4825 187.835 93.9197 187.223C94.025 187.078 94.2036 186.844 94.3259 186.728ZM97.5586 187.552L96.9918 187.906C97.4601 188.445 98.2045 189.531 98.4832 190.036L99.1005 189.68C98.7837 189.131 98.0099 188.063 97.5586 187.552ZM95.5067 192.552L95.7465 193.295C97.1012 193.401 98.2011 193.191 99.1043 192.911C100.468 192.49 101.654 191.681 102.438 190.856L102.243 190.1C101.54 190.93 100.291 191.821 98.9 192.252C98.0437 192.511 96.9129 192.713 95.5067 192.552ZM109.539 190.382L109.083 190.442C109.213 190.791 109.352 191.325 109.422 191.684L109.889 191.61C109.819 191.252 109.659 190.704 109.539 190.382ZM110.471 190.3L110.016 190.36C110.162 190.714 110.293 191.213 110.372 191.599L110.839 191.525C110.769 191.2 110.606 190.634 110.471 190.3ZM104.322 192.943C103.878 193.519 103.227 194.215 102.569 194.726L103.151 195.18C103.749 194.678 104.38 193.993 104.856 193.359C105.392 192.658 105.969 191.587 106.208 191.129C106.282 190.975 106.404 190.767 106.496 190.61L105.847 190.279C105.507 191.148 104.868 192.236 104.322 192.943ZM108.203 193.668C108.306 194.581 108.381 195.72 108.363 196.56L109.111 196.52C109.097 195.771 109.004 194.479 108.892 193.629C108.787 192.723 108.578 191.524 108.418 190.885L107.736 190.926C107.923 191.589 108.107 192.789 108.203 193.668ZM111.426 193.753L111.223 194.51C111.469 194.551 111.883 194.646 112.308 194.759L116.55 195.896C116.898 195.989 117.214 196.107 117.367 196.156L117.57 195.399C117.395 195.369 117.111 195.318 116.725 195.214L112.49 194.079C112.057 193.963 111.654 193.831 111.426 193.753ZM121.234 193.606L120.748 194.031C121.133 194.416 121.819 195.196 122.115 195.573L122.619 195.145C122.353 194.809 121.622 193.984 121.234 193.606ZM118.595 198.821L118.782 199.542C119.54 199.588 120.704 199.51 121.605 199.271C123.028 198.874 124.369 198.165 125.313 197.3L125.112 196.567C124.194 197.489 122.905 198.22 121.426 198.61C120.525 198.85 119.484 198.902 118.595 198.821ZM119.601 195.032L119.121 195.467C119.52 195.831 120.217 196.597 120.522 196.977L121.022 196.531C120.748 196.193 119.991 195.402 119.601 195.032ZM129.97 197.537L129.355 197.58C129.424 197.971 129.516 199.047 129.508 199.418L130.134 199.37C130.124 199.003 130.019 197.882 129.97 197.537ZM132.652 198.72L132.043 198.333C131.662 199.291 130.997 200.165 130.269 200.69C129.422 201.316 128.283 201.641 127.316 201.663L127.687 202.318C128.642 202.217 129.744 201.875 130.699 201.153C131.442 200.607 131.996 199.869 132.432 199.075C132.49 198.983 132.554 198.868 132.652 198.72ZM128.074 197.443L127.442 197.514C127.524 197.826 127.656 199.004 127.664 199.437L128.309 199.378C128.27 198.937 128.14 197.817 128.074 197.443ZM140.48 199.177C140.557 198.892 140.851 198.722 141.129 198.796C141.415 198.873 141.584 199.167 141.508 199.453C141.433 199.731 141.139 199.901 140.853 199.824C140.575 199.75 140.406 199.456 140.48 199.177ZM140.125 199.082C140.102 199.167 140.095 199.256 140.097 199.34C140.002 199.323 139.917 199.3 139.848 199.281L135.968 198.242C135.713 198.174 135.418 198.07 135.21 197.981L135.026 198.669C135.229 198.715 135.496 198.77 135.805 198.852L139.754 199.91C139.454 200.625 138.803 201.602 138.066 202.158C137.203 202.813 136.154 203.236 134.556 203.205L134.926 203.926C136.466 203.866 137.578 203.394 138.523 202.678C139.347 202.046 140.059 200.903 140.439 200.135C140.455 200.107 140.471 200.078 140.477 200.055C140.561 200.11 140.658 200.153 140.758 200.18C141.237 200.308 141.735 200.027 141.863 199.548C141.992 199.069 141.703 198.569 141.224 198.441C140.745 198.313 140.253 198.603 140.125 199.082ZM145.422 200.858L145.256 201.476C146.081 201.796 147.58 202.198 148.432 202.327L148.6 201.701C147.796 201.61 146.227 201.222 145.422 200.858ZM144.88 204.083L144.338 203.88C144.152 204.236 144.033 204.494 143.963 204.757C143.768 205.483 144.232 206.071 145.53 206.419C146.326 206.632 146.993 206.737 147.505 206.775L147.664 206.121C147 206.093 146.389 205.995 145.693 205.809C144.642 205.527 144.479 205.119 144.574 204.763C144.63 204.555 144.726 204.349 144.88 204.083ZM144.105 199.867L143.434 199.621C143.388 199.791 143.311 199.986 143.233 200.155C142.968 200.772 142.359 202.025 142.055 203.161C141.775 204.204 141.668 205.128 141.676 205.718L142.243 205.828C142.256 205.749 142.277 205.639 142.292 205.552C142.307 205.465 142.37 205.324 142.424 205.214C142.591 204.87 143.088 204.125 143.436 203.63L143.178 203.296C142.962 203.578 142.652 203.992 142.428 204.304C142.483 203.913 142.546 203.582 142.648 203.204C142.88 202.338 143.49 201.019 143.827 200.348C143.895 200.217 144.031 199.988 144.105 199.867ZM88.6259 195.984L88.3446 195.519C88.2224 195.511 87.938 195.46 87.7912 195.421L83.3557 194.232C83.0698 194.155 82.7535 194.038 82.4934 193.926L82.305 194.63C82.6146 194.68 82.9124 194.743 83.1983 194.819L87.6029 196C87.2196 196.41 86.2675 197.058 85.4468 197.277L85.8471 197.823C86.8916 197.449 87.8928 196.649 88.3427 196.206C88.4196 196.136 88.5511 196.047 88.6259 195.984ZM85.2693 196.178L84.5739 195.991C84.5432 196.198 84.5054 196.371 84.4557 196.556C84.1099 197.846 83.6459 198.898 82.2514 199.311C81.9937 199.408 81.6978 199.461 81.4628 199.473L81.9104 200.09C84.1438 199.636 84.7082 198.272 85.2693 196.178ZM92.6844 197.899L92.0685 197.942C92.1376 198.333 92.2301 199.409 92.2219 199.78L92.8476 199.732C92.8382 199.365 92.7329 198.244 92.6844 197.899ZM95.3657 199.082L94.7571 198.695C94.3761 199.653 93.7113 200.527 92.9826 201.052C92.1357 201.678 90.9969 202.003 90.0301 202.025L90.4014 202.679C91.3559 202.579 92.4581 202.237 93.4133 201.515C94.1561 200.969 94.7099 200.231 95.1463 199.437C95.2041 199.345 95.2682 199.23 95.3657 199.082ZM90.7881 197.805L90.1562 197.876C90.2383 198.188 90.3698 199.366 90.3781 199.799L91.0233 199.74C90.9842 199.299 90.8536 198.179 90.7881 197.805ZM103.194 199.539C103.271 199.254 103.565 199.084 103.843 199.158C104.129 199.235 104.298 199.529 104.222 199.815C104.147 200.093 103.853 200.263 103.567 200.186C103.289 200.112 103.119 199.818 103.194 199.539ZM102.839 199.444C102.816 199.529 102.808 199.618 102.811 199.702C102.716 199.685 102.631 199.662 102.562 199.643L98.6824 198.604C98.4274 198.536 98.1323 198.432 97.9242 198.343L97.7399 199.03C97.9429 199.077 98.2098 199.132 98.5188 199.214L102.468 200.272C102.168 200.987 101.517 201.964 100.78 202.52C99.9173 203.175 98.8681 203.598 97.2696 203.567L97.6398 204.288C99.1797 204.228 100.292 203.756 101.237 203.04C102.061 202.408 102.773 201.265 103.153 200.497C103.169 200.469 103.185 200.44 103.191 200.417C103.275 200.472 103.372 200.515 103.472 200.542C103.951 200.67 104.449 200.389 104.577 199.91C104.706 199.431 104.417 198.931 103.938 198.803C103.459 198.675 102.967 198.965 102.839 199.444ZM110.782 200.894L110.325 200.962C110.457 201.303 110.593 201.845 110.665 202.196L111.132 202.122C111.055 201.762 110.901 201.224 110.782 200.894ZM111.715 200.812L111.258 200.88C111.398 201.224 111.535 201.733 111.615 202.111L112.082 202.037C112.012 201.712 111.839 201.152 111.715 200.812ZM108.604 200.707L107.957 200.277C107.857 200.466 107.667 200.713 107.552 200.831C107.028 201.428 105.968 202.353 104.426 202.793L104.853 203.33C105.853 203.002 106.678 202.486 107.326 201.955L109.93 202.653C109.587 203.315 108.838 204.191 108.055 204.735C107.13 205.373 105.978 205.81 104.444 205.846L104.872 206.507C106.462 206.353 107.577 205.899 108.511 205.229C109.424 204.571 110.175 203.654 110.593 202.93C110.664 202.817 110.789 202.66 110.88 202.568L110.453 202.122C110.317 202.135 110.141 202.113 109.932 202.057L107.838 201.496C107.929 201.404 108.019 201.313 108.103 201.219C108.217 201.101 108.427 200.875 108.604 200.707ZM112.723 207.774L113.068 208.281C113.212 208.237 113.339 208.229 113.43 208.229C115.503 208.188 117.352 207.656 118.69 206.681L118.487 206.047C117.195 207.035 115.129 207.574 113.554 207.55L114.728 203.168C114.788 202.944 114.888 202.664 114.97 202.48L114.205 202.275C114.195 202.437 114.14 202.796 114.086 202.996L112.902 207.417C112.861 207.571 112.811 207.665 112.723 207.774ZM120.354 206.498L120.151 207.255C120.397 207.296 120.81 207.39 121.235 207.504L125.478 208.641C125.825 208.734 126.142 208.852 126.294 208.901L126.497 208.144C126.323 208.114 126.038 208.062 125.652 207.959L121.418 206.824C120.985 206.708 120.581 206.575 120.354 206.498ZM132.956 207.498L132.48 207.577C132.641 207.993 132.767 208.482 132.853 208.936L133.347 208.853C133.267 208.442 133.073 207.835 132.956 207.498ZM133.995 207.362L133.516 207.449C133.688 207.859 133.825 208.335 133.924 208.801L134.415 208.7C134.325 208.295 134.123 207.686 133.995 207.362ZM128.909 211.755C128.832 212.041 128.715 212.416 128.618 212.655L129.36 212.853C129.403 212.6 129.491 212.176 129.558 211.929L130.239 209.387C131.024 209.887 132.224 210.755 132.937 211.435L133.383 210.85C132.674 210.221 131.36 209.281 130.425 208.691L130.763 207.432C130.825 207.2 130.937 206.874 131.032 206.643L130.267 206.438C130.249 206.69 130.172 207.041 130.114 207.258L128.909 211.755Z" fill="#929292"/>
<rect x="62.6133" y="167.695" width="100" height="1" transform="rotate(15 62.6133 167.695)" fill="#C7E2ED"/>
<g filter="url(#filter0_d_264_40074)">
<mask id="path-9-inside-1_264_40074" fill="white">
<path fill-rule="evenodd" clip-rule="evenodd" d="M202.505 123.314C225.425 123.314 244.005 104.734 244.005 81.8137C244.005 58.8939 225.425 40.3137 202.505 40.3137C179.585 40.3137 161.005 58.8939 161.005 81.8137C161.005 87.3978 162.108 92.7243 164.108 97.5872L146.75 117.359L173.955 111.933C181.394 118.987 191.444 123.314 202.505 123.314Z"/>
</mask>
<path fill-rule="evenodd" clip-rule="evenodd" d="M202.505 123.314C225.425 123.314 244.005 104.734 244.005 81.8137C244.005 58.8939 225.425 40.3137 202.505 40.3137C179.585 40.3137 161.005 58.8939 161.005 81.8137C161.005 87.3978 162.108 92.7243 164.108 97.5872L146.75 117.359L173.955 111.933C181.394 118.987 191.444 123.314 202.505 123.314Z" fill="white"/>
<path d="M164.108 97.5872L167.114 100.226L168.751 98.3611L167.807 96.0659L164.108 97.5872ZM146.75 117.359L143.744 114.72L135.957 123.591L147.532 121.282L146.75 117.359ZM173.955 111.933L176.708 109.031L175.204 107.605L173.173 108.01L173.955 111.933ZM240.005 81.8137C240.005 102.524 223.216 119.314 202.505 119.314V127.314C227.634 127.314 248.005 106.943 248.005 81.8137H240.005ZM202.505 44.3137C223.216 44.3137 240.005 61.103 240.005 81.8137H248.005C248.005 56.6848 227.634 36.3137 202.505 36.3137V44.3137ZM165.005 81.8137C165.005 61.103 181.794 44.3137 202.505 44.3137V36.3137C177.376 36.3137 157.005 56.6848 157.005 81.8137H165.005ZM167.807 96.0659C166.002 91.6772 165.005 86.8669 165.005 81.8137H157.005C157.005 87.9286 158.213 93.7713 160.408 99.1086L167.807 96.0659ZM149.756 119.998L167.114 100.226L161.102 94.9483L143.744 114.72L149.756 119.998ZM173.173 108.01L145.968 113.436L147.532 121.282L174.738 115.856L173.173 108.01ZM202.505 119.314C192.509 119.314 183.433 115.408 176.708 109.031L171.203 114.836C179.355 122.566 190.38 127.314 202.505 127.314V119.314Z" fill="#FFA800" mask="url(#path-9-inside-1_264_40074)"/>
</g>
<circle cx="184.75" cy="82.3135" r="4" fill="#4CCF8F"/>
<circle cx="196.75" cy="82.3135" r="4" fill="#4CCF8F"/>
<circle cx="208.75" cy="82.3135" r="4" fill="#4CCF8F"/>
<circle cx="220.75" cy="82.3135" r="4" fill="#4CCF8F"/>
<defs>
<filter id="filter0_d_264_40074" x="142.75" y="40.3137" width="105.255" height="91" filterUnits="userSpaceOnUse" color-interpolation-filters="sRGB">
<feFlood flood-opacity="0" result="BackgroundImageFix"/>
<feColorMatrix in="SourceAlpha" type="matrix" values="0 0 0 0 0 0 0 0 0 0 0 0 0 0 0 0 0 0 127 0" result="hardAlpha"/>
<feOffset dy="4"/>
<feGaussianBlur stdDeviation="2"/>
<feComposite in2="hardAlpha" operator="out"/>
<feColorMatrix type="matrix" values="0 0 0 0 0 0 0 0 0 0 0 0 0 0 0 0 0 0 0.25 0"/>
<feBlend mode="normal" in2="BackgroundImageFix" result="effect1_dropShadow_264_40074"/>
<feBlend mode="normal" in="SourceGraphic" in2="effect1_dropShadow_264_40074" result="shape"/>
</filter>
<linearGradient id="paint0_linear_264_40074" x1="152.873" y1="24.5472" x2="77.5053" y2="305.822" gradientUnits="userSpaceOnUse">
<stop stop-color="white"/>
<stop offset="1" stop-color="#C7EEFF"/>
</linearGradient>
</defs>
</svg>
