<svg width="270" height="330" viewBox="0 0 270 330" fill="none" xmlns="http://www.w3.org/2000/svg">
<path d="M211.084 84.6997L210.812 84.6267L218.484 55.9944C221.027 46.5007 215.394 36.7427 205.9 34.1989L101.707 6.28041C92.2131 3.73659 82.4551 9.37039 79.9112 18.8641L72.2392 47.4963L71.9666 47.4233C70.7276 47.0913 69.453 47.826 69.1206 49.0664L63.8135 68.873C63.4815 70.1121 64.2162 71.3866 65.4566 71.719L65.7292 71.792L64.4635 76.516L64.1908 76.4429C62.9518 76.1109 61.6772 76.8456 61.3449 78.086L56.0377 97.8927C55.7057 99.1317 56.4404 100.406 57.6808 100.739L57.9534 100.812L11.4774 274.263C8.93356 283.756 14.5674 293.514 24.0611 296.058L128.254 323.977C137.748 326.52 147.506 320.887 150.05 311.393L201.047 121.068L201.32 121.141C202.559 121.473 203.833 120.739 204.166 119.498L212.728 87.5443C213.06 86.3053 212.325 85.0307 211.085 84.6984L211.084 84.6997Z" fill="#414141"/>
<path d="M203.196 38.0312L180.355 31.911L178.65 38.2721C178.141 40.1738 176.168 41.313 174.266 40.8035L126.217 27.9288C124.315 27.4193 123.176 25.4461 123.686 23.5444L125.39 17.1833L102.55 11.0631C94.8388 8.99705 86.9136 13.5727 84.8475 21.2834L16.9619 274.636C14.8958 282.347 19.4714 290.272 27.1822 292.338L127.828 319.306C135.539 321.372 143.464 316.796 145.53 309.086L213.416 55.7332C215.482 48.0225 210.906 40.0973 203.196 38.0312Z" fill="url(#paint0_linear_264_40074)"/>
<circle cx="132.442" cy="111.866" r="33" transform="rotate(15 132.442 111.866)" fill="#4CCF8F" stroke="#C7F9E1" stroke-width="4"/>
<rect x="119.453" y="106.906" width="17.1121" height="4.66692" rx="2.33346" transform="rotate(60 119.453 106.906)" fill="white"/>
<rect x="150.912" y="108.503" width="31.1128" height="4.66692" rx="2.33346" transform="rotate(150 150.912 108.503)" fill="white"/>
<path d="M105.554 152.36C104.923 154.336 104.601 155.105 104.353 155.271C104.209 155.377 104.076 155.385 103.904 155.325C103.769 155.288 103.539 155.227 103.259 155.137L104.187 154.27C103.92 153.966 103.549 153.621 103.137 153.264C103.413 152.83 103.652 152.373 103.863 151.907L105.554 152.36ZM99.7927 152.44C100.226 152.716 100.686 153.056 101.128 153.407C100.545 153.961 99.7768 154.393 98.7241 154.589C98.9798 154.933 99.2577 155.572 99.3258 155.967C100.59 155.683 101.524 155.121 102.242 154.386C102.473 154.608 102.677 154.822 102.867 155.032C102.968 155.465 102.957 156.1 102.868 156.54C103.446 156.709 104.004 156.844 104.343 156.877C104.736 156.924 105.026 156.872 105.374 156.602C105.855 156.267 106.327 155.046 107.281 152.026C107.345 151.84 107.454 151.435 107.454 151.435L100.747 149.637L100.388 150.976L102.416 151.52C102.286 151.789 102.142 152.055 101.985 152.317C101.596 152.039 101.207 151.761 100.834 151.531L99.7927 152.44ZM100.637 156.377C101.368 157.109 102.193 158.142 102.504 158.819L103.78 158.06C103.422 157.34 102.566 156.372 101.82 155.694L100.637 156.377ZM99.7748 149.261L95.9208 148.228L95.5947 149.446L99.4487 150.478L99.7748 149.261ZM99.695 151.182L94.7861 149.867L94.4455 151.138L99.3544 152.453L99.695 151.182ZM98.8262 152.964L94.891 151.909L94.5613 153.14L98.4964 154.194L98.8262 152.964ZM94.0721 154.966L98.0073 156.02L98.3298 154.816L94.3946 153.762L94.0721 154.966ZM95.7472 159.154L94.4219 158.799L94.8386 157.244L96.1639 157.599L95.7472 159.154ZM97.8432 156.686L93.854 155.617L92.6184 160.229L93.9436 160.584L94.0849 160.056L96.749 160.77L96.9265 160.108L97.8443 161.064C98.7207 160.443 99.3084 159.224 99.7661 158.057L98.5819 157.391C98.1812 158.4 97.6515 159.403 96.97 159.945L97.8432 156.686ZM100.945 161.068C100.701 161.003 100.685 160.955 100.787 160.577L101.577 157.629L100.089 157.23L99.2955 160.192C98.9368 161.53 99.0741 162.045 100.345 162.386L101.454 162.683C102.414 162.94 102.926 162.599 103.549 160.868C103.173 160.651 102.599 160.251 102.394 159.935C102.02 161.168 101.918 161.329 101.661 161.26L100.945 161.068ZM103.166 158.837C103.55 160.056 103.72 161.638 103.605 162.607L105.181 162.406C105.242 161.422 105.043 159.891 104.602 158.671L103.166 158.837ZM113.325 152.892L109.511 151.87L109.185 153.087L112.999 154.109L113.325 152.892ZM109.667 161.405L109.254 162.947L107.955 162.599L108.369 161.057L109.667 161.405ZM111.387 160.504L107.357 159.424L106.121 164.035L107.474 164.398L107.615 163.87L110.292 164.588L111.387 160.504ZM107.582 158.745L111.477 159.789L111.803 158.572L107.908 157.528L107.582 158.745ZM112.307 156.692L108.412 155.648L108.09 156.852L111.984 157.895L112.307 156.692ZM107.954 154.815L112.971 156.16L113.312 154.888L108.295 153.544L107.954 154.815ZM116.045 164.593L117.045 160.86L119.385 161.487L119.791 159.973L117.451 159.346L118.306 156.154L120.713 156.799L121.123 155.271L114.158 153.405L113.749 154.933L116.724 155.73L114.463 164.169L113.435 163.893L115.153 157.483L113.652 157.081L111.934 163.491L111.109 163.27L110.707 164.771L118.307 166.808L118.709 165.306L116.045 164.593ZM123.853 158.278L132.048 160.474L131.595 162.165L133.313 162.625L134.168 159.433L129.205 158.104L129.553 156.805L127.849 156.349L127.501 157.647L122.619 156.339L121.764 159.53L123.401 159.969L123.853 158.278ZM130.78 162.772L131.172 161.312L124.207 159.446L123.816 160.906L130.78 162.772ZM128.7 168.317C128.214 168.187 128.147 168.111 128.263 167.678L128.991 164.96L132.697 165.953L133.102 164.438L121.053 161.21L120.648 162.724L123.852 163.583C123.2 165.205 122.402 166.238 119.341 166.085C119.599 166.53 119.84 167.305 119.89 167.768C123.524 167.785 124.717 166.307 125.61 164.054L127.368 164.525L126.633 167.27C126.242 168.731 126.497 169.292 128.066 169.712L129.797 170.176C131.081 170.52 131.625 170.115 132.326 168.201C131.936 167.981 131.301 167.535 131.042 167.205C130.611 168.597 130.485 168.795 130.039 168.676L128.7 168.317ZM146.29 162.174L145.869 162.177L136.646 159.706L136.222 161.288L144.065 163.39C143.193 163.939 142.152 164.471 141.171 164.832L140.265 164.589L138.624 170.715C138.562 170.945 138.45 170.987 138.152 170.907C137.837 170.838 136.728 170.541 135.796 170.233C135.92 170.744 136.026 171.541 135.99 172.053C137.288 172.401 138.255 172.631 138.997 172.569C139.725 172.503 140.071 172.132 140.321 171.199L141.607 166.398C143.519 165.809 145.716 164.586 147.297 163.444L146.29 162.174Z" fill="#1ED077"/>
<path d="M80.4903 183.509L80.177 183.102C80.043 183.108 79.8358 183.077 79.5808 183.009L76.5981 182.209C76.3662 182.147 75.9341 181.998 75.83 181.954L75.6416 182.657C75.7287 182.672 76.162 182.755 76.4324 182.828L79.4461 183.635C79.0811 184.225 78.2726 184.985 77.5877 185.44C76.5537 186.115 75.1636 186.728 73.7891 186.882L74.1449 187.532C75.4273 187.321 76.6983 186.75 77.7632 186.083C78.363 186.997 78.9378 188.129 79.2733 188.947L79.9384 188.629C79.5997 187.884 78.9262 186.626 78.3011 185.714C79.0361 185.165 79.7652 184.391 80.206 183.797C80.2814 183.702 80.4274 183.558 80.4903 183.509ZM86.4179 184.137L85.7747 183.724C85.6745 183.913 85.4784 184.15 85.3639 184.268C84.8123 184.874 83.7135 185.822 82.1628 186.293L82.5729 186.833C83.5978 186.47 84.4884 185.897 85.1693 185.334L87.7812 186.034C87.4569 186.626 86.8391 187.355 86.1567 187.893C85.7173 187.369 85.2371 186.843 84.8058 186.413L84.2746 186.726C84.6863 187.168 85.166 187.727 85.6147 188.278C84.7184 188.841 83.5388 189.287 82.1252 189.339L82.5532 189.967C83.9895 189.83 85.1305 189.374 86.0232 188.793C86.2717 189.133 86.5012 189.451 86.6771 189.722L87.2759 189.311C87.0824 189.044 86.8375 188.721 86.5771 188.395C87.3756 187.764 88.0352 186.972 88.4266 186.315C88.5061 186.204 88.6253 186.037 88.7238 185.947L88.2966 185.501C88.1529 185.513 87.9746 185.498 87.7659 185.442L85.6718 184.881C85.7585 184.805 85.8374 184.727 85.9086 184.646C86.0232 184.528 86.2327 184.302 86.4179 184.137ZM91.6498 185.969L91.0831 186.323C91.5514 186.862 92.2957 187.948 92.5744 188.453L93.1917 188.097C92.8749 187.548 92.1012 186.479 91.6498 185.969ZM89.598 190.969L89.8378 191.712C91.1924 191.818 92.2924 191.608 93.1956 191.328C94.5591 190.906 95.7448 190.098 96.5291 189.273L96.3342 188.516C95.6313 189.347 94.3821 190.238 92.9913 190.669C92.135 190.928 91.0041 191.13 89.598 190.969ZM103.686 188.59L103.229 188.658C103.361 188.999 103.493 189.524 103.565 189.874L103.454 189.762C103.318 189.775 103.134 189.751 102.926 189.695L100.839 189.136C100.918 189.057 100.997 188.979 101.066 188.907C101.183 188.78 101.393 188.555 101.578 188.389L100.935 187.977C100.834 188.165 100.638 188.403 100.524 188.521C99.9799 189.129 98.8713 190.082 97.3207 190.553L97.7328 191.086C98.7577 190.723 99.6483 190.15 100.327 189.595L102.939 190.294C102.615 190.887 101.999 191.608 101.315 192.153C100.875 191.63 100.397 191.096 99.9657 190.666L99.4325 190.986C99.8442 191.428 100.332 191.989 100.773 192.538C99.8839 193.103 98.6966 193.547 97.2851 193.591L97.711 194.227C99.1494 194.083 100.288 193.634 101.181 193.053C101.439 193.388 101.661 193.704 101.837 193.975L102.436 193.564C102.242 193.296 102.003 192.984 101.735 192.655C102.526 192.022 103.195 191.224 103.594 190.569C103.666 190.456 103.791 190.299 103.882 190.207L103.576 189.894L104.036 189.818C103.958 189.458 103.804 188.92 103.686 188.59ZM104.619 188.508L104.163 188.569C104.301 188.92 104.44 189.421 104.519 189.807L104.986 189.733C104.916 189.408 104.745 188.84 104.619 188.508ZM105.518 192.17L105.315 192.927C105.56 192.968 105.974 193.062 106.399 193.176L110.641 194.313C110.989 194.406 111.305 194.524 111.458 194.573L111.661 193.816C111.487 193.786 111.202 193.734 110.816 193.631L106.581 192.496C106.149 192.38 105.745 192.247 105.518 192.17ZM118.12 193.17L117.643 193.249C117.805 193.665 117.931 194.154 118.016 194.608L118.511 194.525C118.43 194.114 118.237 193.507 118.12 193.17ZM119.159 193.034L118.68 193.121C118.852 193.531 118.989 194.007 119.088 194.472L119.579 194.372C119.488 193.967 119.287 193.358 119.159 193.034ZM114.072 197.427C113.996 197.713 113.879 198.087 113.782 198.326L114.524 198.525C114.567 198.272 114.655 197.848 114.721 197.601L115.403 195.059C116.188 195.559 117.388 196.427 118.101 197.107L118.547 196.522C117.838 195.893 116.524 194.953 115.589 194.363L115.927 193.104C115.989 192.872 116.101 192.546 116.196 192.314L115.431 192.109C115.413 192.361 115.335 192.713 115.277 192.93L114.072 197.427ZM120.556 197.557L122.588 198.102C122.228 198.61 121.707 199.224 121.271 199.679C120.849 199.582 120.461 199.487 120.127 199.405L120.053 199.99C121.387 200.298 123.411 200.749 125.329 201.164C125.426 201.389 125.494 201.597 125.546 201.777L126.148 201.599C125.946 200.932 125.42 199.896 124.873 199.095L124.315 199.227C124.575 199.62 124.836 200.096 125.056 200.544C123.962 200.3 122.862 200.047 121.895 199.821C122.349 199.363 122.86 198.788 123.283 198.288L126.907 199.259L127.05 198.726L120.698 197.024L120.556 197.557ZM122.405 195.908L122.265 196.433L125.92 197.413L126.061 196.887L122.405 195.908ZM124.525 193.933C123.667 194.755 122.086 195.524 120.595 195.804C120.687 195.953 120.778 196.201 120.805 196.349C122.292 196.052 123.828 195.328 124.702 194.569C125.154 195.758 126.231 197.148 127.266 198.047C127.412 197.904 127.604 197.74 127.773 197.636C126.694 196.809 125.619 195.444 125.112 194.091L124.525 193.933ZM134.038 198.147L130.383 197.168L130.599 196.364L134.254 197.343L134.038 198.147ZM134.973 197.039L130.151 195.747L129.687 197.478L134.509 198.77L134.973 197.039ZM129.193 200.311L133.482 201.46L133.333 202.016L129.044 200.867L129.193 200.311ZM129.448 199.36L133.737 200.51L133.592 201.05L129.303 199.901L129.448 199.36ZM129.703 198.41L133.991 199.559L133.846 200.1L129.558 198.951L129.703 198.41ZM133.806 202.599L134.692 199.291L129.245 197.832L128.358 201.139L129.803 201.526C129.239 201.715 128.147 201.803 127.294 201.773C127.402 201.926 127.536 202.169 127.605 202.312C128.447 202.322 129.543 202.218 130.263 202.005L129.834 201.534L133.806 202.599ZM131.585 202.418C132.333 202.875 133.262 203.546 133.77 203.972L134.376 203.687C133.839 203.278 132.913 202.624 132.179 202.179L131.585 202.418ZM139.664 199.315L139.498 199.933C140.323 200.254 141.822 200.655 142.674 200.784L142.842 200.158C142.038 200.067 140.469 199.68 139.664 199.315ZM139.122 202.541L138.581 202.338C138.394 202.693 138.275 202.951 138.205 203.214C138.01 203.941 138.474 204.529 139.772 204.876C140.568 205.09 141.236 205.194 141.747 205.232L141.906 204.579C141.243 204.55 140.631 204.452 139.936 204.266C138.885 203.984 138.721 203.576 138.816 203.221C138.872 203.012 138.969 202.806 139.122 202.541ZM138.347 198.324L137.676 198.078C137.631 198.248 137.554 198.443 137.475 198.612C137.21 199.229 136.601 200.482 136.297 201.618C136.017 202.661 135.911 203.585 135.918 204.175L136.485 204.286C136.498 204.206 136.519 204.096 136.534 204.009C136.549 203.922 136.612 203.781 136.666 203.671C136.833 203.327 137.331 202.582 137.678 202.088L137.42 201.753C137.204 202.035 136.894 202.449 136.67 202.761C136.725 202.37 136.789 202.04 136.89 201.661C137.122 200.795 137.732 199.476 138.069 198.805C138.138 198.674 138.273 198.445 138.347 198.324ZM92.4896 197.019L92.2083 196.554C92.0861 196.547 91.8017 196.495 91.6549 196.456L87.2194 195.267C86.9335 195.191 86.6172 195.073 86.3571 194.962L86.1687 195.665C86.4783 195.715 86.7761 195.778 87.062 195.855L91.4666 197.035C91.0833 197.446 90.1312 198.093 89.3105 198.312L89.7108 198.859C90.7553 198.484 91.7565 197.684 92.2064 197.241C92.2833 197.171 92.4148 197.082 92.4896 197.019ZM89.133 197.213L88.4376 197.027C88.4069 197.234 88.3691 197.406 88.3194 197.591C87.9736 198.882 87.5096 199.933 86.1151 200.347C85.8574 200.443 85.5615 200.496 85.3265 200.508L85.7741 201.125C88.0076 200.671 88.5719 199.307 89.133 197.213ZM96.5481 198.935L95.9322 198.977C96.0013 199.368 96.0938 200.445 96.0856 200.815L96.7113 200.767C96.7019 200.401 96.5966 199.279 96.5481 198.935ZM99.2294 200.117L98.6208 199.73C98.2398 200.688 97.5751 201.562 96.8463 202.087C95.9994 202.714 94.8606 203.038 93.8938 203.06L94.2651 203.715C95.2196 203.614 96.3218 203.272 97.277 202.551C98.0198 202.004 98.5736 201.266 99.01 200.472C99.0678 200.38 99.1319 200.265 99.2294 200.117ZM94.6518 198.841L94.0199 198.912C94.102 199.224 94.2335 200.402 94.2418 200.835L94.887 200.776C94.8479 200.334 94.7173 199.214 94.6518 198.841ZM107.058 200.575C107.134 200.289 107.428 200.119 107.706 200.194C107.992 200.27 108.162 200.564 108.085 200.85C108.011 201.128 107.717 201.298 107.431 201.221C107.153 201.147 106.983 200.853 107.058 200.575ZM106.702 200.479C106.679 200.565 106.672 200.654 106.675 200.737C106.58 200.72 106.495 200.697 106.425 200.679L102.546 199.639C102.291 199.571 101.996 199.467 101.788 199.378L101.604 200.066C101.807 200.112 102.073 200.167 102.383 200.25L106.331 201.308C106.032 202.023 105.381 202.999 104.644 203.556C103.781 204.211 102.732 204.633 101.133 204.603L101.504 205.323C103.043 205.264 104.156 204.791 105.101 204.076C105.925 203.443 106.637 202.301 107.016 201.533C107.032 201.504 107.048 201.475 107.055 201.452C107.139 201.508 107.235 201.55 107.336 201.577C107.815 201.705 108.313 201.424 108.441 200.945C108.569 200.466 108.281 199.967 107.802 199.838C107.323 199.71 106.831 200 106.702 200.479ZM110.16 201.298L109.988 201.94C110.193 201.978 110.45 202.039 110.705 202.107L113.371 202.821C113.595 202.881 113.864 202.962 114.084 203.037L114.256 202.396C114.023 202.367 113.749 202.31 113.525 202.25L110.851 201.533C110.604 201.467 110.378 201.382 110.16 201.298ZM108.729 202.994L108.557 203.635C108.77 203.675 108.994 203.735 109.225 203.798L111.544 204.419C111.324 205.147 111.065 205.773 110.582 206.215C110.15 206.621 109.474 206.92 108.805 207.006L109.263 207.584C110.011 207.42 110.747 207.021 111.162 206.586C111.626 206.089 111.938 205.419 112.185 204.591L114.287 205.154C114.472 205.204 114.718 205.277 114.885 205.331L115.057 204.689C114.864 204.671 114.607 204.61 114.444 204.567L109.383 203.21C109.143 203.146 108.931 203.073 108.729 202.994ZM114.825 201.878L114.37 201.938C114.5 202.287 114.639 202.821 114.708 203.18L115.175 203.106C115.106 202.748 114.946 202.2 114.825 201.878ZM115.758 201.796L115.303 201.856C115.448 202.21 115.58 202.709 115.659 203.095L116.126 203.021C116.055 202.696 115.884 202.128 115.758 201.796ZM116.49 205.463L116.287 206.22C116.533 206.261 116.947 206.355 117.372 206.469L121.614 207.606C121.962 207.699 122.278 207.817 122.43 207.866L122.633 207.109C122.459 207.079 122.175 207.027 121.788 206.924L117.554 205.789C117.121 205.673 116.718 205.54 116.49 205.463ZM125.319 210.686C125.242 210.972 125.126 211.346 125.021 211.583L125.77 211.784C125.808 211.521 125.904 211.099 125.968 210.86C126.028 210.635 126.341 209.469 126.644 208.307C127.429 208.808 128.627 209.684 129.347 210.365L129.786 209.779C129.084 209.152 127.765 208.202 126.828 207.62C126.958 207.133 127.079 206.685 127.165 206.36C127.228 206.128 127.348 205.804 127.435 205.571L126.678 205.368C126.66 205.62 126.582 205.972 126.524 206.188L125.319 210.686Z" fill="#929292"/>
<rect x="62.6133" y="167.695" width="100" height="1" transform="rotate(15 62.6133 167.695)" fill="#C7E2ED"/>
<g filter="url(#filter0_d_264_40074)">
<mask id="path-9-inside-1_264_40074" fill="white">
<path fill-rule="evenodd" clip-rule="evenodd" d="M202.505 123.314C225.425 123.314 244.005 104.734 244.005 81.8137C244.005 58.8939 225.425 40.3137 202.505 40.3137C179.585 40.3137 161.005 58.8939 161.005 81.8137C161.005 87.3978 162.108 92.7243 164.108 97.5872L146.75 117.359L173.955 111.933C181.394 118.987 191.444 123.314 202.505 123.314Z"/>
</mask>
<path fill-rule="evenodd" clip-rule="evenodd" d="M202.505 123.314C225.425 123.314 244.005 104.734 244.005 81.8137C244.005 58.8939 225.425 40.3137 202.505 40.3137C179.585 40.3137 161.005 58.8939 161.005 81.8137C161.005 87.3978 162.108 92.7243 164.108 97.5872L146.75 117.359L173.955 111.933C181.394 118.987 191.444 123.314 202.505 123.314Z" fill="white"/>
<path d="M164.108 97.5872L167.114 100.226L168.751 98.3611L167.807 96.0659L164.108 97.5872ZM146.75 117.359L143.744 114.72L135.957 123.591L147.532 121.282L146.75 117.359ZM173.955 111.933L176.708 109.031L175.204 107.605L173.173 108.01L173.955 111.933ZM240.005 81.8137C240.005 102.524 223.216 119.314 202.505 119.314V127.314C227.634 127.314 248.005 106.943 248.005 81.8137H240.005ZM202.505 44.3137C223.216 44.3137 240.005 61.103 240.005 81.8137H248.005C248.005 56.6848 227.634 36.3137 202.505 36.3137V44.3137ZM165.005 81.8137C165.005 61.103 181.794 44.3137 202.505 44.3137V36.3137C177.376 36.3137 157.005 56.6848 157.005 81.8137H165.005ZM167.807 96.0659C166.002 91.6772 165.005 86.8669 165.005 81.8137H157.005C157.005 87.9286 158.213 93.7713 160.408 99.1086L167.807 96.0659ZM149.756 119.998L167.114 100.226L161.102 94.9483L143.744 114.72L149.756 119.998ZM173.173 108.01L145.968 113.436L147.532 121.282L174.738 115.856L173.173 108.01ZM202.505 119.314C192.509 119.314 183.433 115.408 176.708 109.031L171.203 114.836C179.355 122.566 190.38 127.314 202.505 127.314V119.314Z" fill="#FFA800" mask="url(#path-9-inside-1_264_40074)"/>
</g>
<circle cx="184.75" cy="82.3135" r="4" fill="#4CCF8F"/>
<circle cx="196.75" cy="82.3135" r="4" fill="#4CCF8F"/>
<circle cx="208.75" cy="82.3135" r="4" fill="#4CCF8F"/>
<circle cx="220.75" cy="82.3135" r="4" fill="#4CCF8F"/>
<defs>
<filter id="filter0_d_264_40074" x="142.75" y="40.3137" width="105.255" height="91" filterUnits="userSpaceOnUse" color-interpolation-filters="sRGB">
<feFlood flood-opacity="0" result="BackgroundImageFix"/>
<feColorMatrix in="SourceAlpha" type="matrix" values="0 0 0 0 0 0 0 0 0 0 0 0 0 0 0 0 0 0 127 0" result="hardAlpha"/>
<feOffset dy="4"/>
<feGaussianBlur stdDeviation="2"/>
<feComposite in2="hardAlpha" operator="out"/>
<feColorMatrix type="matrix" values="0 0 0 0 0 0 0 0 0 0 0 0 0 0 0 0 0 0 0.25 0"/>
<feBlend mode="normal" in2="BackgroundImageFix" result="effect1_dropShadow_264_40074"/>
<feBlend mode="normal" in="SourceGraphic" in2="effect1_dropShadow_264_40074" result="shape"/>
</filter>
<linearGradient id="paint0_linear_264_40074" x1="152.873" y1="24.5472" x2="77.5053" y2="305.822" gradientUnits="userSpaceOnUse">
<stop stop-color="white"/>
<stop offset="1" stop-color="#C7EEFF"/>
</linearGradient>
</defs>
</svg>
