<svg width="1920" height="160" viewBox="0 0 1920 160" fill="none" xmlns="http://www.w3.org/2000/svg">
<mask id="mask0_264_45814" style="mask-type:alpha" maskUnits="userSpaceOnUse" x="0" y="0" width="1920" height="160">
<rect width="1920" height="160" fill="#6D6BE3"/>
</mask>
<g mask="url(#mask0_264_45814)">
<path opacity="0.5" d="M516 16.9091C283 -25.534 59.1737 48.4095 -9.49902 70.4095L0.000274658 227.021H1922V58.9092C1922 58.9092 1882.22 14.2335 1728 23.4092C1509.5 36.4092 1406.5 135.409 1189 135.409C942 135.409 724.61 54.9092 516 16.9091Z" fill="#0199DE"/>
<path d="M601.5 61.9084C392.891 23.9084 68.6727 102.022 0 124.022V255.022H1922V106.409C1922 106.409 1882.49 67.9093 1728 67.9092C1524.49 67.909 1428.5 139.908 1211 139.908C964 139.908 810.109 99.9084 601.5 61.9084Z" fill="#0199DE"/>
</g>
</svg>
