<svg width="1920" height="160" viewBox="0 0 1920 160" fill="none" xmlns="http://www.w3.org/2000/svg">
<mask id="mask0_264_46382" style="mask-type:alpha" maskUnits="userSpaceOnUse" x="0" y="0" width="1920" height="160">
<rect width="1920" height="160" transform="matrix(1 0 0 -1 0 160)" fill="#0199DE"/>
</mask>
<g mask="url(#mask0_264_46382)">
<path opacity="0.5" d="M1588.5 105.5C1780.05 65.4861 1849.5 48.5 1946.5 76.2601L1922.5 -49.9998L0.000143253 -50L0.000126097 120.083C0.000126097 120.083 192.55 63.244 357.092 76.2601C575.131 93.5082 787.704 160 1005.26 160C1252.32 160 1347.92 155.756 1588.5 105.5Z" fill="#0199DE"/>
<path d="M1582 69.2323C1696 39.7141 1868.5 -31.4606 1997 39.7141L1922 -73.9999L2.28979e-05 -74L4.59725e-06 107.425C4.59725e-06 107.425 214 34.9398 378 39.7141C581.391 45.635 813 153 1030.5 153C1277.5 153 1378.81 121.846 1582 69.2323Z" fill="#0199DE"/>
</g>
</svg>
