<svg width="70" height="70" viewBox="0 0 70 70" fill="none" xmlns="http://www.w3.org/2000/svg">
<g filter="url(#filter0_d_1307_20261)">
<path d="M65 35C65 51.5762 51.5762 65 35 65C18.4238 65 5 51.5762 5 35C5 18.4238 18.4238 5 35 5C51.5762 5 65 18.4238 65 35Z" fill="url(#paint0_linear_1307_20261)"/>
<path d="M35.0002 57.0401C47.1727 57.0401 57.0405 47.1724 57.0405 35C57.0405 22.8275 47.1727 12.9598 35.0002 12.9598C22.8277 12.9598 12.96 22.8275 12.96 35C12.96 47.1724 22.8277 57.0401 35.0002 57.0401Z" fill="url(#paint1_linear_1307_20261)"/>
<path d="M34.9993 16.795C46.5055 16.795 55.8575 25.6479 56.8295 36.9177C58.0116 23.2837 47.2936 12.9859 34.9993 12.9859C22.7051 12.9859 11.9608 23.2574 13.1692 36.9177C14.1412 25.6479 23.4932 16.795 34.9993 16.795Z" fill="#D48031"/>
<path opacity="0.53" d="M38.4938 34.7373L47.2679 22.9948L42.1716 19.1857L35.2364 28.4589L27.8809 19.1332L22.8896 23.0736L32.1103 34.7899V35.972H26.4361V41.5674H32.1628C32.1628 60.14 32.1628 34.4746 32.1628 53.4938H38.5201C38.5201 34.5534 38.5201 60.7442 38.5201 41.5674H44.2469V35.972H38.5201V34.7373H38.4938Z" fill="#FFF297"/>
</g>
<defs>
<filter id="filter0_d_1307_20261" x="0" y="0" width="70" height="70" filterUnits="userSpaceOnUse" color-interpolation-filters="sRGB">
<feFlood flood-opacity="0" result="BackgroundImageFix"/>
<feColorMatrix in="SourceAlpha" type="matrix" values="0 0 0 0 0 0 0 0 0 0 0 0 0 0 0 0 0 0 127 0" result="hardAlpha"/>
<feOffset/>
<feGaussianBlur stdDeviation="2.5"/>
<feComposite in2="hardAlpha" operator="out"/>
<feColorMatrix type="matrix" values="0 0 0 0 0 0 0 0 0 0 0 0 0 0 0 0 0 0 0.5 0"/>
<feBlend mode="normal" in2="BackgroundImageFix" result="effect1_dropShadow_1307_20261"/>
<feBlend mode="normal" in="SourceGraphic" in2="effect1_dropShadow_1307_20261" result="shape"/>
</filter>
<linearGradient id="paint0_linear_1307_20261" x1="35.0053" y1="29.5493" x2="35.0053" y2="66.5236" gradientUnits="userSpaceOnUse">
<stop stop-color="#FFF297"/>
<stop offset="1" stop-color="#FAC823"/>
</linearGradient>
<linearGradient id="paint1_linear_1307_20261" x1="35.0057" y1="58.2714" x2="35.0057" y2="24.4359" gradientUnits="userSpaceOnUse">
<stop stop-color="#F6AA39"/>
<stop offset="1" stop-color="#FAC823"/>
</linearGradient>
</defs>
</svg>
