<svg width="44" height="44" viewBox="0 0 44 44" fill="none" xmlns="http://www.w3.org/2000/svg">
<path d="M22.8536 20.8893C22.8536 21.3418 22.455 21.7378 21.9993 21.7378C21.5437 21.7378 21.1451 21.3418 21.1451 20.8893V13.5365L18.7531 15.912C18.4114 16.2514 17.8419 16.2514 17.5002 15.912C17.1585 15.5726 17.1585 15.007 17.5002 14.6677L21.3729 10.8781C21.6576 10.5953 22.2272 10.5953 22.5119 10.8781L26.4416 14.7242C26.7833 15.0636 26.7833 15.6292 26.4416 15.9686C26.0999 16.3079 25.5303 16.3079 25.1886 15.9686L22.7967 13.593V20.8893H22.8536ZM29.1183 26.5454C29.6308 26.5454 29.9725 26.9413 29.9725 27.3938C29.9725 27.8463 29.5739 28.2422 29.1183 28.2422C28.6627 28.2422 28.264 27.8463 28.264 27.3938C28.264 26.9413 28.6627 26.5454 29.1183 26.5454ZM14.4818 30.0522C14.197 30.0522 13.9692 29.8259 13.9692 29.5431C13.9692 29.2603 14.197 29.0341 14.4818 29.0341H29.46C29.46 29.0341 29.9725 29.2603 29.9725 29.5431C29.9725 29.8259 29.7447 30.0522 29.46 30.0522H14.4818ZM12.8871 23.378H31.0546C31.6811 23.378 32.2506 23.6043 32.6493 24.0567C33.0479 24.4527 33.3327 25.0183 33.3327 25.6404V31.0703C33.3327 31.6924 33.1049 32.258 32.6493 32.654C32.2506 33.0499 31.6811 33.3327 31.0546 33.3327H12.8871C12.2607 33.3327 11.6911 33.1064 11.2925 32.654C10.8938 32.258 10.666 31.6924 10.666 31.0703V25.6404C10.666 25.0183 10.8938 24.4527 11.2925 24.0567C11.6911 23.6608 12.2607 23.378 12.8871 23.378ZM31.0546 25.0748H12.8871C12.8871 25.0748 12.6024 25.1314 12.5454 25.2445C12.4885 25.3576 12.4315 25.4708 12.4315 25.5839V31.0137C12.4315 31.0137 12.4885 31.2965 12.5454 31.3531C12.6593 31.4096 12.7732 31.5227 12.8871 31.5227H31.0546C31.0546 31.5227 31.3394 31.4662 31.3963 31.3531C31.5102 31.2399 31.5672 31.1268 31.5672 31.0137V25.5839C31.5672 25.5839 31.5672 25.3011 31.3963 25.2445C31.2824 25.188 31.1685 25.0748 31.0546 25.0748Z" fill="#969696"/>
<circle cx="22" cy="22" r="20.5" stroke="#969696" stroke-width="3"/>
</svg>
