<svg width="16" height="18" viewBox="0 0 16 18" fill="none" xmlns="http://www.w3.org/2000/svg">
<g clip-path="url(#clip0_4407_13700)">
<path d="M7.97878 13.6315C8.3183 13.6315 8.61538 13.9286 8.61538 14.2681C8.61538 14.6076 8.3183 14.9047 7.97878 14.9047C7.63926 14.9047 7.34218 14.6076 7.34218 14.2681C7.34218 13.9286 7.63926 13.6315 7.97878 13.6315ZM3.35279 3.0214C3.69231 3.0214 3.98939 3.31848 3.98939 3.658C3.98939 3.99752 3.69231 4.29461 3.35279 4.29461C3.01326 4.29461 2.71618 3.99752 2.71618 3.658C2.71618 3.31848 3.01326 3.0214 3.35279 3.0214ZM12.6472 3.0214C12.9867 3.0214 13.2838 3.31848 13.2838 3.658C13.2838 3.99752 12.9867 4.29461 12.6472 4.29461C12.3077 4.29461 12.0106 3.99752 12.0106 3.658C12.0106 3.31848 12.3077 3.0214 12.6472 3.0214ZM7.97878 12.5705C8.99735 11.7641 9.80371 10.7455 10.3979 9.59965C11.0769 8.36888 11.5013 7.01079 11.6286 5.61026C11.5013 5.48293 11.374 5.39805 11.2891 5.22829C11.2891 5.22829 11.0769 4.97365 10.9496 4.84633H5.00796C5.00796 4.84633 4.79576 5.10097 4.66844 5.22829C4.54111 5.35561 4.41379 5.48293 4.32891 5.61026C4.49867 7.01079 4.92308 8.36888 5.60212 9.59965C6.19629 10.7455 7.04509 11.7641 8.02122 12.5705H7.97878ZM11.0769 9.93917C10.3554 11.2548 9.42175 12.4431 8.19098 13.3344C8.19098 13.3344 7.85146 13.4617 7.72414 13.3344C6.53581 12.4007 5.55968 11.2124 4.8382 9.89673C4.11671 8.53864 3.64987 7.01079 3.48011 5.44049C3.48011 5.31317 3.48011 5.18585 3.60743 5.10097C3.77719 4.97365 3.90451 4.80389 4.07427 4.67657H4.11671C4.11671 4.67657 4.37135 4.37949 4.49867 4.20973C4.58355 4.12484 4.66844 4.03996 4.79576 4.03996H11.1618C11.1618 4.03996 11.374 4.0824 11.4589 4.20973C11.5862 4.37949 11.7135 4.54925 11.8408 4.67657C11.8408 4.67657 12.1379 4.97365 12.3077 5.10097C12.3077 5.10097 12.4775 5.31317 12.435 5.44049C12.2653 7.01079 11.7984 8.53864 11.0769 9.89673V9.93917ZM7.97878 15.7959C12.2653 13.589 14.6844 8.87816 14.6844 4.16728V3.74288C13.7082 3.4458 12.9443 2.59699 12.6897 1.57843H3.2679C3.0557 2.59699 2.29178 3.40336 1.27321 3.74288V4.16728C1.27321 8.87816 3.73475 13.589 7.97878 15.7959V15.7959ZM8.27586 17.1116C8.27586 17.1116 7.8939 17.1965 7.72414 17.1116C2.8435 14.8198 0 9.51477 0 4.20973C0 4.0824 0 3.95508 0 3.74288C0 3.57312 0 3.40336 0 3.27604C0 2.97896 0.254642 2.68187 0.551724 2.63943C1.35809 2.55455 1.99469 1.83307 1.99469 1.0267H2.03714C2.03714 0.644738 2.33422 0.347656 2.67374 0.347656H13.2838C13.6233 0.347656 13.9204 0.644739 13.9204 0.984261C13.9204 1.79063 14.557 2.51211 15.3634 2.63943C15.6605 2.63943 15.9151 2.93652 15.9151 3.2336C15.9151 3.36092 15.9151 3.53068 15.9151 3.70044C15.9151 3.91264 15.9151 4.0824 15.9151 4.16728C15.9151 9.47232 13.0716 14.7349 8.19098 17.0691L8.27586 17.1116Z" fill="#999999"/>
</g>
<defs>
<clipPath id="clip0_4407_13700">
<rect width="16" height="16.8488" fill="white" transform="translate(0 0.347656)"/>
</clipPath>
</defs>
</svg>
